<?xml version="1.0" encoding="UTF-8"?>
<svg width="323px" height="67px" viewBox="0 0 323 67" version="1.1" xmlns="http://www.w3.org/2000/svg" xmlns:xlink="http://www.w3.org/1999/xlink">
    <!-- Generator: Sketch 53.2 (72643) - https://sketchapp.com -->
    <title>Artboard</title>
    <desc>Created with Sketch.</desc>
    <g id="Artboard" stroke="none" stroke-width="1" fill="none" fill-rule="evenodd">
        <g id="pop-figure-3" transform="translate(42.000000, 0.500000)" fill-rule="nonzero">
            <path d="M9.97932328,36.9612798 L20.699502,36.9612798 L20.699502,37.7021352 L9.97932328,37.7021352 L9.97932328,36.9612798 Z M25.092775,36.9612798 L35.8129538,36.9612798 L35.8129538,37.7021352 L25.092775,37.7021352 L25.092775,36.9612798 Z M9.97932328,28.4414418 L20.699502,28.4414418 L20.699502,29.1822973 L9.97932328,29.1822973 L9.97932328,28.4414418 Z M25.092775,28.4414418 L35.8129538,28.4414418 L35.8129538,29.1822973 L25.092775,29.1822973 L25.092775,28.4414418 Z M9.97932328,19.9216038 L20.699502,19.9216038 L20.699502,20.6624593 L9.97932328,20.6624593 L9.97932328,19.9216038 Z M25.092775,19.9216038 L35.8129538,19.9216038 L35.8129538,20.6624593 L25.092775,20.6624593 L25.092775,19.9216038 Z" id="Shape" fill="#736F7F"></path>
            <path d="M41.4879067,50.252227 L4.32659599,50.252227 C4.12366941,50.2482856 3.96010968,50.0847259 3.95616825,49.8817993 L3.95616825,1.64469916 C3.95616825,1.44011757 4.1220144,1.27427142 4.32659599,1.27427142 L32.5235555,1.27427142 C32.6202103,1.27369078 32.7132639,1.31091223 32.7828549,1.37799119 L41.7175719,10.3201168 C41.7895374,10.3870015 41.8298979,10.4811759 41.8287003,10.5794162 L41.8287003,49.8817993 C41.8293205,50.0753455 41.6808336,50.2367443 41.4879067,50.252227 L41.4879067,50.252227 Z M4.72665795,49.5113716 L41.0878448,49.5113716 L41.0878448,10.7349959 L32.3679758,2.0151269 L4.69702373,2.0151269 L4.72665795,49.5113716 Z" id="Shape" fill="#736F7F"></path>
            <path d="M41.4879067,10.949844 L32.5235555,10.949844 C32.3189739,10.949844 32.1531277,10.7839978 32.1531277,10.5794162 L32.1531277,1.64469916 L32.8939832,1.64469916 L32.8939832,10.2089885 L41.4879067,10.2089885 L41.4879067,10.949844 Z M71.7074017,60.5501182 L72.6705138,60.5501182 L72.6705138,62.4392996 L74.730092,62.4392996 L74.730092,60.5501182 L75.6932041,60.5501182 L75.6932041,65.2841847 L74.730092,65.2841847 L74.730092,63.3579604 L72.6705138,63.3579604 L72.6705138,65.2841847 L71.7074017,65.2841847 L71.7074017,60.5501182 Z M79.2715361,60.5501182 L80.138337,60.5501182 L82.1830981,65.2841847 L81.1681261,65.2841847 L80.7087957,64.2025357 L78.6936688,64.2025357 L78.2343384,65.2841847 L77.2341835,65.2841847 L79.2715361,60.5501182 Z M80.3531851,63.3579604 L79.7012323,61.816981 L79.0492794,63.3579604 L80.3531851,63.3579604 Z M83.9833769,63.8987849 C84.2095897,64.2445306 84.5926329,64.4554819 85.0057575,64.4618351 C85.3910023,64.4618351 85.6428932,64.2692127 85.6428932,64.0025047 C85.6428932,63.7357967 85.4502708,63.5431743 84.9835318,63.3875947 L84.5834699,63.2468321 C83.8426144,62.9801241 83.4129182,62.5059766 83.4129182,61.8910666 C83.4121219,61.4816781 83.5868439,61.0915847 83.8928252,60.8196013 C84.1988066,60.5476179 84.6066943,60.419836 85.013166,60.4686241 C85.5806631,60.4565574 86.1239506,60.6983203 86.494877,61.1279854 L85.8503327,61.7873468 C85.6475184,61.5275411 85.335339,61.3769282 85.0057575,61.3798763 C84.6797811,61.3798763 84.3760303,61.5206388 84.3760303,61.7947554 C84.3760303,62.0688719 84.6056955,62.2096344 85.1168858,62.3948483 L85.4947221,62.5282023 C86.1451621,62.6888536 86.606869,63.2659872 86.6208224,63.9358277 C86.6092631,64.3525594 86.4226818,64.7451412 86.1068515,65.0172628 C85.7910213,65.2893844 85.3751662,65.4158661 84.9613062,65.3656788 C84.2800793,65.3943163 83.6305734,65.0765323 83.2351129,64.5211035 L83.9833769,63.8987849 Z M88.391467,60.5501182 L89.3619877,60.5501182 L89.3619877,62.4392996 L91.4141574,62.4392996 L91.4141574,60.5501182 L92.384678,60.5501182 L92.384678,65.2841847 L91.4141574,65.2841847 L91.4141574,63.3579604 L89.3619877,63.3579604 L89.3619877,65.2841847 L88.391467,65.2841847 L88.391467,60.5501182 Z M94.4368477,60.5501182 L95.3999598,60.5501182 L95.3999598,65.2841847 L94.4368477,65.2841847 L94.4368477,60.5501182 Z M100.852656,65.2841847 L98.4226502,62.2318601 L98.4226502,65.3212274 L97.4595381,65.3212274 L97.4595381,60.5501182 L98.2892962,60.5501182 L100.756345,63.6394855 L100.756345,60.5501182 L101.719457,60.5501182 L101.719457,65.2841847 L100.852656,65.2841847 Z M106.031236,65.3656788 C105.361864,65.3980741 104.708397,65.1551116 104.22278,64.6932853 C103.737162,64.231459 103.461709,63.5910096 103.460467,62.9208557 C103.452219,62.2628162 103.712032,61.6297368 104.180159,61.1671992 C104.648286,60.7046617 105.28444,60.4524723 105.942333,60.4686241 C106.655536,60.4343644 107.349929,60.7035092 107.85374,61.2094795 L107.179562,61.8762495 C106.858836,61.5373387 106.408744,61.3513725 105.942333,61.3650592 C105.105595,61.3855174 104.443868,62.0804127 104.464327,62.9171514 C104.484785,63.7538901 105.17968,64.4156163 106.016419,64.3951581 C106.365522,64.4169523 106.712684,64.3288662 107.009165,64.1432672 L107.009165,63.3579604 L105.994193,63.3579604 L105.994193,62.4541167 L107.950052,62.4541167 L107.950052,64.6766832 C107.429099,65.1549967 106.737463,65.4033448 106.031236,65.3656788 L106.031236,65.3656788 Z M113.639822,60.5501182 L114.499214,60.5501182 L116.543975,65.2841847 L115.573454,65.2841847 L115.106716,64.2025357 L113.098997,64.2025357 L112.610033,65.2841847 L111.609878,65.2841847 L113.639822,60.5501182 Z M114.721471,63.3579604 L114.091744,61.816981 L113.439791,63.3579604 L114.721471,63.3579604 Z M118.070137,60.5501182 L119.040658,60.5501182 L119.040658,64.3655239 L121.063194,64.3655239 L121.063194,65.2841847 L118.099772,65.2841847 L118.070137,60.5501182 Z M124.811922,65.3656788 C124.143803,65.3959886 123.49229,65.1520958 123.008315,64.6905005 C122.524339,64.2289052 122.249896,63.5896613 122.248562,62.9208557 C122.238205,62.2621844 122.497346,61.6278642 122.965944,61.1648616 C123.434542,60.7018591 124.071929,60.4503562 124.730428,60.4686241 C125.443936,60.4324755 126.139072,60.701908 126.641835,61.2094795 L125.967657,61.8762495 C125.646931,61.5373387 125.196838,61.3513725 124.730428,61.3650592 C123.893689,61.3855174 123.231963,62.0804127 123.252422,62.9171514 C123.27288,63.7538901 123.967775,64.4156163 124.804514,64.3951581 C125.155961,64.4170217 125.505502,64.328989 125.804669,64.1432672 L125.804669,63.3579604 L124.782288,63.3579604 L124.782288,62.4541167 L126.738147,62.4541167 L126.738147,64.6766832 C126.215363,65.1568848 125.520668,65.4053719 124.811922,65.3656788 L124.811922,65.3656788 Z M130.775809,65.3656788 C129.782632,65.3686748 128.885721,64.7723087 128.504263,63.8553028 C128.122805,62.938297 128.332136,61.8817541 129.034422,61.1794687 C129.736707,60.4771832 130.79325,60.267852 131.710256,60.6493097 C132.627262,61.0307674 133.223628,61.9276786 133.220632,62.9208557 C133.216564,64.2694056 132.124359,65.3616107 130.775809,65.3656788 L130.775809,65.3656788 Z M130.775809,64.4322009 C131.594135,64.4322009 132.25752,63.7688163 132.25752,62.9504899 C132.25752,62.1321636 131.594135,61.468779 130.775809,61.468779 C129.957483,61.468779 129.294098,62.1321636 129.294098,62.9504899 C129.288145,63.3473008 129.441622,63.7299148 129.720144,64.0126152 C129.998667,64.2953155 130.378953,64.4544712 130.775809,64.4544265 L130.775809,64.4322009 Z M134.991277,60.5501182 L136.806372,60.5501182 C137.193924,60.5184695 137.576679,60.652927 137.859294,60.9199981 C138.141909,61.1870692 138.297781,61.5616139 138.288083,61.950335 C138.304232,62.5449817 137.892455,63.0659429 137.310154,63.1875637 L139.014122,65.2841847 L137.799119,65.2841847 L136.176645,63.2912834 L135.939572,63.2912834 L135.939572,65.2841847 L134.969051,65.2841847 L134.991277,60.5501182 Z M136.695244,62.4689339 C137.058263,62.4689339 137.302746,62.2689029 137.302746,61.950335 C137.302746,61.6317672 137.058263,61.4391447 136.695244,61.4391447 L135.954389,61.4391447 L135.954389,62.4689339 L136.695244,62.4689339 Z M140.369887,60.5501182 L141.332999,60.5501182 L141.332999,65.2841847 L140.369887,65.2841847 L140.369887,60.5501182 Z M144.266787,61.4910046 L142.985107,61.4910046 L142.985107,60.5501182 L146.496762,60.5501182 L146.496762,61.4910046 L145.207674,61.4910046 L145.207674,65.3064103 L144.237153,65.3064103 L144.266787,61.4910046 Z M148.171095,60.5501182 L149.134208,60.5501182 L149.134208,62.4392996 L151.193786,62.4392996 L151.193786,60.5501182 L152.156898,60.5501182 L152.156898,65.2841847 L151.193786,65.2841847 L151.193786,63.3579604 L149.134208,63.3579604 L149.134208,65.2841847 L148.171095,65.2841847 L148.171095,60.5501182 Z M155.186997,62.2318601 L155.186997,65.3138189 L154.216476,65.3138189 L154.216476,60.5501182 L155.098094,60.5501182 L156.639074,62.6615563 L158.180053,60.5501182 L159.061671,60.5501182 L159.061671,65.2841847 L158.09115,65.2841847 L158.09115,62.2318601 L156.609439,64.2321699 L155.186997,62.2318601 Z M3.54869774,62.1429574 C3.54514058,62.5740188 3.36620969,62.9850475 3.05312201,63.2813627 C2.74003433,63.5776778 2.31978591,63.7337295 1.88918147,63.7135711 L1.28167998,63.7135711 L1.28167998,65.261959 L0.311159301,65.261959 L0.311159301,60.5501182 L1.88918147,60.5501182 C2.32305864,60.5319398 2.74554814,60.6916964 3.05884417,60.9924047 C3.37214021,61.2931129 3.54907839,61.7086998 3.54869774,62.1429574 L3.54869774,62.1429574 Z M2.60781128,62.1429574 C2.60853687,61.9514358 2.52864982,61.7684461 2.38770209,61.6387742 C2.24675436,61.5091023 2.05775324,61.4447149 1.8669558,61.4613704 L1.27427142,61.4613704 L1.27427142,62.831953 L1.8669558,62.831953 C2.05849528,62.8464118 2.24737519,62.780256 2.38803317,62.6494441 C2.52869115,62.5186322 2.60835623,62.3350411 2.60781128,62.1429574 L2.60781128,62.1429574 Z M5.25266534,60.5501182 L6.21577746,60.5501182 L6.21577746,64.3655239 L8.24572146,64.3655239 L8.24572146,65.2841847 L5.28229955,65.2841847 L5.25266534,60.5501182 Z M11.4462171,60.5501182 L12.3056095,60.5501182 L14.3577792,65.2841847 L13.3353986,65.2841847 L12.8760682,64.2025357 L10.8683499,64.2025357 L10.4090195,65.2841847 L9.40886456,65.2841847 L11.4462171,60.5501182 Z M12.5278661,63.3579604 L11.8536876,61.816981 L11.1943263,63.3579604 L12.5278661,63.3579604 Z M15.8839414,60.5501182 L16.8470536,60.5501182 L16.8470536,65.2841847 L15.8839414,65.2841847 L15.8839414,60.5501182 Z M22.2923413,65.2841847 L19.8697439,62.2318601 L19.8697439,65.3212274 L18.8992232,65.3212274 L18.8992232,60.5501182 L19.7363899,60.5501182 L22.1589873,63.6394855 L22.1589873,60.5501182 L23.129508,60.5501182 L23.129508,65.2841847 L22.2923413,65.2841847 Z M28.3525391,61.4910046 L27.0930848,61.4910046 L27.0930848,60.5501182 L30.6047398,60.5501182 L30.6047398,61.4910046 L29.3304684,61.4910046 L29.3304684,65.3064103 L28.3525391,65.3064103 L28.3525391,61.4910046 Z M32.2716646,60.5501182 L35.2350865,60.5501182 L35.2350865,61.4910046 L33.2347767,61.4910046 L33.2347767,62.4689339 L34.8202074,62.4689339 L34.8202074,63.3875947 L33.2347767,63.3875947 L33.2347767,64.3877495 L35.2202694,64.3877495 L35.2202694,65.3064103 L32.2568475,65.3064103 L32.2716646,60.5501182 Z M38.8578698,63.6468941 L37.6206411,65.2841847 L36.4871323,65.2841847 L38.272594,62.8912215 L36.590852,60.5501182 L37.7095438,60.5501182 L38.8578698,62.1355489 L40.0061958,60.5501182 L41.117479,60.5501182 L39.4357371,62.8912215 L41.2211988,65.2841847 L40.0876899,65.2841847 L38.8578698,63.6468941 Z M43.5771192,61.4910046 L42.3176649,61.4910046 L42.3176649,60.5501182 L45.8219113,60.5501182 L45.8219113,61.4910046 L44.5550484,61.4910046 L44.5550484,65.3064103 L43.5771192,65.3064103 L43.5771192,61.4910046 Z M153.557115,50.252227 L78.5306806,50.252227 C78.326099,50.252227 78.1602529,50.0863809 78.1602529,49.8817993 L78.1602529,1.64469916 C78.1602529,1.44011757 78.326099,1.27427142 78.5306806,1.27427142 L153.557115,1.27427142 C153.761696,1.27427142 153.927543,1.44011757 153.927543,1.64469916 L153.927543,49.8817993 C153.923601,50.0847259 153.760041,50.2482856 153.557115,50.252227 L153.557115,50.252227 Z M78.9159255,49.5113716 L153.186687,49.5113716 L153.186687,2.0151269 L78.9159255,2.0151269 L78.9159255,49.5113716 Z" id="Shape" fill="#736F7F"></path>
            <path d="M145.207674,22.5960921 C145.234607,22.0119081 145.017191,21.4428695 144.607581,21.0254785 C144.153313,20.6084086 143.54874,20.3944004 142.933247,20.4327941 C142.610964,20.4294648 142.291204,20.489892 141.992361,20.6105994 C141.710157,20.7266623 141.457151,20.9037667 141.251505,21.1291982 C141.039165,21.3638823 140.875487,21.6383569 140.769949,21.9367307 C140.648664,22.2637849 140.588398,22.6103124 140.592144,22.9591112 L140.592144,24.5223163 L140.762541,24.5223163 C141.000253,24.0857395 141.357468,23.7259543 141.79233,23.4851186 C142.244675,23.2317205 142.755588,23.1014377 143.274041,23.1072823 C143.731693,23.1044424 144.186053,23.1847713 144.614989,23.3443561 C145.013854,23.4910841 145.375547,23.7237815 145.674413,24.0259431 C145.976038,24.3381033 146.210522,24.7087403 146.363408,25.1150007 C146.542541,25.5879297 146.628089,26.0911557 146.615299,26.5967116 L146.615299,26.7819255 C146.62011,27.2727689 146.524298,27.7593928 146.333774,28.2117766 C146.164129,28.6282891 145.912143,29.0062669 145.592918,29.3230598 C145.259873,29.6468615 144.86402,29.8989972 144.429775,30.0639153 C143.490848,30.3997337 142.464549,30.3997337 141.525622,30.0639153 C141.095741,29.8947137 140.70312,29.6430337 140.369887,29.3230598 C140.051369,29.0113983 139.799341,28.638397 139.629032,28.2265937 C139.441806,27.7812361 139.348489,27.3020371 139.354915,26.8189683 L139.354915,22.9665198 C139.351751,22.4590301 139.44737,21.9557739 139.63644,21.4848088 C139.816327,21.049864 140.083616,20.656494 140.421747,20.3290743 C140.753143,20.0103525 141.143087,19.7587755 141.570073,19.5882188 C142.01882,19.4141059 142.496365,19.3261371 142.977699,19.3289194 C143.454266,19.3231472 143.928162,19.4008762 144.377915,19.5585846 C145.211959,19.8218286 145.887124,20.4400524 146.222646,21.2477351 C146.405427,21.6786199 146.496266,22.1429102 146.489354,22.6109092 L145.207674,22.5960921 Z M142.985107,29.1600716 C143.321924,29.164631 143.656465,29.1042626 143.970445,28.9822663 C144.250112,28.8752791 144.502978,28.7083872 144.7113,28.4933017 C144.921756,28.2826569 145.085791,28.0302943 145.192856,27.7524462 C145.305685,27.444093 145.360931,27.117642 145.355845,26.7893341 L145.355845,26.6115288 C145.360547,26.2819175 145.300123,25.9546212 145.178039,25.6484166 C145.064332,25.3704663 144.895476,25.1184424 144.681666,24.9075612 C144.470106,24.6964145 144.218129,24.5301101 143.940811,24.4185965 C143.637606,24.293487 143.313102,24.228083 142.985107,24.2259741 C142.660488,24.2233986 142.338449,24.2837811 142.036812,24.4037794 C141.759525,24.5187287 141.507734,24.6874285 141.295957,24.9001526 C141.079481,25.1103477 140.908072,25.3624199 140.792175,25.6410081 C140.666981,25.9231172 140.60382,26.2288186 140.606961,26.5374432 L140.606961,26.8263768 C140.605572,27.1429864 140.663363,27.4570672 140.777358,27.7524462 C140.882599,28.0312219 141.04687,28.2839476 141.258914,28.4933017 C141.466611,28.7091397 141.719656,28.8761498 141.999769,28.9822663 C142.313948,29.103555 142.648351,29.1638985 142.985107,29.1600716 L142.985107,29.1600716 Z" id="Shape" fill="#B4B1BD"></path>
            <polygon id="Path" fill="#8F8B9B" points="140.258759 7.15666391 145.652187 7.15666391 145.652187 12.5500918 140.258759 12.5500918"></polygon>
            <path d="M91.8660792,22.5664578 C91.8737302,22.2525573 91.8024007,21.9417644 91.6586397,21.6626142 C91.5283041,21.4081902 91.3406228,21.1875379 91.1104066,21.0180699 C90.8691587,20.8406656 90.5982102,20.7077001 90.3102827,20.6254165 C90.0023594,20.5350488 89.6828916,20.4901236 89.3619877,20.4920625 C89.0840158,20.4903526 88.8071858,20.5277621 88.5396381,20.6031908 C88.276335,20.6700629 88.0259736,20.7802219 87.7987826,20.9291672 C87.6013482,21.0659685 87.434779,21.2426328 87.309818,21.4477661 C87.1824749,21.6732472 87.1208769,21.9299055 87.1320127,22.1886215 L87.1320127,22.2256643 C87.1256915,22.4838929 87.1869863,22.7392879 87.309818,22.9665198 C87.4447924,23.1805545 87.6273325,23.3605593 87.843234,23.4925272 C88.1183331,23.654873 88.4152008,23.7771127 88.724852,23.8555464 C89.1317949,23.9626084 89.5450019,24.0442601 89.9620806,24.1000287 C90.8508295,24.1830234 91.6969447,24.5199264 92.3994951,25.0705494 C92.9270145,25.5660928 93.2135315,26.2661676 93.184802,26.989365 L93.184802,27.1745789 C93.1891188,27.5986755 93.1085111,28.0193468 92.9477282,28.4118076 C92.796661,28.7844926 92.5607458,29.1168033 92.2587326,29.3823282 C91.924181,29.6678911 91.5364277,29.8844287 91.1178152,30.0194639 C90.6117765,30.1757386 90.0841526,30.2507562 89.5546101,30.2417206 C88.9469906,30.2526183 88.3423188,30.1547669 87.7691484,29.952787 C87.2849377,29.774409 86.8433372,29.4968316 86.4726513,29.1378459 C86.1290397,28.7891667 85.8616196,28.3728996 85.6873445,27.9154344 C85.5028867,27.4279022 85.4099592,26.9105222 85.413228,26.3892721 L85.413228,25.9373503 L86.6800909,25.9373503 L86.6800909,26.3003694 C86.6136587,27.0666662 86.8841072,27.8239221 87.4209463,28.3747648 C88.0077065,28.872127 88.7648641,29.1218562 89.5323844,29.0711689 C90.1655719,29.1151159 90.7936013,28.9311743 91.303029,28.5525701 C91.6967308,28.2049924 91.9141762,27.6994317 91.8957134,27.1745789 L91.8957134,27.0782677 C91.9164981,26.583289 91.6885299,26.110672 91.2882119,25.8188134 C90.6831191,25.4601146 90.0039388,25.244703 89.3027193,25.1890862 C88.814357,25.1263781 88.3330905,25.0172248 87.8654596,24.8631098 C87.4737832,24.7335655 87.1059144,24.5408723 86.7764021,24.2926511 C86.4837432,24.0659617 86.2478563,23.7742736 86.0874065,23.4406673 C85.9541801,23.076016 85.9035722,22.6863349 85.9392354,22.2997499 L85.9392354,22.114536 C85.9361395,21.7240262 86.0249659,21.3382661 86.1985348,20.9884357 C86.3792146,20.6426203 86.6318256,20.3394871 86.9393903,20.0994091 C87.2667703,19.8376019 87.6415739,19.6413959 88.0432649,19.5215418 C88.4982915,19.377263 88.9735873,19.3072194 89.4508903,19.3141023 C89.9904503,19.3073451 90.5270273,19.395103 91.0363211,19.5734017 C91.4682086,19.724791 91.8677974,19.9559996 92.2142813,20.2549888 C92.5344076,20.5303504 92.7877433,20.8748869 92.9551368,21.2625522 C93.1176687,21.6469418 93.2008279,22.0602178 93.1996191,22.4775552 L93.1996191,23.1072823 L91.8660792,23.1072823 L91.8660792,22.5664578 Z" id="Path" fill="#B4B1BD"></path>
            <circle id="Oval" fill="#FFE000" cx="89.3619877" cy="9.85337785" r="3.08936734"></circle>
            <path d="M128.908853,25.092775 L128.908853,19.5289504 L135.495058,19.5289504 L135.495058,20.699502 L130.138673,20.699502 L130.138673,24.4482308 L130.323887,24.4482308 C130.427827,24.2403693 130.557237,24.0462545 130.709132,23.8703635 C130.874759,23.6807675 131.066894,23.5160802 131.279591,23.3813989 C131.763411,23.0650721 132.33155,22.9023778 132.909473,22.9146599 C133.364778,22.9110553 133.816847,22.9914231 134.243013,23.1517337 C134.635626,23.3022476 134.991715,23.534589 135.287619,23.8333207 C135.585488,24.1327889 135.817626,24.4910888 135.969206,24.8853355 C136.1435,25.3208934 136.229135,25.7868504 136.221097,26.2559181 L136.221097,26.5226261 C136.224421,27.0075054 136.141643,27.4891249 135.976614,27.9450686 C135.813786,28.3891201 135.561643,28.7950714 135.235759,29.1378459 C134.920854,29.496546 134.531499,29.7822418 134.094841,29.9750126 C133.587127,30.1815854 133.042611,30.2824217 132.494594,30.2713548 C131.942094,30.2812517 131.392378,30.1908874 130.87212,30.0046468 C130.428526,29.8408814 130.022755,29.5888494 129.679343,29.2637914 C129.352734,28.9444628 129.09988,28.5575959 128.938487,28.1302825 C128.766268,27.6760705 128.680825,27.193571 128.686596,26.70784 L128.686596,26.2855523 L129.953459,26.2855523 L129.953459,26.6189373 C129.900099,27.313337 130.154771,27.9960747 130.649863,28.4858931 C131.157631,28.920744 131.81194,29.1459109 132.479776,29.1156203 C132.845258,29.1234296 133.207671,29.047399 133.5392,28.8933636 C133.826102,28.7549909 134.079036,28.555173 134.280055,28.3080878 C134.488946,28.0551228 134.64512,27.7629255 134.739386,27.4486954 C134.841427,27.1201739 134.891422,26.7777058 134.887557,26.4337234 L134.887557,26.3448208 C134.889661,26.0463497 134.836926,25.7500305 134.731977,25.4706113 C134.63591,25.1975516 134.487428,24.9458873 134.294872,24.7297558 C134.105786,24.526289 133.876112,24.36476 133.620694,24.2556083 C133.347562,24.1357833 133.052142,24.0751843 132.753893,24.077803 C132.557656,24.0749333 132.362326,24.1049841 132.176026,24.1667057 C132.012227,24.2230314 131.857495,24.3028927 131.716695,24.4037794 C131.588574,24.4910563 131.477996,24.6016343 131.390719,24.7297558 C131.313508,24.8319468 131.255748,24.9474659 131.220322,25.0705494 L128.908853,25.092775 Z" id="Path" fill="#B4B1BD"></path>
            <circle id="Oval" fill="#FFE000" cx="132.457551" cy="9.85337785" r="3.08936734"></circle>
            <path d="M113.08418,27.4116527 L108.57237,27.4116527 L107.831515,30.0342811 L106.475749,30.0342811 L109.646611,19.5289504 L112.024757,19.5289504 L115.217844,30.0639153 L113.862078,30.0639153 L113.08418,27.4116527 Z M110.735668,20.0401407 L108.905755,26.2707352 L112.728569,26.2707352 L110.906065,20.0697749 L110.735668,20.0401407 Z" id="Shape" fill="#B4B1BD"></path>
            <polygon id="Path" fill="#D0CED5" points="108.135265 7.15666391 113.528693 7.15666391 113.528693 12.5500918 108.135265 12.5500918"></polygon>
            <path d="M125.523144,28.8933636 L125.523144,30.0713238 L118.388705,30.0713238 L118.388705,28.2562279 C118.378676,27.8237129 118.462066,27.394124 118.633188,26.9967736 C118.791674,26.6451005 119.024157,26.3317536 119.314775,26.0781128 C119.638896,25.8092054 120.004094,25.5940886 120.396424,25.4409771 C120.860207,25.2561958 121.338446,25.1099982 121.826275,25.0038724 C122.53446,24.8900104 123.200834,24.5938441 123.759908,24.14448 C124.14575,23.7943772 124.361774,23.2948216 124.352592,22.7738974 L124.352592,22.6849947 C124.35232,22.4151969 124.307256,22.1473162 124.219238,21.8922794 C124.129207,21.619674 123.985637,21.3677956 123.79695,21.1514239 C123.58873,20.9326099 123.336132,20.7608435 123.056095,20.6476422 C122.719082,20.515003 122.358696,20.4519984 121.996671,20.4624283 C121.322423,20.4218007 120.664307,20.6790887 120.196393,21.166241 C119.75554,21.6914004 119.528131,22.3630506 119.559257,23.0480139 L119.559257,23.7073753 L118.292394,23.7073753 L118.292394,22.9665198 C118.291102,22.493877 118.373885,22.0247717 118.536876,21.5811201 C118.699931,21.1437567 118.952233,20.7451191 119.277732,20.4105684 C119.60226,20.0583565 119.999015,19.7803747 120.440875,19.5956274 C120.945215,19.3856905 121.487509,19.2822764 122.033714,19.2918766 C122.577959,19.2806902 123.119116,19.3763365 123.626554,19.5734017 C124.050143,19.7420448 124.435587,19.9939691 124.760062,20.3142572 C125.051081,20.6134633 125.277969,20.9689198 125.426832,21.3588634 C125.573099,21.7344016 125.648458,22.133807 125.649089,22.5368236 L125.649089,22.8109402 C125.672103,23.5643211 125.407179,24.2981619 124.908233,24.8631098 C124.252773,25.5090682 123.410157,25.9316725 122.500453,26.0707043 C121.742156,26.2023 121.018662,26.4871599 120.374198,26.9078709 C119.927217,27.2669164 119.677059,27.8167129 119.700019,28.3895819 L119.700019,28.8933636 L125.523144,28.8933636 Z" id="Path" fill="#B4B1BD"></path>
            <polygon id="Path" fill="#736F7F" points="121.959629 7.07516981 118.744316 12.6389944 125.174941 12.6389944 121.959629 7.07516981"></polygon>
            <polygon id="Path" fill="#B4B1BD" points="96.3112121 19.5289504 97.5780749 19.5289504 97.5780749 24.1889313 102.060251 24.1889313 102.060251 19.5289504 103.327113 19.5289504 103.327113 30.0639153 102.089885 30.0639153 102.089885 25.3668915 97.6077092 25.3668915 97.6077092 30.0639153 96.3112121 30.0639153"></polygon>
            <polygon id="Path" fill="#8F8B9B" points="99.8525013 7.07516981 96.6371885 12.6389944 103.060405 12.6389944 99.8525013 7.07516981"></polygon>
            <circle id="Oval" fill="#FFE000" cx="110.854205" cy="39.4505542" r="3.08936734"></circle>
            <polygon id="Path" fill="#8F8B9B" points="96.777951 36.7538402 102.171379 36.7538402 102.171379 42.1472681 96.777951 42.1472681"></polygon>
            <polygon id="Path" fill="#736F7F" points="89.1026883 36.6723461 85.8947841 42.2361708 92.318001 42.2361708 89.1026883 36.6723461"></polygon>
            <circle id="Oval" fill="#FFE000" cx="132.457551" cy="39.4505542" r="3.08936734"></circle>
            <polygon id="Path" fill="#736F7F" points="143.244407 36.6723461 140.029094 42.2361708 146.459719 42.2361708"></polygon>
            <polygon id="Path" fill="#D0CED5" points="119.381452 36.7538402 124.77488 36.7538402 124.77488 42.1472681 119.381452 42.1472681"></polygon>
            <path d="M78.6195833,31.5011749 L75.0116171,31.5011749 C74.8070355,31.5011749 74.6411894,31.3353288 74.6411894,31.1307472 L74.6411894,20.3883427 C74.6411894,20.1837611 74.8070355,20.017915 75.0116171,20.017915 L78.6195833,20.017915 L78.6195833,20.7587705 L75.3820448,20.7587705 L75.3820448,30.7603194 L78.6195833,30.7603194 L78.6195833,31.5011749 Z M157.150264,31.5011749 L153.542298,31.501175 L153.542298,30.7603194 L156.779836,30.7603194 L156.779836,20.7439534 L153.542298,20.7439534 L153.542298,20.0030979 L157.150264,20.0030979 C157.354845,20.0030979 157.520692,20.168944 157.520692,20.3735256 L157.520692,31.1159301 C157.524726,31.2167149 157.487488,31.3147868 157.417577,31.387494 C157.347666,31.4602012 157.251129,31.5012556 157.150264,31.5011749 L157.150264,31.5011749 Z" id="Shape" fill="#736F7F"></path>
            <polygon id="Path" fill="#B4B1BD" points="69.0255048 25.759545 65.8398263 23.9222234 65.8398263 27.6042751"></polygon>
            <path d="M47.5999644,25.3891172 L66.2472968,25.3891172 L66.2472968,26.1299727 L47.5999644,26.1299727 L47.5999644,25.3891172 Z M183.865512,25.759545 L180.672425,23.9222234 L180.672425,27.6042751 L183.865512,25.759545 Z" id="Shape" fill="#B4B1BD"></path>
            <polygon id="Path" fill="#B4B1BD" points="162.432563 25.3891172 181.079896 25.3891172 181.079896 26.1299727 162.432563 26.1299727"></polygon>
            <path d="M199.779088,60.5501182 L201.342293,60.5501182 C202.219552,60.5010203 203.052023,60.9411292 203.505442,61.6937281 C203.958862,62.446327 203.958862,63.3879758 203.505442,64.1405747 C203.052023,64.8931736 202.219552,65.3332825 201.342293,65.2841847 L199.779088,65.2841847 L199.779088,60.5501182 Z M201.342293,64.4025667 C202.160619,64.4025667 202.824004,63.7391821 202.824004,62.9208557 C202.824004,62.1025293 202.160619,61.4391447 201.342293,61.4391447 L200.771834,61.4391447 L200.771834,64.4025667 L201.342293,64.4025667 Z M205.557761,60.5501182 L206.520873,60.5501182 L206.520873,65.2841847 L205.557761,65.2841847 L205.557761,60.5501182 Z M210.869695,65.3656788 C210.200323,65.3980741 209.546856,65.1551116 209.061238,64.6932853 C208.575621,64.231459 208.300167,63.5910096 208.298926,62.9208557 C208.290609,62.2614964 208.551428,61.6272367 209.021185,61.1644705 C209.490941,60.7017043 210.12904,60.4504227 210.7882,60.4686241 C211.501403,60.4343644 212.195797,60.7035092 212.699608,61.2094795 L212.025429,61.8762495 C211.704703,61.5373387 211.254611,61.3513725 210.7882,61.3650592 C209.951462,61.3855174 209.289736,62.0804127 209.310194,62.9171514 C209.330652,63.7538901 210.025547,64.4156163 210.862286,64.3951581 C211.211389,64.4169523 211.558552,64.3288662 211.855032,64.1432672 L211.855032,63.3579604 L210.832652,63.3579604 L210.832652,62.4541167 L212.795919,62.4541167 L212.795919,64.6766832 C212.272692,65.1561498 211.578317,65.4045224 210.869695,65.3656788 L210.869695,65.3656788 Z M214.662875,60.5501182 L217.626297,60.5501182 L217.626297,61.4910046 L215.648212,61.4910046 L215.648212,62.4689339 L217.226235,62.4689339 L217.226235,63.3875947 L215.648212,63.3875947 L215.648212,64.3877495 L217.626297,64.3877495 L217.626297,65.3064103 L214.662875,65.3064103 L214.662875,60.5501182 Z M219.841454,63.8987849 C220.071835,64.2437442 220.456501,64.4540651 220.871243,64.4618351 C221.24908,64.4618351 221.500971,64.2692127 221.500971,64.0025047 C221.500971,63.7357967 221.308348,63.5431743 220.841609,63.3875947 L220.441547,63.2468321 C219.700692,62.9801241 219.278404,62.5059766 219.278404,61.8910666 C219.277608,61.4816781 219.45233,61.0915847 219.758311,60.8196013 C220.064293,60.5476179 220.47218,60.419836 220.878652,60.4686241 C221.446572,60.4544488 221.99072,60.6965949 222.360363,61.1279854 L221.723227,61.7873468 C221.519687,61.5284433 221.20798,61.3780583 220.878652,61.3798763 C220.552676,61.3798763 220.241516,61.5206388 220.241516,61.7947554 C220.241516,62.0688719 220.47859,62.2096344 220.982372,62.3948483 L221.367617,62.5282023 C222.1243,62.7009605 222.609254,63.4407445 222.465857,64.2035366 C222.32246,64.9663286 221.601963,65.4795004 220.834201,65.3656788 C220.150964,65.394124 219.499323,65.0766575 219.100599,64.5211035 L219.841454,63.8987849 Z M225.064485,61.4910046 L223.805031,61.4910046 L223.805031,60.5501182 L227.309278,60.5501182 L227.309278,61.4910046 L226.035006,61.4910046 L226.035006,65.3064103 L225.064485,65.3064103 L225.064485,61.4910046 Z" id="Shape" fill="#736F7F"></path>
            <circle id="Oval" fill="#FFE000" cx="214.292447" cy="25.159452" r="24.4482308"></circle>
        </g>
    </g>
</svg>