<?xml version="1.0" encoding="UTF-8"?>
<svg width="500px" height="216px" viewBox="0 0 500 216" version="1.1" xmlns="http://www.w3.org/2000/svg" xmlns:xlink="http://www.w3.org/1999/xlink">
    <!-- Generator: Sketch 53.2 (72643) - https://sketchapp.com -->
    <title>v  copy 6</title>
    <desc>Created with Sketch.</desc>
    <g id="v--copy-6" stroke="none" stroke-width="1" fill="none" fill-rule="evenodd">
        <path d="M146.470588,210.508021 C146.474711,211.031578 146.263928,211.533915 145.887443,211.897767 C145.510958,212.261618 145.001721,212.455139 144.47861,212.433155 L143.743316,212.433155 L143.743316,214.291444 L142.580214,214.291444 L142.580214,208.596257 L144.47861,208.596257 C144.999391,208.574386 145.506523,208.766107 145.882589,209.12703 C146.258656,209.487953 146.471047,209.986781 146.470588,210.508021 L146.470588,210.508021 Z M145.334225,210.508021 C145.334993,210.279639 145.23996,210.0614 145.072241,209.906387 C144.904521,209.751373 144.679486,209.673792 144.451872,209.692513 L143.743316,209.692513 L143.743316,211.336898 L144.451872,211.336898 C144.680813,211.3517 144.905649,211.270951 145.072861,211.113874 C145.240073,210.956796 145.334703,210.73744 145.334225,210.508021 L145.334225,210.508021 Z" id="Shape" fill="#736F7F" fill-rule="nonzero"></path>
        <path d="M148.529412,208.596257 L150.708556,208.596257 C151.167707,208.569927 151.616901,208.737083 151.947144,209.057165 C152.277387,209.377247 152.458496,209.821 152.446524,210.280749 C152.468635,210.991563 151.978935,211.616353 151.283422,211.764706 L153.328877,214.291444 L151.991979,214.291444 L149.973262,211.925134 L149.73262,211.925134 L149.73262,214.318182 L148.582888,214.318182 L148.529412,208.596257 Z M150.561497,210.895722 C151.002674,210.895722 151.296791,210.668449 151.296791,210.280749 C151.296791,209.893048 151.002674,209.665775 150.561497,209.665775 L149.73262,209.665775 L149.73262,210.895722 L150.561497,210.895722 Z" id="Shape" fill="#736F7F" fill-rule="nonzero"></path>
        <path d="M157.406417,214.385027 C155.78205,214.385027 154.465241,213.068217 154.465241,211.44385 C154.465241,209.819483 155.78205,208.502674 157.406417,208.502674 C159.030784,208.502674 160.347594,209.819483 160.347594,211.44385 C160.347594,213.068217 159.030784,214.385027 157.406417,214.385027 Z M157.406417,213.262032 C158.146281,213.283802 158.82549,212.854885 159.123837,212.177492 C159.422183,211.500098 159.280105,210.70946 158.764585,210.178318 C158.249065,209.647176 157.463019,209.481566 156.777023,209.759563 C156.091028,210.03756 155.642031,210.703666 155.641711,211.44385 C155.634567,211.918986 155.816489,212.377494 156.147447,212.718481 C156.478405,213.059468 156.93128,213.254993 157.406417,213.262032 Z" id="Shape" fill="#736F7F" fill-rule="nonzero"></path>
        <path d="M165.093583,214.385027 C163.469216,214.385027 162.152406,213.068217 162.152406,211.44385 C162.152406,209.819483 163.469216,208.502674 165.093583,208.502674 C166.71795,208.502674 168.034759,209.819483 168.034759,211.44385 C168.038334,212.224989 167.72961,212.975168 167.177255,213.527522 C166.624901,214.079877 165.874722,214.388602 165.093583,214.385027 L165.093583,214.385027 Z M165.093583,213.262032 C165.8324,213.278333 166.507585,212.845833 166.801685,212.167878 C167.095786,211.489924 166.950286,210.701406 166.433596,210.173061 C165.916906,209.644716 165.131828,209.481667 164.447484,209.760575 C163.763139,210.039482 163.315688,210.704853 163.315508,211.44385 C163.308054,212.435472 164.102041,213.247369 165.093583,213.262032 Z" id="Shape" fill="#736F7F" fill-rule="nonzero"></path>
        <polygon id="Path" fill="#736F7F" fill-rule="nonzero" points="170.173797 208.596257 173.636364 208.596257 173.636364 209.705882 171.336898 209.705882 171.336898 210.882353 173.141711 210.882353 173.141711 211.991979 171.336898 211.991979 171.336898 214.291444 170.173797 214.291444"></polygon>
        <path d="M176.109626,212.620321 C176.383984,213.034465 176.842971,213.288903 177.339572,213.302139 C177.794118,213.302139 178.101604,213.074866 178.101604,212.740642 C178.101604,212.406417 177.874332,212.192513 177.312834,212.005348 L176.831551,211.831551 C175.92246,211.510695 175.427807,210.989305 175.427807,210.213904 C175.428284,209.721876 175.638898,209.253479 176.006644,208.926593 C176.374391,208.599707 176.86425,208.445461 177.352941,208.502674 C178.031665,208.473657 178.688136,208.748003 179.144385,209.251337 L178.382353,210.040107 C178.130455,209.729576 177.752785,209.548099 177.352941,209.545455 C176.965241,209.545455 176.604278,209.719251 176.604278,210.053476 C176.604278,210.387701 176.885027,210.548128 177.473262,210.775401 L177.941176,210.935829 C178.829925,211.162211 179.389808,212.04022 179.220152,212.941519 C179.050496,213.842818 178.209698,214.457169 177.299465,214.34492 C176.477174,214.380784 175.692494,213.998504 175.213904,213.328877 L176.109626,212.620321 Z" id="Path" fill="#736F7F" fill-rule="nonzero"></path>
        <path d="M185.160428,215.294118 C183.787611,212.910827 183.787611,209.976873 185.160428,207.593583 L186.029412,207.593583 C184.716775,209.992613 184.716775,212.895087 186.029412,215.294118 L185.160428,215.294118 Z" id="Path" fill="#736F7F" fill-rule="nonzero"></path>
        <path d="M190.574866,214.385027 C189.769665,214.425338 188.983215,214.133354 188.399408,213.577347 C187.8156,213.02134 187.485623,212.25006 187.486631,211.44385 C187.475398,210.653403 187.787221,209.892604 188.34998,209.337416 C188.91274,208.782227 189.677692,208.480736 190.467914,208.502674 C191.330731,208.469028 192.167028,208.804519 192.76738,209.425134 L191.951872,210.227273 C191.564087,209.826596 191.025239,209.608145 190.467914,209.625668 C189.818341,209.642385 189.227028,210.004376 188.916718,210.575282 C188.606409,211.146188 188.624246,211.839275 188.96351,212.393464 C189.302774,212.947653 189.911923,213.278749 190.561497,213.262032 C190.980605,213.287499 191.397043,213.17988 191.751337,212.954545 L191.751337,211.925134 L190.534759,211.925134 L190.534759,210.842246 L192.887701,210.842246 L192.887701,213.516043 C192.266107,214.106738 191.431638,214.420267 190.574866,214.385027 Z" id="Path" fill="#736F7F" fill-rule="nonzero"></path>
        <path d="M195.187166,208.596257 L197.36631,208.596257 C197.827704,208.56602 198.280507,208.731436 198.613759,209.051969 C198.947011,209.372501 199.129914,209.818528 199.117647,210.280749 C199.138538,210.995678 198.642022,211.621964 197.941176,211.764706 L199.986631,214.291444 L198.529412,214.291444 L196.590909,211.925134 L196.296791,211.925134 L196.296791,214.318182 L195.187166,214.318182 L195.187166,208.596257 Z M197.23262,210.895722 C197.660428,210.895722 197.967914,210.668449 197.967914,210.280749 C197.967914,209.893048 197.660428,209.665775 197.23262,209.665775 L196.350267,209.665775 L196.350267,210.895722 L197.23262,210.895722 Z" id="Shape" fill="#736F7F" fill-rule="nonzero"></path>
        <path d="M203.42246,208.596257 L204.465241,208.596257 L206.925134,214.291444 L205.708556,214.291444 L205.147059,212.954545 L202.727273,212.954545 L202.179144,214.291444 L200.975936,214.291444 L203.42246,208.596257 Z M204.759358,211.965241 L203.970588,210.120321 L203.208556,211.925134 L204.759358,211.965241 Z" id="Shape" fill="#736F7F" fill-rule="nonzero"></path>
        <path d="M212.647059,210.508021 C212.651182,211.031578 212.440398,211.533915 212.063913,211.897767 C211.687428,212.261618 211.178191,212.455139 210.65508,212.433155 L209.893048,212.433155 L209.893048,214.291444 L208.716578,214.291444 L208.716578,208.596257 L210.614973,208.596257 C211.14251,208.562988 211.660278,208.749621 212.045268,209.111815 C212.430258,209.47401 212.648107,209.979438 212.647059,210.508021 Z M211.524064,210.508021 C211.520876,210.280933 211.424647,210.0651 211.257863,209.91095 C211.091078,209.756801 210.868347,209.677839 210.641711,209.692513 L209.893048,209.692513 L209.893048,211.336898 L210.601604,211.336898 C210.837143,211.363667 211.072871,211.288307 211.2492,211.129867 C211.425528,210.971427 211.52558,210.745071 211.524064,210.508021 Z" id="Shape" fill="#736F7F" fill-rule="nonzero"></path>
        <polygon id="Path" fill="#736F7F" fill-rule="nonzero" points="214.705882 208.596257 215.868984 208.596257 215.868984 210.868984 218.342246 210.868984 218.342246 208.596257 219.505348 208.596257 219.505348 214.291444 218.342246 214.291444 218.342246 211.925134 215.868984 211.925134 215.868984 214.251337 214.705882 214.251337"></polygon>
        <path d="M225.454545,212.620321 C225.728904,213.034465 226.187891,213.288903 226.684492,213.302139 C227.152406,213.302139 227.446524,213.074866 227.446524,212.740642 C227.446524,212.406417 227.219251,212.192513 226.657754,212.005348 L226.176471,211.831551 C225.26738,211.510695 224.772727,210.989305 224.772727,210.213904 C224.773204,209.721876 224.983818,209.253479 225.351564,208.926593 C225.719311,208.599707 226.20917,208.445461 226.697861,208.502674 C227.383063,208.483727 228.040608,208.773243 228.489305,209.291444 L227.727273,210.080214 C227.478352,209.773258 227.106375,209.592165 226.71123,209.585561 C226.31016,209.585561 225.949198,209.759358 225.949198,210.093583 C225.949198,210.427807 226.229947,210.588235 226.831551,210.815508 L227.286096,210.975936 C228.174845,211.202318 228.734728,212.080327 228.565072,212.981626 C228.395415,213.882925 227.554617,214.497276 226.644385,214.385027 C225.825184,214.4238 225.043187,214.040369 224.572193,213.368984 L225.454545,212.620321 Z" id="Path" fill="#736F7F" fill-rule="nonzero"></path>
        <polygon id="Path" fill="#736F7F" fill-rule="nonzero" points="230.762032 208.596257 234.304813 208.596257 234.304813 209.705882 231.925134 209.705882 231.925134 210.868984 233.823529 210.868984 233.823529 211.925134 231.925134 211.925134 231.925134 213.128342 234.304813 213.128342 234.304813 214.237968 230.762032 214.237968"></polygon>
        <path d="M239.144385,214.385027 C238.339183,214.425338 237.552734,214.133354 236.968926,213.577347 C236.385119,213.02134 236.055141,212.25006 236.05615,211.44385 C236.044916,210.653403 236.356739,209.892604 236.919499,209.337416 C237.482259,208.782227 238.247211,208.480736 239.037433,208.502674 C239.90025,208.469028 240.736547,208.804519 241.336898,209.425134 L240.52139,210.227273 C240.133606,209.826596 239.594758,209.608145 239.037433,209.625668 C238.387859,209.642385 237.796547,210.004376 237.486237,210.575282 C237.175927,211.146188 237.193764,211.839275 237.533029,212.393464 C237.872293,212.947653 238.481442,213.278749 239.131016,213.262032 C239.550124,213.287499 239.966562,213.17988 240.320856,212.954545 L240.320856,211.925134 L239.104278,211.925134 L239.104278,210.842246 L241.457219,210.842246 L241.457219,213.516043 C240.835626,214.106738 240.001156,214.420267 239.144385,214.385027 Z" id="Path" fill="#736F7F" fill-rule="nonzero"></path>
        <polygon id="Path" fill="#736F7F" fill-rule="nonzero" points="244.86631 210.588235 244.86631 214.291444 243.703209 214.291444 243.703209 208.596257 244.759358 208.596257 246.617647 211.136364 248.462567 208.596257 249.518717 208.596257 249.518717 214.291444 248.368984 214.291444 248.368984 210.588235 246.617647 212.981283"></polygon>
        <polygon id="Path" fill="#736F7F" fill-rule="nonzero" points="251.991979 208.596257 255.548128 208.596257 255.548128 209.705882 253.15508 209.705882 253.15508 210.868984 255.066845 210.868984 255.066845 211.925134 253.15508 211.925134 253.15508 213.128342 255.548128 213.128342 255.548128 214.237968 251.991979 214.237968"></polygon>
        <polygon id="Path" fill="#736F7F" fill-rule="nonzero" points="261.84492 214.291444 258.917112 210.588235 258.917112 214.304813 257.754011 214.304813 257.754011 208.609626 258.756684 208.609626 261.684492 212.326203 261.684492 208.609626 262.847594 208.609626 262.847594 214.304813"></polygon>
        <polygon id="Path" fill="#736F7F" fill-rule="nonzero" points="266.363636 209.705882 264.852941 209.705882 264.852941 208.596257 269.064171 208.596257 269.064171 209.705882 267.540107 209.705882 267.540107 214.291444 266.363636 214.291444"></polygon>
        <path d="M271.470588,212.620321 C271.747625,213.038292 272.212536,213.293243 272.713904,213.302139 C273.168449,213.302139 273.475936,213.074866 273.475936,212.740642 C273.475936,212.406417 273.235294,212.192513 272.673797,212.005348 L272.192513,211.831551 C271.283422,211.510695 270.855615,210.989305 270.855615,210.213904 C270.856091,209.721876 271.066705,209.253479 271.434452,208.926593 C271.802199,208.599707 272.292058,208.445461 272.780749,208.502674 C273.465951,208.483727 274.123496,208.773243 274.572193,209.291444 L273.81016,210.080214 C273.561239,209.773258 273.189263,209.592165 272.794118,209.585561 C272.393048,209.585561 272.032086,209.759358 272.032086,210.093583 C272.032086,210.427807 272.312834,210.588235 272.914439,210.815508 L273.368984,210.975936 C274.257733,211.202318 274.817616,212.080327 274.647959,212.981626 C274.478303,213.882925 273.637505,214.497276 272.727273,214.385027 C271.908072,214.4238 271.126075,214.040369 270.65508,213.368984 L271.470588,212.620321 Z" id="Path" fill="#736F7F" fill-rule="nonzero"></path>
        <path d="M283.262032,213.622995 C282.822238,214.102024 282.201097,214.373774 281.550802,214.371658 C281.068119,214.429588 280.583943,214.276156 280.22272,213.950799 C279.861497,213.625443 279.658453,213.159889 279.665775,212.673797 C279.684304,212.010222 280.070938,211.412228 280.668449,211.122995 C280.310312,210.826409 280.088293,210.39685 280.053476,209.933155 C280.077548,209.528668 280.261704,209.150418 280.565247,208.881995 C280.86879,208.613573 281.26673,208.477077 281.671123,208.502674 C282.070619,208.477122 282.463711,208.612604 282.762631,208.878869 C283.06155,209.145133 283.241403,209.520006 283.262032,209.919786 C283.224838,210.517452 282.844005,211.039141 282.286096,211.256684 L283.221925,212.165775 L283.756684,211.510695 L285.093583,211.510695 L283.970588,212.847594 L285.427807,214.264706 L283.957219,214.264706 L283.262032,213.622995 Z M281.550802,213.409091 C281.933901,213.392453 282.294646,213.224106 282.553476,212.941176 L281.390374,211.818182 C280.895722,212.112299 280.735294,212.433155 280.735294,212.700535 C280.74538,212.904186 280.838094,213.094913 280.992013,213.228645 C281.145932,213.362378 281.347738,213.427546 281.550802,213.409091 Z M281.617647,210.65508 L281.617647,210.65508 C281.97861,210.467914 282.165775,210.307487 282.165775,209.986631 C282.173111,209.843778 282.121435,209.704185 282.022849,209.600543 C281.924263,209.496901 281.787426,209.438314 281.644385,209.438503 C281.502846,209.427293 281.363075,209.475826 281.258941,209.57234 C281.154807,209.668854 281.095813,209.804543 281.096257,209.946524 C281.109626,210.213904 281.323529,210.387701 281.617647,210.65508 Z" id="Shape" fill="#736F7F" fill-rule="nonzero"></path>
        <path d="M290.494652,212.620321 C290.771689,213.038292 291.2366,213.293243 291.737968,213.302139 C292.192513,213.302139 292.5,213.074866 292.5,212.740642 C292.5,212.406417 292.259358,212.192513 291.697861,212.005348 L291.216578,211.831551 C290.307487,211.510695 289.812834,210.989305 289.812834,210.213904 C289.813311,209.721876 290.023925,209.253479 290.391671,208.926593 C290.759418,208.599707 291.249277,208.445461 291.737968,208.502674 C292.427059,208.483489 293.088789,208.77269 293.542781,209.291444 L292.76738,210.080214 C292.518458,209.773258 292.146482,209.592165 291.751337,209.585561 C291.363636,209.585561 290.989305,209.759358 290.989305,210.093583 C290.989305,210.427807 291.270053,210.588235 291.871658,210.815508 L292.326203,210.975936 C293.214952,211.202318 293.774835,212.080327 293.605179,212.981626 C293.435522,213.882925 292.594724,214.497276 291.684492,214.385027 C290.865291,214.4238 290.083294,214.040369 289.612299,213.368984 L290.494652,212.620321 Z" id="Path" fill="#736F7F" fill-rule="nonzero"></path>
        <polygon id="Path" fill="#736F7F" fill-rule="nonzero" points="295.815508 208.596257 299.358289 208.596257 299.358289 209.705882 296.97861 209.705882 296.97861 210.868984 298.877005 210.868984 298.877005 211.925134 296.97861 211.925134 296.97861 213.128342 299.358289 213.128342 299.358289 214.237968 295.815508 214.237968"></polygon>
        <path d="M304.037433,208.502674 C305.142474,208.460885 306.176778,209.045267 306.71123,210.013369 L305.708556,210.574866 C305.31116,209.844505 304.468944,209.476783 303.663144,209.681812 C302.857344,209.886841 302.293298,210.612375 302.293298,211.44385 C302.293298,212.275325 302.857344,213.00086 303.663144,213.205889 C304.468944,213.410918 305.31116,213.043195 305.708556,212.312834 L306.71123,212.874332 C306.027811,214.146749 304.527622,214.742434 303.157494,214.285425 C301.787365,213.828415 300.945168,212.451422 301.162446,211.023522 C301.379724,209.595621 302.593383,208.53146 304.037433,208.502674 L304.037433,208.502674 Z" id="Path" fill="#736F7F" fill-rule="nonzero"></path>
        <path d="M308.663102,208.596257 L310.855615,208.596257 C311.314766,208.569927 311.76396,208.737083 312.094203,209.057165 C312.424446,209.377247 312.605554,209.821 312.593583,210.280749 C312.615694,210.991563 312.125994,211.616353 311.430481,211.764706 L313.475936,214.291444 L312.139037,214.291444 L310.160428,211.925134 L309.86631,211.925134 L309.86631,214.318182 L308.703209,214.318182 L308.663102,208.596257 Z M310.708556,210.895722 C311.149733,210.895722 311.44385,210.668449 311.44385,210.280749 C311.44385,209.893048 311.149733,209.665775 310.708556,209.665775 L309.826203,209.665775 L309.826203,210.895722 L310.708556,210.895722 Z" id="Shape" fill="#736F7F" fill-rule="nonzero"></path>
        <polygon id="Path" fill="#736F7F" fill-rule="nonzero" points="315.13369 208.596257 318.676471 208.596257 318.676471 209.705882 316.296791 209.705882 316.296791 210.868984 318.181818 210.868984 318.181818 211.925134 316.283422 211.925134 316.283422 213.128342 318.663102 213.128342 318.663102 214.237968 315.120321 214.237968"></polygon>
        <polygon id="Path" fill="#736F7F" fill-rule="nonzero" points="321.938503 209.705882 320.427807 209.705882 320.427807 208.596257 324.639037 208.596257 324.639037 209.705882 323.114973 209.705882 323.114973 214.291444 321.938503 214.291444"></polygon>
        <path d="M329.425134,208.596257 L331.296791,208.596257 C332.869474,208.596257 334.144385,209.871168 334.144385,211.44385 C334.144385,213.016533 332.869474,214.291444 331.296791,214.291444 L329.425134,214.291444 L329.425134,208.596257 Z M331.296791,213.221925 C332.278795,213.221925 333.074866,212.425854 333.074866,211.44385 C333.074866,210.461847 332.278795,209.665775 331.296791,209.665775 L330.588235,209.665775 L330.588235,213.262032 L331.296791,213.221925 Z" id="Shape" fill="#736F7F" fill-rule="nonzero"></path>
        <path d="M337.941176,208.596257 L338.983957,208.596257 L341.44385,214.291444 L340.227273,214.291444 L339.665775,212.954545 L337.245989,212.954545 L336.697861,214.291444 L335.561497,214.291444 L337.941176,208.596257 Z M339.278075,211.965241 L338.489305,210.120321 L337.700535,211.965241 L339.278075,211.965241 Z" id="Shape" fill="#736F7F" fill-rule="nonzero"></path>
        <polygon id="Path" fill="#736F7F" fill-rule="nonzero" points="343.783422 209.705882 342.245989 209.705882 342.245989 208.596257 346.470588 208.596257 346.470588 209.705882 344.919786 209.705882 344.919786 214.291444 343.756684 214.291444"></polygon>
        <path d="M349.759358,208.596257 L350.78877,208.596257 L353.248663,214.291444 L352.032086,214.291444 L351.470588,212.954545 L349.050802,212.954545 L348.502674,214.291444 L347.299465,214.291444 L349.759358,208.596257 Z M351.096257,211.965241 L350.307487,210.120321 L349.518717,211.965241 L351.096257,211.965241 Z" id="Shape" fill="#736F7F" fill-rule="nonzero"></path>
        <path d="M355.614973,211.44385 C355.613631,210.099399 355.278274,208.776345 354.639037,207.593583 L355.52139,207.593583 C356.894207,209.976873 356.894207,212.910827 355.52139,215.294118 L354.639037,215.294118 C355.278274,214.111355 355.613631,212.788301 355.614973,211.44385 Z" id="Path" fill="#736F7F" fill-rule="nonzero"></path>
        <rect id="Rectangle" fill="#45D8FF" fill-rule="nonzero" x="54.0240642" y="11.1096257" width="33.342246" height="1.3368984"></rect>
        <rect id="Rectangle" fill="#45D8FF" fill-rule="nonzero" x="54.0240642" y="17.8074866" width="33.342246" height="1.3368984"></rect>
        <rect id="Rectangle" fill="#45D8FF" fill-rule="nonzero" x="54.0240642" y="24.4919786" width="15.7887701" height="1.3368984"></rect>
        <path d="M42.7005348,49.8128342 C42.6117681,49.8241616 42.5219217,49.8241616 42.4331551,49.8128342 C42.1910863,49.7034699 42.034569,49.4634766 42.0320856,49.197861 L42.0320856,8.36898396 C42.0394451,4.03792976 45.548625,0.528749871 49.8796791,0.521390374 L91.4973262,0.521390374 C95.8314325,0.521390374 99.3449198,4.0348777 99.3449198,8.36898396 L99.3449198,30.7486631 C99.3449198,35.0827694 95.8314325,38.5962567 91.4973262,38.5962567 L54.8128342,38.5962567 L43.1550802,49.6122995 C43.033438,49.7328508 42.8715784,49.8042595 42.7005348,49.8128342 Z M49.8796791,1.85828877 C46.2869723,1.86564336 43.3763385,4.77627708 43.368984,8.36898396 L43.368984,47.5935829 L54.0641711,37.459893 C54.184837,37.3396444 54.3483645,37.2723095 54.5187166,37.2727273 L91.4973262,37.2727273 C93.2263887,37.2727309 94.8844388,36.5849498 96.105816,35.3610646 C97.3271933,34.1371794 98.0115718,32.477722 98.0080214,30.7486631 L98.0080214,8.36898396 C98.0080214,4.77322629 95.0930839,1.85828877 91.4973262,1.85828877 L49.8796791,1.85828877 Z" id="Shape" fill="#B4B1BD" fill-rule="nonzero"></path>
        <path d="M34.986631,80.013369 C34.8447015,80.0329622 34.700753,80.0329622 34.5588235,80.013369 L34.8796791,78.6764706 C35.1203209,78.6764706 35.4946524,78.5427807 35.842246,78.1417112 C36.8587314,76.8353626 37.2718826,75.1584545 36.9786096,73.5294118 C36.8449198,73.0080214 36.6176471,72.6604278 36.3636364,72.6069519 C36.1096257,72.5534759 35.6951872,72.7673797 35.3342246,73.2219251 L34.2914439,72.3663102 C34.8190986,71.5816685 35.7479468,71.1665408 36.684492,71.2967914 C37.5357831,71.5788009 38.1527489,72.3201968 38.2754011,73.2085561 C38.6699211,75.2587294 38.1472158,77.3788613 36.8449198,79.0106952 C36.3980054,79.5960189 35.7212152,79.9611934 34.986631,80.013369 Z" id="Path" fill="#736F7F" fill-rule="nonzero"></path>
        <path d="M4.01069519,79.986631 C3.27511459,79.9378989 2.59698975,79.5720042 2.15240642,78.9839572 C1.49112114,78.1872502 1.03243681,77.2423605 0.815508021,76.2299465 C0.552205699,75.2294065 0.524747132,74.1814045 0.735294118,73.1684492 C0.859666806,72.2838138 1.47695255,71.5472207 2.32620321,71.2700535 C3.25872428,71.141901 4.1826159,71.5571332 4.70588235,72.3395722 L3.67647059,73.1951872 C3.30213904,72.7406417 2.9144385,72.5 2.64705882,72.5668449 C2.37967914,72.6336898 2.1657754,72.9812834 2.03208556,73.4893048 C1.87377758,74.2959302 1.90120886,75.1280125 2.11229947,75.9224599 C2.2930875,76.7200447 2.65440044,77.4655385 3.1684492,78.1016043 C3.51604278,78.5026738 3.87700535,78.7032086 4.13101604,78.6363636 L4.45187166,79.973262 C4.30618397,79.9985488 4.15764668,80.00305 4.01069519,79.986631 L4.01069519,79.986631 Z" id="Path" fill="#736F7F" fill-rule="nonzero"></path>
        <path d="M4.71925134,65.3342246 L3.38235294,65.1470588 C3.62299465,63.315508 5.6684492,62.2326203 7.47326203,62.0187166 C8.03119381,61.9622518 8.59442645,61.9892869 9.14438503,62.0989305 C10.0935829,62.2326203 10.6016043,62.2994652 11.1898396,61.4973262 L12.2727273,62.2860963 C11.5251704,63.3361132 10.1917106,63.7931458 8.95721925,63.4224599 C8.5173049,63.3350725 8.06752805,63.3080859 7.62032086,63.342246 C6.3368984,63.5026738 4.86631016,64.2513369 4.71925134,65.3342246 Z" id="Path" fill="#736F7F" fill-rule="nonzero"></path>
        <path d="M34.7593583,66.4973262 C32.8350282,66.290907 31.1353606,65.1511299 30.2139037,63.4491979 C27.3110392,64.0948571 24.3674715,64.541529 21.4037433,64.7860963 L19.6524064,64.986631 C17.2675669,65.3502527 14.830359,64.8779256 12.7540107,63.6497326 C11.0427537,62.5024527 9.98800027,60.6019064 9.9197861,58.5427807 C9.91152068,57.3619822 10.0966803,56.1877993 10.4679144,55.0668449 C10.6149733,54.4919786 10.7754011,53.9171123 10.868984,53.342246 L10.868984,53.342246 C11.7245989,48.5026738 16.3368984,48.5026738 17.8475936,48.5026738 C24.5320856,48.5026738 31.7513369,52.513369 34.4117647,56.1764706 C36.6669683,59.0024035 37.0393381,62.8939301 35.3609626,66.0962567 C35.2562747,66.3362248 35.0211319,66.4929867 34.7593583,66.4973262 L34.7593583,66.4973262 Z M30.5213904,61.9786096 C30.767151,61.9749454 30.9942832,62.1091599 31.1096257,62.3262032 C31.7448767,63.6779558 32.9267162,64.694435 34.3582888,65.1203209 C35.5947646,62.436489 35.195371,59.2828357 33.328877,56.9919786 C30.9090909,53.6363636 23.9705882,49.8796791 17.8475936,49.8796791 C14.3449198,49.8796791 12.6470588,50.9893048 12.1925134,53.6096257 C12.0855615,54.2245989 11.9117647,54.8395722 11.7513369,55.4411765 C11.4296207,56.4346708 11.2627822,57.471775 11.2566845,58.5160428 C11.3200541,60.1321079 12.1491139,61.6214368 13.4893048,62.526738 C15.3041556,63.5590833 17.4201165,63.9322104 19.4786096,63.5828877 L21.2566845,63.3957219 C24.2989542,63.168112 27.3172323,62.6896591 30.2807487,61.9652406 C30.3434498,61.9619693 30.4063148,61.9664597 30.4679144,61.9786096 L30.5213904,61.9786096 Z" id="Shape" fill="#736F7F" fill-rule="nonzero"></path>
        <path d="M19.3582888,98.8368984 C17.7475355,98.8883225 16.1630574,98.419542 14.8395722,97.5 C12.8208556,95.9358289 3.5828877,84.5588235 3.5828877,80.1203209 L3.5828877,66.8850267 C2.21925134,59.184492 5.45454545,52.9545455 12.0320856,50.802139 L12.4465241,52.1390374 C6.55080214,54.0106952 3.6631016,59.6657754 4.90641711,66.8449198 L4.90641711,80.2139037 C4.90641711,83.8235294 13.5427807,94.9197861 15.6016043,96.5240642 C17.4331551,97.9411765 21.631016,97.7139037 23.302139,96.5240642 C24.973262,95.3342246 33.9973262,83.9705882 33.9973262,80.2272727 L33.9973262,66.9919786 C33.9973262,66.4973262 33.9973262,65.9893048 33.9973262,65.5080214 L35.3342246,65.3743316 C35.3879566,65.9118696 35.4147282,66.4517618 35.4144385,66.9919786 L35.4144385,80.2139037 C35.4144385,84.7326203 26.0561497,96.2566845 24.144385,97.5935829 C22.7049198,98.4671121 21.0409085,98.8993832 19.3582888,98.8368984 Z" id="Path" fill="#736F7F" fill-rule="nonzero"></path>
        <polygon id="Path" fill="#B4B1BD" fill-rule="nonzero" points="467.647059 75.9759358 469.21123 73.2754011 466.082888 73.2754011"></polygon>
        <path d="M496.256684,64.3716578 L494.919786,64.3716578 C494.665648,55.4469259 487.357494,48.3439141 478.429144,48.3439141 C469.500795,48.3439141 462.192641,55.4469259 461.938503,64.3716578 L460.601604,64.3716578 C460.866047,54.7158662 468.769732,47.0256757 478.429144,47.0256757 C488.088556,47.0256757 495.992241,54.7158662 496.256684,64.3716578 L496.256684,64.3716578 Z" id="Path" fill="#736F7F" fill-rule="nonzero"></path>
        <path d="M495.828877,77.2860963 C495.686611,77.299957 495.543335,77.299957 495.40107,77.2860963 L495.708556,75.9491979 C496.31016,76.0828877 497.446524,75 497.941176,72.9946524 C498.435829,70.9893048 497.941176,69.4919786 497.326203,69.3449198 C497.018717,69.2647059 496.57754,69.5320856 496.176471,70.026738 L495.13369,69.184492 C495.681716,68.3521013 496.660116,67.9097397 497.647059,68.0481283 C499.197861,68.4224599 499.879679,70.7219251 499.237968,73.315508 C498.663102,75.6684492 497.245989,77.2860963 495.828877,77.2860963 Z" id="Path" fill="#736F7F" fill-rule="nonzero"></path>
        <path d="M462.566845,77.8609626 C461.793941,77.8083005 461.081872,77.4230028 460.614973,76.8048128 C459.902351,75.9610805 459.406693,74.9559959 459.171123,73.8770053 C458.529412,71.2032086 459.171123,68.9973262 460.762032,68.6229947 C461.746441,68.4763545 462.725232,68.9212591 463.262032,69.7593583 L462.23262,70.6016043 C461.831551,70.1069519 461.390374,69.8395722 461.069519,69.9197861 C460.494652,70.0668449 459.973262,71.5508021 460.467914,73.5695187 C460.657911,74.4343407 461.052136,75.2411281 461.617647,75.9224599 C462.005348,76.3636364 462.406417,76.5775401 462.687166,76.5106952 L463.008021,77.8475936 C462.862216,77.8716948 462.713842,77.876191 462.566845,77.8609626 L462.566845,77.8609626 Z" id="Path" fill="#736F7F" fill-rule="nonzero"></path>
        <path d="M479.090909,95.7887701 C477.384485,95.8733859 475.696384,95.4044688 474.278075,94.4518717 C472.112299,92.7807487 462.245989,80.6149733 462.245989,75.8823529 L462.245989,68.6497326 C462.247678,68.348887 462.450137,68.0862377 462.740642,68.0080214 C462.740642,68.0080214 468.917112,66.2165775 470.681818,63.2085561 C471.614047,61.8388632 472.23886,60.2836709 472.513369,58.6497326 C472.516255,58.3987374 472.654223,58.1687905 472.874332,58.0481283 C473.275401,57.8475936 473.328877,57.8877005 474.772727,58.8502674 C478.42246,61.3101604 489.47861,68.7700535 495.414439,66.8716578 C495.614182,66.806752 495.832934,66.8415535 496.002674,66.9652406 C496.176495,67.0942724 496.280286,67.2969133 496.283422,67.513369 L496.283422,75.815508 C496.283422,80.5213904 486.203209,92.9812834 484.251337,94.4117647 C482.703347,95.366653 480.908838,95.8454987 479.090909,95.7887701 Z M463.55615,69.144385 L463.55615,75.828877 C463.55615,79.7058824 472.834225,91.6042781 475.093583,93.355615 C477.072193,94.8930481 481.590909,94.6925134 483.409091,93.355615 C485.227273,92.0187166 494.919786,79.8930481 494.919786,75.855615 L494.919786,68.3957219 C488.315508,69.5855615 477.620321,62.3930481 473.997326,59.959893 L473.676471,59.7459893 C473.244779,61.2022359 472.615001,62.5922458 471.804813,63.8770053 C470.066845,66.8449198 465.147059,68.6363636 463.55615,69.144385 Z" id="Shape" fill="#736F7F" fill-rule="nonzero"></path>
        <rect id="Rectangle" fill="#736F7F" fill-rule="nonzero" x="460.842246" y="81.3235294" width="1.3368984" height="18.8368984"></rect>
        <rect id="Rectangle" fill="#736F7F" fill-rule="nonzero" x="496.016043" y="81.3235294" width="1.3368984" height="18.8368984"></rect>
        <path d="M453.275401,49.8128342 C453.10151,49.8111653 452.934559,49.7443849 452.807487,49.6256684 L441.176471,38.6096257 L404.47861,38.6096257 C402.39498,38.6096287 400.396885,37.7809961 398.924791,36.3063941 C397.452697,34.8317921 396.627466,32.8322897 396.631016,30.7486631 L396.631016,8.36898396 C396.631016,4.0348777 400.144503,0.521390374 404.47861,0.521390374 L446.096257,0.521390374 C450.427311,0.528749871 453.936491,4.03792976 453.94385,8.36898396 L453.94385,49.144385 C453.942503,49.4142392 453.779028,49.6568158 453.529412,49.7593583 C453.447896,49.7898005 453.362271,49.8078269 453.275401,49.8128342 L453.275401,49.8128342 Z M404.47861,1.85828877 C400.882852,1.85828877 397.967914,4.77322629 397.967914,8.36898396 L397.967914,30.7486631 C397.967914,34.3444208 400.882852,37.2593583 404.47861,37.2593583 L441.417112,37.2593583 C441.587464,37.2589405 441.750992,37.3262754 441.871658,37.4465241 L452.566845,47.5802139 L452.566845,8.36898396 C452.55949,4.77627708 449.648857,1.86564336 446.05615,1.85828877 L404.47861,1.85828877 Z" id="Shape" fill="#B4B1BD" fill-rule="nonzero"></path>
        <path d="M420.949198,21.9652406 C420.771181,21.9643258 420.599778,21.8976694 420.467914,21.7780749 L415.775401,17.0721925 L416.71123,16.1229947 L420.949198,20.3609626 L433.850267,7.44652406 L434.799465,8.39572193 L421.430481,21.7647059 C421.302145,21.8914581 421.129566,21.9633658 420.949198,21.9652406 L420.949198,21.9652406 Z" id="Path" fill="#63E54C" fill-rule="nonzero"></path>
        <path d="M420.949198,28.3823529 C420.770176,28.3869524 420.596794,28.3195263 420.467914,28.1951872 L412.553476,20.2807487 L413.502674,19.3315508 L420.949198,26.7379679 L437.058824,10.6951872 L438.008021,11.644385 L421.417112,28.1951872 C421.294088,28.3201309 421.124452,28.3879852 420.949198,28.3823529 L420.949198,28.3823529 Z" id="Path" fill="#63E54C" fill-rule="nonzero"></path>
        <path d="M271.390374,117.513369 L226.604278,117.513369 C226.421592,117.516678 226.25196,117.419011 226.163102,117.259358 L203.783422,78.4893048 C203.689822,78.3328984 203.689822,78.1376898 203.783422,77.9812834 L226.163102,39.2112299 C226.257841,39.0575029 226.423765,38.9619712 226.604278,38.9572193 L271.390374,38.9572193 C271.570888,38.9619712 271.736811,39.0575029 271.831551,39.2112299 L294.21123,77.9812834 C294.30483,78.1376898 294.30483,78.3328984 294.21123,78.4893048 L271.831551,117.259358 C271.742692,117.419011 271.57306,117.516678 271.390374,117.513369 Z M226.925134,116.510695 L271.042781,116.510695 L293.128342,78.2486631 L271.069519,39.986631 L226.951872,39.986631 L204.799465,78.2486631 L226.925134,116.510695 Z" id="Shape" fill="#736F7F" fill-rule="nonzero"></path>
        <polygon id="Path" fill="#45D8FF" fill-rule="nonzero" points="248.983957 91.5508021 259.050802 108.983957 238.903743 108.983957"></polygon>
        <circle id="Oval" fill="#FFE000" fill-rule="nonzero" cx="248.983957" cy="56.0427807" r="9.11764706"></circle>
        <rect id="Rectangle" fill="#63E54C" fill-rule="nonzero" x="265.534759" y="69.7994652" width="16.8983957" height="16.8983957"></rect>
        <polygon id="Path" fill="#FF5072" fill-rule="nonzero" points="226.885027 86.7914439 217.125668 86.7914439 212.245989 78.342246 217.125668 69.8930481 226.885027 69.8930481 231.751337 78.342246"></polygon>
        <polygon id="Path" fill="#63E54C" fill-rule="nonzero" points="217.125668 86.7914439 212.245989 78.342246 217.125668 69.8930481 226.885027 69.8930481"></polygon>
        <polygon id="Path" fill="#FFE000" fill-rule="nonzero" points="217.125668 69.8930481 212.245989 78.342246 217.125668 86.7914439"></polygon>
        <polygon id="Path" fill="#45D8FF" fill-rule="nonzero" points="217.125668 69.8930481 226.885027 69.8930481 231.751337 78.342246"></polygon>
        <polygon id="Path" fill="#FF5072" fill-rule="nonzero" points="108.315508 69.8128342 98.5561497 69.8128342 93.6898396 78.2486631 98.5561497 86.697861 108.315508 86.697861 113.195187 78.2486631"></polygon>
        <polygon id="Path" fill="#FFE000" fill-rule="nonzero" points="108.315508 69.8128342 98.5561497 69.8128342 93.6898396 78.2486631 98.5561497 86.697861 108.315508 86.697861"></polygon>
        <polygon id="Path" fill="#63E54C" fill-rule="nonzero" points="98.5561497 86.697861 93.6898396 78.2486631 98.5561497 69.8128342"></polygon>
        <polygon id="Path" fill="#45D8FF" fill-rule="nonzero" points="108.315508 69.8128342 98.5561497 86.697861 108.315508 86.697861"></polygon>
        <path d="M153.368984,117.513369 L108.609626,117.513369 C108.428416,117.511124 108.26137,117.414946 108.168449,117.259358 L85.7887701,78.4893048 C85.7077833,78.3296473 85.7077833,78.1409409 85.7887701,77.9812834 L108.168449,39.2112299 C108.264886,39.0592625 108.429782,38.9643219 108.609626,38.9572193 L153.368984,38.9572193 C153.546126,38.9614874 153.708246,39.0577459 153.796791,39.2112299 L176.176471,77.9812834 C176.270071,78.1376898 176.270071,78.3328984 176.176471,78.4893048 L153.743316,117.259358 C153.668586,117.401048 153.528258,117.496271 153.368984,117.513369 Z M108.903743,116.510695 L153.02139,116.510695 L175.13369,78.2486631 L153.074866,39.986631 L108.957219,39.986631 L86.8048128,78.2486631 L108.903743,116.510695 Z" id="Shape" fill="#736F7F" fill-rule="nonzero"></path>
        <polygon id="Path" fill="#45D8FF" fill-rule="nonzero" points="130.989305 91.5508021 141.05615 108.983957 120.92246 108.983957"></polygon>
        <circle id="Oval" fill="#FFE000" fill-rule="nonzero" cx="130.989305" cy="56.0427807" r="9.11764706"></circle>
        <rect id="Rectangle" fill="#63E54C" fill-rule="nonzero" x="147.553476" y="69.7994652" width="16.8983957" height="16.8983957"></rect>
        <rect id="Rectangle" fill="#B4B1BD" fill-rule="nonzero" x="49.4251337" y="71.8983957" width="24.131016" height="1.3368984"></rect>
        <path d="M69.5187166,78.1684492 L68.5695187,77.2326203 L73.2219251,72.5668449 L68.5828877,67.9144385 L69.5320856,66.9652406 L74.6524064,72.0989305 C74.781654,72.2202317 74.8549715,72.389591 74.8549715,72.5668449 C74.8549715,72.7440988 74.781654,72.9134581 74.6524064,73.0347594 L69.5187166,78.1684492 Z" id="Path" fill="#736F7F" fill-rule="nonzero"></path>
        <rect id="Rectangle" fill="#B4B1BD" fill-rule="nonzero" x="50.0534759" y="81.7245989" width="24.131016" height="1.3368984"></rect>
        <path d="M54.0775401,87.9946524 L48.9438503,82.8877005 C48.822804,82.7621213 48.7556367,82.594203 48.7566845,82.4197861 C48.7549648,82.2412777 48.8219816,82.0689489 48.9438503,81.9385027 L54.0775401,76.8181818 L55.026738,77.7540107 L50.3609626,82.4197861 L55.026738,87.0721925 L54.0775401,87.9946524 Z" id="Path" fill="#736F7F" fill-rule="nonzero"></path>
        <path d="M390.093583,117.513369 L345.334225,117.513369 C345.156319,117.511795 344.992962,117.414803 344.906417,117.259358 L322.526738,78.4893048 C322.433138,78.3328984 322.433138,78.1376898 322.526738,77.9812834 L344.906417,39.2112299 C344.99682,39.0595933 345.157815,38.9640026 345.334225,38.9572193 L390.093583,38.9572193 C390.274096,38.9619712 390.44002,39.0575029 390.534759,39.2112299 L412.914439,77.9812834 C412.995425,78.1409409 412.995425,78.3296473 412.914439,78.4893048 L390.534759,117.259358 C390.445901,117.419011 390.276269,117.516678 390.093583,117.513369 Z M345.628342,116.510695 L389.812834,116.510695 L411.898396,78.2486631 L389.812834,39.986631 L345.628342,39.986631 L323.529412,78.2486631 L345.628342,116.510695 Z" id="Shape" fill="#736F7F" fill-rule="nonzero"></path>
        <polygon id="Path" fill="#45D8FF" fill-rule="nonzero" points="367.994652 91.5508021 378.061497 108.983957 357.927807 108.983957"></polygon>
        <circle id="Oval" fill="#FFE000" fill-rule="nonzero" cx="367.994652" cy="56.0427807" r="9.11764706"></circle>
        <rect id="Rectangle" fill="#63E54C" fill-rule="nonzero" x="384.558824" y="69.7994652" width="16.8983957" height="16.8983957"></rect>
        <polygon id="Path" fill="#FF5072" fill-rule="nonzero" points="346.122995 86.7914439 336.377005 86.7914439 331.497326 78.342246 336.377005 69.8930481 346.122995 69.8930481 351.002674 78.342246"></polygon>
        <polygon id="Path" fill="#45D8FF" fill-rule="nonzero" points="336.377005 86.7914439 331.497326 78.342246 336.377005 69.8930481 346.122995 69.8930481"></polygon>
        <polygon id="Path" fill="#FFE000" fill-rule="nonzero" points="346.122995 86.7914439 336.377005 86.7914439 331.497326 78.342246 336.377005 69.8930481"></polygon>
        <polygon id="Path" fill="#63E54C" fill-rule="nonzero" points="346.122995 86.7914439 336.377005 86.7914439 331.497326 78.342246"></polygon>
        <rect id="Rectangle" fill="#B4B1BD" fill-rule="nonzero" x="419.144385" y="71.8983957" width="24.131016" height="1.3368984"></rect>
        <path d="M439.251337,78.1684492 L438.315508,77.2326203 L442.967914,72.5668449 L438.315508,67.9144385 L439.251337,66.9652406 L444.385027,72.0989305 C444.514274,72.2202317 444.587592,72.389591 444.587592,72.5668449 C444.587592,72.7440988 444.514274,72.9134581 444.385027,73.0347594 L439.251337,78.1684492 Z" id="Path" fill="#736F7F" fill-rule="nonzero"></path>
        <rect id="Rectangle" fill="#B4B1BD" fill-rule="nonzero" x="419.786096" y="81.7245989" width="24.131016" height="1.3368984"></rect>
        <path d="M423.796791,87.9946524 L418.676471,82.8877005 C418.546606,82.7670049 418.473775,82.597064 418.475936,82.4197861 C418.473307,82.2385216 418.545911,82.0642722 418.676471,81.9385027 L423.796791,76.7914439 L424.73262,77.7272727 L420.080214,82.3930481 L424.73262,87.0454545 L423.796791,87.9946524 Z" id="Path" fill="#736F7F" fill-rule="nonzero"></path>
        <rect id="Rectangle" fill="#736F7F" fill-rule="nonzero" x="120.120321" y="178.877005" width="9.01069519" height="1.3368984"></rect>
        <rect id="Rectangle" fill="#736F7F" fill-rule="nonzero" x="132.834225" y="178.877005" width="9.01069519" height="1.3368984"></rect>
        <rect id="Rectangle" fill="#736F7F" fill-rule="nonzero" x="120.120321" y="171.71123" width="9.01069519" height="1.3368984"></rect>
        <rect id="Rectangle" fill="#736F7F" fill-rule="nonzero" x="132.834225" y="171.71123" width="9.01069519" height="1.3368984"></rect>
        <rect id="Rectangle" fill="#736F7F" fill-rule="nonzero" x="120.120321" y="164.545455" width="9.01069519" height="1.3368984"></rect>
        <rect id="Rectangle" fill="#736F7F" fill-rule="nonzero" x="132.834225" y="164.545455" width="9.01069519" height="1.3368984"></rect>
        <path d="M146.604278,190.762032 L115.374332,190.762032 C115.005157,190.762032 114.705882,190.462757 114.705882,190.093583 L114.705882,149.532086 C114.705882,149.162911 115.005157,148.863636 115.374332,148.863636 L139.037433,148.863636 C139.215942,148.861917 139.38827,148.928933 139.518717,149.050802 L147.032086,156.57754 C147.16195,156.698236 147.234781,156.868177 147.23262,157.045455 L147.23262,190.093583 C147.233258,190.447645 146.957703,190.740789 146.604278,190.762032 Z M116.042781,189.425134 L145.935829,189.425134 L145.935829,157.339572 L138.81016,150.213904 L116.082888,150.213904 L116.042781,189.425134 Z" id="Shape" fill="#736F7F" fill-rule="nonzero"></path>
        <path d="M146.604278,157.754011 L139.037433,157.754011 C138.668259,157.754011 138.368984,157.454736 138.368984,157.085561 L138.368984,149.572193 L139.705882,149.572193 L139.705882,156.417112 L146.564171,156.417112 L146.604278,157.754011 Z" id="Path" fill="#736F7F" fill-rule="nonzero"></path>
        <rect id="Rectangle" fill="#736F7F" fill-rule="nonzero" x="238.114973" y="178.877005" width="9.01069519" height="1.3368984"></rect>
        <rect id="Rectangle" fill="#736F7F" fill-rule="nonzero" x="250.828877" y="178.877005" width="9.01069519" height="1.3368984"></rect>
        <rect id="Rectangle" fill="#736F7F" fill-rule="nonzero" x="238.114973" y="171.71123" width="9.01069519" height="1.3368984"></rect>
        <rect id="Rectangle" fill="#736F7F" fill-rule="nonzero" x="250.828877" y="171.71123" width="9.01069519" height="1.3368984"></rect>
        <rect id="Rectangle" fill="#736F7F" fill-rule="nonzero" x="238.114973" y="164.545455" width="9.01069519" height="1.3368984"></rect>
        <rect id="Rectangle" fill="#736F7F" fill-rule="nonzero" x="250.828877" y="164.545455" width="9.01069519" height="1.3368984"></rect>
        <path d="M264.585561,190.762032 L233.368984,190.762032 C232.99981,190.762032 232.700535,190.462757 232.700535,190.093583 L232.700535,149.532086 C232.700535,149.162911 232.99981,148.863636 233.368984,148.863636 L257.072193,148.863636 C257.25021,148.864551 257.421612,148.931208 257.553476,149.050802 L265.066845,156.57754 C265.187891,156.703119 265.255058,156.871038 265.254011,157.045455 L265.254011,190.093583 C265.254011,190.462757 264.954736,190.762032 264.585561,190.762032 Z M234.037433,189.425134 L263.917112,189.425134 L263.917112,157.339572 L256.791444,150.213904 L234.064171,150.213904 L234.037433,189.425134 Z" id="Shape" fill="#736F7F" fill-rule="nonzero"></path>
        <path d="M264.585561,157.754011 L257.072193,157.754011 C256.703018,157.754011 256.403743,157.454736 256.403743,157.085561 L256.403743,149.572193 L257.740642,149.572193 L257.740642,156.417112 L264.585561,156.417112 L264.585561,157.754011 Z" id="Path" fill="#736F7F" fill-rule="nonzero"></path>
        <rect id="Rectangle" fill="#736F7F" fill-rule="nonzero" x="356.858289" y="178.877005" width="9.01069519" height="1.3368984"></rect>
        <rect id="Rectangle" fill="#736F7F" fill-rule="nonzero" x="369.572193" y="178.877005" width="9.01069519" height="1.3368984"></rect>
        <rect id="Rectangle" fill="#736F7F" fill-rule="nonzero" x="356.858289" y="171.71123" width="9.01069519" height="1.3368984"></rect>
        <rect id="Rectangle" fill="#736F7F" fill-rule="nonzero" x="369.572193" y="171.71123" width="9.01069519" height="1.3368984"></rect>
        <rect id="Rectangle" fill="#736F7F" fill-rule="nonzero" x="356.858289" y="164.545455" width="9.01069519" height="1.3368984"></rect>
        <rect id="Rectangle" fill="#736F7F" fill-rule="nonzero" x="369.572193" y="164.545455" width="9.01069519" height="1.3368984"></rect>
        <path d="M383.328877,190.762032 L352.09893,190.762032 C351.729756,190.762032 351.430481,190.462757 351.430481,190.093583 L351.430481,149.532086 C351.430481,149.162911 351.729756,148.863636 352.09893,148.863636 L375.815508,148.863636 C375.989925,148.862589 376.157843,148.929756 376.283422,149.050802 L383.81016,156.57754 C383.931207,156.703119 383.998374,156.871038 383.997326,157.045455 L383.997326,190.093583 C383.997326,190.270867 383.926901,190.440889 383.801542,190.566248 C383.676183,190.691606 383.506161,190.762032 383.328877,190.762032 Z M352.76738,189.425134 L382.660428,189.425134 L382.660428,157.339572 L375.534759,150.213904 L352.807487,150.213904 L352.76738,189.425134 Z" id="Shape" fill="#736F7F" fill-rule="nonzero"></path>
        <path d="M383.328877,157.754011 L375.815508,157.754011 C375.446334,157.754011 375.147059,157.454736 375.147059,157.085561 L375.147059,149.572193 L376.483957,149.572193 L376.483957,156.417112 L383.328877,156.417112 L383.328877,157.754011 Z" id="Path" fill="#736F7F" fill-rule="nonzero"></path>
        <path d="M202.286096,78.8770053 L199.612299,78.8770053 L199.612299,77.540107 L202.286096,77.540107 L202.286096,78.8770053 Z M196.84492,78.8770053 L194.171123,78.8770053 L194.171123,77.540107 L196.84492,77.540107 L196.84492,78.8770053 Z M191.403743,78.8770053 L188.729947,78.8770053 L188.729947,77.540107 L191.403743,77.540107 L191.403743,78.8770053 Z M185.962567,78.8770053 L183.28877,78.8770053 L183.28877,77.540107 L185.962567,77.540107 L185.962567,78.8770053 Z M180.481283,78.8770053 L177.807487,78.8770053 L177.807487,77.540107 L180.481283,77.540107 L180.481283,78.8770053 Z" id="Shape" fill="#B4B1BD" fill-rule="nonzero"></path>
        <path d="M131.657754,144.759358 L130.320856,144.759358 L130.320856,142.085561 L131.657754,142.085561 L131.657754,144.759358 Z M131.657754,139.318182 L130.320856,139.318182 L130.320856,136.644385 L131.657754,136.644385 L131.657754,139.318182 Z M131.657754,133.877005 L130.320856,133.877005 L130.320856,131.203209 L131.657754,131.203209 L131.657754,133.877005 Z M131.657754,128.435829 L130.320856,128.435829 L130.320856,125.762032 L131.657754,125.762032 L131.657754,128.435829 Z M131.657754,122.994652 L130.320856,122.994652 L130.320856,120.320856 L131.657754,120.320856 L131.657754,122.994652 Z" id="Shape" fill="#B4B1BD" fill-rule="nonzero"></path>
        <path d="M249.652406,144.759358 L248.315508,144.759358 L248.315508,142.085561 L249.652406,142.085561 L249.652406,144.759358 Z M249.652406,139.318182 L248.315508,139.318182 L248.315508,136.644385 L249.652406,136.644385 L249.652406,139.318182 Z M249.652406,133.877005 L248.315508,133.877005 L248.315508,131.203209 L249.652406,131.203209 L249.652406,133.877005 Z M249.652406,128.435829 L248.315508,128.435829 L248.315508,125.762032 L249.652406,125.762032 L249.652406,128.435829 Z M249.652406,122.994652 L248.315508,122.994652 L248.315508,120.320856 L249.652406,120.320856 L249.652406,122.994652 Z" id="Shape" fill="#B4B1BD" fill-rule="nonzero"></path>
        <path d="M368.382353,144.759358 L367.045455,144.759358 L367.045455,142.085561 L368.382353,142.085561 L368.382353,144.759358 Z M368.382353,139.318182 L367.045455,139.318182 L367.045455,136.644385 L368.382353,136.644385 L368.382353,139.318182 Z M368.382353,133.877005 L367.045455,133.877005 L367.045455,131.203209 L368.382353,131.203209 L368.382353,133.877005 Z M368.382353,128.435829 L367.045455,128.435829 L367.045455,125.762032 L368.382353,125.762032 L368.382353,128.435829 Z M368.382353,122.994652 L367.045455,122.994652 L367.045455,120.320856 L368.382353,120.320856 L368.382353,122.994652 Z" id="Shape" fill="#B4B1BD" fill-rule="nonzero"></path>
        <path d="M320.855615,78.8770053 L318.181818,78.8770053 L318.181818,77.540107 L320.855615,77.540107 L320.855615,78.8770053 Z M315.414439,78.8770053 L312.740642,78.8770053 L312.740642,77.540107 L315.414439,77.540107 L315.414439,78.8770053 Z M309.973262,78.8770053 L307.299465,78.8770053 L307.299465,77.540107 L309.973262,77.540107 L309.973262,78.8770053 Z M304.532086,78.8770053 L301.858289,78.8770053 L301.858289,77.540107 L304.532086,77.540107 L304.532086,78.8770053 Z M299.090909,78.8770053 L296.417112,78.8770053 L296.417112,77.540107 L299.090909,77.540107 L299.090909,78.8770053 Z" id="Shape" fill="#B4B1BD" fill-rule="nonzero"></path>
    </g>
</svg>