<?xml version="1.0" encoding="UTF-8"?>
<svg width="500px" height="160px" viewBox="0 0 500 160" version="1.1" xmlns="http://www.w3.org/2000/svg" xmlns:xlink="http://www.w3.org/1999/xlink">
    <!-- Generator: Sketch 53.2 (72643) - https://sketchapp.com -->
    <title>v </title>
    <desc>Created with Sketch.</desc>
    <g id="v-" stroke="none" stroke-width="1" fill="none" fill-rule="evenodd">
        <g id="pop-figure-2" transform="translate(93.000000, 0.000000)" fill-rule="nonzero">
            <path d="M85.4075582,14.19787 L130.312128,14.19787 L130.312128,15.581678 L85.4075582,15.581678 L85.4075582,14.19787 Z M85.4075582,23.20646 L130.312128,23.20646 L130.312128,24.590268 L85.4075582,24.590268 L85.4075582,23.20646 Z M85.4075582,32.2288881 L106.676687,32.2288881 L106.676687,33.6126961 L85.4075582,33.6126961 L85.4075582,32.2288881 Z" id="Shape" fill="#45D8FF"></path>
            <path d="M70.1718322,65.8969365 C70.0807463,65.9176969 69.9861565,65.9176969 69.8950706,65.8969365 C69.6396141,65.7895213 69.4752303,65.5374661 69.4799282,65.2603849 L69.4799282,10.2955315 C69.5179205,4.60368494 74.1388436,0.00747263537 79.830812,0 L135.888874,0 C141.604586,0.0152369003 146.232157,4.64899419 146.239757,10.3647219 L146.239757,40.5317361 C146.232157,46.2474637 141.604586,50.881221 135.888874,50.8964579 L86.3623857,50.8964579 L70.6423269,65.7170415 C70.5104597,65.8286705 70.3445363,65.8921118 70.1718322,65.8969365 L70.1718322,65.8969365 Z M79.830812,1.38380799 C74.8761952,1.39144223 70.8637303,5.41009917 70.8637362,10.3647219 L70.8637362,63.6551676 L85.6566436,49.6787069 C85.7873193,49.5650773 85.9539871,49.5013513 86.1271384,49.4988118 L135.944226,49.4988118 C140.898843,49.4911776 144.911308,45.4725207 144.911302,40.517898 L144.911302,10.2955315 C144.873225,5.34631948 140.838179,1.36078313 135.888874,1.38380799 L79.830812,1.38380799 Z" id="Shape" fill="#B4B1BD"></path>
            <path d="M59.7655961,98.3333959 C59.5955805,98.3545258 59.4236028,98.3545258 59.2535872,98.3333959 L59.571863,96.9495879 C60.0008435,97.0464544 60.5543667,96.7696928 61.0802137,96.1608173 C61.7984131,95.278602 62.3006927,94.2408732 62.5470502,93.1302778 C63.1559257,90.6809377 62.5470502,88.6052257 61.6752512,88.3838164 C61.2185945,88.2731118 60.6235571,88.6052257 60.0700339,89.2832916 L59.0045017,88.4114926 C59.6459408,87.3995067 60.8213131,86.8578605 62.0073651,87.0276846 C63.8339916,87.4705031 64.6642764,90.2934714 63.8893439,93.4485536 C63.5929863,94.7756493 62.9859305,96.0134742 62.1180697,97.0602925 C61.5564566,97.8066805 60.6976201,98.2714626 59.7655961,98.3333959 L59.7655961,98.3333959 Z M18.0299471,98.2503674 C17.0917134,98.1853797 16.2280879,97.7156887 15.6636355,96.9634259 C14.7930738,95.9183567 14.1856823,94.6798475 13.8923612,93.3516871 C13.1174287,90.1966049 13.8923612,87.3736366 15.7743401,86.930818 C16.960392,86.7609939 18.1357644,87.3026401 18.7772034,88.314626 L17.7116713,89.186425 C17.1581481,88.5083591 16.5492726,88.1762452 16.106454,88.2869498 C15.1931407,88.5083591 14.6396175,90.5840711 15.234655,93.0472493 C15.4839907,94.1526294 15.9860668,95.1852011 16.7014914,96.0639507 C17.2411766,96.6728263 17.7808617,96.9634259 18.2098422,96.8527213 L18.5557942,98.2503674 C18.381104,98.2707431 18.2046373,98.2707431 18.0299471,98.2503674 Z M18.7910415,78.7248366 L17.4072335,78.5449416 C17.7255094,76.1786299 20.3962588,74.7948219 22.7487324,74.5042222 C23.4837623,74.440341 24.2240813,74.4775898 24.9489871,74.6149269 C26.2497666,74.7948219 27.0246991,74.9055266 27.8964981,73.7292898 L29.0035445,74.5318984 C28.0357718,75.8634297 26.3215989,76.4217922 24.755254,75.9157064 C24.1498633,75.7931183 23.5297037,75.7604783 22.9147893,75.8188398 C21.0743247,76.1094395 19.0124508,77.1888097 18.7910415,78.7248366 L18.7910415,78.7248366 Z" id="Shape" fill="#736F7F"></path>
            <path d="M59.391968,80.1363208 C57.2470656,80.1363208 54.894592,78.4895893 53.3724032,75.9848968 C49.4216572,76.877949 45.4123006,77.4883701 41.3747879,77.8115233 L39.0223143,78.0606088 C35.8669703,78.5775781 32.6299624,77.9859195 29.8615054,76.3862011 C27.6236052,74.8704311 26.2452776,72.3760695 26.1529,69.6747324 C26.148846,68.1024184 26.3868814,66.538852 26.8586421,65.0389756 C27.0662133,64.2778812 27.2737845,63.4891106 27.4121653,62.7003401 C28.4085071,57.0128892 33.1411304,56.3624995 36.6006504,56.3624995 C45.4431834,56.3624995 55.1990298,61.6624841 58.7415782,66.6165167 C61.7549519,70.3409288 62.2764759,75.4964105 60.0700339,79.7488545 C59.9425778,80.0026926 59.6753678,80.1553841 59.391968,80.1363208 L59.391968,80.1363208 Z M53.690679,74.4488699 C53.9434217,74.4511167 54.1756662,74.5883521 54.2995546,74.80866 C55.1960967,76.7466452 56.9114354,78.1828607 58.9768256,78.7248366 C60.7409599,75.0058028 60.2020474,70.6028882 57.5930176,67.4191253 C54.3133926,62.8387209 44.8758221,57.7324694 36.5729742,57.7324694 C31.7296462,57.7324694 29.3910107,59.2823343 28.754459,62.9355874 C28.6022402,63.7658722 28.3808309,64.5823189 28.1732597,65.3849276 C27.7304683,66.7245011 27.5016372,68.1255079 27.4951938,69.5363516 C27.5614775,71.8032631 28.7152267,73.8995841 30.5949237,75.1684501 C33.0822452,76.5807208 35.9798827,77.0937932 38.8009051,76.6214485 L41.1810548,76.358525 C44.9588506,75.9572206 51.2828531,75.2791547 53.3862413,74.4350318 C53.4872012,74.4131391 53.5921216,74.4179082 53.690679,74.4488699 L53.690679,74.4488699 Z" id="Shape" fill="#736F7F"></path>
            <path d="M38.7317147,123.657082 C36.6193721,123.754065 34.5308385,123.177416 32.7675022,122.010351 C30.0690766,119.920801 17.6839951,104.685075 17.6839951,98.7900525 L17.6839951,80.9666056 C15.8712067,70.5742075 20.1748495,62.2713596 28.920516,59.4068771 L29.3494965,60.7906851 C21.3095721,63.4199202 17.3657193,71.1277307 19.053965,80.9250913 L19.053965,98.9145952 C19.053965,103.965494 30.6917902,118.77224 33.597787,121.055523 C36.1301556,123.02053 41.900635,122.702255 44.2254324,121.055523 C46.5502298,119.408792 58.7415782,104.034685 58.7415782,98.9145952 L58.7415782,80.9666056 C58.7579688,80.2926484 58.7394934,79.6182946 58.6862259,78.9462459 L60.0700339,78.794027 C60.1392243,79.5136072 60.1669004,80.2470254 60.1669004,80.9666056 L60.1669004,98.7900525 C60.1669004,104.657398 47.5604096,120.239076 45.0695553,122.024189 C43.1606331,123.173109 40.9581543,123.74056 38.7317147,123.657082 L38.7317147,123.657082 Z M8.16339614,151.554651 C8.16870945,152.640004 7.72649512,153.679573 6.94091432,154.428493 C6.15533352,155.177414 5.09583295,155.56948 4.01197217,155.512342 L2.53129762,155.512342 L2.53129762,159.373166 L0.123471711,159.373166 L0.123471711,147.583122 L4.03964833,147.583122 C5.1201654,147.537736 6.17219015,147.936496 6.95114639,148.686699 C7.73010263,149.436901 8.16813031,150.473192 8.16339614,151.554651 Z M5.82476063,151.554651 C5.82575016,151.079714 5.62984996,150.625608 5.28369207,150.30043 C4.93753419,149.975251 4.4720829,149.808087 3.99813409,149.838729 L2.53129762,149.838729 L2.53129762,153.256735 L3.99813409,153.256735 C4.47071684,153.291409 4.93636236,153.12751 5.28303704,152.804472 C5.62971172,152.481435 5.82603096,152.028503 5.82476063,151.554651 L5.82476063,151.554651 Z M12.4255248,147.583122 L16.9367388,147.583122 C17.8919047,147.520527 18.8292881,147.862968 19.5191789,148.526527 C20.2090697,149.190086 20.5877113,150.113441 20.5623157,151.070318 C20.5998841,152.548457 19.5745518,153.841774 18.1268137,154.142372 L22.3612661,159.373166 L19.4552693,159.373166 L15.4283881,154.405296 L14.8333507,154.405296 L14.8333507,159.373166 L12.4255248,159.373166 L12.4255248,147.583122 Z M16.6599772,152.343422 C17.5456143,152.343422 18.1683279,151.872927 18.1683279,151.070318 C18.1683279,150.26771 17.5456143,149.797215 16.6599772,149.797215 L14.8333507,149.797215 L14.8333507,152.343422 L16.6599772,152.343422 Z M30.816333,159.566899 C27.4536063,159.566899 24.7275778,156.840871 24.7275778,153.478144 C24.7275778,150.115418 27.4536063,147.389389 30.816333,147.389389 C34.1790596,147.389389 36.9050881,150.115418 36.9050881,153.478144 C36.9050881,155.092983 36.2635961,156.641681 35.121733,157.783544 C33.9798699,158.925407 32.4311712,159.566899 30.816333,159.566899 L30.816333,159.566899 Z M30.816333,157.242102 C32.3469114,157.281505 33.7488349,156.38985 34.3620669,154.986935 C34.9752989,153.584021 34.6776218,151.949448 33.6091842,150.852788 C32.5407467,149.756128 30.9144891,149.415944 29.4960665,149.992399 C28.0776439,150.568854 27.1497489,151.947059 27.1492418,153.478144 C27.1344634,154.464127 27.5129672,155.415399 28.2010926,156.121701 C28.889218,156.828003 29.8303005,157.231174 30.816333,157.242102 Z M39.5896756,147.583122 L42.1912346,147.583122 L45.5262119,155.761427 L48.8196749,147.583122 L51.4765863,147.583122 L46.5917441,159.373166 L44.4468417,159.373166 L39.5896756,147.583122 Z M55.3097344,147.583122 L62.6439168,147.583122 L62.6439168,149.880244 L57.7175603,149.880244 L57.7175603,152.301908 L61.6614131,152.301908 L61.6614131,154.585191 L57.7175603,154.585191 L57.7175603,157.076045 L62.6439168,157.076045 L62.6439168,159.373166 L55.3097344,159.373166 L55.3097344,147.583122 Z M67.2381593,147.583122 L71.7493733,147.583122 C72.7045393,147.520527 73.6419226,147.862968 74.3318134,148.526527 C75.0217042,149.190086 75.4003458,150.113441 75.3749503,151.070318 C75.4138053,152.54421 74.3955065,153.835995 72.9532863,154.142372 L77.1047103,159.373166 L74.281742,159.373166 L70.2410226,154.405296 L69.6459852,154.405296 L69.6459852,159.373166 L67.2381593,159.373166 L67.2381593,147.583122 Z M71.4726117,152.343422 C72.3720869,152.343422 72.9809624,151.872927 72.9809624,151.070318 C72.9809624,150.26771 72.3720869,149.797215 71.4726117,149.797215 L69.6459852,149.797215 L69.6459852,152.343422 L71.4726117,152.343422 Z M292.549776,77.4932475 L291.165968,77.4932475 C291.165968,65.1122995 281.129227,55.075558 268.748279,55.075558 C256.367331,55.075558 246.330589,65.1122995 246.330589,77.4932475 L244.946782,77.4932475 C244.946782,64.3480434 255.603075,53.6917501 268.748279,53.6917501 C281.893483,53.6917501 292.549776,64.3480434 292.549776,77.4932475 L292.549776,77.4932475 Z M292.189986,94.6524666 C292.012546,94.6508273 291.835964,94.6275929 291.664139,94.5832762 L291.996253,93.1994682 C292.978757,93.4347156 294.570136,91.8156602 295.234364,89.0480442 C295.898592,86.2804282 295.234364,84.1216878 294.265698,83.8864404 C293.767527,83.7618977 293.1033,84.1355259 292.494424,84.8689441 L291.428892,83.9971451 C292.125335,82.9578228 293.362106,82.4177481 294.597812,82.6133371 C296.535143,83.0838318 297.365428,86.0866951 296.576658,89.4493485 C295.829401,92.4937261 293.933584,94.6524666 292.189986,94.6524666 L292.189986,94.6524666 Z M247.47915,95.4827514 C245.694038,95.4827514 243.839735,93.3240109 243.092479,90.2657953 C242.720234,88.8689531 242.682308,87.4040613 242.981774,85.9898286 C243.132415,84.8106279 243.944182,83.8214549 245.071324,83.4436219 C246.305664,83.258533 247.537028,83.7962468 248.240245,84.8274299 L247.174712,85.6992289 C246.565837,84.9658107 245.887771,84.5921825 245.403438,84.7167252 C244.919105,84.8412679 244.531639,85.3809531 244.324068,86.238914 C244.073514,87.4438134 244.111448,88.690886 244.434773,89.878329 C245.099,92.645945 246.676541,94.2511623 247.672883,94.029753 L248.004997,95.413561 C247.832998,95.4569733 247.656525,95.4801934 247.47915,95.4827514 L247.47915,95.4827514 Z" id="Shape" fill="#736F7F"></path>
            <path d="M269.661592,119.547172 C267.406967,119.652168 265.177462,119.036631 263.296075,117.789736 C260.528459,115.60332 247.147036,99.0944902 247.147036,92.8811924 L247.147036,83.1945364 C247.147036,82.8870235 247.349995,82.6164122 247.645207,82.5303086 C247.728236,82.5303086 256.05876,80.0948065 258.480424,75.9572206 C259.759935,74.0855836 260.61046,71.9545459 260.971278,69.7162466 C260.976318,69.460588 261.119255,69.2276547 261.344906,69.1073711 C261.760049,68.8721237 261.760049,68.8721237 263.69738,70.1729032 C268.623736,73.4940424 283.651891,83.5681646 291.664139,81.049634 C291.870891,80.9824508 292.097319,81.0184735 292.273015,81.1465006 C292.452935,81.2800598 292.560368,81.4898111 292.563614,81.7138619 L292.563614,92.8950304 C292.563614,99.1775187 279.071487,115.852405 276.400737,117.803574 C274.369066,119.021459 272.02899,119.626899 269.661592,119.547172 L269.661592,119.547172 Z M248.530844,83.7480596 L248.530844,92.9365447 C248.530844,98.361072 260.985116,114.274864 264.140198,116.696528 C266.907814,118.855268 273.038084,118.509316 275.58429,116.696528 C278.130497,114.883739 291.165968,98.4164243 291.165968,92.9365447 L291.165968,82.6410132 C282.392626,84.4122875 267.821128,74.7256315 262.922447,71.3629781 L262.230543,70.8924834 C261.674662,72.9476501 260.811581,74.9070774 259.670499,76.7044769 C257.304187,80.7313582 250.468175,83.1391841 248.530844,83.7480596 Z M245.292734,100.298403 L246.676541,100.298403 L246.676541,125.663604 L245.292734,125.663604 L245.292734,100.298403 Z M292.660481,100.298403 L294.044289,100.298403 L294.044289,125.663604 L292.660481,125.663604 L292.660481,100.298403 Z" id="Shape" fill="#736F7F"></path>
            <path d="M236.685448,65.8969365 C236.508178,65.8941406 236.337228,65.8306446 236.201115,65.7170415 L220.439542,50.8272675 L170.968406,50.8272675 C165.247289,50.8196444 160.611308,46.1836629 160.603684,40.4625457 L160.603684,10.2955315 C160.649234,4.60145304 165.274151,0.00741016677 170.968406,0 L227.01263,0 C232.733747,0.00762308444 237.369729,4.6436046 237.377352,10.3647219 L237.377352,65.2050325 C237.375958,65.4843555 237.206746,65.7354437 236.948371,65.8415842 C236.866097,65.8798395 236.776163,65.8987729 236.685448,65.8969365 L236.685448,65.8969365 Z M170.968406,1.38380799 C166.011544,1.39142808 161.995113,5.40785986 161.987492,10.3647219 L161.987492,40.5317361 C161.995113,45.488598 166.011544,49.5050298 170.968406,49.5126499 L220.785494,49.5126499 C220.959115,49.5127 221.126624,49.5767478 221.255989,49.692545 L235.993544,63.6551676 L235.993544,10.2955315 C235.948041,5.36571107 231.942655,1.39118266 227.01263,1.38380799 L170.968406,1.38380799 Z" id="Shape" fill="#B4B1BD"></path>
            <path d="M224.245014,147.583122 L226.846573,147.583122 L230.18155,155.761427 L233.475013,147.583122 L236.131925,147.583122 L231.247082,159.373166 L229.10218,159.373166 L224.245014,147.583122 Z M239.965073,147.583122 L247.299255,147.583122 L247.299255,149.880244 L242.372899,149.880244 L242.372899,152.301908 L246.302913,152.301908 L246.302913,154.585191 L242.372899,154.585191 L242.372899,157.076045 L247.299255,157.076045 L247.299255,159.373166 L239.965073,159.373166 L239.965073,147.583122 Z M251.893498,147.583122 L256.404712,147.583122 C257.357559,147.524583 258.291202,147.86883 258.977974,148.53192 C259.664746,149.195011 260.041531,150.116004 260.016451,151.070318 C260.060949,152.546078 259.040141,153.841046 257.594787,154.142372 L261.829239,159.373166 L258.923242,159.373166 L254.896361,154.405296 L254.301324,154.405296 L254.301324,159.373166 L251.893498,159.373166 L251.893498,147.583122 Z M256.12795,152.343422 C257.013587,152.343422 257.636301,151.872927 257.636301,151.070318 C257.636301,150.26771 257.013587,149.797215 256.12795,149.797215 L254.301324,149.797215 L254.301324,152.343422 L256.12795,152.343422 Z M265.274921,147.583122 L267.641233,147.583122 L267.641233,159.373166 L265.233407,159.373166 L265.274921,147.583122 Z M272.802836,147.583122 L279.970962,147.583122 L279.970962,149.880244 L275.196824,149.880244 L275.196824,152.315746 L278.933106,152.315746 L278.933106,154.599029 L275.196824,154.599029 L275.196824,159.373166 L272.802836,159.373166 L272.802836,147.583122 Z M284.246928,147.583122 L286.654754,147.583122 L286.654754,159.373166 L284.246928,159.373166 L284.246928,147.583122 Z M291.816358,147.583122 L299.150541,147.583122 L299.150541,149.880244 L294.210346,149.880244 L294.210346,152.301908 L298.154199,152.301908 L298.154199,154.585191 L294.210346,154.585191 L294.210346,157.076045 L299.150541,157.076045 L299.150541,159.373166 L291.816358,159.373166 L291.816358,147.583122 Z M303.730945,147.583122 L308.242159,147.583122 C309.197325,147.520527 310.134708,147.862968 310.824599,148.526527 C311.51449,149.190086 311.893131,150.113441 311.867736,151.070318 C311.906591,152.54421 310.888292,153.835995 309.446072,154.142372 L313.597496,159.373166 L310.705337,159.373166 L306.664618,154.405296 L306.06958,154.405296 L306.06958,159.373166 L303.661755,159.373166 L303.730945,147.583122 Z M307.965397,152.343422 C308.864873,152.343422 309.473748,151.872927 309.473748,151.070318 C309.473748,150.26771 308.864873,149.797215 307.965397,149.797215 L306.138771,149.797215 L306.138771,152.343422 L307.965397,152.343422 Z" id="Shape" fill="#736F7F"></path>
            <path d="M193.150848,28.4095781 C192.96735,28.411815 192.791446,28.3364277 192.666516,28.2020069 L186.328675,21.8641663 L187.297341,20.8955007 L193.150848,26.7351704 L210.669858,9.20232314 L211.652361,10.1848268 L193.662857,28.1743307 C193.534391,28.3233037 193.347562,28.4091443 193.150848,28.4095781 L193.150848,28.4095781 Z" id="Path" fill="#63E54C"></path>
            <path d="M193.150848,37.058378 C192.96866,37.0543138 192.795106,36.9799334 192.666516,36.8508068 L181.997356,26.1954853 L182.97986,25.2129816 L193.150848,35.3839703 L215.056529,13.5336422 L216.039033,14.5161458 L193.635181,36.8508068 C193.506591,36.9799334 193.333037,37.0543138 193.150848,37.058378 L193.150848,37.058378 Z" id="Path" fill="#63E54C"></path>
            <path d="M130.339804,78.448075 L174.165003,78.448075 L174.165003,79.831883 L130.339804,79.831883 L130.339804,78.448075 Z M130.339804,82.5303086 L174.372574,82.5303086 L174.372574,83.9141166 L130.339804,83.9141166 L130.339804,82.5303086 Z" id="Shape" fill="#B4B1BD"></path>
            <path d="M167.674943,90.9853754 L166.69244,90.0167098 L175.521135,81.1741768 L166.69244,72.3454818 L167.674943,71.3629781 L176.987971,80.689844 C177.118957,80.8197604 177.192635,80.9966082 177.192635,81.1810958 C177.192635,81.3655834 177.118957,81.5424312 176.987971,81.6723476 L167.674943,90.9853754 Z" id="Path" fill="#736F7F"></path>
            <path d="M173.224013,90.9715373 L172.213833,90.0305479 L180.30911,81.2018529 L171.466577,72.3454818 L172.435243,71.3629781 L181.762109,80.689844 C182.016905,80.9571253 182.016905,81.3773901 181.762109,81.6446715 L173.224013,90.9715373 Z" id="Path" fill="#736F7F"></path>
            <path d="M137.452577,107.051386 L181.277776,107.051386 L181.277776,108.435194 L137.452577,108.435194 L137.452577,107.051386 Z M137.245006,102.969153 L181.277776,102.969153 L181.277776,104.352961 L137.245006,104.352961 L137.245006,102.969153 Z" id="Shape" fill="#B4B1BD"></path>
            <path d="M143.942636,115.506453 L134.629608,106.193425 C134.498622,106.063509 134.424944,105.886661 134.424944,105.702173 C134.424944,105.517686 134.498622,105.340838 134.629608,105.210922 L143.942636,95.8978938 L144.92514,96.8665594 L136.096445,105.709092 L144.92514,114.537787 L143.942636,115.506453 Z" id="Path" fill="#736F7F"></path>
            <path d="M139.182337,115.506453 L129.855471,106.193425 C129.593393,105.9291 129.593393,105.502923 129.855471,105.238598 L138.407404,95.9117319 L139.417584,96.8527213 L131.322307,105.681416 L140.16484,114.537787 L139.182337,115.506453 Z" id="Path" fill="#736F7F"></path>
        </g>
        <rect id="Rectangle" x="0" y="-47" width="500" height="254"></rect>
    </g>
</svg>