<?xml version="1.0" encoding="UTF-8"?>
<svg width="500px" height="258px" viewBox="0 0 500 258" version="1.1" xmlns="http://www.w3.org/2000/svg" xmlns:xlink="http://www.w3.org/1999/xlink">
    <!-- Generator: Sketch 53.2 (72643) - https://sketchapp.com -->
    <title>v  copy 2</title>
    <desc>Created with Sketch.</desc>
    <g id="v--copy-2" stroke="none" stroke-width="1" fill="none" fill-rule="evenodd">
        <g id="pop-figure-5" transform="translate(43.500000, 0.000000)" fill-rule="nonzero">
            <path d="M27.9934942,10.8803543 L29.3625454,10.8803543 L29.3625454,12.2133778 L27.9934942,12.2133778 L27.9934942,10.8803543 Z M31.512196,10.8803543 L32.8812472,10.8803543 L32.8812472,12.2133778 L31.512196,12.2133778 L31.512196,10.8803543 Z M35.0308978,10.8803543 L36.399949,10.8803543 L36.399949,12.2133778 L35.0308978,12.2133778 L35.0308978,10.8803543 Z M38.5616087,10.8803543 L39.9306599,10.8803543 L39.9306599,12.2133778 L38.5616087,12.2133778 L38.5616087,10.8803543 Z M42.0803105,10.8803543 L43.4493617,10.8803543 L43.4493617,12.2133778 L42.0803105,12.2133778 L42.0803105,10.8803543 Z M45.5990123,10.8803543 L46.9680635,10.8803543 L46.9680635,12.2133778 L45.5990123,12.2133778 L45.5990123,10.8803543 Z M27.9934942,14.2189177 L29.3625454,14.2189177 L29.3625454,15.5519412 L27.9934942,15.5519412 L27.9934942,14.2189177 Z M35.0308978,14.2189177 L36.399949,14.2189177 L36.399949,15.5519412 L35.0308978,15.5519412 L35.0308978,14.2189177 Z M38.5616087,14.2189177 L39.9306599,14.2189177 L39.9306599,15.5519412 L38.5616087,15.5519412 L38.5616087,14.2189177 Z M42.0803105,14.2189177 L43.4493617,14.2189177 L43.4493617,15.5519412 L42.0803105,15.5519412 L42.0803105,14.2189177 Z M45.5990123,14.2189177 L46.9680635,14.2189177 L46.9680635,15.5519412 L45.5990123,15.5519412 L45.5990123,14.2189177 Z M27.9934942,17.5574812 L29.3625454,17.5574812 L29.3625454,18.8905047 L27.9934942,18.8905047 L27.9934942,17.5574812 Z M35.0308978,17.5574812 L36.399949,17.5574812 L36.399949,18.8905047 L35.0308978,18.8905047 L35.0308978,17.5574812 Z M42.0803105,17.5574812 L43.4493617,17.5574812 L43.4493617,18.8905047 L42.0803105,18.8905047 L42.0803105,17.5574812 Z M45.5990123,17.5574812 L46.9680635,17.5574812 L46.9680635,18.8905047 L45.5990123,18.8905047 L45.5990123,17.5574812 Z M27.9934942,20.8960446 L29.3625454,20.8960446 L29.3625454,22.2290681 L27.9934942,22.2290681 L27.9934942,20.8960446 Z M31.512196,20.8960446 L32.8812472,20.8960446 L32.8812472,22.2290681 L31.512196,22.2290681 L31.512196,20.8960446 Z M35.0308978,20.8960446 L36.399949,20.8960446 L36.399949,22.2290681 L35.0308978,22.2290681 L35.0308978,20.8960446 Z M42.0803105,20.8960446 L43.4493617,20.8960446 L43.4493617,22.2290681 L42.0803105,22.2290681 L42.0803105,20.8960446 Z" id="Shape" fill="#63E54C"></path>
            <path d="M37.5768526,57.644261 C37.4169416,57.6434392 37.2629727,57.5835624 37.1445207,57.4761319 L32.5930259,52.9366463 C32.4809648,52.8250507 32.4164147,52.6744337 32.4128876,52.5163236 L32.4128876,50.1144794 C32.4138034,49.9617105 32.474096,49.8152857 32.5810167,49.7061659 C33.61713,48.7593105 34.4611437,47.6217268 35.0669254,46.3555932 C34.5061506,45.1667535 33.7093965,44.1044147 32.7251273,43.2331957 C32.5329271,43.0084888 32.5329271,42.6773033 32.7251273,42.4525964 C33.7782138,41.3158019 34.5946689,39.9808978 35.1269715,38.5255811 C35.1269715,38.0211938 34.118197,36.9523731 32.7251273,35.967617 C32.5366506,35.8531258 32.4225337,35.6477154 32.4248968,35.4272021 L32.4248968,32.8332103 C32.4307703,32.1883154 32.0395013,31.6061835 31.4401407,31.3680853 C23.7009591,28.2517961 19.5759879,19.7839306 21.8928099,11.7690366 C23.3768077,6.41578834 27.5624123,2.23474316 32.9172749,0.756580925 C38.6073358,-0.90323535 44.7501127,0.645093606 48.9736034,4.80368841 C52.7877955,8.64471929 54.4333673,14.1359565 53.3601804,19.4415996 C52.2869935,24.7472428 48.6366452,29.1672598 43.6295,31.2239747 C43.0392394,31.4712288 42.6555403,32.0491459 42.6567531,32.6890997 L42.6567531,52.3842222 C42.6576943,52.540899 42.5973586,52.6917383 42.488624,52.8045449 L37.9491385,57.3800581 C37.8611669,57.5103368 37.7288683,57.6042262 37.5768526,57.644261 L37.5768526,57.644261 Z M33.6258189,52.2641299 L37.5888618,56.2031544 L41.5158771,52.2281023 L41.5158771,32.7971826 C41.4988466,31.664069 42.1815994,30.6375526 43.2331957,30.2152001 C45.0685907,29.4585695 46.737452,28.3487155 48.1449671,26.948692 C54.0039512,21.0791448 54.0039512,11.5739272 48.1449671,5.70437999 C44.2382207,1.82099901 38.5297612,0.367434781 33.2415238,1.90946614 C28.2913965,3.27554358 24.4237818,7.14315826 23.0577044,12.0932856 C20.8989245,19.5113189 24.7085335,27.3589059 31.8724726,30.2512278 C32.9315533,30.6703373 33.6268398,31.6942179 33.6258189,32.8332103 L33.6258189,35.1149623 C34.718658,35.9195801 36.2678475,37.2886313 36.2678475,38.4775442 C36.2678475,39.6664571 34.9468332,41.455831 33.9620771,42.7408177 C35.4872482,44.4341178 36.2678475,45.6350399 36.2678475,46.3555932 C36.2678475,47.0761465 35.3791652,48.4451977 33.6138097,50.3546638 L33.6258189,52.2641299 Z M5.41615869,74.325069 C5.4201552,74.9546923 5.16515778,75.5582755 4.71094633,75.9943185 C4.25673487,76.4303615 3.64325053,76.6605208 3.01431448,76.6308394 L2.14965057,76.6308394 L2.14965057,78.8525453 L0.756580925,78.8525453 L0.756580925,72.0553262 L3.0263237,72.0553262 C3.64698809,72.0292783 4.25167619,72.2560868 4.70211013,72.6838859 C5.15254406,73.1116849 5.41020021,73.7038868 5.41615869,74.325069 Z M4.05911671,74.325069 C4.05985167,74.050918 3.94626938,73.7888701 3.74569758,73.6019736 C3.54512579,73.4150772 3.27572232,73.320252 3.00230526,73.3403129 L2.14965057,73.3403129 L2.14965057,75.3218343 L3.00230526,75.3218343 C3.27782382,75.3420792 3.54917591,75.2456613 3.75014816,75.056108 C3.95112042,74.8665546 4.06322854,74.6012997 4.05911671,74.325069 L4.05911671,74.325069 Z M7.878049,72.0553262 L10.48405,72.0553262 C11.0363821,72.0216784 11.5776224,72.2205198 11.9768065,72.6037365 C12.3759906,72.9869532 12.5967486,73.5196303 12.5856636,74.0728754 C12.6094011,74.9273783 12.0174952,75.6761141 11.1805848,75.8502401 L13.582429,78.8765638 L12.009221,78.8765638 L9.60737683,75.9823415 L9.27111864,75.9823415 L9.27111864,78.8525453 L7.878049,78.8525453 L7.878049,72.0553262 Z M10.2798932,74.8174471 C10.7962897,74.8174471 11.1565663,74.541235 11.1565663,74.0728754 C11.1565663,73.6045157 10.7962897,73.3403129 10.2798932,73.3403129 L9.27111864,73.3403129 L9.27111864,74.8174471 L10.2798932,74.8174471 Z M15.6119873,72.0553262 L17.005057,72.0553262 L17.005057,78.8765638 L15.6119873,78.8765638 L15.6119873,72.0553262 Z M19.2147537,72.0553262 L20.7279155,72.0553262 L22.6614001,76.8590146 L24.558857,72.0553262 L26.0960373,72.0553262 L23.2978888,78.8525453 L22.0969667,78.8525453 L19.2147537,72.0553262 Z M29.7708589,72.0553262 L30.9717811,72.0553262 L33.9260494,78.8765638 L32.4969521,78.8765638 L31.836445,77.3273743 L28.9302135,77.3273743 L28.2697063,78.8765638 L26.8285998,78.8765638 L29.7708589,72.0553262 Z M31.3320577,76.1024337 L30.3833292,73.8567094 L29.44661,76.0784153 L31.3320577,76.1024337 Z M36.7602256,73.3643313 L34.9468332,73.3643313 L34.9468332,72.0553262 L39.9907061,72.0553262 L39.9907061,73.3883498 L38.1532952,73.3883498 L38.1532952,78.8765638 L36.7602256,78.8765638 L36.7602256,73.3643313 Z M42.3925503,72.0553262 L46.6438145,72.0553262 L46.6438145,73.3883498 L43.7856199,73.3883498 L43.7856199,74.7814194 L46.0673719,74.7814194 L46.0673719,76.1144429 L43.7856199,76.1144429 L43.7856199,77.5555495 L46.6438145,77.5555495 L46.6438145,78.8765638 L42.3925503,78.8765638 L42.3925503,72.0553262 Z M52.9006187,72.0553262 L54.2816791,72.0553262 L54.2816791,74.9375393 L56.6835233,72.0553262 L58.4008419,72.0553262 L55.5906842,75.3338436 L58.9772845,78.8765638 L57.1759014,78.8765638 L54.2816791,75.7541663 L54.2816791,78.8525453 L52.9006187,78.8525453 L52.9006187,72.0553262 Z M61.0068429,72.0553262 L65.2460979,72.0553262 L65.2460979,73.3883498 L62.4479494,73.3883498 L62.4479494,74.7814194 L64.7176922,74.7814194 L64.7176922,76.1144429 L62.4479494,76.1144429 L62.4479494,77.5555495 L65.2941348,77.5555495 L65.2941348,78.8765638 L61.0068429,78.8765638 L61.0068429,72.0553262 Z M69.761565,75.9823415 L67.2516378,72.0553262 L68.8608734,72.0553262 L70.4580998,74.6373087 L72.0553262,72.0553262 L73.6765711,72.0553262 L71.1546346,76.0183692 L71.1546346,78.8765638 L69.761565,78.8765638 L69.761565,75.9823415 Z M17.3533244,162.124484 L19.5990487,162.124484 C21.4826815,162.124484 23.0096675,163.65147 23.0096675,165.535103 C23.0096675,167.418735 21.4826815,168.945722 19.5990487,168.945722 L17.3533244,168.945722 L17.3533244,162.124484 Z M19.5990487,167.672744 C20.714383,167.58897 21.5765796,166.659583 21.5765796,165.541107 C21.5765796,164.422631 20.714383,163.493245 19.5990487,163.409471 L18.746394,163.409471 L18.746394,167.672744 L19.5990487,167.672744 Z M25.6757146,162.124484 L27.056775,162.124484 L27.056775,168.945722 L25.6757146,168.945722 L25.6757146,162.124484 Z M33.3255884,169.041795 C32.3604096,169.087809 31.4185471,168.736239 30.7195867,168.069049 C30.0206263,167.40186 29.6256521,166.477359 29.6267483,165.511084 C29.6163413,164.559997 29.9953786,163.646035 30.6758307,162.98146 C31.3562828,162.316885 32.2789383,161.959528 33.2295146,161.992383 C34.2641152,161.952203 35.2659936,162.359079 35.9796262,163.10924 L35.0068793,164.057969 C34.5401802,163.581405 33.8963208,163.320381 33.2295146,163.337415 C32.412983,163.30057 31.6441262,163.722395 31.236503,164.430862 C30.8288799,165.139328 30.8506163,166.01603 31.2928476,166.703426 C31.7350789,167.390821 32.5238952,167.774027 33.3375976,167.696763 C33.8412394,167.725829 34.3412475,167.595575 34.7666949,167.324477 L34.7666949,166.123555 L33.2775515,166.123555 L33.2775515,164.81455 L36.0997184,164.81455 L36.0997184,168.009002 C35.3521969,168.713404 34.35176,169.085861 33.3255884,169.041795 L33.3255884,169.041795 Z M38.7897839,162.124484 L43.0410482,162.124484 L43.0410482,163.457508 L40.1828536,163.457508 L40.1828536,164.850577 L42.4646056,164.850577 L42.4646056,166.183601 L40.1828536,166.183601 L40.1828536,167.624707 L43.0410482,167.624707 L43.0410482,168.945722 L38.7897839,168.945722 L38.7897839,162.124484 Z M46.2595194,166.928172 C46.5916252,167.420772 47.1426772,167.720938 47.7366536,167.73279 C48.2890778,167.73279 48.6493544,167.468587 48.6493544,167.072283 C48.6493544,166.675979 48.3731423,166.411776 47.700626,166.183601 L47.1241833,165.979444 C46.0313442,165.595149 45.4428924,164.970669 45.4428924,164.03395 C45.441878,163.444748 45.693993,162.883493 46.1351288,162.492904 C46.5762647,162.102315 47.1639195,161.920023 47.7486628,161.992383 C48.5681179,161.973208 49.3544402,162.315851 49.8983134,162.929102 L48.9736034,163.87783 C48.6852203,163.507276 48.2422286,163.29021 47.7726813,163.289378 C47.2923124,163.289378 46.8599805,163.493535 46.8599805,163.901849 C46.8599805,164.310162 47.1962387,164.490301 47.9167919,164.754503 L48.4572069,164.95866 C49.3750716,165.179241 50.0332385,165.984759 50.0664425,166.928172 C50.0507546,167.531387 49.7808525,168.099873 49.3233498,168.493325 C48.8658471,168.886778 48.2633644,169.068542 47.6645983,168.993758 C46.6874828,169.033343 45.7550194,168.582878 45.1786895,167.792836 L46.2595194,166.928172 Z M53.7772918,163.433489 L51.9638994,163.433489 L51.9638994,162.124484 L57.0197815,162.124484 L57.0197815,163.457508 L55.2424168,163.457508 L55.2424168,168.945722 L53.7772918,168.945722 L53.7772918,163.433489 Z" id="Shape" fill="#736F7F"></path>
            <circle id="Oval" fill="#FFE000" cx="37.7449817" cy="127.549937" r="21.6165979"></circle>
            <polygon id="Path" fill="#63E54C" points="17.3052875 197.635751 57.6562702 197.635751 57.6562702 237.986733 17.3052875 237.986733"></polygon>
            <path d="M5.34410336,255.796408 C5.68003821,256.29089 6.23553019,256.591035 6.83324677,256.601026 C7.37366172,256.601026 7.74594757,256.336823 7.74594757,255.940519 C7.74594757,255.544214 7.45772626,255.280012 6.78520989,255.051836 L6.20876728,254.84768 C5.11592816,254.463385 4.52747633,253.838905 4.52747633,252.902186 C4.5303237,252.314271 4.78356376,251.755427 5.22373974,251.365688 C5.66391571,250.975949 6.24931436,250.792248 6.83324677,250.860618 C7.6536789,250.836424 8.44203518,251.179954 8.98289734,251.797337 L8.07019654,252.746066 C7.7795271,252.378335 7.33799137,252.161983 6.86927443,252.157614 C6.40091481,252.157614 5.95657363,252.361771 5.95657363,252.770084 C5.95657363,253.178398 6.29283182,253.358536 7.01338509,253.622739 L7.56580925,253.826896 C8.47892214,254.052072 9.13127524,254.856477 9.16303565,255.796408 C9.14368102,256.398307 8.87273901,256.964488 8.41615218,257.357153 C7.95956535,257.749818 7.35920612,257.932956 6.76119144,257.861994 C5.781805,257.91267 4.84433582,257.459786 4.27528269,256.661072 L5.34410336,255.796408 Z M11.7089905,250.99272 L13.1020602,250.99272 L13.1020602,257.813957 L11.7089905,257.813957 L11.7089905,250.99272 Z M19.3588643,257.910031 C18.3957162,257.952661 17.4570255,257.599583 16.7607271,256.932769 C16.0644286,256.265956 15.6710905,255.343411 15.6720335,254.37932 C15.6616264,253.428233 16.0406638,252.51427 16.7211159,251.849695 C17.401568,251.18512 18.3242234,250.827763 19.2747998,250.860618 C20.3094004,250.820439 21.3112787,251.227315 22.0249114,251.977476 L21.0521645,252.938213 C20.5754744,252.437035 19.9058627,252.165689 19.2147537,252.193642 C18.3982221,252.156796 17.6293652,252.578622 17.2217421,253.287088 C16.8141189,253.995555 16.8358553,254.872256 17.2780866,255.559652 C17.7203179,256.247048 18.5091343,256.630254 19.3228366,256.552989 C19.8264784,256.582056 20.3264866,256.451802 20.751934,256.180703 L20.751934,254.979781 L19.3108274,254.979781 L19.3108274,253.670776 L22.1450036,253.670776 L22.1450036,256.877238 C21.3901895,257.577666 20.3878479,257.949223 19.3588643,257.910031 L19.3588643,257.910031 Z M29.7228221,257.789939 L26.2281387,253.394564 L26.2281387,257.837976 L24.8350691,257.837976 L24.8350691,250.99272 L26.0359912,250.99272 L29.5306745,255.448141 L29.5306745,250.99272 L30.9237442,250.99272 L30.9237442,257.813957 L29.7228221,257.789939 Z M36.0276631,250.99272 L37.2285852,250.99272 L40.1708444,257.813957 L38.8017932,257.813957 L38.141286,256.264768 L35.2350545,256.264768 L34.5745474,257.813957 L33.1334408,257.813957 L36.0276631,250.99272 Z M37.5768526,255.039827 L36.6401334,252.818121 L35.7034141,255.039827 L37.5768526,255.039827 Z M43.0530574,252.301725 L41.239665,252.301725 L41.239665,250.99272 L46.2955471,250.99272 L46.2955471,252.325743 L44.4341178,252.325743 L44.4341178,257.813957 L43.0530574,257.813957 L43.0530574,252.301725 Z M51.399466,257.910031 C50.6459812,257.949352 49.9116343,257.664648 49.3815681,257.127697 C48.851502,256.590747 48.5762964,255.852788 48.625336,255.099873 L48.625336,250.99272 L50.0184056,250.99272 L50.0184056,255.14791 C50.0184056,255.910649 50.6367274,256.528971 51.399466,256.528971 C52.1622046,256.528971 52.7805265,255.910649 52.7805265,255.14791 L52.7805265,250.99272 L54.1735961,250.99272 L54.1735961,255.123892 C54.2116788,255.871735 53.9320752,256.600867 53.4037299,257.1315 C52.8753845,257.662132 52.1474667,257.944883 51.399466,257.910031 L51.399466,257.910031 Z M57.0558091,250.99272 L59.6738193,250.99272 C60.2250979,250.958851 60.7652654,251.158018 61.1626038,251.541656 C61.5599421,251.925293 61.7779344,252.458141 61.7634238,253.010269 C61.7871612,253.864772 61.1952553,254.613508 60.3583449,254.787634 L62.7601891,257.813957 L61.1269351,257.813957 L58.8451831,254.919735 L58.4969157,254.919735 L58.4969157,257.789939 L57.0558091,257.789939 L57.0558091,250.99272 Z M59.4576534,253.75484 C59.9740499,253.75484 60.3343265,253.478628 60.3343265,253.010269 C60.3343265,252.541909 59.9740499,252.277706 59.4576534,252.277706 L58.4008419,252.277706 L58.4008419,253.75484 L59.4576534,253.75484 Z M64.8497936,250.99272 L69.0890486,250.99272 L69.0890486,252.325743 L66.1948264,252.325743 L66.1948264,253.718813 L68.4525599,253.718813 L68.4525599,255.051836 L66.1948264,255.051836 L66.1948264,256.492943 L69.0410117,256.492943 L69.0410117,257.813957 L64.8497936,257.813957 L64.8497936,250.99272 Z" id="Shape" fill="#736F7F"></path>
            <polygon id="Path" fill="#B4B1BD" points="298.609281 126.048784 293.433307 123.070497 293.433307 129.03908"></polygon>
            <path d="M263.866605,125.448323 L294.093814,125.448323 L294.093814,126.649245 L263.866605,126.649245 L263.866605,125.448323 Z M137.685719,126.829383 L132.509745,123.839087 L132.509745,129.80767 L137.685719,126.829383 Z" id="Shape" fill="#B4B1BD"></path>
            <path d="M93.3356659,126.228922 L133.170252,126.228922 L133.170252,127.429844 L93.3356659,127.429844 L93.3356659,126.228922 Z M137.685719,109.62017 L132.509745,106.641883 L132.509745,112.610466 L137.685719,109.62017 Z" id="Shape" fill="#B4B1BD"></path>
            <path d="M133.170252,110.220631 L104.348122,110.220631 C104.016496,110.220631 103.747661,109.951795 103.747661,109.62017 L103.747661,35.3791652 L93.3356659,35.3791652 L93.3356659,34.1782431 L104.348122,34.1782431 C104.679747,34.1782431 104.948583,34.4470786 104.948583,34.7787041 L104.948583,109.019709 L133.170252,109.019709 L133.170252,110.220631 Z M137.685719,144.026588 L132.509745,141.048301 L132.509745,147.016884 L137.685719,144.026588 Z" id="Shape" fill="#B4B1BD"></path>
            <path d="M104.348122,218.411703 L93.6719241,218.411703 L93.6719241,217.210781 L103.783688,217.210781 L103.783688,144.026588 C103.783688,143.694962 104.052524,143.426127 104.384149,143.426127 L133.20628,143.426127 L133.20628,144.627049 L104.948583,144.627049 L104.948583,217.811242 C104.948583,218.142867 104.679747,218.411703 104.348122,218.411703 Z" id="Path" fill="#B4B1BD"></path>
            <path d="M176.019153,174.133705 C176.351258,174.626304 176.902311,174.926471 177.496287,174.938323 C178.036702,174.938323 178.408988,174.67412 178.408988,174.277816 C178.408988,173.881511 178.132776,173.617309 177.460259,173.389133 L176.883817,173.184977 C175.790978,172.800681 175.202526,172.176202 175.202526,171.239483 C175.201511,170.65028 175.453626,170.089026 175.894762,169.698437 C176.335898,169.307848 176.923553,169.125556 177.508296,169.197915 C178.327751,169.178741 179.114073,169.521384 179.657947,170.134634 L178.733237,171.083363 C178.444854,170.712809 178.001862,170.495743 177.532315,170.494911 C177.051946,170.494911 176.619614,170.699068 176.619614,171.107381 C176.619614,171.515695 176.955872,171.695833 177.676425,171.960036 L178.21684,172.164193 C179.156391,172.384694 179.825009,173.216752 179.838085,174.181742 C179.822397,174.784956 179.552495,175.353442 179.094992,175.746895 C178.63749,176.140347 178.035007,176.322112 177.436241,176.247328 C176.459125,176.286913 175.526662,175.836447 174.950332,175.046406 L176.019153,174.133705 Z M182.372031,169.330017 L183.741082,169.330017 L183.741082,176.151254 L182.348012,176.151254 L182.372031,169.330017 Z M190.033914,176.247328 C189.068735,176.293342 188.126872,175.941771 187.427912,175.274582 C186.728952,174.607392 186.333977,173.682891 186.335074,172.716617 C186.324667,171.76553 186.703704,170.851567 187.384156,170.186992 C188.064608,169.522417 188.987264,169.16506 189.93784,169.197915 C190.972441,169.157736 191.974319,169.564612 192.687952,170.314773 L191.715205,171.263501 C191.248506,170.786938 190.604646,170.525914 189.93784,170.542948 C189.121308,170.506102 188.352451,170.927928 187.944828,171.636395 C187.537205,172.344861 187.558942,173.221563 188.001173,173.908958 C188.443404,174.596354 189.232221,174.97956 190.045923,174.902295 C190.549565,174.931362 191.049573,174.801108 191.47502,174.530009 L191.47502,173.329087 L189.985877,173.329087 L189.985877,172.020082 L192.808044,172.020082 L192.808044,175.214535 C192.060522,175.918937 191.060085,176.291394 190.033914,176.247328 L190.033914,176.247328 Z M200.385862,176.127236 L196.951225,171.731861 L196.951225,176.175273 L195.558155,176.175273 L195.558155,169.330017 L196.759077,169.330017 L200.253761,173.785438 L200.253761,169.330017 L201.64683,169.330017 L201.64683,176.151254 L200.385862,176.127236 Z M204.553062,169.330017 L205.946132,169.330017 L205.946132,176.151254 L204.553062,176.151254 L204.553062,169.330017 Z M213.764134,176.127236 L210.269451,171.683824 L210.269451,176.127236 L208.960446,176.127236 L208.960446,169.330017 L210.161368,169.330017 L213.656051,173.785438 L213.656051,169.330017 L214.965057,169.330017 L214.965057,176.151254 L213.764134,176.127236 Z M221.257888,176.247328 C220.29271,176.293342 219.350847,175.941771 218.651887,175.274582 C217.952926,174.607392 217.557952,173.682891 217.559048,172.716617 C217.548641,171.76553 217.927679,170.851567 218.608131,170.186992 C219.288583,169.522417 220.211238,169.16506 221.161815,169.197915 C222.196415,169.157736 223.198294,169.564612 223.911926,170.314773 L222.939179,171.263501 C222.47248,170.786938 221.828621,170.525914 221.161815,170.542948 C220.345283,170.506102 219.576426,170.927928 219.168803,171.636395 C218.76118,172.344861 218.782916,173.221563 219.225148,173.908958 C219.667379,174.596354 220.456195,174.97956 221.269898,174.902295 C221.773539,174.931362 222.273548,174.801108 222.698995,174.530009 L222.698995,173.329087 L221.209851,173.329087 L221.209851,172.020082 L224.032018,172.020082 L224.032018,175.214535 C223.284497,175.918937 222.28406,176.291394 221.257888,176.247328 L221.257888,176.247328 Z M167.984984,180.83485 L169.185906,180.83485 L172.128165,187.656088 L170.675049,187.656088 L170.002533,186.094889 L167.108311,186.094889 L166.447804,187.656088 L165.006697,187.656088 L167.984984,180.83485 Z M169.534173,184.881958 L168.597454,182.660252 L167.648726,184.942004 L169.534173,184.881958 Z M174.373889,180.83485 L175.766959,180.83485 L175.766959,186.335074 L178.6852,186.335074 L178.6852,187.656088 L174.373889,187.656088 L174.373889,180.83485 Z M184.07734,187.77618 C183.117664,187.801966 182.187386,187.443667 181.492949,186.780795 C180.798511,186.117923 180.397354,185.205306 180.3785,184.245469 C180.368093,183.294382 180.74713,182.380419 181.427582,181.715844 C182.108034,181.05127 183.03069,180.693912 183.981266,180.726767 C185.011738,180.690072 186.008546,181.096665 186.719369,181.843625 L185.758631,182.792353 C185.291932,182.31579 184.648073,182.054766 183.981266,182.0718 C183.164396,182.031936 182.393616,182.45145 181.983588,183.159082 C181.57356,183.866713 181.592895,184.74405 182.0337,185.432931 C182.474506,186.121811 183.26302,186.506961 184.07734,186.431147 C184.585011,186.462779 185.089617,186.332423 185.518447,186.058862 L185.518447,184.857939 L184.041312,184.857939 L184.041312,183.548934 L186.863479,183.548934 L186.863479,186.743387 C186.114505,187.453252 185.108046,187.826336 184.07734,187.77618 L184.07734,187.77618 Z M192.663933,187.77618 C190.713975,187.77618 189.133222,186.195427 189.133222,184.245469 C189.133222,182.295511 190.713975,180.714758 192.663933,180.714758 C194.613891,180.714758 196.194644,182.295511 196.194644,184.245469 C196.194644,186.195427 194.613891,187.77618 192.663933,187.77618 L192.663933,187.77618 Z M192.663933,186.431147 C193.553928,186.460504 194.372751,185.946995 194.733871,185.133027 C195.094992,184.319059 194.926201,183.367392 194.307178,182.727265 C193.688154,182.087139 192.742677,181.886552 191.917065,182.220194 C191.091453,182.553835 190.550794,183.354991 190.55031,184.245469 C190.540675,184.815615 190.757965,185.366229 191.154363,185.776141 C191.550761,186.186053 192.093784,186.421672 192.663933,186.431147 L192.663933,186.431147 Z M198.752608,180.83485 L201.358609,180.83485 C201.910941,180.801203 202.452182,181.000044 202.851366,181.383261 C203.25055,181.766477 203.471308,182.299154 203.460223,182.852399 C203.48396,183.706902 202.892054,184.455638 202.055144,184.629764 L204.456988,187.656088 L202.775697,187.656088 L200.553991,184.785884 L200.205724,184.785884 L200.205724,187.656088 L198.752608,187.656088 L198.752608,180.83485 Z M201.154452,183.596971 C201.670849,183.596971 202.031125,183.320759 202.031125,182.852399 C202.031125,182.38404 201.670849,182.119837 201.154452,182.119837 L200.097641,182.119837 L200.097641,183.596971 L201.154452,183.596971 Z M206.558602,180.83485 L207.951671,180.83485 L207.951671,187.656088 L206.558602,187.656088 L206.558602,180.83485 Z M212.106862,182.167874 L210.29347,182.167874 L210.29347,180.83485 L215.337342,180.83485 L215.337342,182.167874 L213.511941,182.167874 L213.511941,187.656088 L212.106862,187.656088 L212.106862,182.167874 Z M217.751196,180.83485 L219.132256,180.83485 L219.132256,183.560944 L222.098534,183.560944 L222.098534,180.83485 L223.491603,180.83485 L223.491603,187.656088 L222.098534,187.656088 L222.098534,184.942004 L219.132256,184.942004 L219.132256,187.716134 L217.751196,187.716134 L217.751196,180.83485 Z M227.838941,183.224685 L227.838941,187.656088 L226.445872,187.656088 L226.445872,180.83485 L227.718849,180.83485 L229.940555,183.873183 L232.150252,180.83485 L233.423229,180.83485 L233.423229,187.656088 L232.03016,187.656088 L232.03016,183.224685 L229.940555,186.142926 L227.838941,183.224685 Z M342.2628,169.330017 L344.8688,169.330017 C345.420079,169.296148 345.960247,169.495315 346.357585,169.878952 C346.754923,170.26259 346.972916,170.795438 346.958405,171.347566 C346.988181,172.199998 346.400196,172.950186 345.565335,173.12493 L347.96718,176.151254 L346.297898,176.151254 L343.9561,173.28105 L343.607832,173.28105 L343.607832,176.151254 L342.2628,176.151254 L342.2628,169.330017 Z M344.664644,172.092137 C345.193049,172.092137 345.541317,171.815925 345.541317,171.347566 C345.541317,170.879206 345.193049,170.615003 344.664644,170.615003 L343.607832,170.615003 L343.607832,172.092137 L344.664644,172.092137 Z M349.984729,169.330017 L354.272021,169.330017 L354.272021,170.66304 L351.413826,170.66304 L351.413826,172.05611 L353.695578,172.05611 L353.695578,173.389133 L351.413826,173.389133 L351.413826,174.83024 L354.272021,174.83024 L354.272021,176.151254 L350.020756,176.151254 L349.984729,169.330017 Z M357.454464,174.133705 C357.78657,174.626304 358.337622,174.926471 358.931598,174.938323 C359.484022,174.938323 359.844299,174.67412 359.844299,174.277816 C359.844299,173.881511 359.568087,173.617309 358.895571,173.389133 L358.319128,173.184977 C357.226289,172.800681 356.637837,172.176202 356.637837,171.239483 C356.640684,170.651568 356.893925,170.092724 357.334101,169.702985 C357.774276,169.313246 358.359675,169.129545 358.943608,169.197915 C359.763063,169.178741 360.549385,169.521384 361.093258,170.134634 L360.168548,171.083363 C359.880165,170.712809 359.437173,170.495743 358.967626,170.494911 C358.487257,170.494911 358.054925,170.699068 358.054925,171.107381 C358.054925,171.515695 358.391183,171.695833 359.111737,171.960036 L359.652152,172.164193 C360.591703,172.384694 361.260321,173.216752 361.273396,174.181742 C361.257709,174.784956 360.987806,175.353442 360.530304,175.746895 C360.072801,176.140347 359.470318,176.322112 358.871552,176.247328 C357.894437,176.286913 356.961973,175.836447 356.385643,175.046406 L357.454464,174.133705 Z M366.509417,176.247328 C365.755932,176.286649 365.021585,176.001944 364.491519,175.464994 C363.961453,174.928044 363.686247,174.190085 363.735287,173.43717 L363.735287,169.330017 L365.080319,169.330017 L365.080319,173.485207 C365.080319,174.247946 365.698641,174.866268 366.46138,174.866268 C367.224119,174.866268 367.84244,174.247946 367.84244,173.485207 L367.84244,169.330017 L369.23551,169.330017 L369.23551,173.461189 C369.272647,174.200372 368.999443,174.921486 368.481834,175.450496 C367.964225,175.979506 367.249233,176.268354 366.509417,176.247328 L366.509417,176.247328 Z M372.177769,169.330017 L373.55883,169.330017 L373.55883,174.83024 L376.489079,174.83024 L376.489079,176.151254 L372.177769,176.151254 L372.177769,169.330017 Z M379.239191,170.639022 L377.41379,170.639022 L377.41379,169.330017 L382.469672,169.330017 L382.469672,170.66304 L380.692307,170.66304 L380.692307,176.151254 L379.299237,176.151254 L379.239191,170.639022 Z M245.528524,155.999781 L155.879689,155.999781 C155.548064,155.999781 155.279228,155.730946 155.279228,155.39932 L155.279228,97.7550592 C155.279228,97.4234338 155.548064,97.1545982 155.879689,97.1545982 L245.528524,97.1545982 C245.86015,97.1545982 246.128985,97.4234338 246.128985,97.7550592 L246.128985,155.39932 C246.128985,155.730946 245.86015,155.999781 245.528524,155.999781 L245.528524,155.999781 Z M156.48015,154.798859 L244.988109,154.798859 L244.988109,98.3555203 L156.48015,98.3555203 L156.48015,154.798859 Z" id="Shape" fill="#736F7F"></path>
            <polygon id="Path" fill="#63E54C" points="229.640325 104.468214 236.089276 104.468214 236.089276 110.917165 229.640325 110.917165"></polygon>
            <circle id="Oval" fill="#FFE000" cx="168.81362" cy="107.686685" r="3.68683086"></circle>
            <circle id="Oval" fill="#FFE000" cx="220.30916" cy="107.686685" r="3.68683086"></circle>
            <polygon id="Path" fill="#63E54C" points="191.246845 104.468214 197.695797 104.468214 197.695797 110.917165 191.246845 110.917165"></polygon>
            <polygon id="Path" fill="#736F7F" points="207.759524 104.37214 203.928582 111.013239 211.602475 111.013239"></polygon>
            <polygon id="Path" fill="#8F8B9B" points="181.339238 104.37214 177.508296 111.013239 185.182188 111.013239"></polygon>
            <circle id="Oval" fill="#FFE000" cx="194.489335" cy="145.467694" r="3.68683086"></circle>
            <polygon id="Path" fill="#63E54C" points="177.676425 142.237214 184.125377 142.237214 184.125377 148.686166 177.676425 148.686166"></polygon>
            <polygon id="Path" fill="#736F7F" points="168.50138 142.14114 164.670439 148.782239 172.344331 148.782239"></polygon>
            <circle id="Oval" fill="#FFE000" cx="220.30916" cy="145.467694" r="3.68683086"></circle>
            <polygon id="Path" fill="#736F7F" points="233.207063 142.14114 229.364113 148.782239 237.038005 148.782239"></polygon>
            <polygon id="Path" fill="#63E54C" points="204.685163 142.237214 211.134115 142.237214 211.134115 148.686166 204.685163 148.686166"></polygon>
            <path d="M155.975763,133.590575 L151.652443,133.590575 C151.320818,133.590575 151.051982,133.321739 151.051982,132.990114 L151.051982,120.164266 C151.051982,119.83264 151.320818,119.563805 151.652443,119.563805 L155.975763,119.563805 L155.975763,120.764727 L152.252904,120.764727 L152.252904,132.389653 L155.975763,132.389653 L155.975763,133.590575 Z M155.975763,116.033094 L151.652443,116.033094 C151.320818,116.033094 151.051982,115.764258 151.051982,115.432633 L151.051982,102.606785 C151.051982,102.275159 151.320818,102.006323 151.652443,102.006323 L155.975763,102.006323 L155.975763,103.207246 L152.252904,103.207246 L152.252904,114.832172 L155.975763,114.832172 L155.975763,116.033094 Z M155.975763,151.148056 L151.652443,151.148056 C151.320818,151.148056 151.051982,150.87922 151.051982,150.547595 L151.051982,137.721747 C151.051982,137.390121 151.320818,137.121286 151.652443,137.121286 L155.975763,137.121286 L155.975763,138.322208 L152.252904,138.322208 L152.252904,149.947134 L155.975763,149.947134 L155.975763,151.148056 Z M249.791798,133.590575 L245.480487,133.590575 L245.480487,132.389653 L249.191337,132.389653 L249.191337,120.764727 L245.480487,120.764727 L245.480487,119.563805 L249.791798,119.563805 C250.123423,119.563805 250.392259,119.83264 250.392259,120.164266 L250.392259,132.990114 C250.392259,133.321739 250.123423,133.590575 249.791798,133.590575 L249.791798,133.590575 Z" id="Shape" fill="#736F7F"></path>
            <path d="M165.72725,118.350873 L173.845484,118.350873 L173.845484,119.840017 L167.288449,119.840017 L167.288449,124.283429 L173.689364,124.283429 L173.689364,125.784581 L167.288449,125.784581 L167.288449,130.264021 L173.917539,130.264021 L173.917539,131.753164 L165.72725,131.753164 L165.72725,118.350873 Z M185.386345,130.528223 C185.873563,130.545077 186.35821,130.450612 186.803433,130.252011 C187.174744,130.083386 187.500115,129.828031 187.752162,129.50744 C188.007613,129.190992 188.199293,128.828022 188.316595,128.438619 C188.437704,128.025198 188.498378,127.596433 188.496733,127.165642 L188.496733,126.937466 L190.105969,126.937466 L190.105969,127.165642 C190.108864,127.811148 190.003316,128.452557 189.793729,129.063098 C189.602377,129.639148 189.295945,130.170298 188.893038,130.624297 C188.482416,131.067409 187.983253,131.419278 187.427913,131.65709 C186.777999,131.912499 186.084579,132.038947 185.386345,132.029376 C184.081382,132.101606 182.812558,131.586146 181.927689,130.624297 C181.037976,129.462322 180.610152,128.011998 180.726767,126.553171 L180.726767,123.562875 C180.62403,122.112951 181.050728,120.67498 181.927689,119.515768 C182.807068,118.543616 184.077231,118.018791 185.386345,118.08667 C186.085048,118.071338 186.779593,118.197991 187.427913,118.458956 C187.985613,118.692523 188.485622,119.044988 188.893038,119.491749 C189.293486,119.942979 189.599714,120.46969 189.793729,121.040939 C190.003319,121.655623 190.108849,122.300977 190.105969,122.950405 L190.105969,123.17858 L188.54477,123.17858 L188.54477,122.950405 C188.526566,122.543203 188.457992,122.139825 188.340614,121.749483 C188.227553,121.353423 188.040069,120.982531 187.788189,120.656644 C187.5301,120.342164 187.206271,120.08802 186.839461,119.912072 C186.397057,119.717972 185.917339,119.623668 185.434382,119.63586 C184.516734,119.576875 183.635923,120.005871 183.116602,120.764727 C182.561277,121.651301 182.289008,122.685925 182.336003,123.731004 L182.336003,126.493125 C182.269971,127.562814 182.543138,128.626066 183.116602,129.531458 C183.664608,130.214959 184.512272,130.587214 185.386345,130.528223 L185.386345,130.528223 Z M196.422819,118.350873 L200.830203,118.350873 C202.144075,118.247818 203.443706,118.681028 204.43297,119.551795 C205.311494,120.612492 205.742258,121.973706 205.633892,123.346709 L205.633892,126.793356 C205.739707,128.166066 205.309239,129.526345 204.43297,130.58827 C203.443706,131.459037 202.144075,131.892247 200.830203,131.789192 L196.422819,131.789192 L196.422819,130.288039 L197.623741,130.288039 L197.623741,119.840017 L196.422819,119.840017 L196.422819,118.350873 Z M200.602028,130.264021 C201.115373,130.270401 201.62757,130.213938 202.127199,130.095891 C202.523902,129.993109 202.887709,129.790535 203.184011,129.50744 C203.487465,129.201808 203.703154,128.820203 203.80849,128.402591 C203.956696,127.834371 204.025402,127.248346 204.012647,126.661254 L204.012647,123.442783 C204.024635,122.855728 203.955941,122.269808 203.80849,121.701446 C203.703154,121.283834 203.487465,120.902229 203.184011,120.596598 C202.886384,120.317855 202.522691,120.119477 202.127199,120.020155 C201.629226,119.891779 201.116207,119.831186 200.602028,119.840017 L199.18494,119.840017 L199.18494,130.264021 L200.602028,130.264021 Z M219.624634,122.217842 C219.642265,121.801391 219.551213,121.387521 219.360431,121.01692 C219.19649,120.693199 218.957706,120.413245 218.663897,120.200293 C218.357501,119.978102 218.016713,119.807708 217.655122,119.695906 C217.264286,119.585688 216.860278,119.529127 216.4542,119.527777 C216.096912,119.525983 215.741151,119.574496 215.397389,119.671888 C215.081758,119.761025 214.781937,119.898781 214.508706,120.080201 C214.256323,120.253899 214.043511,120.478989 213.884227,120.740708 C213.725868,121.018244 213.646929,121.334003 213.656051,121.653409 L213.656051,121.773501 C213.64461,122.10459 213.723486,122.432552 213.884227,122.72223 C214.056131,122.994108 214.29091,123.220649 214.568752,123.382737 C214.915187,123.594484 215.291765,123.752404 215.68561,123.851097 C216.203083,123.987473 216.728486,124.091751 217.258818,124.163336 C218.386628,124.252912 219.463623,124.670352 220.357197,125.364258 C221.025609,125.979954 221.39002,126.858052 221.353962,127.766103 L221.353962,127.994278 C221.360409,128.536275 221.262558,129.074455 221.065741,129.579495 C220.863313,130.041377 220.559591,130.451813 220.177058,130.780417 C219.75807,131.146204 219.267184,131.420282 218.735952,131.585035 C218.091275,131.787731 217.41811,131.885056 216.742421,131.873256 C215.969909,131.882613 215.201725,131.756615 214.472678,131.50097 C213.85747,131.276769 213.296738,130.924777 212.827415,130.468177 C212.383126,130.026112 212.039091,129.493678 211.818641,128.906979 C211.583527,128.289693 211.465424,127.634021 211.470373,126.973494 L211.470373,126.397051 L213.079609,126.397051 L213.079609,126.853402 C213.005076,127.833513 213.360055,128.797653 214.052356,129.49543 C214.804928,130.119119 215.766874,130.43261 216.742421,130.372104 C217.546533,130.433513 218.345325,130.198575 218.988146,129.711596 C219.494349,129.272978 219.772897,128.627455 219.744727,127.95825 L219.744727,127.850167 C219.781157,127.217502 219.491119,126.610236 218.976136,126.240932 C218.207338,125.785054 217.344963,125.509915 216.4542,125.436314 C215.834816,125.35468 215.223935,125.218036 214.628798,125.028 C214.127324,124.862065 213.656651,124.614556 213.235729,124.295438 C212.863819,124.00784 212.563723,123.637859 212.359056,123.214608 C212.14239,122.744408 212.035612,122.231052 212.046816,121.713455 L212.046816,121.48528 C212.041366,120.990081 212.152438,120.50054 212.371065,120.056183 C212.591706,119.619365 212.90284,119.234542 213.283766,118.927316 C213.698153,118.595221 214.17048,118.34277 214.676835,118.182744 C215.26132,118.009134 215.868529,117.924125 216.478218,117.930551 C217.164445,117.920882 217.847127,118.030599 218.495768,118.2548 C219.045448,118.447423 219.554494,118.740633 219.99692,119.119463 C220.396949,119.47634 220.716288,119.914407 220.933639,120.40445 C221.139425,120.895031 221.245564,121.421646 221.245879,121.95364 L221.245879,122.758257 L219.636644,122.758257 L219.624634,122.217842 Z M234.912373,128.42661 L229.159956,128.42661 L228.187209,131.753164 L226.457881,131.753164 L230.577044,118.350873 L233.603368,118.350873 L237.674494,131.753164 L235.945166,131.753164 L234.912373,128.42661 Z M231.922077,119.035399 L229.604297,126.937466 L234.468032,126.937466 L232.150252,119.035399 L231.922077,119.035399 Z M312.299793,120.09221 L320.706248,120.09221 L320.706248,122.205833 L317.58385,122.205833 L317.58385,131.81321 L315.374154,131.81321 L315.374154,122.205833 L312.263765,122.205833 L312.299793,120.09221 Z M322.543659,123.49082 L326.06236,123.49082 L326.06236,124.691742 L326.362591,124.691742 C326.509531,124.258556 326.791554,123.883929 327.167209,123.622921 C327.566979,123.364302 328.036389,123.234376 328.512241,123.250635 C329.256878,123.219388 329.980339,123.502671 330.505772,124.031235 C331.067641,124.699213 331.339945,125.563671 331.262353,126.433079 L331.262353,126.805365 L329.088684,127.009522 L329.088684,126.769337 C329.110903,126.372632 328.982194,125.982212 328.728407,125.676498 C328.457347,125.385598 328.067831,125.235103 327.671596,125.268185 C327.248525,125.247094 326.839873,125.424769 326.566748,125.748553 C326.278385,126.153523 326.138423,126.64551 326.170443,127.141623 L326.170443,129.819679 L328.079909,129.819679 L328.079909,131.825219 L322.351511,131.825219 L322.351511,129.819679 L324.05682,129.819679 L324.05682,125.532387 L322.543659,125.532387 L322.543659,123.49082 Z M338.828162,123.49082 L340.941785,123.49082 L340.941785,131.801201 L338.828162,131.801201 L338.828162,130.600279 L338.527932,130.600279 C338.154521,131.576278 337.162987,132.171199 336.126088,132.041385 C335.716626,132.047832 335.309494,131.97862 334.925165,131.837229 C334.569053,131.709682 334.248101,131.499828 333.988446,131.224758 C333.705133,130.920558 333.488358,130.560629 333.351958,130.167947 C333.199308,129.690772 333.126276,129.191718 333.135792,128.690813 L333.135792,123.49082 L335.237405,123.49082 L335.237405,128.294508 C335.210049,128.790051 335.358946,129.279286 335.657728,129.675569 C335.982338,130.021386 336.445641,130.202294 336.918696,130.167947 C337.457095,130.214592 337.982164,129.983742 338.311766,129.555477 C338.635323,129.061216 338.791126,128.475904 338.756107,127.886195 L338.828162,123.49082 Z M345.313142,128.342545 C345.323005,128.577236 345.384512,128.806863 345.49328,129.015062 C345.602342,129.220641 345.748987,129.403947 345.925612,129.555477 C346.118286,129.704092 346.333053,129.821606 346.562101,129.903744 C346.808879,129.991327 347.068832,130.036006 347.330691,130.035845 C347.750765,130.061476 348.168928,129.961117 348.531613,129.747624 C348.791341,129.590048 348.999891,129.360643 349.132074,129.087117 L350.945466,130.095891 C350.833185,130.33258 350.692002,130.554441 350.525144,130.756399 C350.328112,131.004086 350.093007,131.218922 349.828609,131.392887 C349.506206,131.59331 349.159005,131.750762 348.795816,131.861247 C348.330361,131.988548 347.849205,132.049198 347.366718,132.041385 C346.780374,132.051702 346.197465,131.949795 345.6494,131.741155 C345.147101,131.548356 344.692386,131.24931 344.316376,130.864482 C343.930393,130.468441 343.635329,129.99306 343.451712,129.471412 C343.237168,128.878757 343.131391,128.252234 343.139473,127.621992 L343.139473,127.513909 C343.132166,126.917803 343.242346,126.326096 343.463722,125.772572 C343.663552,125.268077 343.970912,124.813184 344.364413,124.439548 C344.744332,124.062435 345.198193,123.768038 345.697437,123.574884 C346.216348,123.365511 346.771141,123.259448 347.330691,123.262645 C347.963561,123.244722 348.592121,123.372077 349.168102,123.634931 C349.652628,123.866459 350.085562,124.193202 350.441079,124.595668 C350.767908,124.968823 351.020609,125.40086 351.185651,125.868646 C351.33508,126.301411 351.412171,126.755844 351.413826,127.213678 L351.413826,128.342545 L345.313142,128.342545 Z M347.306672,125.172111 C346.839439,125.148863 346.379329,125.293712 346.009676,125.580424 C345.6944,125.818554 345.463072,126.150826 345.349169,126.529153 L349.264175,126.529153 C349.205211,126.130329 348.977771,125.776048 348.639696,125.556406 C348.247765,125.289304 347.780643,125.154638 347.306672,125.172111 L347.306672,125.172111 Z M359.075709,117.978587 L360.985175,118.591058 L355.97733,133.902815 L354.043845,133.302354 L359.075709,117.978587 Z M364.131591,120.09221 L371.637354,120.09221 L371.637354,122.205833 L366.341288,122.205833 L366.341288,124.895899 L371.54128,124.895899 L371.54128,127.009522 L366.341288,127.009522 L366.341288,131.81321 L364.131591,131.81321 L364.131591,120.09221 Z M379.599468,130.600279 C379.422909,131.071672 379.087374,131.466668 378.650739,131.717136 C378.217238,131.942034 377.733875,132.053579 377.24566,132.041385 C376.758437,132.044459 376.275886,131.946313 375.828572,131.753164 C375.372434,131.562635 374.962798,131.27589 374.62765,130.912519 C374.279985,130.523427 374.010842,130.070776 373.835042,129.579495 C373.635443,129.004386 373.537901,128.398816 373.54682,127.790121 L373.54682,127.513909 C373.540078,126.910264 373.633412,126.309674 373.823032,125.736544 C373.997623,125.247317 374.262398,124.795164 374.603632,124.403521 C374.915699,124.043001 375.30038,123.752444 375.732499,123.550866 C376.167179,123.357863 376.637967,123.259611 377.113559,123.262645 C377.607713,123.23946 378.099607,123.342799 378.542656,123.562875 C378.917554,123.782259 379.218581,124.108372 379.40732,124.499594 L379.707551,124.499594 L379.707551,123.49082 L381.893229,123.49082 L381.893229,129.291274 C381.893229,129.627532 382.03734,129.795661 382.349579,129.795661 L382.661819,129.795661 L382.661819,131.801201 L381.220713,131.801201 C380.879865,131.817587 380.546711,131.696439 380.296003,131.464943 C380.053626,131.244411 379.921649,130.927666 379.935726,130.600279 L379.599468,130.600279 Z M377.71402,130.035845 C378.272877,130.060934 378.814019,129.836558 379.191154,129.423375 C379.579669,128.956775 379.777049,128.360344 379.743578,127.754093 L379.743578,127.549937 C379.777049,126.943686 379.579669,126.347255 379.191154,125.880655 C378.814019,125.467472 378.272877,125.243096 377.71402,125.268185 C377.158692,125.243333 376.621319,125.467973 376.248895,125.880655 C375.856061,126.345478 375.654327,126.942095 375.684462,127.549937 L375.684462,127.754093 C375.654327,128.361935 375.856061,128.958552 376.248895,129.423375 C376.621319,129.836057 377.158692,130.060697 377.71402,130.035845 L377.71402,130.035845 Z M384.415165,129.795661 L387.333406,129.795661 L387.333406,122.085741 L384.523248,122.085741 L384.523248,120.09221 L389.447029,120.09221 L389.447029,129.80767 L392.161113,129.80767 L392.161113,131.81321 L384.415165,131.81321 L384.415165,129.795661 Z M397.373115,125.844627 C397.367496,126.109482 397.539549,126.34544 397.793438,126.42107 C398.282511,126.584972 398.791519,126.681926 399.306599,126.709291 C400.06102,126.766346 400.784618,127.032496 401.396204,127.477881 C401.931043,127.89871 402.230531,128.551325 402.200822,129.231228 L402.200822,129.327301 C402.227528,130.091679 401.888587,130.823077 401.288121,131.296814 C400.549874,131.862267 399.634919,132.147392 398.706138,132.101431 C398.143203,132.115152 397.582239,132.029788 397.048866,131.849238 C396.635568,131.708062 396.249645,131.49682 395.90799,131.224758 C395.623956,130.991899 395.387464,130.706478 395.211455,130.384113 C395.065062,130.099087 394.956078,129.796355 394.887206,129.483421 L396.8327,128.846932 C397.028243,129.703827 397.831703,130.28067 398.706138,130.191965 C399.082747,130.228183 399.461144,130.144095 399.786968,129.951781 C399.958114,129.828389 400.064105,129.634072 400.07519,129.423375 C400.077165,129.314958 400.052419,129.207723 400.003134,129.111135 C399.936066,129.000177 399.840751,128.909006 399.726922,128.846932 C399.558724,128.748021 399.376521,128.67514 399.186507,128.630767 C398.901881,128.565771 398.612893,128.52162 398.321843,128.498665 C397.524238,128.463627 396.751571,128.210225 396.088128,127.766103 C395.528211,127.341868 395.217281,126.665932 395.259492,125.964719 L395.259492,125.868646 C395.249625,125.487439 395.340776,125.110406 395.523695,124.775807 C395.699957,124.463601 395.941665,124.193215 396.232239,123.983198 C396.53209,123.760318 396.86978,123.593507 397.229004,123.49082 C397.619524,123.379102 398.023741,123.322512 398.429926,123.322691 C398.893729,123.311179 399.356263,123.376096 399.798978,123.514838 C400.148539,123.628851 400.477119,123.799225 400.771724,124.019226 C401.030309,124.206928 401.253881,124.43863 401.432232,124.703751 C401.585764,124.933728 401.714577,125.179277 401.816527,125.436314 L399.907061,126.096821 C399.814156,125.81199 399.633368,125.563932 399.390664,125.388277 C399.106784,125.200017 398.770152,125.107443 398.429926,125.124074 C398.148195,125.102007 397.866669,125.169237 397.625309,125.316222 C397.449319,125.431576 397.35211,125.635252 397.373115,125.844627 L397.373115,125.844627 Z M406.836381,128.342545 C406.846244,128.577236 406.907752,128.806863 407.016519,129.015062 C407.117678,129.225721 407.265536,129.410543 407.448851,129.555477 C407.639878,129.706596 407.855071,129.824343 408.08534,129.903744 C408.328258,129.99021 408.584075,130.034876 408.841921,130.035845 C409.261739,130.058603 409.679083,129.958441 410.042843,129.747624 C410.302571,129.590048 410.511122,129.360643 410.643304,129.087117 L412.456696,130.095891 C412.339962,130.330091 412.19909,130.55146 412.036374,130.756399 C411.839342,131.004086 411.604238,131.218922 411.339839,131.392887 C411.011925,131.590936 410.661063,131.748219 410.295037,131.861247 C409.829742,131.989353 409.34847,132.050018 408.865939,132.041385 C408.283599,132.050465 407.704855,131.948574 407.16063,131.741155 C406.658331,131.548356 406.203616,131.24931 405.827606,130.864482 C405.4379,130.469128 405.138772,129.993802 404.950933,129.471412 C404.740476,128.878004 404.638771,128.251502 404.650703,127.621992 L404.650703,127.513909 C404.643396,126.917803 404.753576,126.326096 404.974952,125.772572 C405.175191,125.271232 405.477874,124.817208 405.863634,124.439548 C406.24765,124.067548 406.700412,123.773864 407.196658,123.574884 C407.71625,123.367834 408.270586,123.261858 408.829912,123.262645 C410.019256,123.209114 411.168336,123.699682 411.952309,124.595668 C412.279938,124.966183 412.529134,125.399213 412.684872,125.868646 C412.837965,126.300834 412.919104,126.755215 412.925056,127.213678 L412.925056,128.342545 L406.836381,128.342545 Z M408.829912,125.172111 C408.358889,125.148096 407.894744,125.292875 407.520907,125.580424 C407.208862,125.819195 406.981575,126.151706 406.872409,126.529153 L410.787415,126.529153 C410.71873,126.134044 410.493586,125.783339 410.162935,125.556406 C409.771005,125.289304 409.303882,125.154638 408.829912,125.172111 L408.829912,125.172111 Z" id="Shape" fill="#B4B1BD"></path>
        </g>
    </g>
</svg>