<?xml version="1.0" encoding="UTF-8"?>
<svg width="500px" height="264px" viewBox="0 0 500 264" version="1.1" xmlns="http://www.w3.org/2000/svg" xmlns:xlink="http://www.w3.org/1999/xlink">
    <!-- Generator: Sketch 53.2 (72643) - https://sketchapp.com -->
    <title>Figure 7. Contextual Proof via Hash Chain-01</title>
    <desc>Created with Sketch.</desc>
    <g id="Page-1" stroke="none" stroke-width="1" fill="none" fill-rule="evenodd">
        <g id="v--copy-4" fill-rule="nonzero">
            <g id="Figure-7.-Contextual-Proof-via-Hash-Chain-01">
                <path d="M226.666667,249.797508 L188.47352,249.797508 L188.47352,248.629283 L226.012461,248.629283 L226.012461,46.5109034 C226.012461,46.1840059 226.277464,45.9190031 226.604361,45.9190031 L241.682243,45.9190031 L241.682243,47.0872274 L227.180685,47.0872274 L227.180685,249.221184 C227.175519,249.514002 226.95699,249.759019 226.666667,249.797508 Z" id="Path" fill="#B4B1BD"></path>
                <polygon id="Path" fill="#FF5072" points="171.635514 235.5919 155.732087 235.5919 147.772586 249.376947 155.732087 263.146417 171.635514 263.146417 179.595016 249.376947"></polygon>
                <polygon id="Path" fill="#FFE000" points="171.635514 235.5919 155.732087 235.5919 147.772586 249.376947 155.732087 263.146417 171.635514 263.146417"></polygon>
                <polygon id="Path" fill="#63E54C" points="155.732087 263.146417 147.772586 249.376947 155.732087 235.5919"></polygon>
                <polygon id="Path" fill="#45D8FF" points="171.635514 235.5919 155.732087 263.146417 171.635514 263.146417"></polygon>
                <path d="M195.841121,184.813084 L131.52648,184.813084 C131.370949,184.817289 131.220325,184.758431 131.10885,184.64989 C130.997376,184.541349 130.934523,184.392348 130.934579,184.23676 L130.934579,142.866044 C130.943024,142.545245 131.20557,142.289608 131.52648,142.28972 L195.841121,142.28972 C196.162031,142.289608 196.424577,142.545245 196.433022,142.866044 L196.433022,184.23676 C196.433079,184.392348 196.370225,184.541349 196.258751,184.64989 C196.147277,184.758431 195.996653,184.817289 195.841121,184.813084 L195.841121,184.813084 Z M132.102804,183.64486 L195.264798,183.64486 L195.264798,143.457944 L132.102804,143.457944 L132.102804,183.64486 Z" id="Shape" fill="#736F7F"></path>
                <path d="M142.975078,161.65109 C142.97886,161.381738 142.920215,161.115169 142.803738,160.872274 C142.686399,160.651835 142.521453,160.460285 142.320872,160.311526 C142.113643,160.162681 141.881569,160.051919 141.635514,159.984424 C141.373512,159.901596 141.100328,159.859567 140.825545,159.859813 C140.588685,159.858117 140.352752,159.889575 140.124611,159.953271 C139.912641,160.024651 139.708974,160.11865 139.517134,160.233645 C139.346444,160.352624 139.203073,160.506616 139.096573,160.685358 C138.994352,160.871514 138.940776,161.08046 138.94081,161.292835 L138.94081,161.292835 C138.938883,161.515344 138.992416,161.734829 139.096573,161.931464 C139.211866,162.118941 139.372587,162.274305 139.563863,162.383178 C139.796491,162.523059 140.048399,162.628021 140.311526,162.694704 C140.660578,162.785677 141.014117,162.858464 141.370717,162.912773 C142.132619,162.97622 142.858775,163.263431 143.457944,163.738318 C143.913059,164.163465 144.158029,164.767346 144.127726,165.389408 L144.127726,165.545171 C144.131711,165.906777 144.068325,166.265962 143.94081,166.604361 C143.803917,166.92672 143.596306,167.214181 143.333333,167.445483 C143.050813,167.685889 142.722195,167.866099 142.367601,167.975078 C141.935971,168.11879 141.48286,168.187284 141.028037,168.17757 C140.498274,168.185854 139.971137,168.101513 139.470405,167.928349 C139.050716,167.777663 138.668267,167.538632 138.34891,167.227414 C138.057969,166.927942 137.830196,166.573041 137.679128,166.183801 C137.521021,165.76586 137.4418,165.322221 137.445483,164.875389 L137.445483,164.485981 L138.629283,164.485981 L138.629283,164.797508 C138.572845,165.454241 138.80612,166.102857 139.267913,166.573209 C139.780201,166.99109 140.430277,167.202226 141.090343,167.165109 C141.645727,167.218521 142.201081,167.063022 142.647975,166.728972 C142.982418,166.427254 143.169877,165.995531 143.161994,165.545171 L143.161994,165.545171 C143.189129,165.113952 142.988112,164.700093 142.632399,164.454829 C142.113778,164.149697 141.533891,163.963494 140.934579,163.909657 C140.515906,163.866956 140.103229,163.778152 139.70405,163.64486 C139.367949,163.529586 139.05244,163.361314 138.76947,163.146417 C138.522264,162.947347 138.320457,162.697744 138.17757,162.41433 C138.032988,162.102461 137.96363,161.761008 137.975078,161.417445 L137.975078,161.261682 C137.964045,160.926426 138.039123,160.593936 138.193146,160.29595 C138.332,159.99681 138.540266,159.735143 138.800623,159.53271 C139.079763,159.303093 139.403199,159.133422 139.750779,159.034268 C140.138278,158.910929 140.543622,158.853023 140.950156,158.862928 C141.416597,158.850508 141.881314,158.92444 142.320872,159.080997 C142.689305,159.212769 143.031927,159.4078 143.333333,159.657321 C143.598646,159.902268 143.810727,160.199181 143.956386,160.529595 C144.095006,160.859818 144.163943,161.215107 144.158879,161.573209 L144.158879,162.102804 L143.084112,162.102804 L142.975078,161.65109 Z" id="Path" fill="#B4B1BD"></path>
                <path d="M188.660436,161.666667 C188.683221,161.168031 188.496914,160.682503 188.146417,160.327103 C187.758304,159.968374 187.241035,159.782832 186.713396,159.813084 C186.435461,159.807517 186.159473,159.860592 185.903427,159.968847 C185.661333,160.065992 185.443378,160.214839 185.264798,160.404984 C185.088122,160.611931 184.950861,160.849499 184.859813,161.105919 C184.751592,161.383762 184.69868,161.680067 184.70405,161.978193 L184.70405,163.317757 L184.859813,163.317757 C185.063784,162.942255 185.372161,162.633877 185.747664,162.429907 C186.137458,162.210985 186.577881,162.098193 187.024922,162.102804 C187.417989,162.102767 187.808051,162.171291 188.17757,162.305296 C188.522586,162.434848 188.835921,162.636658 189.096573,162.897196 C189.35207,163.167813 189.553033,163.485123 189.688474,163.831776 C189.832561,164.231019 189.901223,164.653557 189.890966,165.077882 L189.890966,165.233645 C189.897195,165.655409 189.817707,166.074046 189.657321,166.464174 C189.505525,166.821751 189.282998,167.144945 189.003115,167.41433 C188.713373,167.683398 188.375055,167.894846 188.006231,168.037383 C187.200836,168.32758 186.319413,168.32758 185.514019,168.037383 C185.145194,167.894846 184.806877,167.683398 184.517134,167.41433 C184.234128,167.153707 184.010941,166.834869 183.862928,166.479751 C183.704602,166.09446 183.625154,165.68133 183.629283,165.264798 L183.629283,161.993769 C183.624217,161.551886 183.703516,161.113093 183.862928,160.700935 C184.017647,160.328074 184.251488,159.993257 184.548287,159.719626 C184.82648,159.443416 185.161281,159.230843 185.529595,159.096573 C185.911125,158.945608 186.31872,158.8715 186.728972,158.878505 C187.136381,158.873625 187.541745,158.936799 187.928349,159.065421 C188.287262,159.17976 188.616859,159.371139 188.894081,159.626168 C189.158193,159.878212 189.369928,160.179935 189.517134,160.514019 C189.669766,160.884175 189.744018,161.28195 189.735202,161.682243 L188.660436,161.666667 Z M186.760125,167.28972 C187.046646,167.293939 187.33158,167.24645 187.601246,167.149533 C187.851367,167.066917 188.076452,166.92222 188.255452,166.728972 C188.440745,166.549487 188.584319,166.331466 188.676012,166.090343 C188.771744,165.825761 188.819226,165.546149 188.816199,165.264798 L188.816199,165.109034 C188.815638,164.826601 188.762828,164.546709 188.660436,164.283489 C188.557814,164.03976 188.409809,163.817754 188.224299,163.629283 C188.039363,163.450683 187.822798,163.308067 187.58567,163.208723 C187.320754,163.114265 187.041371,163.066823 186.760125,163.068536 C186.48219,163.062969 186.206202,163.116043 185.950156,163.224299 C185.704367,163.31578 185.481217,163.459233 185.29595,163.64486 C185.110893,163.827741 184.962814,164.044571 184.859813,164.283489 C184.760457,164.525874 184.707616,164.784795 184.70405,165.046729 L184.70405,165.29595 C184.702388,165.567044 184.749885,165.836193 184.844237,166.090343 C184.941554,166.328546 185.08441,166.545474 185.264798,166.728972 C185.447388,166.917889 185.671332,167.061853 185.919003,167.149533 C186.188669,167.24645 186.473603,167.293939 186.760125,167.28972 L186.760125,167.28972 Z" id="Shape" fill="#B4B1BD"></path>
                <path d="M174.70405,163.722741 L174.70405,158.878505 L180.358255,158.878505 L180.358255,159.890966 L175.685358,159.890966 L175.685358,163.115265 L175.841121,163.115265 C175.924137,162.933429 176.034443,162.765343 176.168224,162.616822 C176.459567,162.279105 176.84438,162.035209 177.274143,161.915888 C177.526285,161.838295 177.789204,161.801487 178.05296,161.806854 C178.441604,161.79902 178.827984,161.867828 179.190031,162.009346 C179.528323,162.135842 179.836155,162.332218 180.093458,162.58567 C180.351792,162.842084 180.553438,163.14986 180.685358,163.489097 C180.82676,163.867435 180.89546,164.26907 180.88785,164.672897 L180.88785,164.890966 C180.892812,165.309826 180.824276,165.726311 180.685358,166.121495 C180.549258,166.494621 180.343063,166.838279 180.077882,167.133956 C179.802384,167.439435 179.461672,167.678998 179.080997,167.834891 C178.652716,168.016772 178.191101,168.106972 177.725857,168.099688 C177.248191,168.108461 176.772989,168.02926 176.323988,167.866044 C175.945518,167.726384 175.60059,167.508814 175.311526,167.227414 C175.035752,166.945842 174.818672,166.612281 174.672897,166.246106 C174.532573,165.856676 174.463968,165.445043 174.470405,165.031153 L174.470405,164.672897 L175.545171,164.672897 L175.545171,164.953271 C175.51386,165.535743 175.735256,166.103425 176.152648,166.510903 C176.586812,166.876986 177.142953,167.066074 177.71028,167.040498 C178.021595,167.046359 178.330277,166.982494 178.613707,166.853583 C179.124447,166.61531 179.50564,166.165844 179.657321,165.623053 C179.750635,165.341721 179.797971,165.047182 179.797508,164.750779 L179.797508,164.750779 C179.799232,164.251118 179.616156,163.768462 179.283489,163.395639 C179.122113,163.221486 178.9257,163.083466 178.707165,162.990654 C178.472507,162.88415 178.217168,162.830954 177.959502,162.834891 C177.794293,162.809906 177.626267,162.809906 177.461059,162.834891 C177.325031,162.889675 177.194621,162.957488 177.071651,163.037383 C176.963285,163.114638 176.868533,163.209391 176.791277,163.317757 C176.722329,163.404263 176.674347,163.505558 176.65109,163.613707 L174.70405,163.722741 Z" id="Path" fill="#B4B1BD"></path>
                <path d="M161.152648,165.825545 L157.320872,165.825545 L156.666667,168.068536 L155.498442,168.068536 L158.239875,159.034268 L160.280374,159.034268 L163.006231,168.068536 L161.853583,168.068536 L161.152648,165.825545 Z M159.127726,159.501558 L157.570093,164.813084 L160.841121,164.813084 L159.283489,159.501558 L159.127726,159.501558 Z" id="Shape" fill="#B4B1BD"></path>
                <path d="M171.806854,167.149533 L171.806854,168.224299 L165.700935,168.224299 L165.700935,166.666667 C165.689759,166.292926 165.758807,165.921131 165.903427,165.576324 C166.040128,165.275796 166.242373,165.009683 166.495327,164.797508 C166.767977,164.564212 167.078884,164.379775 167.41433,164.252336 C167.810043,164.084314 168.222555,163.958994 168.64486,163.878505 C169.251692,163.779796 169.821453,163.521791 170.29595,163.130841 C170.626287,162.832727 170.813356,162.407569 170.809969,161.962617 L170.809969,161.962617 C170.807716,161.728739 170.765574,161.496961 170.685358,161.277259 C170.608541,161.052488 170.486632,160.845773 170.327103,160.669782 C170.151796,160.482901 169.939647,160.334396 169.70405,160.233645 C169.416487,160.121353 169.109187,160.06837 168.800623,160.077882 C168.21782,160.044497 167.649309,160.266217 167.242991,160.685358 C166.877848,161.12097 166.684024,161.674751 166.697819,162.242991 L166.697819,162.803738 L165.623053,162.803738 L165.623053,162.165109 C165.619153,161.756493 165.687711,161.350419 165.825545,160.965732 C165.963411,160.598127 166.169521,160.259894 166.433022,159.968847 C166.70852,159.663369 167.049232,159.423806 167.429907,159.267913 C168.306141,158.924839 169.279529,158.924839 170.155763,159.267913 C170.52199,159.406388 170.855961,159.618433 171.137072,159.890966 C171.380725,160.147028 171.571301,160.448773 171.697819,160.778816 C171.821252,161.107518 171.884565,161.45574 171.884735,161.806854 L171.884735,161.993769 C171.904717,162.645235 171.676439,163.27996 171.246106,163.76947 C170.680334,164.320756 169.955666,164.680366 169.174455,164.797508 C168.528606,164.907057 167.913006,165.151174 167.367601,165.514019 C166.973642,165.824518 166.753323,166.305742 166.775701,166.806854 L166.775701,167.196262 L171.806854,167.149533 Z" id="Path" fill="#B4B1BD"></path>
                <polygon id="Path" fill="#B4B1BD" points="146.791277 159.034268 147.866044 159.034268 147.866044 163.037383 151.713396 163.037383 151.713396 159.034268 152.803738 159.034268 152.803738 168.068536 151.713396 168.068536 151.713396 164.049844 147.866044 164.049844 147.866044 168.068536 146.791277 168.068536"></polygon>
                <rect id="Rectangle" fill="#63E54C" x="184.439252" y="148.504673" width="4.64174455" height="4.64174455"></rect>
                <polygon id="Path" fill="#FF5072" points="142.009346 148.582555 139.330218 148.582555 137.990654 150.903427 139.330218 153.224299 142.009346 153.224299 143.34891 150.903427"></polygon>
                <polygon id="Path" fill="#FF5072" points="179.065421 174.205607 176.386293 174.205607 175.046729 176.52648 176.386293 178.847352 179.065421 178.847352 180.404984 176.52648"></polygon>
                <circle id="Oval" fill="#FFE000" cx="177.725857" cy="150.825545" r="2.64797508"></circle>
                <rect id="Rectangle" fill="#63E54C" x="156.806854" y="148.504673" width="4.64174455" height="4.64174455"></rect>
                <polygon id="Path" fill="#45D8FF" points="168.707165 148.442368 165.934579 153.224299 171.464174 153.224299"></polygon>
                <polygon id="Path" fill="#FF5072" points="151.028037 174.205607 148.34891 174.205607 147.009346 176.52648 148.34891 178.847352 151.028037 178.847352 152.367601 176.52648"></polygon>
                <polygon id="Path" fill="#45D8FF" points="149.688474 148.442368 146.915888 153.224299 152.445483 153.224299"></polygon>
                <circle id="Oval" fill="#FFE000" cx="159.11215" cy="176.277259" r="2.64797508"></circle>
                <polygon id="Path" fill="#45D8FF" points="140.404984 173.894081 137.647975 178.676012 143.161994 178.676012"></polygon>
                <polygon id="Path" fill="#45D8FF" points="186.962617 173.894081 184.205607 178.676012 189.735202 178.676012"></polygon>
                <rect id="Rectangle" fill="#63E54C" x="166.448598" y="173.956386" width="4.64174455" height="4.64174455"></rect>
                <polygon id="Path" fill="#736F7F" points="168.878505 142.616822 167.71028 142.616822 167.71028 140.109034 159.672897 140.109034 159.672897 142.616822 158.504673 142.616822 158.504673 138.94081 168.878505 138.94081"></polygon>
                <polygon id="Path" fill="#736F7F" points="168.878505 187.819315 158.504673 187.819315 158.504673 184.143302 159.672897 184.143302 159.672897 186.65109 167.71028 186.65109 167.71028 184.143302 168.878505 184.143302"></polygon>
                <polygon id="Path" fill="#B4B1BD" points="163.691589 129.735202 166.043614 125.638629 161.323988 125.638629"></polygon>
                <rect id="Rectangle" fill="#B4B1BD" x="163.099688" y="102.211838" width="1.1682243" height="23.94081"></rect>
                <polygon id="Path" fill="#B4B1BD" points="245.155763 46.4641745 241.05919 44.0965732 241.05919 48.8161994"></polygon>
                <polygon id="Path" fill="#B4B1BD" points="163.691589 225.638629 166.043614 221.542056 161.323988 221.542056"></polygon>
                <rect id="Rectangle" fill="#B4B1BD" x="163.099688" y="198.130841" width="1.1682243" height="23.94081"></rect>
                <path d="M337.28972,184.813084 L272.959502,184.813084 C272.80536,184.817429 272.656232,184.758105 272.547194,184.649068 C272.438156,184.54003 272.378833,184.390902 272.383178,184.23676 L272.383178,142.866044 C272.383178,142.547749 272.641207,142.28972 272.959502,142.28972 L337.28972,142.28972 C337.44257,142.28972 337.589161,142.350439 337.697242,142.458521 C337.805324,142.566603 337.866044,142.713193 337.866044,142.866044 L337.866044,184.23676 C337.870388,184.390902 337.811065,184.54003 337.702027,184.649068 C337.592989,184.758105 337.443861,184.817429 337.28972,184.813084 L337.28972,184.813084 Z M273.551402,183.64486 L336.697819,183.64486 L336.697819,143.457944 L273.551402,143.457944 L273.551402,183.64486 Z" id="Shape" fill="#736F7F"></path>
                <path d="M284.4081,161.65109 C284.411882,161.381738 284.353236,161.115169 284.23676,160.872274 C284.127609,160.650985 283.967449,160.458792 283.76947,160.311526 C283.558708,160.16875 283.327672,160.058482 283.084112,159.984424 C282.821583,159.903876 282.548743,159.861901 282.274143,159.859813 C282.032158,159.858079 281.791077,159.889525 281.557632,159.953271 C281.350615,160.024661 281.152112,160.118688 280.965732,160.233645 C280.787587,160.343793 280.64233,160.499809 280.545171,160.685358 C280.435722,160.868579 280.381626,161.079555 280.389408,161.292835 L280.389408,161.292835 C280.379999,161.516147 280.434002,161.737561 280.545171,161.931464 C280.649484,162.122107 280.806242,162.278865 280.996885,162.383178 C281.233703,162.525774 281.491163,162.63086 281.760125,162.694704 C282.056075,162.694704 282.41433,162.850467 282.803738,162.912773 C283.569597,162.979501 284.299841,163.266189 284.906542,163.738318 C285.356411,164.167053 285.600364,164.768426 285.576324,165.389408 L285.576324,165.545171 C285.583095,165.908464 285.514133,166.269185 285.373832,166.604361 C285.242869,166.925993 285.040463,167.213622 284.781931,167.445483 C284.491554,167.682918 284.158477,167.862674 283.800623,167.975078 C283.369288,168.120015 282.915962,168.188541 282.461059,168.17757 C281.931296,168.185854 281.404159,168.101513 280.903427,167.928349 C280.489295,167.775686 280.11233,167.536765 279.797508,167.227414 C279.500971,166.929356 279.267837,166.574356 279.11215,166.183801 C278.954043,165.76586 278.874822,165.322221 278.878505,164.875389 L278.878505,164.485981 L279.968847,164.485981 L279.968847,164.797508 C279.916482,165.456634 280.155576,166.105604 280.623053,166.573209 C281.12907,166.991441 281.77451,167.202878 282.429907,167.165109 C282.98556,167.221606 283.542016,167.065798 283.987539,166.728972 C284.321982,166.427254 284.50944,165.995531 284.501558,165.545171 L284.501558,165.545171 C284.526148,165.118084 284.332648,164.707629 283.987539,164.454829 C283.466683,164.154716 282.887926,163.968876 282.28972,163.909657 C281.87052,163.870331 281.457461,163.781444 281.05919,163.64486 C280.716856,163.532946 280.395691,163.364466 280.109034,163.146417 C279.861828,162.947347 279.660021,162.697744 279.517134,162.41433 C279.379604,162.100187 279.310575,161.76035 279.314642,161.417445 L279.314642,161.261682 C279.311197,160.927189 279.385867,160.596508 279.53271,160.29595 C279.682126,159.999064 279.894801,159.738537 280.155763,159.53271 C280.429045,159.303093 280.747414,159.133297 281.090343,159.034268 C281.927593,158.776118 282.823185,158.776118 283.660436,159.034268 C284.031161,159.161001 284.374653,159.356527 284.672897,159.610592 C284.942925,159.851344 285.155788,160.149353 285.29595,160.482866 C285.439914,160.81195 285.514163,161.167284 285.514019,161.52648 L285.514019,162.056075 L284.423676,162.056075 L284.4081,161.65109 Z" id="Path" fill="#B4B1BD"></path>
                <path d="M330.093458,161.666667 C330.116243,161.168031 329.929936,160.682503 329.579439,160.327103 C329.191325,159.968374 328.674057,159.782832 328.146417,159.813084 C327.868482,159.807517 327.592495,159.860592 327.336449,159.968847 C327.099217,160.066637 326.886478,160.215554 326.713396,160.404984 C326.532024,160.61131 326.389536,160.848791 326.292835,161.105919 C326.1973,161.386703 326.149904,161.681614 326.152648,161.978193 L326.152648,163.317757 L326.308411,163.317757 C326.510949,162.946451 326.813022,162.638984 327.180685,162.429907 C327.575343,162.209019 328.021301,162.096187 328.47352,162.102804 C328.866343,162.105515 329.255942,162.173958 329.626168,162.305296 C329.9665,162.43508 330.274702,162.637005 330.529595,162.897196 C330.785091,163.167813 330.986054,163.485123 331.121495,163.831776 C331.270889,164.230011 331.344838,164.652579 331.339564,165.077882 L331.339564,165.233645 C331.34832,166.053309 331.02199,166.841004 330.436137,167.41433 C330.146394,167.683398 329.808077,167.894846 329.439252,168.037383 C329.040282,168.184062 328.618218,168.257923 328.193146,168.255452 C327.768297,168.255317 327.346687,168.181535 326.94704,168.037383 C326.584573,167.891487 326.25196,167.680304 325.965732,167.41433 C325.682905,167.150127 325.455256,166.832478 325.29595,166.479751 C325.137624,166.09446 325.058176,165.68133 325.062305,165.264798 L325.062305,161.993769 C325.052323,161.54999 325.137294,161.109202 325.311526,160.700935 C325.46037,160.328804 325.688999,159.993836 325.981308,159.719626 C326.259501,159.443416 326.594303,159.230843 326.962617,159.096573 C327.349002,158.943574 327.762094,158.869429 328.17757,158.878505 C328.584815,158.875881 328.989814,158.938997 329.376947,159.065421 C330.079929,159.302471 330.647225,159.830056 330.934579,160.514019 C331.092549,160.883036 331.172113,161.280854 331.168224,161.682243 L330.093458,161.666667 Z M328.193146,167.28972 C328.484643,167.292518 328.774444,167.245096 329.049844,167.149533 C329.295633,167.058051 329.518783,166.914598 329.70405,166.728972 C329.879484,166.544609 330.017074,166.327641 330.109034,166.090343 C330.204766,165.825761 330.252248,165.546149 330.249221,165.264798 L330.249221,165.109034 C330.25605,164.825951 330.202969,164.544621 330.093458,164.283489 C329.996166,164.040652 329.853426,163.818612 329.672897,163.629283 C329.258385,163.227227 328.690931,163.022943 328.115265,163.068536 C327.837448,163.064337 327.56174,163.117358 327.305296,163.224299 C327.059507,163.31578 326.836358,163.459233 326.65109,163.64486 C326.465798,163.824345 326.322223,164.042365 326.23053,164.283489 C326.123732,164.523551 326.070576,164.784017 326.074766,165.046729 L326.074766,165.29595 C326.073104,165.567044 326.120601,165.836193 326.214953,166.090343 C326.306914,166.327641 326.444503,166.544609 326.619938,166.728972 C326.805205,166.914598 327.028354,167.058051 327.274143,167.149533 C327.568696,167.254593 327.880666,167.302182 328.193146,167.28972 L328.193146,167.28972 Z" id="Shape" fill="#B4B1BD"></path>
                <path d="M316.199377,163.722741 L316.199377,158.878505 L321.853583,158.878505 L321.853583,159.890966 L317.180685,159.890966 L317.180685,163.115265 L317.336449,163.115265 C317.425146,162.936627 317.534965,162.769283 317.663551,162.616822 C317.811624,162.456517 317.979056,162.315246 318.161994,162.196262 C318.354487,162.07217 318.564509,161.97766 318.785047,161.915888 C319.031856,161.838358 319.289642,161.801532 319.548287,161.806854 C319.941845,161.800928 320.332961,161.869638 320.700935,162.009346 C321.032657,162.139741 321.334639,162.335765 321.588785,162.58567 C321.847119,162.842084 322.048765,163.14986 322.180685,163.489097 C322.327402,163.866407 322.401393,164.268074 322.398754,164.672897 L322.398754,164.890966 C322.398719,165.31075 322.324907,165.727263 322.180685,166.121495 C322.055059,166.499525 321.847646,166.845214 321.573209,167.133956 C321.300489,167.435643 320.965729,167.674757 320.5919,167.834891 C320.157624,168.015012 319.691301,168.105097 319.221184,168.099688 C318.743518,168.108461 318.268316,168.02926 317.819315,167.866044 C317.443717,167.720619 317.099884,167.503739 316.806854,167.227414 C316.530643,166.949221 316.318071,166.61442 316.183801,166.246106 C316.038502,165.857568 315.964625,165.445968 315.965732,165.031153 L315.965732,164.672897 L317.056075,164.672897 L317.056075,164.953271 C317.026665,165.532441 317.241358,166.097424 317.647975,166.510903 C318.082139,166.876986 318.63828,167.066074 319.205607,167.040498 C319.516922,167.046359 319.825604,166.982494 320.109034,166.853583 C320.365964,166.738253 320.594565,166.568131 320.778816,166.35514 C320.953927,166.138051 321.086084,165.889594 321.168224,165.623053 C321.248912,165.339246 321.290829,165.045826 321.292835,164.750779 L321.292835,164.750779 C321.294523,164.49487 321.246928,164.24103 321.152648,164.003115 C320.988048,163.549687 320.644567,163.183683 320.202492,162.990654 C319.968334,162.882627 319.712645,162.829358 319.454829,162.834891 C319.294852,162.809791 319.131939,162.809791 318.971963,162.834891 C318.829608,162.886538 318.693709,162.954488 318.566978,163.037383 C318.458612,163.114638 318.36386,163.209391 318.286604,163.317757 C318.230274,163.411566 318.183318,163.510694 318.146417,163.613707 L316.199377,163.722741 Z" id="Path" fill="#B4B1BD"></path>
                <path d="M302.58567,165.825545 L298.707165,165.825545 L298.05296,168.068536 L296.900312,168.068536 L299.626168,159.034268 L301.666667,159.034268 L304.4081,168.068536 L303.239875,168.068536 L302.58567,165.825545 Z M300.623053,159.501558 L299.065421,164.813084 L302.352025,164.813084 L300.794393,159.501558 L300.623053,159.501558 Z" id="Shape" fill="#B4B1BD"></path>
                <path d="M313.255452,167.149533 L313.255452,168.224299 L307.133956,168.224299 L307.133956,166.666667 C307.122781,166.292926 307.191829,165.921131 307.336449,165.576324 C307.478539,165.27905 307.679973,165.014005 307.928349,164.797508 C308.200999,164.564212 308.511906,164.379775 308.847352,164.252336 C309.243832,164.086437 309.656119,163.961185 310.077882,163.878505 C310.685821,163.783483 311.256516,163.525055 311.728972,163.130841 C312.059308,162.832727 312.246378,162.407569 312.242991,161.962617 L312.242991,161.962617 C312.246046,161.729614 312.209168,161.49781 312.133956,161.277259 C312.051285,161.055229 311.929999,160.84957 311.775701,160.669782 C311.594403,160.482837 311.377173,160.334484 311.137072,160.233645 C310.849865,160.12008 310.542299,160.067051 310.233645,160.077882 C309.649495,160.035803 309.077435,160.258907 308.676012,160.685358 C308.305665,161.117992 308.111121,161.673833 308.130841,162.242991 L308.130841,162.803738 L307.040498,162.803738 L307.040498,162.165109 C307.036599,161.756493 307.105157,161.350419 307.242991,160.965732 C307.380857,160.598127 307.586967,160.259894 307.850467,159.968847 C308.128993,159.666807 308.468888,159.427818 308.847352,159.267913 C309.281117,159.086095 309.747794,158.995942 310.218069,159.003115 C310.687358,158.989644 311.154272,159.074537 311.588785,159.252336 C311.950471,159.390702 312.279367,159.602893 312.554517,159.875389 C312.802793,160.130839 312.998592,160.432475 313.130841,160.76324 C313.254274,161.091942 313.317587,161.440164 313.317757,161.791277 L313.317757,161.993769 C313.331902,162.647071 313.098165,163.281501 312.663551,163.76947 C312.106368,164.324045 311.385447,164.684506 310.607477,164.797508 C309.957557,164.909792 309.337412,165.153609 308.785047,165.514019 C308.396918,165.82775 308.182623,166.308466 308.208723,166.806854 L308.208723,167.196262 L313.255452,167.149533 Z" id="Path" fill="#B4B1BD"></path>
                <polygon id="Path" fill="#B4B1BD" points="288.161994 159.034268 289.252336 159.034268 289.252336 163.037383 293.099688 163.037383 293.099688 159.034268 294.174455 159.034268 294.174455 168.068536 293.099688 168.068536 293.099688 164.049844 289.252336 164.049844 289.252336 168.068536 288.161994 168.068536"></polygon>
                <rect id="Rectangle" fill="#63E54C" x="325.872274" y="148.504673" width="4.64174455" height="4.64174455"></rect>
                <polygon id="Path" fill="#FF5072" points="283.442368 148.582555 280.76324 148.582555 279.423676 150.903427 280.76324 153.224299 283.442368 153.224299 284.797508 150.903427"></polygon>
                <polygon id="Path" fill="#FF5072" points="320.514019 174.205607 317.819315 174.205607 316.479751 176.52648 317.819315 178.847352 320.514019 178.847352 321.853583 176.52648"></polygon>
                <circle id="Oval" fill="#FFE000" cx="319.174455" cy="150.825545" r="2.64797508"></circle>
                <rect id="Rectangle" fill="#63E54C" x="298.239875" y="148.504673" width="4.64174455" height="4.64174455"></rect>
                <polygon id="Path" fill="#45D8FF" points="310.140187 148.442368 307.383178 153.224299 312.897196 153.224299"></polygon>
                <polygon id="Path" fill="#FF5072" points="292.461059 174.205607 289.781931 174.205607 288.442368 176.52648 289.781931 178.847352 292.461059 178.847352 293.800623 176.52648"></polygon>
                <polygon id="Path" fill="#45D8FF" points="291.121495 148.442368 288.364486 153.224299 293.894081 153.224299"></polygon>
                <circle id="Oval" fill="#FFE000" cx="300.545171" cy="176.277259" r="2.64797508"></circle>
                <polygon id="Path" fill="#45D8FF" points="281.838006 173.894081 279.080997 178.676012 284.610592 178.676012"></polygon>
                <polygon id="Path" fill="#45D8FF" points="328.411215 173.894081 325.638629 178.676012 331.168224 178.676012"></polygon>
                <rect id="Rectangle" fill="#63E54C" x="307.88162" y="173.956386" width="4.64174455" height="4.64174455"></rect>
                <polygon id="Path" fill="#736F7F" points="310.311526 142.616822 309.143302 142.616822 309.143302 140.109034 301.105919 140.109034 301.105919 142.616822 299.937695 142.616822 299.937695 138.94081 310.311526 138.94081"></polygon>
                <polygon id="Path" fill="#736F7F" points="310.311526 187.819315 299.937695 187.819315 299.937695 184.143302 301.105919 184.143302 301.105919 186.65109 309.143302 186.65109 309.143302 184.143302 310.311526 184.143302"></polygon>
                <polygon id="Path" fill="#B4B1BD" points="305.124611 225.638629 307.492212 221.542056 302.757009 221.542056"></polygon>
                <rect id="Rectangle" fill="#B4B1BD" x="304.548287" y="198.130841" width="1.1682243" height="23.94081"></rect>
                <path d="M4.6728972,42.6012461 C3.73594648,42.6436913 2.82224364,42.3019899 2.14306625,41.6551543 C1.46388885,41.0083187 1.07804938,40.1123607 1.07476636,39.1744548 C1.08139978,38.2443341 1.47103289,37.3580532 2.15190134,36.7243445 C2.83276979,36.0906358 3.74469213,35.7655122 4.6728972,35.8255452 C5.68126778,35.7863299 6.65760678,36.1836772 7.35202492,36.9158879 L6.40186916,37.834891 C5.96394263,37.3392948 5.33425569,37.055652 4.6728972,37.0560748 C3.91607286,37.0560747 3.21673832,37.4598357 2.83832614,38.1152648 C2.45991396,38.7706939 2.45991396,39.5782158 2.83832614,40.2336449 C3.21673832,40.889074 3.91607286,41.2928349 4.6728972,41.2928349 C5.16172466,41.3280768 5.64864182,41.2022442 6.05919003,40.9345794 L6.05919003,39.7975078 L4.6728972,39.7975078 L4.6728972,38.5202492 L7.41433022,38.5202492 L7.41433022,41.635514 C6.66912916,42.3155959 5.67981571,42.6641041 4.6728972,42.6012461 L4.6728972,42.6012461 Z" id="Path" fill="#736F7F"></path>
                <path d="M10.0311526,35.8255452 L12.5700935,35.8255452 C13.1076671,35.7903164 13.6352326,35.9830441 14.0235076,36.3564995 C14.4117827,36.7299549 14.6248847,37.2496249 14.6105919,37.788162 C14.6285868,38.6190127 14.0529261,39.3451302 13.2398754,39.517134 L15.576324,42.4922118 L14.0186916,42.4922118 L11.7133956,39.7040498 L11.3862928,39.7040498 L11.3862928,42.4922118 L10.0311526,42.4922118 L10.0311526,35.8255452 Z M12.4610592,38.5358255 C12.9595016,38.5358255 13.3021807,38.271028 13.3021807,37.8193146 C13.3021807,37.3676012 12.9595016,37.1028037 12.4610592,37.1028037 L11.3862928,37.1028037 L11.3862928,38.5358255 L12.4610592,38.5358255 Z" id="Shape" fill="#736F7F"></path>
                <path d="M19.6884735,35.8255452 L20.8878505,35.8255452 L23.7694704,42.4610592 L22.3364486,42.4610592 L21.6978193,40.9034268 L18.8785047,40.9034268 L18.2398754,42.4610592 L16.8380062,42.4610592 L19.6884735,35.8255452 Z M21.2461059,39.7663551 L20.2492212,37.6323988 L19.3457944,39.7975078 L21.2461059,39.7663551 Z" id="Shape" fill="#736F7F"></path>
                <path d="M30.4361371,38.0841121 C30.4409409,38.6941129 30.1953548,39.2793905 29.7567087,39.703317 C29.3180627,40.1272434 28.7247465,40.352717 28.1152648,40.3271028 L27.258567,40.3271028 L27.258567,42.4922118 L25.9034268,42.4922118 L25.9034268,35.8255452 L28.1152648,35.8255452 C28.7274804,35.7997673 29.3232765,36.027336 29.7624162,36.4546867 C30.201556,36.8820375 30.4452496,37.4714219 30.4361371,38.0841121 L30.4361371,38.0841121 Z M29.1121495,38.0841121 C29.113045,37.8180222 29.0023212,37.5637497 28.8069099,37.3831422 C28.6114985,37.2025347 28.3493081,37.1121441 28.0841121,37.1339564 L27.258567,37.1339564 L27.258567,39.0498442 L28.0373832,39.0498442 C28.3118112,39.0810332 28.5864606,38.9932297 28.7919025,38.8086297 C28.9973444,38.6240298 29.1139162,38.3603012 29.1121495,38.0841121 L29.1121495,38.0841121 Z" id="Shape" fill="#736F7F"></path>
                <polygon id="Path" fill="#736F7F" points="32.834891 35.8255452 34.2679128 35.8255452 34.2679128 38.4735202 37.1339564 38.4735202 37.1339564 35.8255452 38.4890966 35.8255452 38.4890966 42.4610592 37.1339564 42.4610592 37.1339564 39.7975078 34.2679128 39.7975078 34.2679128 42.4922118 32.9127726 42.4922118"></polygon>
                <path d="M45.3582555,40.4984424 C45.6760462,40.9829813 46.2119623,41.2800652 46.7912773,41.2928349 C47.3208723,41.2928349 47.6791277,41.0280374 47.6791277,40.6386293 C47.6791277,40.2492212 47.4143302,40 46.7601246,39.7819315 L46.1993769,39.5794393 C45.1246106,39.2056075 44.5638629,38.5981308 44.5638629,37.694704 C44.5985231,37.1434502 44.8585757,36.6307719 45.2828969,36.2771709 C45.7072181,35.9235699 46.2583865,35.7602308 46.8068536,35.8255452 C47.604754,35.80568 48.3699638,36.1426007 48.894081,36.7445483 L47.9906542,37.6635514 C47.7079241,37.2987129 47.2682545,37.0904483 46.8068536,37.1028037 C46.3551402,37.1028037 45.9190031,37.2897196 45.9190031,37.6791277 C45.9190031,38.0685358 46.2461059,38.2554517 46.9470405,38.5202492 L47.4766355,38.7071651 C48.3860883,38.934385 49.026715,39.7479809 49.0342679,40.6853583 C48.9911651,41.2485777 48.7216247,41.7702782 48.2872015,42.1313191 C47.8527784,42.4923599 47.2905714,42.6619089 46.728972,42.6012461 C45.7763417,42.6376967 44.8691793,42.1928945 44.3146417,41.4174455 L45.3582555,40.4984424 Z" id="Path" fill="#736F7F"></path>
                <polygon id="Path" fill="#736F7F" points="51.5420561 35.8255452 55.6697819 35.8255452 55.6697819 37.1183801 52.9595016 37.1183801 52.9595016 38.4735202 55.1713396 38.4735202 55.1713396 39.7663551 52.9595016 39.7663551 52.9595016 41.1682243 55.7320872 41.1682243 55.7320872 42.4610592 51.5420561 42.4610592"></polygon>
                <path d="M61.2928349,42.6012461 C60.3454042,42.6613881 59.4151946,42.3275957 58.7221578,41.6787953 C58.029121,41.0299949 57.6347874,40.1237895 57.6323988,39.1744548 C57.6397061,38.2529347 58.022958,37.3743519 58.6934254,36.7421129 C59.3638929,36.1098739 60.2634378,35.7788017 61.1838006,35.8255452 C62.1921712,35.7863299 63.1685102,36.1836772 63.8629283,36.9158879 L62.9127726,37.834891 C62.4609616,37.3680593 61.833145,37.1135391 61.1838006,37.1339564 C60.4269763,37.1534335 59.7380327,37.575192 59.3764882,38.2403596 C59.0149437,38.9055273 59.0357256,39.7130492 59.4310054,40.3587397 C59.8262852,41.0044302 60.5360106,41.3901936 61.2928349,41.3707165 C61.7816624,41.4059584 62.2685795,41.2801259 62.6791277,41.0124611 L62.6791277,39.8753894 L61.2461059,39.8753894 L61.2461059,38.5981308 L64.0031153,38.5981308 L64.0031153,41.7133956 C63.2533666,42.357391 62.2783009,42.676809 61.2928349,42.6012461 L61.2928349,42.6012461 Z" id="Path" fill="#736F7F"></path>
                <polygon id="Path" fill="#736F7F" points="67.9750779 38.1775701 67.9750779 42.4922118 66.6199377 42.4922118 66.6199377 35.8255452 67.8504673 35.8255452 70 38.7850467 72.165109 35.8255452 73.3956386 35.8255452 73.3956386 42.4610592 72.0404984 42.4610592 72.0404984 38.1775701 70 40.9657321"></polygon>
                <polygon id="Path" fill="#736F7F" points="76.3239875 35.8255452 80.4517134 35.8255452 80.4517134 37.1183801 77.6323988 37.1183801 77.6323988 38.4735202 79.8442368 38.4735202 79.8442368 39.7663551 77.6323988 39.7663551 77.6323988 41.1682243 80.4049844 41.1682243 80.4049844 42.4610592 76.3239875 42.4610592"></polygon>
                <polygon id="Path" fill="#736F7F" points="87.741433 42.4922118 84.3457944 38.1619938 84.3457944 42.4922118 82.9906542 42.4922118 82.9906542 35.8255452 84.1121495 35.8255452 87.5077882 40.1557632 87.5077882 35.8255452 88.8629283 35.8255452 88.8629283 42.4610592"></polygon>
                <polygon id="Path" fill="#736F7F" points="93.0218069 37.1495327 91.2461059 37.1495327 91.2461059 35.8255452 96.1682243 35.8255452 96.1682243 37.1183801 94.376947 37.1183801 94.376947 42.4610592 93.0218069 42.4610592"></polygon>
                <path d="M13.5514019,51.4018692 C13.558182,51.9920983 13.3147338,52.5576013 12.8813443,52.9583382 C12.4479549,53.359075 11.8651515,53.5575717 11.2772586,53.5046729 L10.1090343,53.5046729 L10.1090343,55.9190031 L9.25233645,55.9190031 L9.25233645,49.2990654 L11.2772586,49.2990654 C11.8639987,49.2510942 12.4439802,49.4512747 12.8762168,49.8509455 C13.3084534,50.2506163 13.5533596,50.8131745 13.5514019,51.4018692 Z M12.694704,51.4018692 C12.7014084,51.0346718 12.549727,50.6823568 12.2783827,50.434867 C12.0070385,50.1873772 11.6422916,50.0686642 11.2772586,50.1090343 L10.1090343,50.1090343 L10.1090343,52.694704 L11.2772586,52.694704 C11.6422916,52.7350741 12.0070385,52.6163611 12.2783827,52.3688713 C12.549727,52.1213815 12.7014084,51.7690666 12.694704,51.4018692 L12.694704,51.4018692 Z" id="Shape" fill="#736F7F"></path>
                <path d="M16.1214953,49.2990654 L18.3800623,49.2990654 C18.8948429,49.244793 19.4079333,49.4158626 19.7871455,49.7682015 C20.1663578,50.1205404 20.374612,50.6196965 20.3582555,51.1370717 C20.3836454,51.6009623 20.2212766,52.0555526 19.9077433,52.3983881 C19.5942101,52.7412235 19.1558965,52.9434541 18.6915888,52.9595016 L21.2305296,55.9813084 L20.2492212,55.9813084 L17.6323988,52.9595016 L16.9937695,52.9595016 L16.9937695,55.9657321 L16.1214953,55.9657321 L16.1214953,49.2990654 Z M18.2866044,52.1495327 C19.0342679,52.1495327 19.5015576,51.8068536 19.5015576,51.1370717 C19.5015576,50.4672897 19.0342679,50.1090343 18.2866044,50.1090343 L16.9937695,50.1090343 L16.9937695,52.1495327 L18.2866044,52.1495327 Z" id="Shape" fill="#736F7F"></path>
                <path d="M26.3084112,56.0747664 C24.4158467,56.0747664 22.8816199,54.5405396 22.8816199,52.6479751 C22.8816199,50.7554105 24.4158467,49.2211838 26.3084112,49.2211838 C28.2009758,49.2211838 29.7352025,50.7554105 29.7352025,52.6479751 C29.7436029,53.5593659 29.3852652,54.435873 28.7407872,55.0803511 C28.0963092,55.7248291 27.2198021,56.0831668 26.3084112,56.0747664 Z M26.3084112,55.2647975 C27.3721209,55.2901311 28.3452641,54.6688755 28.7700024,53.6933155 C29.1947407,52.7177555 28.986498,51.5821494 28.243247,50.8207703 C27.4999961,50.0593913 26.3697368,49.823849 25.3842268,50.2249599 C24.3987167,50.6260709 23.7541957,51.5839638 23.7538941,52.6479751 C23.7412868,53.3321136 24.0053543,53.9923788 24.4862542,54.4791434 C24.9671541,54.9659079 25.6241701,55.2379589 26.3084112,55.2336449 L26.3084112,55.2647975 Z" id="Shape" fill="#736F7F"></path>
                <path d="M35.4205607,49.1900312 C36.6025706,49.1585942 37.7143201,49.7499503 38.3489097,50.7476636 L37.6323988,51.1993769 C36.9633427,50.1627673 35.6551148,49.7432619 34.507998,50.1974849 C33.3608812,50.6517078 32.6944811,51.8531053 32.9164549,53.0667457 C33.1384287,54.2803862 34.1869309,55.1681294 35.4205607,55.1869159 C36.3219246,55.1903036 37.1600003,54.7240502 37.6323988,53.9563863 L38.3489097,54.3925234 C37.7143201,55.3902366 36.6025706,55.9815927 35.4205607,55.9501558 C33.5279962,55.9501557 31.9937696,54.415929 31.9937696,52.5233645 C31.9937696,50.6308 33.5279962,49.0965733 35.4205607,49.0965732 L35.4205607,49.1900312 Z" id="Path" fill="#736F7F"></path>
                <polygon id="Path" fill="#736F7F" points="40.9034268 49.2990654 44.7819315 49.2990654 44.7819315 50.1246106 41.7757009 50.1246106 41.7757009 52.1339564 44.2211838 52.1339564 44.2211838 52.9595016 41.7757009 52.9595016 41.7757009 55.1246106 44.7819315 55.1246106 44.7819315 55.9345794 40.9034268 55.9345794"></polygon>
                <path d="M47.6791277,54.3302181 C48.0051665,54.8824859 48.5954925,55.224875 49.2367601,55.2336449 C49.9221184,55.2336449 50.4672897,54.8598131 50.4672897,54.2523364 C50.4672897,53.6448598 50.1246106,53.364486 49.517134,53.1308411 L48.6292835,52.788162 C47.6012461,52.4143302 47.0716511,51.8691589 47.0716511,50.9657321 C47.0897978,50.4475662 47.3241404,49.9606864 47.7178025,49.6232618 C48.1114646,49.2858371 48.628457,49.1287154 49.1433022,49.1900312 C49.8924306,49.175148 50.6060123,49.5089201 51.0747664,50.0934579 L50.4361371,50.6542056 C50.124117,50.2461613 49.6413734,50.0047895 49.1277259,50 C48.4735202,50 47.9283489,50.3738318 47.9283489,50.9190031 C47.9283489,51.4641745 48.2554517,51.728972 48.9252336,51.9937695 L49.7352025,52.2897196 C50.638173,52.4861448 51.2848472,53.281554 51.2928349,54.2056075 C51.289431,54.7222383 51.0740981,55.2148217 50.6971885,55.5681745 C50.3202789,55.9215273 49.8148416,56.104666 49.2990654,56.0747664 C48.3679382,56.1305774 47.4796678,55.6774999 46.9781931,54.8909657 L47.6791277,54.3302181 Z" id="Path" fill="#736F7F"></path>
                <path d="M54.2523364,54.3302181 C54.599877,54.9066915 55.2305393,55.2517709 55.9034268,55.2336449 C56.588785,55.2336449 57.1183801,54.8598131 57.1183801,54.2523364 C57.1183801,53.6448598 56.7912773,53.364486 56.1682243,53.1308411 L55.2959502,52.788162 C54.2523364,52.4143302 53.7383178,51.8691589 53.7383178,50.9657321 C53.7564644,50.4475662 53.9908071,49.9606864 54.3844691,49.6232618 C54.7781312,49.2858371 55.2951236,49.1287154 55.8099688,49.1900312 C56.563524,49.1750415 57.2818927,49.5083646 57.7570093,50.0934579 L57.1183801,50.6542056 C56.7999697,50.2455671 56.3124166,50.0046585 55.7943925,50 C55.1401869,50 54.5950156,50.3738318 54.5950156,50.9190031 C54.5950156,51.4641745 54.9221184,51.728972 55.6074766,51.9937695 L56.4018692,52.2897196 C57.3048397,52.4861448 57.9515139,53.281554 57.9595016,54.2056075 C57.9626389,54.7385036 57.7381663,55.2474013 57.3425049,55.604389 C56.9468436,55.9613766 56.4176184,56.132507 55.8878505,56.0747664 C54.9519997,56.1329974 54.0579622,55.6800184 53.5514019,54.8909657 L54.2523364,54.3302181 Z" id="Path" fill="#736F7F"></path>
                <path d="M64.517134,54.3302181 C64.8646745,54.9066915 65.4953368,55.2517709 66.1682243,55.2336449 C66.8380062,55.2336449 67.3831776,54.8598131 67.3831776,54.2523364 C67.3831776,53.6448598 67.0560748,53.364486 66.4330218,53.1308411 L65.5607477,52.788162 C64.517134,52.4143302 64.0031153,51.8691589 64.0031153,50.9657321 C64.0212619,50.4475662 64.2556046,49.9606864 64.6492666,49.6232618 C65.0429287,49.2858371 65.5599211,49.1287154 66.0747664,49.1900312 C66.8244032,49.1727391 67.5389995,49.5069857 68.0062305,50.0934579 L67.3831776,50.6542056 C67.0647672,50.2455671 66.5772141,50.0046585 66.05919,50 C65.4049844,50 64.8598131,50.3738318 64.8598131,50.9190031 C64.8598131,51.4641745 65.1869159,51.728972 65.8566978,51.9937695 L66.6666667,52.2897196 C67.5696372,52.4861448 68.2163114,53.281554 68.2242991,54.2056075 C68.2279605,54.7415428 68.0013913,55.2532662 67.6021367,55.6108076 C67.2028821,55.968349 66.6693581,56.1373061 66.1370717,56.0747664 C65.2160184,56.1068175 64.3483111,55.6432478 63.8629283,54.8598131 L64.517134,54.3302181 Z" id="Path" fill="#736F7F"></path>
                <polygon id="Path" fill="#736F7F" points="72.211838 50.1246106 70.0934579 50.1246106 70.0934579 49.2990654 75.0778816 49.2990654 75.0778816 50.1246106 73.0529595 50.1246106 73.0529595 55.9345794 72.211838 55.9345794"></polygon>
                <polygon id="Path" fill="#736F7F" points="77.5700935 49.2990654 81.4330218 49.2990654 81.4330218 50.1246106 78.4267913 50.1246106 78.4267913 52.1339564 80.8722741 52.1339564 80.8722741 52.9595016 78.4267913 52.9595016 78.4267913 55.1246106 81.4330218 55.1246106 81.4330218 55.9345794 77.5700935 55.9345794"></polygon>
                <path d="M88.4735202,51.4018692 C88.4803004,51.9920983 88.2368522,52.5576013 87.8034627,52.9583382 C87.3700733,53.359075 86.7872699,53.5575717 86.1993769,53.5046729 L85.046729,53.5046729 L85.046729,55.9190031 L84.1121495,55.9190031 L84.1121495,49.2990654 L86.1370717,49.2990654 C86.7340071,49.2323143 87.3309943,49.4240247 87.7774584,49.8258424 C88.2239225,50.22766 88.4772408,50.8012247 88.4735202,51.4018692 Z M87.6168224,51.4018692 C87.6235267,51.0346718 87.4718453,50.6823568 87.2005011,50.434867 C86.9291569,50.1873772 86.56441,50.0686642 86.1993769,50.1090343 L85.046729,50.1090343 L85.046729,52.694704 L86.1993769,52.694704 C86.56441,52.7350741 86.9291569,52.6163611 87.2005011,52.3688713 C87.4718453,52.1213815 87.6235267,51.7690666 87.6168224,51.4018692 L87.6168224,51.4018692 Z" id="Shape" fill="#736F7F"></path>
                <path d="M1.5576324,243.676012 C1.88206073,244.159125 2.42430753,244.450656 3.00623053,244.454829 C3.53582555,244.454829 3.894081,244.205607 3.894081,243.816199 C3.894081,243.426791 3.61370717,243.17757 2.95950156,242.959502 L2.39875389,242.757009 C1.33956386,242.383178 0.841121495,241.775701 0.841121495,240.872274 C0.840559731,240.292854 1.09014975,239.741395 1.52583821,239.359422 C1.96152666,238.977449 2.54089767,238.802147 3.1152648,238.878505 C3.91770452,238.858335 4.68780638,239.194898 5.21806854,239.797508 L4.31464174,240.716511 C4.02462139,240.358874 3.59122864,240.14788 3.13084112,240.140187 C2.67912773,240.140187 2.24299065,240.342679 2.24299065,240.732087 C2.24299065,241.121495 2.57009346,241.308411 3.27102804,241.573209 L3.80062305,241.760125 C4.83611213,242.023885 5.48843686,243.046861 5.2907688,244.096972 C5.09310074,245.147084 4.11347956,245.86287 3.0529595,245.732087 C2.0822799,245.793763 1.14961671,245.34514 0.591900312,244.548287 L1.5576324,243.676012 Z" id="Path" fill="#736F7F"></path>
                <polygon id="Path" fill="#736F7F" points="7.78816199 238.987539 11.9470405 238.987539 11.9470405 240.280374 9.17445483 240.280374 9.17445483 241.635514 11.3862928 241.635514 11.3862928 242.990654 9.17445483 242.990654 9.17445483 244.392523 11.9470405 244.392523 11.9470405 245.685358 7.78816199 245.685358"></polygon>
                <path d="M17.5700935,245.732087 C16.6319456,245.779054 15.7156462,245.438861 15.0354469,244.791052 C14.3552476,244.143243 13.9707877,243.244618 13.9719626,242.305296 C13.9587068,241.381552 14.3241292,240.492639 14.9832402,239.845297 C15.6423512,239.197956 16.5377044,238.848608 17.4610592,238.878505 C18.4613317,238.841791 19.4299367,239.232632 20.1246106,239.953271 L19.1900312,240.88785 C18.7339335,240.427413 18.1090271,240.174073 17.4610592,240.186916 C16.7042349,240.203611 16.0138068,240.622798 15.6498527,241.286574 C15.2858985,241.950351 15.3037115,242.757873 15.6965816,243.404954 C16.0894518,244.052036 16.7976928,244.440371 17.5545171,244.423676 C18.0475428,244.451398 18.5371106,244.326286 18.9563863,244.065421 L18.9563863,242.990654 L17.5233645,242.990654 L17.5233645,241.728972 L20.2492212,241.728972 L20.2492212,244.844237 C19.5107694,245.486425 18.545915,245.806173 17.5700935,245.732087 L17.5700935,245.732087 Z" id="Path" fill="#736F7F"></path>
                <polygon id="Path" fill="#736F7F" points="24.2367601 241.308411 24.2367601 245.623053 22.8816199 245.623053 22.8816199 238.987539 24.1277259 238.987539 26.2772586 241.94704 28.4423676 238.987539 29.6728972 238.987539 29.6728972 245.623053 28.317757 245.623053 28.317757 241.308411 26.2772586 244.096573"></polygon>
                <polygon id="Path" fill="#736F7F" points="32.5545171 238.987539 36.682243 238.987539 36.682243 240.280374 33.9096573 240.280374 33.9096573 241.635514 36.1214953 241.635514 36.1214953 242.990654 33.9096573 242.990654 33.9096573 244.392523 36.682243 244.392523 36.682243 245.685358 32.5545171 245.685358"></polygon>
                <polygon id="Path" fill="#736F7F" points="44.0186916 245.623053 40.6074766 241.292835 40.6074766 245.623053 39.2679128 245.623053 39.2679128 238.987539 40.4984424 238.987539 43.9096573 243.317757 43.9096573 238.987539 45.1713396 238.987539 45.1713396 245.623053"></polygon>
                <polygon id="Path" fill="#736F7F" points="49.2834891 240.280374 47.5233645 240.280374 47.5233645 238.987539 52.4299065 238.987539 52.4299065 240.280374 50.6542056 240.280374 50.6542056 245.623053 49.2834891 245.623053"></polygon>
                <path d="M58.0062305,238.987539 L60.1869159,238.987539 C61.3722364,238.987539 62.4675178,239.6199 63.0601781,240.646417 C63.6528384,241.672935 63.6528384,242.937657 63.0601781,243.964175 C62.4675178,244.990692 61.3722364,245.623053 60.1869159,245.623053 L58.0062305,245.623053 L58.0062305,238.987539 Z M60.1869159,244.376947 C61.3310572,244.376947 62.258567,243.449437 62.258567,242.305296 C62.258567,241.161155 61.3310572,240.233645 60.1869159,240.233645 L59.3613707,240.233645 L59.3613707,244.376947 L60.1869159,244.376947 Z" id="Shape" fill="#736F7F"></path>
                <polygon id="Path" fill="#736F7F" points="66.0903427 238.987539 67.4454829 238.987539 67.4454829 245.623053 66.0903427 245.623053"></polygon>
                <path d="M73.5358255,245.732087 C72.5988748,245.774532 71.685172,245.432831 71.0059946,244.785995 C70.3268172,244.13916 69.9409777,243.243202 69.9376947,242.305296 C69.9244389,241.381552 70.2898613,240.492639 70.9489723,239.845297 C71.6080833,239.197956 72.5034364,238.848608 73.4267913,238.878505 C74.4317225,238.841289 75.4053202,239.231861 76.105919,239.953271 L75.1557632,240.88785 C74.7039522,240.421019 74.0761356,240.166499 73.4267913,240.186916 C72.2568423,240.217025 71.3328194,241.189864 71.3629283,242.359813 C71.3930373,243.529762 72.3658765,244.453785 73.5358255,244.423676 C74.0239257,244.451233 74.508483,244.32601 74.9221184,244.065421 L74.9221184,242.990654 L73.4890966,242.990654 L73.4890966,241.728972 L76.2305296,241.728972 L76.2305296,244.844237 C75.4881806,245.490418 74.5168933,245.810438 73.5358255,245.732087 L73.5358255,245.732087 Z" id="Path" fill="#736F7F"></path>
                <polygon id="Path" fill="#736F7F" points="78.8629283 238.987539 82.9906542 238.987539 82.9906542 240.280374 80.2180685 240.280374 80.2180685 241.635514 82.4299065 241.635514 82.4299065 242.990654 80.2180685 242.990654 80.2180685 244.392523 82.9906542 244.392523 82.9906542 245.685358 78.8629283 245.685358"></polygon>
                <path d="M86.1214953,243.676012 C86.4390211,244.158764 86.9767139,244.450988 87.5545171,244.454829 C88.0841121,244.454829 88.4423676,244.205607 88.4423676,243.816199 C88.4423676,243.426791 88.1775701,243.17757 87.5233645,242.959502 L86.9626168,242.757009 C85.9034268,242.383178 85.4049844,241.775701 85.4049844,240.872274 C85.4055396,240.299008 85.6509277,239.753274 86.0793926,239.372416 C86.5078575,238.991559 87.0785971,238.811845 87.6479751,238.878505 C88.4463102,238.85643 89.2124216,239.193748 89.7352025,239.797508 L88.847352,240.716511 C88.5538629,240.354709 88.1138368,240.143268 87.6479751,240.140187 C87.1962617,240.140187 86.7601246,240.342679 86.7601246,240.732087 C86.7601246,241.121495 87.0872274,241.308411 87.788162,241.573209 L88.3333333,241.760125 C89.3688224,242.023885 90.0211471,243.046861 89.8234791,244.096972 C89.625811,245.147084 88.6461898,245.86287 87.5856698,245.732087 C86.6276114,245.773873 85.713373,245.328475 85.1557632,244.548287 L86.1214953,243.676012 Z" id="Path" fill="#736F7F"></path>
                <polygon id="Path" fill="#736F7F" points="93.4579439 240.280374 91.6666667 240.280374 91.6666667 238.987539 96.5732087 238.987539 96.5732087 240.280374 94.7975078 240.280374 94.7975078 245.623053 93.4579439 245.623053"></polygon>
                <polygon id="Path" fill="#736F7F" points="18.94081 252.429907 19.8130841 252.429907 19.8130841 258.239875 22.9283489 258.239875 22.9283489 259.065421 18.94081 259.065421"></polygon>
                <polygon id="Path" fill="#736F7F" points="25.4672897 252.429907 26.3239875 252.429907 26.3239875 259.065421 25.4672897 259.065421"></polygon>
                <polygon id="Path" fill="#736F7F" points="34.3925234 259.065421 30.3582555 253.894081 30.3582555 259.065421 29.4859813 259.065421 29.4859813 252.429907 30.2492212 252.429907 34.2679128 257.601246 34.2679128 252.429907 35.1246106 252.429907 35.1246106 259.065421"></polygon>
                <polygon id="Path" fill="#736F7F" points="38.317757 252.429907 39.1744548 252.429907 39.1744548 255.311526 42.0560748 252.429907 43.1775701 252.429907 40.0623053 255.545171 43.9252336 259.018692 42.7102804 259.018692 39.1900312 255.903427 39.1900312 259.018692 38.317757 259.018692"></polygon>
                <polygon id="Path" fill="#736F7F" points="49.4080997 252.429907 50.2803738 252.429907 50.2803738 255.264798 53.9096573 255.264798 53.9096573 252.429907 54.7819315 252.429907 54.7819315 259.065421 53.9096573 259.065421 53.9096573 256.074766 50.2803738 256.074766 50.2803738 259.065421 49.4080997 259.065421"></polygon>
                <path d="M60.046729,252.429907 L60.7476636,252.429907 L63.6915888,259.065421 L62.788162,259.065421 L61.9314642,257.133956 L58.8161994,257.133956 L57.9595016,259.065421 L57.0716511,259.065421 L60.046729,252.429907 Z M61.6043614,256.35514 L60.4049844,253.613707 L59.1900312,256.35514 L61.6043614,256.35514 Z" id="Shape" fill="#736F7F"></path>
                <path d="M66.105919,257.461059 C66.4534595,258.037533 67.0841219,258.382612 67.7570093,258.364486 C68.4267913,258.364486 68.9719626,257.990654 68.9719626,257.383178 C68.9719626,256.775701 68.6448598,256.495327 68.0218069,256.261682 L67.1495327,255.919003 C66.105919,255.529595 65.5919003,255 65.5919003,254.080997 C65.6171899,253.559065 65.8616074,253.072053 66.2649749,252.739868 C66.6683424,252.407683 67.1931847,252.261187 67.7102804,252.336449 C68.4599172,252.319157 69.1745136,252.653403 69.6417445,253.239875 L69.0186916,253.800623 C68.7049167,253.386337 68.2143975,253.143963 67.694704,253.146417 C67.0404984,253.146417 66.4953271,253.520249 66.4953271,254.065421 C66.4953271,254.610592 66.8224299,254.875389 67.4922118,255.124611 L68.3021807,255.436137 C69.2051512,255.632562 69.8518254,256.427971 69.8598131,257.352025 C69.8556625,257.888687 69.6210344,258.397673 69.2156696,258.749387 C68.8103047,259.1011 68.2733169,259.261604 67.741433,259.190031 C66.8103058,259.245842 65.9220354,258.792765 65.4205607,258.006231 L66.105919,257.461059 Z" id="Path" fill="#736F7F"></path>
                <polygon id="Path" fill="#736F7F" points="72.5233645 252.429907 73.3956386 252.429907 73.3956386 255.264798 77.0249221 255.264798 77.0249221 252.429907 77.8816199 252.429907 77.8816199 259.065421 77.0093458 259.065421 77.0093458 256.074766 73.3956386 256.074766 73.3956386 259.065421 72.5233645 259.065421"></polygon>
                <polygon id="Path" fill="#736F7F" points="23.1464174 153.068536 24.5015576 153.068536 24.5015576 155.76324 27.3831776 155.76324 27.3831776 153.115265 28.7227414 153.115265 28.7227414 159.750779 27.3831776 159.750779 27.3831776 157.009346 24.5015576 157.009346 24.5015576 159.70405 23.1464174 159.70405"></polygon>
                <path d="M33.7383178,153.068536 L34.953271,153.068536 L37.8193146,159.70405 L36.4018692,159.70405 L35.7476636,158.146417 L32.9283489,158.146417 L32.2897196,159.70405 L30.8878505,159.70405 L33.7383178,153.068536 Z M35.2959502,157.009346 L34.3925234,154.844237 L33.4735202,157.009346 L35.2959502,157.009346 Z" id="Shape" fill="#736F7F"></path>
                <path d="M40.3426791,157.757009 C40.6654568,158.243991 41.207129,158.541037 41.7912773,158.551402 C42.3208723,158.551402 42.6791277,158.286604 42.6791277,157.897196 C42.6791277,157.507788 42.3987539,157.258567 41.7445483,157.040498 L41.1838006,156.838006 C40.1246106,156.464174 39.6261682,155.856698 39.6261682,154.953271 C39.6222262,154.381403 39.8640397,153.835375 40.2901515,153.45396 C40.7162632,153.072546 41.285643,152.892471 41.8535826,152.959502 C42.6564482,152.93715 43.4274364,153.2741 43.9563863,153.878505 L43.0529595,154.797508 C42.7629391,154.439871 42.3295464,154.228877 41.8691589,154.221184 C41.4174455,154.221184 40.9813084,154.423676 40.9813084,154.813084 C40.9813084,155.202492 41.3084112,155.389408 42.0093458,155.654206 L42.5389408,155.841121 C43.4483936,156.068341 44.0890203,156.881937 44.0965732,157.819315 C44.0700631,158.400797 43.8037071,158.945277 43.3609218,159.323121 C42.9181365,159.700964 42.3385388,159.878364 41.7601246,159.813084 C40.8062797,159.855309 39.8965104,159.409229 39.3457944,158.629283 L40.3426791,157.757009 Z" id="Path" fill="#736F7F"></path>
                <polygon id="Path" fill="#736F7F" points="46.5420561 153.068536 47.8971963 153.068536 47.8971963 155.76324 50.7632399 155.76324 50.7632399 153.115265 52.1183801 153.115265 52.1183801 159.750779 50.7632399 159.750779 50.7632399 157.009346 47.8971963 157.009346 47.8971963 159.70405 46.5420561 159.70405"></polygon>
                <polygon id="Path" fill="#736F7F" points="55 153.068536 56.3551402 153.068536 56.3551402 159.70405 55 159.70405"></polygon>
                <polygon id="Path" fill="#736F7F" points="63.9875389 159.70405 60.5919003 155.373832 60.5919003 159.70405 59.1900312 159.70405 59.1900312 153.068536 60.3582555 153.068536 63.8629283 157.398754 63.8629283 153.068536 65.2180685 153.068536 65.2180685 159.70405"></polygon>
                <path d="M71.2616822,159.813084 C70.3235344,159.860051 69.4072349,159.519858 68.7270357,158.872049 C68.0468364,158.22424 67.6623765,157.325615 67.6635514,156.386293 C67.6504633,155.465336 68.0137712,154.578922 68.6694474,153.932067 C69.3251237,153.285211 70.2163762,152.933942 71.1370717,152.959502 C72.1423474,152.9203 73.1167242,153.311184 73.8161994,154.034268 L72.8660436,154.968847 C72.4142326,154.502016 71.786416,154.247495 71.1370717,154.267913 C69.9671226,154.298022 69.0430997,155.270861 69.0732087,156.44081 C69.1033177,157.610759 70.0761569,158.534782 71.2461059,158.504673 C71.7344123,158.534344 72.2196076,158.408957 72.6323988,158.146417 L72.6323988,157.009346 L71.2149533,157.009346 L71.2149533,155.76324 L73.9563863,155.76324 L73.9563863,158.878505 C73.2187292,159.536928 72.2486082,159.873386 71.2616822,159.813084 L71.2616822,159.813084 Z" id="Path" fill="#736F7F"></path>
                <path d="M17.6479751,164.283489 L18.8629283,164.283489 L21.8068536,170.919003 L20.2492212,170.919003 L19.5950156,169.361371 L16.8380062,169.361371 L16.1993769,170.919003 L14.7975078,170.919003 L17.6479751,164.283489 Z M19.2056075,168.224299 L18.3021807,166.05919 L17.3364486,168.224299 L19.2056075,168.224299 Z" id="Shape" fill="#736F7F"></path>
                <polygon id="Path" fill="#736F7F" points="23.8629283 164.283489 25.2180685 164.283489 25.2180685 169.626168 28.0373832 169.626168 28.0373832 170.919003 23.8317757 170.919003"></polygon>
                <path d="M33.317757,171.028037 C32.3796091,171.075004 31.4633097,170.734811 30.7831104,170.087002 C30.1029112,169.439193 29.7184512,168.540568 29.7196262,167.601246 C29.7063703,166.677503 30.0717927,165.788589 30.7309038,165.141248 C31.3900148,164.493906 32.2853679,164.144558 33.2087227,164.174455 C34.2124634,164.135676 35.1838441,164.533317 35.8722741,165.264798 L34.9376947,166.183801 C34.4815971,165.723364 33.8566906,165.470023 33.2087227,165.482866 C32.4518984,165.499561 31.7614704,165.918748 31.3975162,166.582525 C31.0335621,167.246301 31.051375,168.053823 31.4442452,168.700905 C31.8371154,169.347986 32.5453564,169.736321 33.3021807,169.719626 C33.7952064,169.747348 34.2847742,169.622236 34.7040498,169.361371 L34.7040498,168.224299 L33.271028,168.224299 L33.271028,166.94704 L36.0124611,166.94704 L36.0124611,170.062305 C35.2825526,170.736649 34.3098419,171.085251 33.317757,171.028037 Z" id="Path" fill="#736F7F"></path>
                <path d="M41.6666667,171.028037 C39.7741021,171.028037 38.2398754,169.493811 38.2398754,167.601246 C38.2398754,165.708682 39.7741021,164.174455 41.6666667,164.174455 C43.5592312,164.174455 45.0934579,165.708682 45.0934579,167.601246 C45.0934579,169.493811 43.5592312,171.028037 41.6666667,171.028037 Z M41.6666667,169.719626 C42.5286887,169.744991 43.3200419,169.245256 43.6676477,168.456018 C44.0152534,167.666781 43.8497174,166.745601 43.2490804,166.126763 C42.6484434,165.507925 41.732614,165.314971 40.9333543,165.638868 C40.1340945,165.962765 39.610965,166.738851 39.6105919,167.601246 C39.5852487,168.165453 39.789629,168.715846 40.1770723,169.126771 C40.5645155,169.537696 41.1019459,169.774071 41.6666667,169.781931 L41.6666667,169.719626 Z" id="Shape" fill="#736F7F"></path>
                <path d="M47.5856698,164.283489 L50.1246106,164.283489 C50.6621842,164.24826 51.1897497,164.440988 51.5780248,164.814443 C51.9662999,165.187899 52.1794018,165.707569 52.165109,166.246106 C52.1894488,167.079077 51.6109545,167.808768 50.7943925,167.975078 L53.1775701,170.919003 L51.6199377,170.919003 L49.3613707,168.130841 L49.0186916,168.130841 L49.0186916,170.919003 L47.6635514,170.919003 L47.5856698,164.283489 Z M49.9688474,166.962617 C50.4672897,166.962617 50.8255452,166.697819 50.8255452,166.246106 C50.8255452,165.794393 50.4672897,165.529595 49.9688474,165.529595 L48.94081,165.529595 L48.94081,166.962617 L49.9688474,166.962617 Z" id="Shape" fill="#736F7F"></path>
                <polygon id="Path" fill="#736F7F" points="55.1246106 164.283489 56.4797508 164.283489 56.4797508 170.919003 55.1246106 170.919003"></polygon>
                <polygon id="Path" fill="#736F7F" points="60.576324 165.576324 58.8161994 165.576324 58.8161994 164.283489 63.7227414 164.283489 63.7227414 165.576324 61.9470405 165.576324 61.9470405 170.919003 60.576324 170.919003"></polygon>
                <polygon id="Path" fill="#736F7F" points="66.05919 164.283489 67.4143302 164.283489 67.4143302 166.931464 70.2959502 166.931464 70.2959502 164.283489 71.6510903 164.283489 71.6510903 170.919003 70.2959502 170.919003 70.2959502 168.224299 67.4143302 168.224299 67.4143302 170.919003 66.05919 170.919003"></polygon>
                <polygon id="Path" fill="#736F7F" points="75.8878505 166.666667 75.8878505 170.981308 74.5327103 170.981308 74.5327103 164.345794 75.7632399 164.345794 77.9283489 167.305296 80.0778816 164.345794 81.3084112 164.345794 81.3084112 170.981308 79.953271 170.981308 79.953271 166.666667 77.8816199 169.392523"></polygon>
                <polygon id="Path" fill="#B4B1BD" points="305.451713 129.735202 307.819315 125.638629 303.084112 125.638629"></polygon>
                <rect id="Rectangle" fill="#B4B1BD" x="304.859813" y="102.211838" width="1.1682243" height="23.94081"></rect>
                <path d="M331.05919,91.9003115 L278.909657,91.9003115 C278.702377,91.8984781 278.51205,91.785471 278.411215,91.6043614 L252.336449,46.4797508 C252.227394,46.2975203 252.227394,46.070081 252.336449,45.8878505 L278.411215,0.716510903 C278.51205,0.535401305 278.702377,0.422394214 278.909657,0.420560748 L331.05919,0.420560748 C331.272039,0.4167049 331.469679,0.53049757 331.573209,0.716510903 L357.647975,45.8878505 C357.742334,46.0738689 357.742334,46.2937324 357.647975,46.4797508 L331.573209,91.6510903 C331.45799,91.8192092 331.262544,91.9139709 331.05919,91.9003115 Z M279.252336,90.7320872 L330.732087,90.7320872 L356.464174,46.152648 L330.732087,1.5576324 L279.252336,1.5576324 L253.520249,46.1838006 L279.252336,90.7320872 Z" id="Shape" fill="#736F7F"></path>
                <polygon id="Path" fill="#45D8FF" points="304.984424 61.6666667 316.713396 81.9937695 293.255452 81.9937695"></polygon>
                <circle id="Oval" fill="#FFE000" cx="304.984424" cy="20.2959502" r="10.623053"></circle>
                <polygon id="Path" fill="#FF5072" points="279.252336 36.3395639 267.88162 36.3395639 262.196262 46.1838006 267.88162 56.0280374 279.252336 56.0280374 284.922118 46.1838006"></polygon>
                <polygon id="Path" fill="#FFE000" points="279.252336 36.3395639 267.88162 36.3395639 262.196262 46.1838006 267.88162 56.0280374 279.252336 56.0280374"></polygon>
                <polygon id="Path" fill="#63E54C" points="267.88162 56.0280374 262.196262 46.1838006 267.88162 36.3395639"></polygon>
                <polygon id="Path" fill="#45D8FF" points="279.252336 36.3395639 267.88162 56.0280374 279.252336 56.0280374"></polygon>
                <rect id="Rectangle" fill="#63E54C" x="324.283489" y="36.3395639" width="19.6884735" height="19.6884735"></rect>
                <path d="M189.766355,91.9003115 L137.616822,91.9003115 C137.403974,91.9041674 137.206334,91.7903747 137.102804,91.6043614 L111.028037,46.4330218 C110.933679,46.2470034 110.933679,46.0271399 111.028037,45.8411215 L137.071651,0.732087227 C137.175181,0.546073894 137.372821,0.432281224 137.58567,0.436137072 L189.735202,0.436137072 C189.942482,0.437970538 190.13281,0.550977629 190.233645,0.732087227 L216.308411,45.9034268 C216.417466,46.0856573 216.417466,46.3130966 216.308411,46.4953271 L190.233645,91.6666667 C190.124155,91.8147309 189.950501,91.9015579 189.766355,91.9003115 Z M137.943925,90.7320872 L189.423676,90.7320872 L215.155763,46.152648 L189.423676,1.5576324 L138.021807,1.5576324 L112.149533,46.1838006 L137.943925,90.7320872 Z" id="Shape" fill="#736F7F"></path>
                <polygon id="Path" fill="#45D8FF" points="163.691589 61.6666667 175.420561 81.9937695 151.962617 81.9937695"></polygon>
                <circle id="Oval" fill="#FFE000" cx="163.691589" cy="20.2959502" r="10.623053"></circle>
                <rect id="Rectangle" fill="#63E54C" x="182.990654" y="36.3395639" width="19.6884735" height="19.6884735"></rect>
                <polygon id="Path" fill="#FF5072" points="313.084112 262.803738 297.165109 262.803738 289.221184 249.018692 297.165109 235.249221 313.084112 235.249221 321.028037 249.018692"></polygon>
                <polygon id="Path" fill="#63E54C" points="297.165109 262.803738 289.221184 249.018692 297.165109 235.249221 313.084112 235.249221"></polygon>
                <polygon id="Path" fill="#FFE000" points="297.165109 235.249221 289.221184 249.018692 297.165109 262.803738"></polygon>
                <polygon id="Path" fill="#45D8FF" points="297.165109 235.249221 313.084112 235.249221 321.028037 249.018692"></polygon>
                <path d="M368.691589,249.797508 L330.560748,249.797508 L330.560748,248.629283 L368.115265,248.629283 L368.115265,46.5109034 C368.115154,46.1899935 368.37079,45.9274481 368.691589,45.9190031 L383.785047,45.9190031 L383.785047,47.0872274 L369.283489,47.0872274 L369.283489,249.221184 C369.275044,249.541983 369.012499,249.797619 368.691589,249.797508 Z" id="Path" fill="#B4B1BD"></path>
                <polygon id="Path" fill="#B4B1BD" points="387.180685 46.4641745 383.084112 44.0965732 383.084112 48.8161994"></polygon>
                <path d="M479.314642,184.813084 L415,184.813084 C414.844469,184.817289 414.693845,184.758431 414.58237,184.64989 C414.470896,184.541349 414.408043,184.392348 414.4081,184.23676 L414.4081,142.866044 C414.416545,142.545245 414.67909,142.289608 415,142.28972 L479.314642,142.28972 C479.635552,142.289608 479.898097,142.545245 479.906542,142.866044 L479.906542,184.23676 C479.906599,184.392348 479.843746,184.541349 479.732271,184.64989 C479.620797,184.758431 479.470173,184.817289 479.314642,184.813084 L479.314642,184.813084 Z M415.576324,183.64486 L478.738318,183.64486 L478.738318,143.457944 L415.576324,143.457944 L415.576324,183.64486 Z" id="Shape" fill="#736F7F"></path>
                <path d="M426.448598,161.65109 C426.45238,161.381738 426.393735,161.115169 426.277259,160.872274 C426.159919,160.651835 425.994973,160.460285 425.794393,160.311526 C425.590938,160.165899 425.364552,160.055338 425.124611,159.984424 C424.856986,159.902814 424.578854,159.860831 424.299065,159.859813 C424.062205,159.858117 423.826272,159.889575 423.598131,159.953271 C423.386161,160.024651 423.182494,160.11865 422.990654,160.233645 C422.819965,160.352624 422.676593,160.506616 422.570093,160.685358 C422.467873,160.871514 422.414297,161.08046 422.41433,161.292835 L422.41433,161.292835 C422.412403,161.515344 422.465936,161.734829 422.570093,161.931464 C422.685386,162.118941 422.846107,162.274305 423.037383,162.383178 C423.270011,162.523059 423.52192,162.628021 423.785047,162.694704 C424.096573,162.694704 424.439252,162.850467 424.844237,162.912773 C425.606139,162.97622 426.332295,163.263431 426.931464,163.738318 C427.386579,164.163465 427.631549,164.767346 427.601246,165.389408 L427.601246,165.545171 C427.605231,165.906777 427.541846,166.265962 427.41433,166.604361 C427.277659,166.92284 427.076067,167.209313 426.82243,167.445483 C426.532053,167.682918 426.198976,167.862674 425.841121,167.975078 C425.409491,168.11879 424.95638,168.187284 424.501558,168.17757 C423.971794,168.185854 423.444657,168.101513 422.943925,167.928349 C422.524236,167.777663 422.141787,167.538632 421.82243,167.227414 C421.531489,166.927942 421.303717,166.573041 421.152648,166.183801 C420.994542,165.76586 420.91532,165.322221 420.919003,164.875389 L420.919003,164.485981 L422.009346,164.485981 L422.009346,164.797508 C421.952908,165.454241 422.186182,166.102857 422.647975,166.573209 C423.160264,166.99109 423.810339,167.202226 424.470405,167.165109 C425.025789,167.218521 425.581143,167.063022 426.028037,166.728972 C426.362481,166.427254 426.549939,165.995531 426.542056,165.545171 L426.542056,165.545171 C426.569192,165.113952 426.368175,164.700093 426.012461,164.454829 C425.493841,164.149697 424.913953,163.963494 424.314642,163.909657 C423.895969,163.866956 423.483291,163.778152 423.084112,163.64486 C422.748011,163.529586 422.432502,163.361314 422.149533,163.146417 C421.902327,162.947347 421.70052,162.697744 421.557632,162.41433 C421.41305,162.102461 421.343693,161.761008 421.35514,161.417445 L421.35514,161.261682 C421.344107,160.926426 421.419185,160.593936 421.573209,160.29595 C421.712063,159.99681 421.920328,159.735143 422.180685,159.53271 C422.459825,159.303093 422.783262,159.133422 423.130841,159.034268 C423.51834,158.910929 423.923684,158.853023 424.330218,158.862928 C424.796659,158.850508 425.261376,158.92444 425.700935,159.080997 C426.069367,159.212769 426.411989,159.4078 426.713396,159.657321 C426.978708,159.902268 427.190789,160.199181 427.336449,160.529595 C427.475068,160.859818 427.544005,161.215107 427.538941,161.573209 L427.538941,162.102804 L426.464174,162.102804 L426.448598,161.65109 Z" id="Path" fill="#B4B1BD"></path>
                <path d="M472.133956,161.666667 C472.156742,161.168031 471.970434,160.682503 471.619938,160.327103 C471.231824,159.968374 470.714555,159.782832 470.186916,159.813084 C469.908981,159.807517 469.632993,159.860592 469.376947,159.968847 C469.134854,160.065992 468.916898,160.214839 468.738318,160.404984 C468.561642,160.611931 468.424381,160.849499 468.333333,161.105919 C468.232499,161.385787 468.179832,161.680723 468.17757,161.978193 L468.17757,163.317757 L468.333333,163.317757 C468.542086,162.945852 468.849279,162.638659 469.221184,162.429907 C469.615842,162.209019 470.0618,162.096187 470.514019,162.102804 C470.901909,162.10394 471.286654,162.172456 471.65109,162.305296 C471.996106,162.434848 472.309442,162.636658 472.570093,162.897196 C472.82559,163.167813 473.026553,163.485123 473.161994,163.831776 C473.306081,164.231019 473.374744,164.653557 473.364486,165.077882 L473.364486,165.233645 C473.370715,165.655409 473.291227,166.074046 473.130841,166.464174 C472.979046,166.821751 472.756519,167.144945 472.476636,167.41433 C472.186893,167.683398 471.848575,167.894846 471.479751,168.037383 C470.674357,168.32758 469.792933,168.32758 468.987539,168.037383 C468.620345,167.891605 468.282596,167.680512 467.990654,167.41433 C467.707649,167.153707 467.484462,166.834869 467.336449,166.479751 C467.178122,166.09446 467.098674,165.68133 467.102804,165.264798 L467.102804,161.993769 C467.097737,161.551886 467.177037,161.113093 467.336449,160.700935 C467.491168,160.328074 467.725008,159.993257 468.021807,159.719626 C468.3,159.443416 468.634802,159.230843 469.003115,159.096573 C469.384645,158.945608 469.79224,158.8715 470.202492,158.878505 C470.609901,158.873625 471.015266,158.936799 471.401869,159.065421 C471.760782,159.17976 472.090379,159.371139 472.367601,159.626168 C472.631713,159.878212 472.843449,160.179935 472.990654,160.514019 C473.143287,160.884175 473.217538,161.28195 473.208723,161.682243 L472.133956,161.666667 Z M470.233645,167.28972 C470.520167,167.293939 470.805101,167.24645 471.074766,167.149533 C471.324888,167.066917 471.549972,166.92222 471.728972,166.728972 C471.914265,166.549487 472.057839,166.331466 472.149533,166.090343 C472.245265,165.825761 472.292746,165.546149 472.28972,165.264798 L472.28972,165.109034 C472.296548,164.825951 472.243467,164.544621 472.133956,164.283489 C471.94755,163.786945 471.555734,163.395129 471.05919,163.208723 C470.794274,163.114265 470.514891,163.066823 470.233645,163.068536 C469.95571,163.062969 469.679722,163.116043 469.423676,163.224299 C469.177887,163.31578 468.954738,163.459233 468.76947,163.64486 C468.584414,163.827741 468.436335,164.044571 468.333333,164.283489 C468.233977,164.525874 468.181136,164.784795 468.17757,165.046729 L468.17757,165.29595 C468.175908,165.567044 468.223405,165.836193 468.317757,166.090343 C468.415075,166.328546 468.55793,166.545474 468.738318,166.728972 C468.923585,166.914598 469.146734,167.058051 469.392523,167.149533 C469.662189,167.24645 469.947123,167.293939 470.233645,167.28972 Z" id="Shape" fill="#B4B1BD"></path>
                <path d="M458.17757,163.722741 L458.17757,158.878505 L463.831776,158.878505 L463.831776,159.890966 L459.23676,159.890966 L459.23676,163.115265 L459.392523,163.115265 C459.475539,162.933429 459.585845,162.765343 459.719626,162.616822 C460.010969,162.279105 460.395782,162.035209 460.825545,161.915888 C461.077687,161.838295 461.340606,161.801487 461.604361,161.806854 C461.993005,161.79902 462.379386,161.867828 462.741433,162.009346 C463.079725,162.135842 463.387557,162.332218 463.64486,162.58567 C463.903194,162.842084 464.10484,163.14986 464.23676,163.489097 C464.378162,163.867435 464.446862,164.26907 464.439252,164.672897 L464.439252,164.890966 C464.444214,165.309826 464.375678,165.726311 464.23676,166.121495 C464.10066,166.494621 463.894465,166.838279 463.629283,167.133956 C463.353786,167.439435 463.013074,167.678998 462.632399,167.834891 C462.204118,168.016772 461.742503,168.106972 461.277259,168.099688 C460.799593,168.108461 460.32439,168.02926 459.875389,167.866044 C459.49692,167.726384 459.151992,167.508814 458.862928,167.227414 C458.587154,166.945842 458.370074,166.612281 458.224299,166.246106 C458.083975,165.856676 458.01537,165.445043 458.021807,165.031153 L458.021807,164.672897 L459.096573,164.672897 L459.096573,164.953271 C459.065262,165.535743 459.286658,166.103425 459.70405,166.510903 C460.138214,166.876986 460.694355,167.066074 461.261682,167.040498 C461.572997,167.046359 461.881678,166.982494 462.165109,166.853583 C462.675849,166.61531 463.057042,166.165844 463.208723,165.623053 C463.302037,165.341721 463.349373,165.047182 463.34891,164.750779 L463.34891,164.750779 C463.350634,164.251118 463.167557,163.768462 462.834891,163.395639 C462.673515,163.221486 462.477102,163.083466 462.258567,162.990654 C461.856836,162.840126 461.414192,162.840126 461.012461,162.990654 C460.876433,163.045438 460.746023,163.113252 460.623053,163.193146 C460.514687,163.270402 460.419934,163.365154 460.342679,163.47352 C460.273731,163.560026 460.225749,163.661321 460.202492,163.76947 L458.17757,163.722741 Z" id="Path" fill="#B4B1BD"></path>
                <path d="M444.626168,165.825545 L440.809969,165.825545 L440.155763,168.068536 L438.987539,168.068536 L441.728972,159.034268 L443.76947,159.034268 L446.495327,168.068536 L445.342679,168.068536 L444.626168,165.825545 Z M442.601246,159.501558 L441.043614,164.813084 L444.330218,164.813084 L442.772586,159.501558 L442.601246,159.501558 Z" id="Shape" fill="#B4B1BD"></path>
                <path d="M455.280374,167.149533 L455.280374,168.224299 L449.174455,168.224299 L449.174455,166.666667 C449.16328,166.292926 449.232327,165.921131 449.376947,165.576324 C449.513648,165.275796 449.715894,165.009683 449.968847,164.797508 C450.241497,164.564212 450.552404,164.379775 450.88785,164.252336 C451.283563,164.084314 451.696075,163.958994 452.11838,163.878505 C452.725213,163.779796 453.294973,163.521791 453.76947,163.130841 C454.099807,162.832727 454.286877,162.407569 454.283489,161.962617 L454.283489,161.962617 C454.281236,161.728739 454.239094,161.496961 454.158879,161.277259 C454.082062,161.052488 453.960153,160.845773 453.800623,160.669782 C453.625317,160.482901 453.413167,160.334396 453.17757,160.233645 C452.890007,160.121353 452.582707,160.06837 452.274143,160.077882 C451.689994,160.035803 451.117933,160.258907 450.716511,160.685358 C450.340538,161.115679 450.140346,161.671769 450.155763,162.242991 L450.155763,162.803738 L449.080997,162.803738 L449.080997,162.165109 C449.077097,161.756493 449.145655,161.350419 449.283489,160.965732 C449.421355,160.598127 449.627465,160.259894 449.890966,159.968847 C450.166464,159.663369 450.507176,159.423806 450.88785,159.267913 C451.321217,159.084781 451.788173,158.994573 452.258567,159.003115 C452.722816,158.989505 453.184677,159.074445 453.613707,159.252336 C453.979934,159.390812 454.313904,159.602857 454.595016,159.875389 C454.838669,160.131452 455.029245,160.433197 455.155763,160.76324 C455.279196,161.091942 455.342509,161.440164 455.342679,161.791277 L455.342679,161.993769 C455.362661,162.645235 455.134383,163.27996 454.70405,163.76947 C454.138278,164.320756 453.41361,164.680366 452.632399,164.797508 C451.98655,164.907057 451.37095,165.151174 450.825545,165.514019 C450.431586,165.824518 450.211267,166.305742 450.233645,166.806854 L450.233645,167.196262 L455.280374,167.149533 Z" id="Path" fill="#B4B1BD"></path>
                <polygon id="Path" fill="#B4B1BD" points="430.264798 159.034268 431.339564 159.034268 431.339564 163.037383 435.186916 163.037383 435.186916 159.034268 436.277259 159.034268 436.277259 168.068536 435.186916 168.068536 435.186916 164.049844 431.339564 164.049844 431.339564 168.068536 430.264798 168.068536"></polygon>
                <rect id="Rectangle" fill="#63E54C" x="467.912773" y="148.504673" width="4.64174455" height="4.64174455"></rect>
                <polygon id="Path" fill="#FF5072" points="425.482866 148.582555 422.803738 148.582555 421.464174 150.903427 422.803738 153.224299 425.482866 153.224299 426.82243 150.903427"></polygon>
                <polygon id="Path" fill="#FF5072" points="462.538941 174.205607 459.859813 174.205607 458.520249 176.52648 459.859813 178.847352 462.538941 178.847352 463.878505 176.52648"></polygon>
                <circle id="Oval" fill="#FFE000" cx="461.199377" cy="150.825545" r="2.64797508"></circle>
                <rect id="Rectangle" fill="#63E54C" x="440.280374" y="148.504673" width="4.64174455" height="4.64174455"></rect>
                <polygon id="Path" fill="#45D8FF" points="452.180685 148.442368 449.4081 153.224299 454.937695 153.224299"></polygon>
                <polygon id="Path" fill="#FF5072" points="434.501558 174.205607 431.82243 174.205607 430.482866 176.52648 431.82243 178.847352 434.501558 178.847352 435.841121 176.52648"></polygon>
                <polygon id="Path" fill="#45D8FF" points="433.161994 148.442368 430.389408 153.224299 435.919003 153.224299"></polygon>
                <circle id="Oval" fill="#FFE000" cx="442.58567" cy="176.277259" r="2.64797508"></circle>
                <polygon id="Path" fill="#45D8FF" points="423.878505 173.894081 421.121495 178.676012 426.635514 178.676012"></polygon>
                <polygon id="Path" fill="#45D8FF" points="470.436137 173.894081 467.679128 178.676012 473.208723 178.676012"></polygon>
                <rect id="Rectangle" fill="#63E54C" x="449.922118" y="173.956386" width="4.64174455" height="4.64174455"></rect>
                <polygon id="Path" fill="#736F7F" points="452.352025 142.616822 451.183801 142.616822 451.183801 140.109034 443.146417 140.109034 443.146417 142.616822 441.978193 142.616822 441.978193 138.94081 452.352025 138.94081"></polygon>
                <polygon id="Path" fill="#736F7F" points="452.352025 187.819315 441.978193 187.819315 441.978193 184.143302 443.146417 184.143302 443.146417 186.65109 451.183801 186.65109 451.183801 184.143302 452.352025 184.143302"></polygon>
                <polygon id="Path" fill="#B4B1BD" points="447.165109 225.638629 449.53271 221.542056 444.797508 221.542056"></polygon>
                <rect id="Rectangle" fill="#B4B1BD" x="446.573209" y="198.130841" width="1.1682243" height="23.94081"></rect>
                <polygon id="Path" fill="#B4B1BD" points="447.476636 129.735202 449.844237 125.638629 445.109034 125.638629"></polygon>
                <rect id="Rectangle" fill="#B4B1BD" x="446.900312" y="102.211838" width="1.1682243" height="23.94081"></rect>
                <path d="M473.099688,91.9003115 L420.950156,91.9003115 C420.741949,91.9018512 420.55003,91.7878998 420.451713,91.6043614 L394.376947,46.4330218 C394.267892,46.2507913 394.267892,46.023352 394.376947,45.8411215 L420.451713,0.669781931 C420.55003,0.486243512 420.741949,0.372292103 420.950156,0.373831776 L473.099688,0.373831776 C473.307896,0.372292103 473.499814,0.486243512 473.598131,0.669781931 L499.672897,45.8411215 C499.781952,46.023352 499.781952,46.2507913 499.672897,46.4330218 L473.598131,91.6043614 C473.499814,91.7878998 473.307896,91.9018512 473.099688,91.9003115 Z M421.292835,90.7320872 L472.694704,90.7320872 L498.442368,46.1838006 L472.757009,1.5576324 L421.35514,1.5576324 L395.545171,46.1838006 L421.292835,90.7320872 Z" id="Shape" fill="#736F7F"></path>
                <polygon id="Path" fill="#45D8FF" points="447.024922 61.6666667 458.753894 81.9937695 435.29595 81.9937695"></polygon>
                <circle id="Oval" fill="#FFE000" cx="447.024922" cy="20.2959502" r="10.623053"></circle>
                <rect id="Rectangle" fill="#63E54C" x="466.323988" y="36.3395639" width="19.6884735" height="19.6884735"></rect>
                <polygon id="Path" fill="#FF5072" points="421.557632 56.1370717 410.202492 56.1370717 404.517134 46.2928349 410.202492 36.4485981 421.557632 36.4485981 427.242991 46.2928349"></polygon>
                <polygon id="Path" fill="#63E54C" points="410.202492 56.1370717 404.517134 46.2928349 410.202492 36.4485981 421.557632 36.4485981"></polygon>
                <polygon id="Path" fill="#FFE000" points="410.202492 36.4485981 404.517134 46.2928349 410.202492 56.1370717"></polygon>
                <polygon id="Path" fill="#45D8FF" points="410.202492 36.4485981 421.557632 36.4485981 427.242991 46.2928349"></polygon>
                <polygon id="Path" fill="#FF5072" points="455.109034 263.084112 439.205607 263.084112 431.246106 249.299065 439.205607 235.529595 455.109034 235.529595 463.068536 249.299065"></polygon>
                <polygon id="Path" fill="#45D8FF" points="439.205607 263.084112 431.246106 249.299065 439.205607 235.529595 455.109034 235.529595"></polygon>
                <polygon id="Path" fill="#FFE000" points="455.109034 263.084112 439.205607 263.084112 431.246106 249.299065 439.205607 235.529595"></polygon>
                <polygon id="Path" fill="#63E54C" points="455.109034 263.084112 439.205607 263.084112 431.246106 249.299065"></polygon>
            </g>
        </g>
    </g>
</svg>