<svg id="Layer_1" data-name="Layer 1" xmlns="http://www.w3.org/2000/svg" viewBox="0 0 382 171.22"><defs><style>.cls-1{fill:#736f7f}.cls-2{fill:#ff5072}.cls-3{fill:#63e54c}.cls-4{fill:#ffe000}.cls-5{fill:#45d8ff}</style></defs><path class="cls-1" d="M18.87 137a.65.65 0 0 1-.2 0l.19-.78s.14 0 .27-.18a2 2 0 0 0 .41-.85 2.16 2.16 0 0 0 0-.94c-.05-.19-.12-.28-.16-.29s-.15 0-.3.22l-.62-.51a1.1 1.1 0 0 1 1.11-.48 1.08 1.08 0 0 1 .75.87 3 3 0 0 1 0 1.32 2.83 2.83 0 0 1-.59 1.19 1.17 1.17 0 0 1-.86.43zM6.08 137c-.61 0-1.21-.66-1.45-1.64a3 3 0 0 1 0-1.32 1.11 1.11 0 0 1 .75-.88 1.13 1.13 0 0 1 1.11.49l-.62.5c-.15-.18-.27-.21-.3-.21s-.11.1-.16.29a1.89 1.89 0 0 0 0 .94c.18.74.58 1.06.68 1l.19.78a.65.65 0 0 1-.2.05zM6.5 130.8l-.79-.11c.11-.82 1-1.3 1.8-1.4a2.77 2.77 0 0 1 .72 0c.41.06.54.06.72-.19l.65.47a1.34 1.34 0 0 1-1.48.51 1.83 1.83 0 0 0-.52 0c-.6.08-1.05.39-1.1.72z"/><path class="cls-1" d="M18.76 131.39a2.47 2.47 0 0 1-1.93-1.24 27.74 27.74 0 0 1-3.57.52l-.72.08a4.43 4.43 0 0 1-2.94-.54A2.79 2.79 0 0 1 8.38 128a5.09 5.09 0 0 1 .23-1.48c.06-.23.12-.47.17-.7a2.65 2.65 0 0 1 3-2.1 9.61 9.61 0 0 1 6.94 3.28 3.88 3.88 0 0 1 .39 4.22.39.39 0 0 1-.35.17zM17 129.27a.4.4 0 0 1 .35.21 2.1 2.1 0 0 0 1.16 1.07 3.13 3.13 0 0 0-.45-3.14 8.86 8.86 0 0 0-6.29-2.88c-1.4 0-2 .42-2.22 1.44a6.46 6.46 0 0 1-.18.76 4.28 4.28 0 0 0-.2 1.24 2 2 0 0 0 .87 1.57 3.61 3.61 0 0 0 2.39.42l.73-.08a21.89 21.89 0 0 0 3.69-.58.4.4 0 0 1 .15-.03z"/><path class="cls-1" d="M12.42 144.73a3.24 3.24 0 0 1-1.94-.55c-.84-.65-4.69-5.41-4.69-7.26v-5.46c-.57-3.26.8-5.88 3.57-6.79l.25.76c-2.41.79-3.54 3-3 6v5.53c0 1.46 3.53 6 4.38 6.63a3.19 3.19 0 0 0 3 0c.74-.53 4.37-5.15 4.37-6.62v-5.46a6.08 6.08 0 0 0 0-.61l.8-.08v6.15c0 1.89-3.91 6.7-4.7 7.27a3.73 3.73 0 0 1-2.04.49zM48.3 130.39h-.8a6.68 6.68 0 0 0-13.36 0h-.8a7.48 7.48 0 0 1 15 0zM48 135.84a.64.64 0 0 1-.2 0l.2-.84c.14 0 .57-.32.76-1.12s0-1.32-.16-1.36-.19 0-.35.24l-.62-.5a1.17 1.17 0 0 1 1.16-.51c.71.17 1 1.17.75 2.32s-.9 1.77-1.54 1.77zM34.3 136.08c-.64 0-1.27-.7-1.53-1.74s0-2.15.75-2.32a1.17 1.17 0 0 1 1.16.51l-.62.51c-.16-.2-.3-.26-.35-.24s-.36.54-.16 1.35.62 1.16.77 1.13l.19.77z"/><path class="cls-1" d="M41.1 143.47a3.46 3.46 0 0 1-2.07-.58c-.9-.7-5-5.78-5-7.76v-3a.4.4 0 0 1 .29-.38c.7-.2 2.63-.93 3.21-1.93a4.65 4.65 0 0 0 .74-1.82.4.4 0 0 1 .21-.35c.23-.12.31-.07.91.34 4 2.69 6.84 3.8 8.41 3.31a.42.42 0 0 1 .36.05.42.42 0 0 1 .16.33v3.43c0 2-4.18 7.16-5 7.77a3.94 3.94 0 0 1-2.22.59zm-6.29-11v2.68c0 1.57 3.79 6.41 4.71 7.13a3.44 3.44 0 0 0 3.28 0c.8-.57 4.7-5.54 4.7-7.12v-2.94c-2.45.35-6-1.81-8.56-3.51a8.09 8.09 0 0 1-.74 1.56c-.71 1.18-2.65 1.93-3.39 2.18zM33.44 137.38h.8v7.77h-.8zM47.96 137.38h.8v7.77h-.8zM110.52 137a.68.68 0 0 1-.2 0l.19-.78s.15 0 .28-.18a2.1 2.1 0 0 0 .4-.85 2 2 0 0 0 0-.94c0-.19-.13-.28-.16-.29s-.16 0-.31.22l-.61-.51a1.09 1.09 0 0 1 1.11-.48 1.06 1.06 0 0 1 .74.87 2.7 2.7 0 0 1 0 1.32 2.82 2.82 0 0 1-.58 1.19 1.17 1.17 0 0 1-.86.43zM97.74 137c-.61 0-1.21-.66-1.45-1.64s0-2 .71-2.2a1.13 1.13 0 0 1 1.11.49l-.62.5c-.15-.18-.27-.22-.3-.21s-.31.49-.13 1.23.59 1.06.69 1l.19.78a.71.71 0 0 1-.2.05zM98.16 130.8l-.8-.11a2 2 0 0 1 1.8-1.4 2.87 2.87 0 0 1 .73 0c.4.06.53.07.72-.19l.65.47a1.34 1.34 0 0 1-1.48.51 2.31 2.31 0 0 0-.52 0c-.57.08-1.06.39-1.1.72z"/><path class="cls-1" d="M110.41 131.39a2.49 2.49 0 0 1-1.93-1.24 27.47 27.47 0 0 1-3.57.52l-.72.08a4.39 4.39 0 0 1-2.93-.54A2.76 2.76 0 0 1 100 128a4.78 4.78 0 0 1 .22-1.48 5.94 5.94 0 0 0 .17-.7 2.66 2.66 0 0 1 3-2.1 9.59 9.59 0 0 1 6.94 3.22 3.88 3.88 0 0 1 .4 4.22.42.42 0 0 1-.32.23zm-1.75-2.12a.39.39 0 0 1 .35.21 2.1 2.1 0 0 0 1.16 1.07 3.08 3.08 0 0 0-.45-3.14 8.84 8.84 0 0 0-6.29-2.88c-1.39 0-2 .42-2.21 1.44 0 .26-.11.51-.18.76a3.69 3.69 0 0 0-.2 1.24 2 2 0 0 0 .86 1.57 3.62 3.62 0 0 0 2.39.42l.73-.08a21.89 21.89 0 0 0 3.69-.58.4.4 0 0 1 .15-.03z"/><path class="cls-1" d="M104.08 144.73a3.25 3.25 0 0 1-2-.55c-.83-.65-4.69-5.41-4.69-7.26v-5.46c-.57-3.26.8-5.88 3.57-6.79l.25.76c-2.4.79-3.53 3-3 6v5.53c0 1.46 3.53 6 4.39 6.63a3.19 3.19 0 0 0 3 0c.74-.53 4.37-5.15 4.37-6.62v-5.46a6.08 6.08 0 0 0 0-.61l.79-.08a5.32 5.32 0 0 1 0 .69v5.46c0 1.89-3.91 6.7-4.71 7.27a3.69 3.69 0 0 1-1.97.49zM82.83 130.39H82a6.68 6.68 0 0 0-13.36 0h-.8a7.48 7.48 0 0 1 15 0zM82.53 135.84a.76.76 0 0 1-.21 0l.19-.78s.18 0 .32-.2a2.15 2.15 0 0 0 .45-.92 2.23 2.23 0 0 0 0-1 .51.51 0 0 0-.19-.34c-.05 0-.19 0-.35.24l-.62-.5a1.16 1.16 0 0 1 1.16-.51 1.14 1.14 0 0 1 .78.92 2.91 2.91 0 0 1 0 1.4 3 3 0 0 1-.62 1.26 1.23 1.23 0 0 1-.91.43zM68.82 136.08c-.64 0-1.27-.7-1.52-1.74s0-2.15.74-2.32a1.19 1.19 0 0 1 1.17.51l-.62.51c-.17-.2-.31-.26-.36-.24s-.35.54-.16 1.35.63 1.16.77 1.13l.19.77z"/><path class="cls-1" d="M75.62 143.47a3.43 3.43 0 0 1-2.06-.58c-.9-.7-5-5.78-5-7.76v-3a.4.4 0 0 1 .29-.38c.69-.2 2.62-.93 3.2-1.93a4.65 4.65 0 0 0 .74-1.82.41.41 0 0 1 .22-.35c.23-.12.31-.07.91.34 4 2.69 6.83 3.8 8.41 3.31a.39.39 0 0 1 .35.05.4.4 0 0 1 .17.33v3.43c0 2-4.18 7.16-5 7.77a4 4 0 0 1-2.23.59zm-6.28-11v2.68c0 1.57 3.79 6.41 4.71 7.13a3.44 3.44 0 0 0 3.28 0c.8-.57 4.7-5.54 4.7-7.12v-2.94c-2.46.35-6-1.81-8.57-3.51a7.53 7.53 0 0 1-.74 1.56c-.72 1.18-2.64 1.93-3.38 2.18zM67.97 137.38h.8v7.77h-.8zM82.48 137.38h.8v7.77h-.8zM173.07 137a.69.69 0 0 1-.2 0l.19-.78c.1 0 .5-.28.68-1s0-1.2-.12-1.23-.16 0-.31.22l-.62-.51a1.14 1.14 0 0 1 1.12-.49c.67.17 1 1.11.71 2.2s-.84 1.59-1.45 1.59zM160.29 137a1.2 1.2 0 0 1-.87-.45 3 3 0 0 1-.59-1.19 2.4 2.4 0 0 1 .15-1.75.93.93 0 0 1 .57-.45 1.13 1.13 0 0 1 1.11.49l-.62.5c-.15-.18-.27-.22-.3-.21s-.05 0-.08.08a1.65 1.65 0 0 0 0 1.15 2 2 0 0 0 .41.85c.14.16.24.19.27.18l.19.78zM160.71 130.8l-.8-.11c.11-.82 1-1.3 1.8-1.4a2.87 2.87 0 0 1 .73 0c.4.06.53.06.72-.19l.64.47a1.33 1.33 0 0 1-1.48.51 1.77 1.77 0 0 0-.51 0c-.58.08-1.06.39-1.1.72z"/><path class="cls-1" d="M173 131.39a2.47 2.47 0 0 1-1.93-1.24 27.74 27.74 0 0 1-3.57.52l-.72.08a4.33 4.33 0 0 1-2.93-.54 2.79 2.79 0 0 1-1.23-2.2 5.15 5.15 0 0 1 .23-1.48c.06-.23.13-.46.17-.7a2.66 2.66 0 0 1 3-2.1 9.59 9.59 0 0 1 6.94 3.22 3.88 3.88 0 0 1 .4 4.22.42.42 0 0 1-.36.22zm-1.75-2.12a.4.4 0 0 1 .35.21 2.11 2.11 0 0 0 1.16 1.07 3.08 3.08 0 0 0-.45-3.14 8.86 8.86 0 0 0-6.29-2.88c-1.39 0-2 .42-2.21 1.44-.05.26-.12.51-.18.77a3.92 3.92 0 0 0-.21 1.23 2 2 0 0 0 .87 1.57 3.62 3.62 0 0 0 2.39.42l.73-.08a21.89 21.89 0 0 0 3.69-.58.4.4 0 0 1 .11-.03z"/><path class="cls-1" d="M166.62 144.73a3.24 3.24 0 0 1-1.94-.55c-.84-.65-4.69-5.41-4.69-7.26v-5.46c-.57-3.26.8-5.88 3.57-6.79l.25.76c-2.4.79-3.54 3-3 6v5.53c0 1.46 3.53 6 4.38 6.63a3.19 3.19 0 0 0 3 0c.75-.53 4.38-5.15 4.38-6.62v-5.46a6.08 6.08 0 0 0 0-.61l.79-.08a5.32 5.32 0 0 1 0 .69v5.46c0 1.89-3.91 6.7-4.71 7.27a3.71 3.71 0 0 1-2.03.49zM145.38 130.39h-.8a6.68 6.68 0 0 0-13.36 0h-.81a7.49 7.49 0 0 1 15 0zM145.08 135.84a.76.76 0 0 1-.21 0l.19-.78c.16 0 .57-.32.77-1.12a2.23 2.23 0 0 0 0-1 .51.51 0 0 0-.19-.34s-.19 0-.36.24l-.61-.5a1.16 1.16 0 0 1 1.16-.51 1.12 1.12 0 0 1 .77.91 2.94 2.94 0 0 1 0 1.41c-.25.99-.88 1.69-1.52 1.69zM131.37 136.08a1.23 1.23 0 0 1-.9-.48 3 3 0 0 1-.62-1.26 2.91 2.91 0 0 1 0-1.4 1.14 1.14 0 0 1 .78-.92 1.16 1.16 0 0 1 1.16.51l-.62.51c-.16-.21-.3-.26-.35-.24s-.14.12-.19.33a2.23 2.23 0 0 0 0 1 2.15 2.15 0 0 0 .45.92c.14.16.27.22.32.21l.19.77z"/><path class="cls-1" d="M138.17 143.47a3.48 3.48 0 0 1-2.07-.58c-.89-.7-5-5.78-5-7.76v-3a.39.39 0 0 1 .3-.38c.69-.2 2.62-.93 3.2-1.93a4.65 4.65 0 0 0 .74-1.82.4.4 0 0 1 .21-.35c.23-.12.31-.07.92.34 4 2.69 6.83 3.8 8.41 3.31a.39.39 0 0 1 .35.05.4.4 0 0 1 .17.33v3.43c0 2-4.18 7.16-5 7.77a3.92 3.92 0 0 1-2.23.59zm-6.29-11v2.68c0 1.57 3.79 6.41 4.71 7.13a3.46 3.46 0 0 0 3.29 0c.79-.57 4.7-5.54 4.7-7.12v-2.94c-2.46.35-6-1.81-8.57-3.52a7.35 7.35 0 0 1-.74 1.57c-.71 1.18-2.64 1.93-3.39 2.18zM130.52 137.38h.8v7.77h-.8zM145.03 137.38h.8v7.77h-.8zM162.17 84.33a1.53 1.53 0 0 1-.3 0l.24-1c.32.09 1-.62 1.36-1.87s0-2.2-.34-2.28c-.17 0-.44.12-.69.42l-.77-.64a1.71 1.71 0 0 1 1.69-.75c1 .25 1.51 1.75 1.08 3.49-.38 1.57-1.33 2.63-2.27 2.63zM140.63 84.31a1.8 1.8 0 0 1-1.33-.71 4.55 4.55 0 0 1-.94-1.92c-.43-1.74 0-3.24 1.07-3.49a1.72 1.72 0 0 1 1.7.75l-.77.64c-.25-.3-.52-.46-.69-.42-.34.08-.65 1-.34 2.28a3.69 3.69 0 0 0 .72 1.5c.24.27.48.41.64.37l.24 1a1.53 1.53 0 0 1-.3 0zM141.17 74.09l-1-.13c.17-1.3 1.61-2 2.87-2.21a4.46 4.46 0 0 1 1.18.06c.7.1 1 .11 1.38-.4l.81.58a2.09 2.09 0 0 1-2.33.81 3.17 3.17 0 0 0-.92 0c-.88.06-1.89.57-1.99 1.29z"/><path class="cls-1" d="M162 74.94a4.11 4.11 0 0 1-3.17-2.12 46.56 46.56 0 0 1-6.12.92l-1.21.13a7.24 7.24 0 0 1-4.82-.89 4.48 4.48 0 0 1-2-3.57 7.93 7.93 0 0 1 .38-2.44c.1-.39.21-.79.28-1.19.6-3.39 3.82-3.39 4.88-3.39 4.61 0 9.69 2.76 11.55 5.35a6.39 6.39 0 0 1 .66 6.93.52.52 0 0 1-.43.27zm-3-3.22a.5.5 0 0 1 .44.27 3.65 3.65 0 0 0 2.2 1.92 5.37 5.37 0 0 0-.72-5.59c-1.68-2.33-6.5-4.93-10.74-4.93-2.41 0-3.58.76-3.89 2.56-.08.43-.19.86-.3 1.28a6.78 6.78 0 0 0-.35 2.13 3.53 3.53 0 0 0 1.53 2.79 6.34 6.34 0 0 0 4.15.73l1.23-.14a36.71 36.71 0 0 0 6.26-1 .41.41 0 0 1 .19-.02z"/><path class="cls-1" d="M151.31 97.42a5.24 5.24 0 0 1-3.16-.9c-1.4-1.09-7.84-9-7.84-12.09v-9.2c-.94-5.42 1.31-9.77 5.9-11.26l.31 1c-4.14 1.35-6.09 5.17-5.22 10.23v9.28c0 2.5 6 10.17 7.45 11.3 1.26 1 4.16.83 5.31 0s7.44-8.69 7.44-11.29v-9.2-1l1-.1a10.55 10.55 0 0 1 .06 1.13v9.2c0 3.15-6.53 11.15-7.85 12.11a6.14 6.14 0 0 1-3.4.79zM40.54 73.43h-1a11.43 11.43 0 0 0-22.86 0h-1a12.43 12.43 0 0 1 24.86 0zM40.21 82.43a1.06 1.06 0 0 1-.31 0l.23-1c.19 0 .46-.1.72-.4a3.78 3.78 0 0 0 .78-1.62c.34-1.38 0-2.4-.39-2.49-.2 0-.49.13-.77.46l-.77-.63a1.81 1.81 0 0 1 1.78-.8c1.09.27 1.58 1.86 1.13 3.7a5 5 0 0 1-1 2 1.9 1.9 0 0 1-1.4.78zM17.12 82.84a1.9 1.9 0 0 1-1.39-.75 4.93 4.93 0 0 1-1-2c-.45-1.84 0-3.43 1.13-3.7a1.84 1.84 0 0 1 1.78.8l-.77.64c-.28-.34-.58-.52-.77-.46-.39.09-.74 1.11-.4 2.49a4 4 0 0 0 .79 1.62c.26.3.53.45.71.4l.24 1a1.1 1.1 0 0 1-.32-.04z"/><path class="cls-1" d="M28.57 95.3a5.67 5.67 0 0 1-3.37-1c-1.5-1.17-8.39-9.65-8.39-12.94v-5a.5.5 0 0 1 .37-.48s4.28-1.24 5.5-3.33a7.74 7.74 0 0 0 1.32-3.1.5.5 0 0 1 .27-.45c.29-.16.35-.11 1.35.56 2.54 1.7 10.25 6.88 14.32 5.6a.49.49 0 0 1 .44.07.49.49 0 0 1 .21.4v5.78c0 3.37-7 11.93-8.41 13a6.45 6.45 0 0 1-3.61.89zM17.81 76.77v4.64c0 2.69 6.44 10.93 8 12.15 1.37 1.06 4.49.89 5.74 0s8-9.35 8-12.14v-5.15c-4.61.78-12-4.19-14.52-5.88l-.19-.12a11.79 11.79 0 0 1-1.29 2.83c-1.21 2.06-4.61 3.3-5.74 3.67zM15.86 85.2h1v13.09h-1zM40.3 85.2h1v13.09h-1zM101.9 73.43h-1a11.43 11.43 0 1 0-22.85 0h-1a12.43 12.43 0 1 1 24.85 0zM101.58 82.43a1.17 1.17 0 0 1-.32 0l.24-1c.19 0 .46-.1.72-.4a3.89 3.89 0 0 0 .78-1.63c.34-1.38 0-2.4-.39-2.49-.21 0-.5.13-.77.46l-.77-.63a1.81 1.81 0 0 1 1.78-.8c1.09.27 1.57 1.86 1.12 3.7a4.86 4.86 0 0 1-1 2 1.9 1.9 0 0 1-1.39.79zM78.49 82.84a1.94 1.94 0 0 1-1.4-.75 4.92 4.92 0 0 1-1-2c-.45-1.84 0-3.43 1.13-3.7a1.84 1.84 0 0 1 1.78.8l-.78.64c-.27-.34-.56-.52-.76-.46-.39.09-.74 1.11-.4 2.49a4 4 0 0 0 .78 1.62c.27.3.53.44.72.4l.24 1a1.1 1.1 0 0 1-.31-.04z"/><path class="cls-1" d="M89.94 95.3a5.65 5.65 0 0 1-3.37-1c-1.5-1.17-8.39-9.65-8.39-12.94v-5a.5.5 0 0 1 .36-.48s4.29-1.24 5.51-3.33a7.89 7.89 0 0 0 1.27-3.14.51.51 0 0 1 .26-.45c.3-.16.36-.11 1.36.56 2.53 1.7 10.24 6.88 14.31 5.6a.51.51 0 0 1 .45.07.48.48 0 0 1 .2.4v5.78c0 3.37-7 11.93-8.4 13a6.45 6.45 0 0 1-3.56.93zM79.18 76.77v4.64c0 2.69 6.44 10.93 8 12.15 1.37 1.06 4.49.88 5.74 0s8-9.35 8-12.14v-5.15c-4.6.78-12-4.19-14.52-5.88l-.18-.12a12.2 12.2 0 0 1-1.29 2.83c-1.23 2.06-4.62 3.3-5.75 3.67zM77.22 85.2h1v13.09h-1zM101.67 85.2h1v13.09h-1zM109.36 35.93H69.79a.48.48 0 0 1-.37-.17.52.52 0 0 1-.13-.39l.86-6.88a.51.51 0 0 1 .5-.44h37.85a.51.51 0 0 1 .5.44l.86 6.88a.55.55 0 0 1-.12.39.52.52 0 0 1-.38.17zm-39-1h38.43l-.73-5.88h-37zM109.36 13.11H69.79a.53.53 0 0 1-.39-.18.53.53 0 0 1-.1-.42l.86-4.3a.49.49 0 0 1 .31-.37L89.28.58a.53.53 0 0 1 .35 0l19.05 7.26a.49.49 0 0 1 .31.37l.86 4.3a.53.53 0 0 1-.1.42.53.53 0 0 1-.39.18zm-39-1h38.35l-.69-3.43-18.6-7.1-18.33 7.1z"/><path class="cls-1" d="M99.94 12.61h1v15.94h-1zM103.46 12.61h1v15.94h-1zM74.69 12.61h1v15.94h-1zM78.21 12.61h1v15.94h-1zM87.31 12.61h1v15.94h-1zM90.84 12.61h1v15.94h-1zM70.26 31.49h38.64v1H70.26z"/><path class="cls-2" d="M89.33 45.65h.5v10h-.5z"/><path class="cls-2" d="M89.58 43.68l-1.23 2.13h2.46l-1.23-2.13z"/><path class="cls-2" transform="rotate(-53.53 78.14634463 112.17307065)" d="M73.13 111.92h10v.5h-10z"/><path class="cls-2" d="M82.28 106.57l-2.25.98 1.97 1.46.28-2.44z"/><path class="cls-2" transform="rotate(-36.49 101.02907679 112.17023457)" d="M100.77 107.17h.5v10h-.5z"/><path class="cls-2" d="M96.87 106.57l2.26.98-1.98 1.46-.28-2.44z"/><path class="cls-2" transform="rotate(-53.53 16.4759913 112.18129793)" d="M11.47 111.92h10v.5h-10z"/><path class="cls-2" d="M20.62 106.57l-2.26.98 1.98 1.46.28-2.44z"/><path class="cls-2" transform="rotate(-36.49 39.36512046 112.17265432)" d="M39.1 107.17h.5v10h-.5z"/><path class="cls-2" d="M35.2 106.57l2.26.98-1.98 1.46-.28-2.44z"/><path class="cls-2" transform="rotate(-53.53 139.81169797 112.17475674)" d="M134.8 111.92h10v.5h-10z"/><path class="cls-2" d="M143.95 106.57l-2.26.98 1.98 1.46.28-2.44z"/><path class="cls-2" transform="rotate(-36.49 162.69303312 112.16781483)" d="M162.43 107.17h.5v10h-.5z"/><path class="cls-2" d="M158.54 106.57l2.25.98-1.98 1.46-.27-2.44z"/><path class="cls-2" transform="rotate(-45 43.91049058 50.36167927)" d="M38.91 50.12h10v.5h-10z"/><path class="cls-2" d="M48.84 45.44l-2.38.63 1.74 1.74.64-2.37z"/><path class="cls-2" transform="rotate(-45 135.22337544 50.36864394)" d="M134.99 45.37h.5v10h-.5z"/><path class="cls-2" d="M130.31 45.44l.64 2.37 1.74-1.74-2.38-.63z"/><path class="cls-1" d="M307.44 135.05h-.25l.24-1c.13 0 .63-.37.86-1.3s0-1.5-.17-1.54-.19 0-.37.27l-.78-.63a1.42 1.42 0 0 1 1.39-.61c.85.21 1.23 1.39.9 2.75s-1.05 2.06-1.82 2.06zM291.45 135c-.77 0-1.52-.83-1.82-2.05a3.75 3.75 0 0 1 0-1.66 1.25 1.25 0 0 1 2.33-.49l-.78.64c-.18-.23-.34-.28-.37-.27s-.15.12-.2.36a2.64 2.64 0 0 0 0 1.18c.23.93.73 1.34.86 1.29l.24 1zM292 127.33l-1-.13a2.41 2.41 0 0 1 2.25-1.75 3.34 3.34 0 0 1 .91 0c.51.07.67.07.9-.25l.81.59a1.7 1.7 0 0 1-1.85.65 2.07 2.07 0 0 0-.65 0c-.74.09-1.37.48-1.37.89z"/><path class="cls-1" d="M307.31 128.07a3.12 3.12 0 0 1-2.42-1.55 35.29 35.29 0 0 1-4.47.66l-.9.1a5.55 5.55 0 0 1-3.67-.69 3.44 3.44 0 0 1-1.52-2.75 5.68 5.68 0 0 1 .28-1.85 8.67 8.67 0 0 0 .21-.88c.46-2.62 2.94-2.62 3.75-2.62 3.47 0 7.29 2.08 8.68 4a4.85 4.85 0 0 1 .5 5.28.5.5 0 0 1-.44.3zm-2.19-2.65a.5.5 0 0 1 .44.27A2.59 2.59 0 0 0 307 127a3.87 3.87 0 0 0-.57-3.92c-1.23-1.71-4.76-3.61-7.87-3.61-1.74 0-2.54.52-2.77 1.8-.05.32-.14.64-.22 1a5.08 5.08 0 0 0-.26 1.54 2.5 2.5 0 0 0 1.09 2 4.56 4.56 0 0 0 3 .52l.92-.1a27.68 27.68 0 0 0 4.61-.72.41.41 0 0 1 .19-.09z"/><path class="cls-1" d="M299.38 144.76a4.07 4.07 0 0 1-2.43-.68c-1.05-.82-5.87-6.77-5.87-9.09v-6.83c-.71-4.08 1-7.36 4.47-8.49l.31 1c-3 1-4.43 3.77-3.79 7.45V135c0 1.83 4.41 7.46 5.48 8.3a4.06 4.06 0 0 0 3.8 0c.92-.67 5.47-6.45 5.47-8.29v-6.83-.76l1-.1a8.11 8.11 0 0 1 .05.86V135c0 2.37-4.89 8.38-5.89 9.1a4.69 4.69 0 0 1-2.6.66zM377.11 57.84h-.25l.24-1c.14 0 .63-.36.86-1.29a2.64 2.64 0 0 0 0-1.18c-.06-.24-.15-.35-.2-.36s-.19 0-.37.27l-.78-.64a1.25 1.25 0 0 1 2.33.5 3.71 3.71 0 0 1 0 1.65c-.31 1.21-1.07 2.05-1.83 2.05zM361.12 57.83a1.49 1.49 0 0 1-1.09-.57 3.71 3.71 0 0 1-.73-1.49c-.33-1.36.05-2.54.9-2.75a1.42 1.42 0 0 1 1.39.61l-.78.63c-.19-.22-.33-.27-.38-.26s-.38.61-.16 1.54a2.69 2.69 0 0 0 .51 1.06c.17.19.3.23.35.23l.24 1zM361.64 50.13l-1-.14a2.42 2.42 0 0 1 2.25-1.75 3.34 3.34 0 0 1 .91 0c.51.07.66.08.9-.24l.81.58a1.67 1.67 0 0 1-1.85.65 2.4 2.4 0 0 0-.65 0c-.71.09-1.31.48-1.37.9z"/><path class="cls-1" d="M377 50.87a3.1 3.1 0 0 1-2.42-1.55 35.57 35.57 0 0 1-4.47.65l-.9.1a5.49 5.49 0 0 1-3.67-.68 3.49 3.49 0 0 1-1.54-2.76 5.86 5.86 0 0 1 .29-1.84 8.67 8.67 0 0 0 .21-.88c.46-2.63 2.94-2.63 3.75-2.63 3.46 0 7.29 2.09 8.68 4a4.84 4.84 0 0 1 .5 5.28.5.5 0 0 1-.43.31zm-2.19-2.65a.51.51 0 0 1 .44.26 2.59 2.59 0 0 0 1.45 1.34 3.9 3.9 0 0 0-.57-3.93c-1.23-1.7-4.76-3.61-7.87-3.61-1.74 0-2.54.53-2.77 1.8a9.6 9.6 0 0 1-.22 1 5.13 5.13 0 0 0-.26 1.54 2.48 2.48 0 0 0 1.09 2 4.61 4.61 0 0 0 3 .52l.9-.14a27.74 27.74 0 0 0 4.61-.73.58.58 0 0 1 .18-.05z"/><path class="cls-1" d="M369.05 67.56a4 4 0 0 1-2.43-.69c-1.05-.81-5.87-6.76-5.87-9.08V51c-.71-4.07 1-7.35 4.47-8.49l.31 1c-3 1-4.43 3.76-3.79 7.45v6.92c0 1.82 4.41 7.46 5.48 8.29a4 4 0 0 0 3.8 0c.92-.66 5.47-6.45 5.47-8.28V51v-.75l1-.1a7.92 7.92 0 0 1 .05.85v6.84c0 2.37-4.89 8.38-5.89 9.09a4.61 4.61 0 0 1-2.6.63zM308.39 10.8h-1a8.36 8.36 0 0 0-16.72 0h-1a9.36 9.36 0 0 1 18.72 0zM308 17.62a1.09 1.09 0 0 1-.26 0l.24-1c.14 0 .71-.4 1-1.41s0-1.66-.2-1.7-.24.05-.44.3l-.78-.63a1.47 1.47 0 0 1 1.46-.64c.88.22 1.28 1.47.93 2.91-.34 1.29-1.13 2.17-1.95 2.17zM290.87 17.92c-.8 0-1.59-.87-1.91-2.17s.05-2.69.94-2.91a1.48 1.48 0 0 1 1.45.64l-.77.64c-.21-.25-.39-.32-.45-.3s-.44.68-.2 1.69.81 1.46 1 1.41l.24 1a1.09 1.09 0 0 1-.3 0z"/><path class="cls-1" d="M299.37 27.17a4.27 4.27 0 0 1-2.58-.73c-1.12-.87-6.28-7.23-6.28-9.71V13a.5.5 0 0 1 .37-.48c.86-.25 3.28-1.16 4-2.41a5.79 5.79 0 0 0 .92-2.28.52.52 0 0 1 .27-.44c.28-.15.38-.09 1.14.42 5 3.37 8.55 4.77 10.52 4.14a.52.52 0 0 1 .45.08.48.48 0 0 1 .2.4v4.29c0 2.53-5.23 9-6.29 9.72a4.89 4.89 0 0 1-2.72.73zm-7.86-13.79v3.35c0 2 4.75 8 5.9 8.92a4.24 4.24 0 0 0 4.1 0c1-.73 5.88-6.86 5.88-8.91v-3.68c-3.07.43-7.54-2.26-10.72-4.4a9.16 9.16 0 0 1-.92 2c-.88 1.48-3.31 2.41-4.24 2.72zM289.8 19.55h1v9.73h-1zM307.96 19.55h1v9.73h-1zM238 51.47h-1a8.36 8.36 0 1 0-16.72 0h-1a9.36 9.36 0 1 1 18.72 0zM237.67 58.29a1.09 1.09 0 0 1-.26 0l.23-1c.08 0 .23-.06.41-.26a2.74 2.74 0 0 0 .55-1.15 2.82 2.82 0 0 0 .05-1.28c-.07-.26-.17-.4-.25-.42s-.23 0-.44.3l-.77-.63a1.47 1.47 0 0 1 1.45-.64 1.42 1.42 0 0 1 1 1.15 4.06 4.06 0 0 1-.82 3.33 1.56 1.56 0 0 1-1.15.6zM220.51 58.59a1.52 1.52 0 0 1-1.12-.6 3.68 3.68 0 0 1-.78-1.57 3.77 3.77 0 0 1 0-1.76 1.43 1.43 0 0 1 1-1.15 1.47 1.47 0 0 1 1.46.64l-.78.63c-.2-.25-.37-.31-.44-.3s-.18.16-.24.42a2.81 2.81 0 0 0 0 1.28 2.88 2.88 0 0 0 .56 1.15c.17.2.32.27.4.26l.24 1z"/><path class="cls-1" d="M229 67.84a4.27 4.27 0 0 1-2.58-.73c-1.12-.87-6.28-7.23-6.28-9.71v-3.72a.5.5 0 0 1 .36-.48c.87-.25 3.29-1.17 4-2.41a6 6 0 0 0 .92-2.28.52.52 0 0 1 .27-.44c.28-.16.38-.09 1.14.42 5 3.37 8.55 4.76 10.52 4.14a.49.49 0 0 1 .45.08.51.51 0 0 1 .2.4v4.29c0 2.53-5.23 9-6.29 9.72a4.89 4.89 0 0 1-2.71.72zm-7.86-13.79v3.35c0 2 4.74 8 5.89 8.92a4.28 4.28 0 0 0 4.11 0c1-.73 5.88-6.86 5.88-8.91v-3.68c-3.08.43-7.54-2.27-10.72-4.4a9.16 9.16 0 0 1-.92 2c-.87 1.48-3.29 2.41-4.22 2.72zM219.45 60.22h1v9.73h-1zM237.61 60.22h1v9.73h-1zM315.5 87.78h-32.11a.5.5 0 0 1-.38-.17.51.51 0 0 1-.12-.39l.7-5.58a.5.5 0 0 1 .5-.44h30.71a.5.5 0 0 1 .5.44l.7 5.58a.51.51 0 0 1-.12.39.5.5 0 0 1-.38.17zm-31.55-1h31l-.58-4.58h-29.84zM315.5 69.26h-32.11a.53.53 0 0 1-.39-.18.53.53 0 0 1-.1-.42l.7-3.49a.5.5 0 0 1 .31-.37l15.26-5.89a.55.55 0 0 1 .36 0L315 64.8a.49.49 0 0 1 .31.37l.7 3.49a.53.53 0 0 1-.1.42.53.53 0 0 1-.41.18zm-31.5-1h30.89l-.52-2.62-15-5.73-14.83 5.73z"/><path class="cls-1" d="M307.76 68.76h1V81.7h-1zM310.62 68.76h1V81.7h-1zM287.27 68.76h1V81.7h-1zM290.13 68.76h1V81.7h-1zM297.51 68.76h1V81.7h-1zM300.38 68.76h1V81.7h-1zM283.77 83.99h31.36v1h-31.36zM227.84 96.81h3.4v1h-3.4zM227.84 100.69h3.4v1h-3.4zM227.84 104.58h3.4v1h-3.4zM227.84 108.47h3.4v1h-3.4zM227.84 112.36h3.4v1h-3.4zM227.84 116.25h3.4v1h-3.4zM227.84 120.14h3.4v1h-3.4zM227.84 124.03h3.4v1h-3.4zM235.71 96.81h3.4v1h-3.4zM235.71 100.69h3.4v1h-3.4zM235.71 104.58h3.4v1h-3.4zM235.71 108.47h3.4v1h-3.4zM235.71 112.36h3.4v1h-3.4zM235.71 116.25h3.4v1h-3.4zM235.71 120.14h3.4v1h-3.4zM235.71 124.03h3.4v1h-3.4zM216.32 107.26h1.28v1h-1.28zM216.32 110.13h1.28v1h-1.28zM216.32 113h1.28v1h-1.28zM216.32 115.86h1.28v1h-1.28zM216.32 118.73h1.28v1h-1.28zM216.32 121.6h1.28v1h-1.28zM216.32 124.47h1.28v1h-1.28zM220.93 107.26h1.28v1h-1.28zM220.93 110.13h1.28v1h-1.28zM220.93 113h1.28v1h-1.28zM220.93 115.86h1.28v1h-1.28zM220.93 118.73h1.28v1h-1.28zM220.93 121.6h1.28v1h-1.28zM220.93 124.47h1.28v1h-1.28zM244.74 107.26h1.28v1h-1.28zM244.74 110.13h1.28v1h-1.28zM244.74 113h1.28v1h-1.28zM244.74 115.86h1.28v1h-1.28zM244.74 118.73h1.28v1h-1.28zM244.74 121.6h1.28v1h-1.28zM244.74 124.47h1.28v1h-1.28zM249.35 107.26h1.28v1h-1.28zM249.35 110.13h1.28v1h-1.28zM249.35 113h1.28v1h-1.28zM249.35 115.86h1.28v1h-1.28zM249.35 118.73h1.28v1h-1.28zM249.35 121.6h1.28v1h-1.28zM249.35 124.47h1.28v1h-1.28z"/><path class="cls-1" d="M253.23 128.78h-11.89v-1h11.39v-22.89h-11.08v-1h11.58a.5.5 0 0 1 .5.5v23.89a.5.5 0 0 1-.5.5zM224.73 128.78h-11a.5.5 0 0 1-.5-.5v-23.89a.5.5 0 0 1 .5-.5h11v1h-10.51v22.89h10.51z"/><path class="cls-1" d="M241.65 128.78h-16.81a.5.5 0 0 1-.5-.5V94.15a.48.48 0 0 1 .37-.48l16.81-4.43a.5.5 0 0 1 .44.09.49.49 0 0 1 .19.39v38.56a.5.5 0 0 1-.5.5zm-16.31-1h15.81V90.37l-15.81 4.16zM380.38 126.93h-26.49a.5.5 0 0 1-.5-.5V98a.5.5 0 0 1 .5-.5h7.43v-8.03a.5.5 0 0 1 .5-.5h11.09a.5.5 0 0 1 .5.5v8.07h7a.5.5 0 0 1 .5.5v28.39a.5.5 0 0 1-.53.5zm-26-1h25.49V98.54h-7a.5.5 0 0 1-.5-.5V90h-10.05v8a.5.5 0 0 1-.5.5h-7.43z"/><path class="cls-1" d="M379.88 97.84h1v2.53h-1zM364.35 93.11h2.91v1h-2.91zM364.35 97.83h2.91v1h-2.91zM364.35 102.55h2.91v1h-2.91zM364.35 107.27h2.91v1h-2.91zM364.35 111.99h2.91v1h-2.91zM364.35 116.71h2.91v1h-2.91zM364.35 121.43h2.91v1h-2.91zM368.46 93.11h1.46v1h-1.46zM368.46 97.83h1.46v1h-1.46zM368.46 102.55h1.46v1h-1.46zM368.46 107.27h1.46v1h-1.46zM368.46 111.99h1.46v1h-1.46zM368.46 116.71h1.46v1h-1.46zM368.46 121.43h1.46v1h-1.46zM357.77 102.55h1.46v1h-1.46zM357.77 111.99h1.46v1h-1.46zM357.77 116.71h1.46v1h-1.46zM357.77 121.43h1.46v1h-1.46zM357.77 107.27h1.46v1h-1.46zM375.04 102.55h1.46v1h-1.46zM375.04 107.27h1.46v1h-1.46zM375.04 111.99h1.46v1h-1.46zM375.04 116.71h1.46v1h-1.46zM375.04 121.43h1.46v1h-1.46z"/><path class="cls-2" transform="rotate(-11.89 230.80351203 75.82216599)" d="M230.25 75.29h1v1h-1z"/><path class="cls-2" d="M231.93 83.8l-.39-1.86 1-.2.39 1.85zm-.78-3.71l-.39-1.85 1-.21.39 1.85z"/><path class="cls-2" transform="rotate(-11.89 232.94251199 86.04328707)" d="M232.41 85.54h1v1h-1z"/><path class="cls-3" transform="rotate(-78.11 368.17994964 73.42798307)" d="M367.69 72.93h1v1h-1z"/><path class="cls-3" d="M367 81.43l-1-.2.39-1.86 1 .21zm.78-3.7l-1-.21.39-1.85 1 .2z"/><path class="cls-3" transform="rotate(-78.11 366.01970309 83.67261852)" d="M365.53 83.17h1v1h-1z"/><path class="cls-4" transform="rotate(-28.84 348.67812398 110.6972153)" d="M348.15 110.19h1v1h-1z"/><path class="cls-4" d="M320.36 126.86l-.48-.87 1.75-1 .49.87zm3.51-1.93l-.48-.88 1.76-1 .48.88zm3.51-1.94l-.48-.88 1.76-1 .48.88zm3.52-1.94l-.49-.87 1.76-1 .48.87zm3.51-1.93l-.48-.88 1.75-1 .48.88zm3.51-1.94l-.48-.88 1.75-1 .49.88zm3.51-1.94l-.48-.87 1.76-1 .48.87zm3.51-1.93l-.48-.88 1.76-1 .48.88z"/><path class="cls-4" transform="rotate(-28.84 317.95340686 127.63296303)" d="M317.42 127.13h1v1h-1z"/><path class="cls-3" transform="rotate(-61.01 262.0838518 114.53366254)" d="M261.6 114.03h1v1h-1z"/><path class="cls-3" d="M280.58 125.34l-1.83-1 .48-.88 1.83 1zm-3.66-2l-1.83-1 .49-.87 1.82 1zm-3.66-2l-1.82-1 .48-.87 1.83 1zm-3.65-2l-1.83-1 .48-.88 1.83 1zm-3.66-2l-1.83-1 .49-.87 1.83 1z"/><path class="cls-3" transform="rotate(-61.01 283.07377632 126.1570321)" d="M282.58 125.66h1v1h-1z"/><path class="cls-4" d="M300 54.74h-1v-1.09h1zm0-3.09h-1v-2h1zm0-4h-1v-2h1zm0-4h-1v-2h1zm0-4h-1v-2h1zm0-4h-1v-2h1z"/><path class="cls-5" d="M300 114h-1v-1.08h1zm0-3.08h-1v-2h1zm0-4h-1v-2h1zm0-4h-1v-2h1zm0-4h-1v-2h1zm0-4h-1v-2h1z"/><path class="cls-4" d="M254.55 95.81L254 95l1.7-1.06.53.84zm3.38-2.13l-.53-.85 1.69-1.07.53.85zm3.38-2.14l-.53-.84 1.69-1.07.54.85zm3.39-2.13l-.53-.85 1.69-1.06.53.84zm3.38-2.13l-.53-.85 1.69-1.06.53.84zm3.39-2.13l-.54-.85 1.7-1.07.53.85zm3.38-2.15l-.53-.84 1.25-.79.54.84z"/><path class="cls-2" d="M353.36 44.76l-1.71-1 .52-.86 1.71 1zM350 42.67l-1.71-1 .52-.85 1.71 1zm-3.42-2.08l-1.7-1.05.52-.85 1.7 1zm-3.41-2.09l-1.71-1 .52-.86 1.71 1zm-3.41-2.08L338 35.37l.52-.85 1.71 1zm-3.42-2.09l-1.7-1 .52-.86 1.71 1zm-3.41-2.09l-1.71-1 .53-.85 1.7 1zm-3.41-2.08l-1.71-1 .52-.86 1.71 1zm-3.42-2.09l-1.7-1 .52-.85 1.71 1zM322.64 26l-1.71-1 .53-.85 1.7 1zm-3.41-2.09l-1.71-1L318 22l1.71 1.05z"/><path class="cls-5" d="M244.52 42.93l-.52-.83.73-.49.55.83zm2.39-1.6l-.56-.83 1.65-1.11.56.83zm3.32-2.23l-.56-.83 1.66-1.11.56.83zm3.32-2.22l-.55-.83 1.66-1.11.55.83zm3.33-2.23l-.56-.83 1.68-1.11.56.83zm3.32-2.22l-.56-.83 1.67-1.12.55.84zm3.32-2.23l-.55-.83 1.66-1.11.56.83zm3.33-2.2l-.56-.83L268 26l.56.83zm3.32-2.23l-.55-.83 1.66-1.11.55.83zm3.33-2.22l-.56-.83 1.66-1.12.56.83zm3.32-2.23l-.56-.83 1.66-1.11.56.83z"/><path class="cls-2" d="M323.26 73l-.32-1 1.9-.63.32.95zm3.79-1.26l-.31-1 1.9-.63.31 1zm3.8-1.26l-.31-.95 1.89-.63.32.94zm3.8-1.27l-.32-.94 1.9-.63.32.94zm3.79-1.26l-.31-1 1.9-.63.31 1zm3.8-1.26l-.32-1 1.9-.63.32 1zm3.8-1.26l-.32-1 1.9-.63.31 1zm3.79-1.26l-.31-1 1.9-.63.31 1zm3.8-1.26l-.32-1 1.9-.63.32.95z"/><path class="cls-3" d="M273.89 69.27l-1.89-.72.36-.93 1.87.72zm-3.74-1.43l-1.86-.72.35-.93 1.87.72zm-3.73-1.43l-1.87-.71.36-.94 1.87.72zM262.68 65l-1.87-.71.36-.94 1.87.72zM259 63.55l-1.87-.71.36-.94 1.86.72zm-3.74-1.43l-1.87-.71.36-.94 1.87.72zm-3.74-1.43l-1.5-.58.35-.93 1.51.58zM345.45 101.7l-1.91-.59.29-1 1.92.59zm-3.82-1.17l-1.92-.59.3-1 1.91.59zm-3.83-1.17l-1.91-.59.29-1 1.91.59zm-3.8-1.17l-1.92-.59.3-1 1.91.59zM330.15 97l-1.91-.59.29-1 1.91.58zm-3.82-1.17l-1.92-.59.3-1 1.91.58zm-3.83-1.17l-1.91-.59.29-1 1.91.58z"/><path class="cls-1" d="M47 162.36h.87v1.7h1.85v-1.7h.87v4.26h-.87v-1.74h-1.85v1.74H47zM52.44 162.36h.87v4.26h-.87zM55.16 162.36h2.65v.83H56v.87h1.42v.83H56v.9h1.78v.83h-2.62zM59.47 162.36h1.63a1.23 1.23 0 0 1 1.3 1.26 1.1 1.1 0 0 1-.87 1.11l1.53 1.89H62l-1.46-1.8h-.22v1.8h-.86zm1.53 1.72c.33 0 .55-.17.55-.46s-.22-.46-.55-.46h-.66v.92zM65.67 162.36h.77l1.84 4.26h-.91l-.41-1h-1.81l-.42 1h-.9zm1 2.52l-.59-1.38-.59 1.38zM69.66 162.36h1.63a1.23 1.23 0 0 1 1.31 1.26 1.1 1.1 0 0 1-.88 1.11l1.53 1.89h-1l-1.46-1.8h-.21v1.8h-.87zm1.53 1.72c.32 0 .54-.17.54-.46s-.22-.46-.54-.46h-.66v.92zM76.31 162.29a2.19 2.19 0 0 1 2 1.13l-.75.42a1.35 1.35 0 1 0-1.21 2 1.35 1.35 0 0 0 1.21-.71l.75.42a2.22 2.22 0 1 1-2-3.27zM79.77 162.36h.87v1.7h1.85v-1.7h.87v4.26h-.87v-1.74h-1.85v1.74h-.87zM85.21 162.36h.87v4.26h-.87zM89.88 162.29a2.18 2.18 0 0 1 2 1.13l-.75.42a1.35 1.35 0 1 0-1.21 2 1.35 1.35 0 0 0 1.21-.71l.75.42a2.21 2.21 0 1 1-2-3.27zM94.62 162.36h.78l1.84 4.26h-.91l-.42-1H94.1l-.41 1h-.9zm1 2.52L95 163.5l-.59 1.38zM98.61 162.36h.87v3.43h1.83v.83h-2.7zM105.26 165.37a1.11 1.11 0 0 0 .92.5c.34 0 .57-.16.57-.41s-.17-.41-.59-.55l-.36-.13c-.69-.24-1-.63-1-1.22a1.28 1.28 0 0 1 1.44-1.27 1.75 1.75 0 0 1 1.34.58l-.58.6a.94.94 0 0 0-.76-.37c-.29 0-.57.13-.57.38s.21.37.66.53l.34.13a1.31 1.31 0 0 1 1 1.27 1.34 1.34 0 0 1-1.5 1.28 1.84 1.84 0 0 1-1.55-.76zM110.28 164.82l-1.57-2.46h1l1 1.61 1-1.61h1l-1.57 2.47v1.79h-.87zM114.36 165.37a1.13 1.13 0 0 0 .93.5c.34 0 .57-.16.57-.41s-.18-.41-.6-.55l-.36-.13c-.68-.24-1.05-.63-1.05-1.22a1.29 1.29 0 0 1 1.44-1.27 1.75 1.75 0 0 1 1.35.58l-.58.6a1 1 0 0 0-.76-.37c-.29 0-.57.13-.57.38s.21.37.66.53l.34.13a1.31 1.31 0 0 1 1 1.27 1.33 1.33 0 0 1-1.49 1.28 1.82 1.82 0 0 1-1.55-.76zM119.06 163.19h-1.13v-.83h3.15v.83h-1.14v3.43h-.88zM122.58 162.36h2.66v.83h-1.79v.87h1.43v.83h-1.43v.9h1.79v.83h-2.66zM127.76 163.85v2.77h-.87v-4.26h.79l1.39 1.89 1.38-1.89h.8v4.26h-.87v-2.77l-1.31 1.79zM259.41 163.79a1.43 1.43 0 0 1-1.49 1.44h-.55v1.39h-.87v-4.26h1.42a1.43 1.43 0 0 1 1.49 1.43zm-.85 0a.62.62 0 0 0-.66-.62h-.53v1.24h.53a.62.62 0 0 0 .66-.62zM261 162.36h2.65v.83h-1.78v.87h1.42v.83h-1.42v.9h1.78v.83H261zM265.25 162.36h2.66v.83h-1.79v.87h1.42v.83h-1.42v.9h1.79v.83h-2.66zM269.56 162.36h1.63a1.23 1.23 0 0 1 1.31 1.26 1.1 1.1 0 0 1-.88 1.11l1.53 1.89h-1l-1.45-1.8h-.22v1.8h-.87zm1.53 1.72c.33 0 .55-.17.55-.46s-.22-.46-.55-.46h-.66v.92zM274.09 164.09h1.72v.79h-1.72zM277.9 163.19h-1.14v-.83h3.16v.83h-1.15v3.43h-.87zM283.19 166.69a2.2 2.2 0 1 1 2.2-2.2 2.2 2.2 0 0 1-2.2 2.2zm0-.84a1.36 1.36 0 1 0-1.32-1.36 1.34 1.34 0 0 0 1.32 1.36zM286.88 164.09h1.71v.79h-1.71zM293.24 163.79a1.44 1.44 0 0 1-1.5 1.44h-.54v1.39h-.87v-4.26h1.41a1.43 1.43 0 0 1 1.5 1.43zm-.85 0a.62.62 0 0 0-.66-.62h-.53v1.24h.53a.62.62 0 0 0 .66-.62zM294.77 162.36h2.65v.83h-1.78v.87h1.42v.83h-1.42v.9h1.78v.83h-2.65zM299.08 162.36h2.65v.83H300v.87h1.42v.83H300v.9h1.78v.83h-2.65zM303.39 162.36H305a1.23 1.23 0 0 1 1.31 1.26 1.1 1.1 0 0 1-.88 1.11l1.53 1.89h-1.05l-1.45-1.8h-.22v1.8h-.87zm1.53 1.72c.32 0 .54-.17.54-.46s-.22-.46-.54-.46h-.66v.92zM310.71 165.37a1.13 1.13 0 0 0 .92.5c.34 0 .57-.16.57-.41s-.17-.41-.59-.55l-.36-.13c-.68-.24-1.05-.63-1.05-1.22a1.28 1.28 0 0 1 1.44-1.27 1.73 1.73 0 0 1 1.34.58l-.57.6a1 1 0 0 0-.76-.37c-.3 0-.57.13-.57.38s.21.37.66.53l.34.13a1.31 1.31 0 0 1 1 1.27 1.34 1.34 0 0 1-1.49 1.28 1.85 1.85 0 0 1-1.56-.76zM315.73 164.82l-1.57-2.46h1l1 1.61 1-1.61h1l-1.58 2.47v1.79h-.87zM319.82 165.37a1.11 1.11 0 0 0 .92.5c.34 0 .57-.16.57-.41s-.17-.41-.59-.55l-.36-.13c-.69-.24-1.05-.63-1.05-1.22a1.28 1.28 0 0 1 1.44-1.27 1.75 1.75 0 0 1 1.34.58l-.58.6a.94.94 0 0 0-.76-.37c-.29 0-.57.13-.57.38s.21.37.66.53l.34.13a1.31 1.31 0 0 1 1 1.27 1.34 1.34 0 0 1-1.49 1.28 1.85 1.85 0 0 1-1.56-.76zM324.52 163.19h-1.14v-.83h3.16v.83h-1.15v3.43h-.87zM328 162.36h2.65v.83h-1.78v.87h1.42v.83h-1.42v.9h1.78v.83H328zM333.22 163.85v2.77h-.87v-4.26h.79l1.38 1.89 1.39-1.89h.79v4.26h-.87v-2.77l-1.31 1.79z"/></svg>