<?xml version="1.0" encoding="UTF-8"?>
<svg width="500px" height="227px" viewBox="0 0 500 227" version="1.1" xmlns="http://www.w3.org/2000/svg" xmlns:xlink="http://www.w3.org/1999/xlink">
    <!-- Generator: Sketch 53.2 (72643) - https://sketchapp.com -->
    <title>v  copy</title>
    <desc>Created with Sketch.</desc>
    <g id="v--copy" stroke="none" stroke-width="1" fill="none" fill-rule="evenodd">
        <g id="pop-figure-4" transform="translate(66.000000, 0.000000)" fill-rule="nonzero">
            <path d="M24.0904974,15.7320796 L26.0480004,15.7320796 L26.0480004,17.6295365 L24.0904974,17.6295365 L24.0904974,15.7320796 Z M29.122361,15.7320796 L31.079864,15.7320796 L31.079864,17.6295365 L29.122361,17.6295365 L29.122361,15.7320796 Z M34.1542246,15.7320796 L36.1117277,15.7320796 L36.1117277,17.6295365 L34.1542246,17.6295365 L34.1542246,15.7320796 Z M39.1860882,15.7320796 L41.1435913,15.7320796 L41.1435913,17.6295365 L39.1860882,17.6295365 L39.1860882,15.7320796 Z M44.2179519,15.7320796 L46.1754549,15.7320796 L46.1754549,17.6295365 L44.2179519,17.6295365 L44.2179519,15.7320796 Z M49.2498155,15.7320796 L51.2073185,15.7320796 L51.2073185,17.6295365 L49.2498155,17.6295365 L49.2498155,15.7320796 Z M24.0904974,20.4997403 L26.0480004,20.4997403 L26.0480004,22.3971972 L24.0904974,22.3971972 L24.0904974,20.4997403 Z M34.1542246,20.4997403 L36.1117277,20.4997403 L36.1117277,22.3971972 L34.1542246,22.3971972 L34.1542246,20.4997403 Z M39.1860882,20.4997403 L41.1435913,20.4997403 L41.1435913,22.3971972 L39.1860882,22.3971972 L39.1860882,20.4997403 Z M44.2179519,20.4997403 L46.1754549,20.4997403 L46.1754549,22.3971972 L44.2179519,22.3971972 L44.2179519,20.4997403 Z M49.2498155,20.4997403 L51.2073185,20.4997403 L51.2073185,22.3971972 L49.2498155,22.3971972 L49.2498155,20.4997403 Z M24.0904974,25.2674011 L26.0480004,25.2674011 L26.0480004,27.164858 L24.0904974,27.164858 L24.0904974,25.2674011 Z M34.1542246,25.2674011 L36.1117277,25.2674011 L36.1117277,27.164858 L34.1542246,27.164858 L34.1542246,25.2674011 Z M44.2179519,25.2674011 L46.1754549,25.2674011 L46.1754549,27.164858 L44.2179519,27.164858 L44.2179519,25.2674011 Z M49.2498155,25.2674011 L51.2073185,25.2674011 L51.2073185,27.164858 L49.2498155,27.164858 L49.2498155,25.2674011 Z M24.0904974,30.0350618 L26.0480004,30.0350618 L26.0480004,31.9325187 L24.0904974,31.9325187 L24.0904974,30.0350618 Z M29.122361,30.0350618 L31.079864,30.0350618 L31.079864,31.9325187 L29.122361,31.9325187 L29.122361,30.0350618 Z M34.1542246,30.0350618 L36.1117277,30.0350618 L36.1117277,31.9325187 L34.1542246,31.9325187 L34.1542246,30.0350618 Z M44.2179519,30.0350618 L46.1754549,30.0350618 L46.1754549,31.9325187 L44.2179519,31.9325187 L44.2179519,30.0350618 Z" id="Shape" fill="#63E54C"></path>
            <path d="M37.7810094,82.2871825 C37.6217625,82.2891239 37.4691063,82.2236998 37.3606866,82.1070442 L30.8516888,75.6580925 C30.7350333,75.5496729 30.6696092,75.3970167 30.6715505,75.2377698 L30.6715505,71.7791141 C30.6757377,71.6292348 30.7307945,71.4852401 30.8276704,71.3708006 C33.2295146,68.8128365 34.4304367,66.9393981 34.4304367,66.4109923 C34.4304367,65.8825866 33.361616,64.2373233 31.0078087,61.7033777 C30.8156085,61.4786707 30.8156085,61.1474853 31.0078087,60.9227783 C33.0613855,58.3047681 34.4424459,55.9869885 34.4424459,55.1583522 C34.4424459,54.329716 32.6650812,52.5283328 30.9117349,51.2793738 C30.7544661,51.1698685 30.6603714,50.9906406 30.6595413,50.799005 L30.6595413,47.1001649 C30.6649559,46.0708192 30.0413263,45.1425156 29.0863333,44.7583668 C18.1640151,40.3552575 12.3434558,28.402879 15.6119873,17.0891215 L15.6119873,17.0290754 C17.7169071,9.4665909 23.648641,3.57135998 31.2239747,1.51316185 C39.2685729,-0.808041379 47.9394156,1.40676845 53.8853748,7.30160639 C59.2964228,12.7304366 61.6363969,20.5043092 60.1211118,28.0179999 C58.6058267,35.5316906 53.4357789,41.791018 46.343584,44.6983207 C45.3767459,45.0589205 44.7482848,45.9967778 44.7823852,47.0281096 L44.8544406,75.1537052 C44.8553818,75.3103821 44.7950461,75.4612214 44.6863115,75.574028 L38.2013321,82.1070442 C38.0840358,82.210403 37.9367494,82.2735257 37.7810094,82.2871825 L37.7810094,82.2871825 Z M31.8724726,74.9615577 L37.7810094,80.8340668 L43.6535185,74.9135208 L43.5814631,47.0281096 C43.573228,45.5159028 44.486346,44.1509816 45.8872336,43.5814631 C52.6081205,40.8296244 57.5081749,34.8998244 58.9440555,27.7807526 C60.3799361,20.6616807 58.1614893,13.2961152 53.0327201,8.15426108 C47.3909001,2.5563567 39.1584114,0.455716081 31.5242052,2.66604707 C24.3793979,4.64978634 18.7966487,10.2325355 16.8129095,17.3773428 C13.6797272,28.1022374 19.1828962,39.4564172 29.5426837,43.6415092 C30.9479851,44.2142482 31.8649978,45.5826402 31.8604634,47.1001649 L31.8604634,50.4387284 C33.3856345,51.5555859 35.643368,53.4770613 35.643368,55.1103153 C35.643368,56.7435694 33.6258189,59.4576534 32.2687769,61.2470273 C34.5265105,63.7209268 35.6673865,65.4502546 35.6673865,66.3989831 C35.6673865,67.5999052 33.6378281,70.0978232 31.8724726,72.0072893 L31.8724726,74.9615577 Z M5.58428778,96.5061002 C5.5884685,97.1347345 5.33310598,97.7372435 4.87847308,98.1714179 C4.42384017,98.6055923 3.81021969,98.8329621 3.18244357,98.7998615 L2.31777966,98.7998615 L2.31777966,101.021567 L0.92471002,101.021567 L0.92471002,94.212339 L3.1944528,94.212339 C3.8202026,94.1826521 4.43063492,94.4115435 4.882596,94.8453353 C5.33455707,95.279127 5.58828871,95.8796594 5.58428778,96.5061002 L5.58428778,96.5061002 Z M4.2272458,96.5061002 C4.23135763,96.2298695 4.11924951,95.9646147 3.91827726,95.7750613 C3.717305,95.5855079 3.44595291,95.4890901 3.17043435,95.5093349 L2.31777966,95.5093349 L2.31777966,97.4908564 L3.17043435,97.4908564 C3.44385141,97.5109173 3.71325488,97.4160921 3.91382668,97.2291956 C4.11439848,97.0422992 4.22798076,96.7802513 4.2272458,96.5061002 Z M8.04617809,94.212339 L10.6521791,94.212339 C11.2013245,94.1786798 11.7395161,94.3762508 12.1364517,94.7572177 C12.5333873,95.1381846 12.7528783,95.6678148 12.7417835,96.2178789 C12.7715596,97.0703116 12.1835746,97.8204993 11.3487139,97.9952437 L13.7505581,101.021567 L12.0692671,101.021567 L9.72746904,98.1513635 L9.43924773,98.1513635 L9.43924773,101.021567 L8.04617809,101.021567 L8.04617809,94.212339 Z M10.4480223,96.9624506 C10.9644188,96.9624506 11.3126862,96.6862386 11.3126862,96.2178789 C11.3126862,95.7495193 10.9644188,95.4853165 10.4480223,95.4853165 L9.43924773,95.4853165 L9.43924773,96.9624506 L10.4480223,96.9624506 Z M15.7921257,94.212339 L17.1731861,94.212339 L17.1731861,101.021567 L15.7921257,101.021567 L15.7921257,94.212339 Z M19.4069012,94.212339 L20.920063,94.212339 L22.81752,98.9439721 L24.7269861,94.212339 L26.2641664,94.212339 L23.4419995,101.021567 L22.2410774,101.021567 L19.4069012,94.212339 Z M29.938988,94.212339 L31.1399101,94.212339 L34.0821693,101.021567 L32.6650812,101.021567 L32.0045741,99.4723778 L29.0983426,99.4723778 L28.4378354,101.021567 L26.9967289,101.021567 L29.938988,94.212339 Z M31.4881776,98.2474373 L30.5514583,96.0737683 L29.6147391,98.283465 L31.4881776,98.2474373 Z M36.9163455,95.5333533 L35.1029531,95.5333533 L35.1029531,94.212339 L40.1588351,94.212339 L40.1588351,95.5333533 L38.3214243,95.5333533 L38.3214243,101.021567 L36.9163455,101.021567 L36.9163455,95.5333533 Z M42.5606794,94.212339 L46.835962,94.212339 L46.835962,95.5333533 L43.953749,95.5333533 L43.953749,96.9384322 L46.235501,96.9384322 L46.235501,98.2594465 L43.953749,98.2594465 L43.953749,99.6765346 L46.835962,99.6765346 L46.835962,100.997549 L42.5606794,100.997549 L42.5606794,94.212339 Z M53.0567385,94.212339 L54.4498082,94.212339 L54.4498082,97.0825429 L56.8516524,94.212339 L58.568971,94.212339 L55.7708225,97.4788472 L59.1574228,101.081613 L57.4040766,101.081613 L54.4498082,97.9832344 L54.4498082,101.081613 L53.0567385,101.081613 L53.0567385,94.212339 Z M61.174972,94.212339 L65.414227,94.212339 L65.414227,95.5333533 L62.5680416,95.5333533 L62.5680416,96.9384322 L64.8497936,96.9384322 L64.8497936,98.2594465 L62.5680416,98.2594465 L62.5680416,99.6765346 L65.414227,99.6765346 L65.414227,100.997549 L61.174972,100.997549 L61.174972,94.212339 Z M69.9176849,98.1513635 L67.4077577,94.212339 L69.0169933,94.212339 L70.6142197,96.7943216 L72.2114461,94.212339 L73.8447002,94.212339 L71.3107545,98.1633727 L71.3107545,101.021567 L69.9176849,101.021567 L69.9176849,98.1513635 Z M17.5094443,219.108238 L19.7671778,219.108238 C21.031784,219.033098 22.2338464,219.66508 22.888843,220.749449 C23.5438396,221.833817 23.5438396,223.191887 22.888843,224.276255 C22.2338464,225.360623 21.031784,225.992606 19.7671778,225.917466 L17.5094443,225.917466 L17.5094443,219.108238 Z M19.7671778,224.644489 C20.882512,224.560714 21.7447087,223.631328 21.7447087,222.512852 C21.7447087,221.394376 20.882512,220.46499 19.7671778,220.381215 L18.9025139,220.381215 L18.9025139,224.644489 L19.7671778,224.644489 Z M25.8318344,219.108238 L27.2249041,219.108238 L27.2249041,225.917466 L25.8318344,225.917466 L25.8318344,219.108238 Z M33.4937175,226.037558 C32.5285387,226.083572 31.5866762,225.732002 30.8877158,225.064812 C30.1887554,224.397623 29.7937812,223.473122 29.7948774,222.506847 C29.7844704,221.55576 30.1635077,220.641798 30.8439598,219.977223 C31.5244119,219.312648 32.4470674,218.955291 33.3976437,218.988146 C34.4322443,218.947966 35.4341227,219.354842 36.1477553,220.105003 L35.1750084,221.065741 C34.7103729,220.584765 34.0662474,220.319281 33.3976437,220.333178 C32.5811121,220.296333 31.8122552,220.718158 31.4046321,221.426625 C30.997009,222.135091 31.0187454,223.011793 31.4609767,223.699189 C31.903208,224.386584 32.6920243,224.76979 33.5057267,224.692526 C34.0080771,224.725165 34.507985,224.599138 34.934824,224.332249 L34.934824,223.131327 L33.4456806,223.131327 L33.4456806,221.822322 L36.2678475,221.822322 L36.2678475,225.028784 C35.5171672,225.72564 34.5166722,226.089457 33.4937175,226.037558 L33.4937175,226.037558 Z M38.957913,219.108238 L43.2331957,219.108238 L43.2331957,220.429252 L40.3509827,220.429252 L40.3509827,221.834331 L42.6327347,221.834331 L42.6327347,223.155345 L40.3509827,223.155345 L40.3509827,224.572433 L43.2331957,224.572433 L43.2331957,225.893448 L38.957913,225.893448 L38.957913,219.108238 Z M46.4276485,223.923935 C46.758336,224.418091 47.3102681,224.718737 47.9047827,224.728553 C48.4451977,224.728553 48.8174835,224.46435 48.8174835,224.068046 C48.8174835,223.671742 48.5412714,223.419548 47.8687551,223.179364 L47.2923124,222.987216 C46.1874641,222.602921 45.6110215,221.966432 45.6110215,221.029713 C45.6100071,220.440511 45.8621221,219.879256 46.3032579,219.488667 C46.7443937,219.098078 47.3320486,218.915786 47.9167919,218.988146 C48.736247,218.968971 49.5225693,219.311614 50.0664425,219.924865 L49.1417325,220.873593 C48.8465409,220.513085 48.4067295,220.301976 47.9408104,220.297151 C47.4724508,220.297151 47.0281096,220.501307 47.0281096,220.897612 C47.0281096,221.293916 47.3643678,221.498073 48.084921,221.750266 L48.6373452,221.954423 C49.5812071,222.175998 50.2510083,223.01449 50.25859,223.983982 C50.2359608,224.583756 49.9636119,225.146757 49.5074226,225.536799 C49.0512332,225.926841 48.4527516,226.1084 47.8567458,226.037558 C46.8782744,226.083727 45.942852,225.631832 45.3708371,224.836636 L46.4276485,223.923935 Z M53.9454209,220.429252 L52.1320285,220.429252 L52.1320285,219.108238 L57.1759014,219.108238 L57.1759014,220.429252 L55.3504998,220.429252 L55.3504998,225.917466 L53.9454209,225.917466 L53.9454209,220.429252 Z" id="Shape" fill="#736F7F"></path>
            <circle id="Oval" fill="#FFE000" cx="37.6489079" cy="175.406682" r="30.8757073"></circle>
            <polygon id="Path" fill="#63E54C" points="307.063773 83.1518465 364.708034 83.1518465 364.708034 140.796107 307.063773 140.796107"></polygon>
            <path d="M173.052875,159.074142 C173.383563,159.568298 173.935495,159.868943 174.530009,159.87876 C175.070424,159.87876 175.44271,159.614557 175.44271,159.218252 C175.44271,158.821948 175.166498,158.569755 174.493982,158.32957 L173.917539,158.137423 C172.8247,157.753128 172.236248,157.116639 172.236248,156.17992 C172.235234,155.590717 172.487349,155.029463 172.928485,154.638874 C173.36962,154.248285 173.957275,154.065993 174.542019,154.138352 C175.361474,154.119177 176.147796,154.461821 176.691669,155.075071 L175.766959,156.0238 C175.473916,155.660569 175.032737,155.448803 174.566037,155.447357 C174.097677,155.447357 173.653336,155.651514 173.653336,156.047818 C173.653336,156.444122 173.989594,156.648279 174.710148,156.900473 L175.262572,157.10463 C176.206434,157.326205 176.876235,158.164697 176.883817,159.134188 C176.864815,159.735282 176.593489,160.300567 176.136393,160.691384 C175.679297,161.082201 175.078718,161.262395 174.481972,161.187765 C173.503501,161.233934 172.568079,160.782039 171.996064,159.986843 L173.052875,159.074142 Z M179.405753,154.258444 L180.798823,154.258444 L180.798823,161.067673 L179.405753,161.067673 L179.405753,154.258444 Z M187.067636,161.187765 C186.102457,161.233778 185.160595,160.882208 184.461634,160.215019 C183.762674,159.547829 183.3677,158.623328 183.368796,157.657054 C183.358389,156.705967 183.737426,155.792004 184.417878,155.127429 C185.098331,154.462854 186.020986,154.105497 186.971562,154.138352 C188.006163,154.098172 189.008041,154.505049 189.721674,155.25521 L188.748927,156.215947 C188.284291,155.734971 187.640166,155.469487 186.971562,155.483385 C186.155031,155.446539 185.386174,155.868365 184.978551,156.576831 C184.570928,157.285298 184.592664,158.161999 185.034895,158.849395 C185.477127,159.536791 186.265943,159.919997 187.079645,159.842732 C187.581996,159.875372 188.081904,159.749344 188.508743,159.482455 L188.508743,158.281533 L187.043618,158.281533 L187.043618,156.972528 L189.865785,156.972528 L189.865785,160.17899 C189.109196,160.881997 188.098762,161.246273 187.067636,161.187765 L187.067636,161.187765 Z M197.419585,161.067673 L193.924901,156.624261 L193.924901,161.067673 L192.531832,161.067673 L192.531832,154.258444 L193.732754,154.258444 L197.227437,158.701856 L197.227437,154.258444 L198.620507,154.258444 L198.620507,161.067673 L197.419585,161.067673 Z M201.586784,154.258444 L202.955836,154.258444 L202.955836,161.067673 L201.562766,161.067673 L201.586784,154.258444 Z M210.821875,161.067673 L207.327192,156.624261 L207.327192,161.067673 L205.934122,161.067673 L205.934122,154.258444 L207.135044,154.258444 L210.629728,158.701856 L210.629728,154.258444 L212.022797,154.258444 L212.022797,161.067673 L210.821875,161.067673 Z M218.291611,161.187765 C217.326432,161.233778 216.384569,160.882208 215.685609,160.215019 C214.986649,159.547829 214.591674,158.623328 214.592771,157.657054 C214.582364,156.705967 214.961401,155.792004 215.641853,155.127429 C216.322305,154.462854 217.244961,154.105497 218.195537,154.138352 C219.230138,154.098172 220.232016,154.505049 220.945649,155.25521 L219.972902,156.215947 C219.508266,155.734971 218.864141,155.469487 218.195537,155.483385 C217.379005,155.446539 216.610149,155.868365 216.202525,156.576831 C215.794902,157.285298 215.816639,158.161999 216.25887,158.849395 C216.701101,159.536791 217.489918,159.919997 218.30362,159.842732 C218.80597,159.875372 219.305878,159.749344 219.732717,159.482455 L219.732717,158.281533 L218.267592,158.281533 L218.267592,156.972528 L221.089759,156.972528 L221.089759,160.17899 C220.333171,160.881997 219.322737,161.246273 218.291611,161.187765 L218.291611,161.187765 Z M165.006697,165.787296 L166.207619,165.787296 L169.149878,172.596525 L167.684753,172.596525 L167.024246,171.047335 L164.130024,171.047335 L163.469517,172.596525 L162.124484,172.596525 L165.006697,165.787296 Z M166.567896,169.822395 L165.631177,167.612698 L164.682448,169.822395 L166.567896,169.822395 Z M171.395603,165.787296 L172.788672,165.787296 L172.788672,171.27551 L175.706913,171.27551 L175.706913,172.596525 L171.395603,172.596525 L171.395603,165.787296 Z M181.111062,172.716617 C180.145884,172.762631 179.204021,172.41106 178.505061,171.743871 C177.8061,171.076681 177.411126,170.15218 177.412222,169.185906 C177.401815,168.234819 177.780853,167.320856 178.461305,166.656281 C179.141757,165.991706 180.064412,165.634349 181.014989,165.667204 C182.049589,165.627025 183.051468,166.033901 183.7651,166.784062 L182.792353,167.744799 C182.327718,167.263823 181.683592,166.998339 181.014989,167.012237 C180.198457,166.975391 179.4296,167.397217 179.021977,168.105684 C178.614354,168.81415 178.63609,169.690852 179.078322,170.378247 C179.520553,171.065643 180.309369,171.448849 181.123072,171.371584 C181.625422,171.404224 182.12533,171.278197 182.552169,171.011308 L182.552169,169.810385 L181.087044,169.810385 L181.087044,168.51339 L183.909211,168.51339 L183.909211,171.731861 C183.148731,172.426154 182.138754,172.781597 181.111062,172.716617 L181.111062,172.716617 Z M189.745692,172.716617 C187.795735,172.716617 186.214981,171.135864 186.214981,169.185906 C186.214981,167.235948 187.795735,165.655195 189.745692,165.655195 C191.69565,165.655195 193.276403,167.235948 193.276403,169.185906 C193.279608,170.123288 192.908653,171.023201 192.24582,171.686034 C191.582987,172.348866 190.683074,172.719822 189.745692,172.716617 L189.745692,172.716617 Z M189.745692,171.371584 C190.635687,171.40094 191.45451,170.887432 191.815631,170.073464 C192.176751,169.259496 192.00796,168.307828 191.388937,167.667702 C190.769914,167.027575 189.824436,166.826989 188.998824,167.16063 C188.173212,167.494272 187.632553,168.295428 187.632069,169.185906 C187.622434,169.756052 187.839724,170.306666 188.236122,170.716578 C188.63252,171.126489 189.175544,171.362109 189.745692,171.371584 L189.745692,171.371584 Z M195.750303,165.787296 L198.356304,165.787296 C198.909593,165.749904 199.453009,165.947501 199.853056,166.331545 C200.253102,166.71559 200.472705,167.250491 200.457918,167.804846 C200.475772,168.654872 199.885198,169.396876 199.052839,169.570201 L201.454683,172.596525 L199.773392,172.596525 L197.443603,169.726321 L197.095336,169.726321 L197.095336,172.596525 L195.750303,172.596525 L195.750303,165.787296 Z M198.152147,168.537408 C198.668544,168.537408 199.016811,168.261196 199.016811,167.804846 C199.016811,167.348495 198.668544,167.060274 198.152147,167.060274 L197.095336,167.060274 L197.095336,168.537408 L198.152147,168.537408 Z M203.532278,165.787296 L204.925348,165.787296 L204.925348,172.596525 L203.532278,172.596525 L203.532278,165.787296 Z M209.140584,167.108311 L207.327192,167.108311 L207.327192,165.787296 L212.371065,165.787296 L212.371065,167.108311 L210.545663,167.108311 L210.545663,172.596525 L209.140584,172.596525 L209.140584,167.108311 Z M214.772909,165.787296 L216.165979,165.787296 L216.165979,168.50138 L219.132256,168.50138 L219.132256,165.787296 L220.525326,165.787296 L220.525326,172.596525 L219.132256,172.596525 L219.132256,169.822395 L216.165979,169.822395 L216.165979,172.596525 L214.772909,172.596525 L214.772909,165.787296 Z M224.872664,168.129095 L224.872664,172.560497 L223.479594,172.560497 L223.479594,165.751269 L224.752572,165.751269 L226.974278,168.777592 L229.183974,165.751269 L230.456952,165.751269 L230.456952,172.560497 L229.063882,172.560497 L229.063882,168.129095 L226.974278,171.035326 L224.872664,168.129095 Z M303.749228,159.074142 C304.081333,159.566741 304.632385,159.866908 305.226362,159.87876 C305.778786,159.87876 306.139063,159.614557 306.139063,159.218252 C306.139063,158.821948 305.862851,158.569755 305.190334,158.32957 L304.613892,158.137423 C303.521052,157.753128 302.932601,157.116639 302.932601,156.17992 C302.935448,155.592005 303.188688,155.033161 303.628864,154.643422 C304.06904,154.253683 304.654439,154.069982 305.238371,154.138352 C306.058476,154.115849 306.846144,154.459079 307.388022,155.075071 L306.463312,156.0238 C306.170268,155.660569 305.72909,155.448803 305.26239,155.447357 C304.79403,155.447357 304.349689,155.651514 304.349689,156.047818 C304.349689,156.444122 304.685947,156.648279 305.4065,156.900473 L305.946915,157.10463 C306.890777,157.326205 307.560578,158.164697 307.56816,159.134188 C307.549158,159.735282 307.277833,160.300567 306.820736,160.691384 C306.36364,161.082201 305.763062,161.262395 305.166316,161.187765 C304.187844,161.233934 303.252422,160.782039 302.680407,159.986843 L303.749228,159.074142 Z M310.114115,154.258444 L311.507184,154.258444 L311.507184,161.067673 L310.114115,161.067673 L310.114115,154.258444 Z M317.763989,161.187765 C316.79881,161.233778 315.856947,160.882208 315.157987,160.215019 C314.459027,159.547829 314.064052,158.623328 314.065149,157.657054 C314.054741,156.705967 314.433779,155.792004 315.114231,155.127429 C315.794683,154.462854 316.717338,154.105497 317.667915,154.138352 C318.702515,154.098172 319.704394,154.505049 320.418026,155.25521 L319.44528,156.215947 C318.980644,155.734971 318.336519,155.469487 317.667915,155.483385 C316.851383,155.446539 316.082526,155.868365 315.674903,156.576831 C315.26728,157.285298 315.289017,158.161999 315.731248,158.849395 C316.173479,159.536791 316.962295,159.919997 317.775998,159.842732 C318.278348,159.875372 318.778256,159.749344 319.205095,159.482455 L319.205095,158.281533 L317.73997,158.281533 L317.73997,156.972528 L320.562137,156.972528 L320.562137,160.17899 C319.805549,160.881997 318.795115,161.246273 317.763989,161.187765 Z M328.115937,161.067673 L324.621254,156.624261 L324.621254,161.067673 L323.228184,161.067673 L323.228184,154.258444 L324.429106,154.258444 L327.92379,158.701856 L327.92379,154.258444 L329.316859,154.258444 L329.316859,161.067673 L328.115937,161.067673 Z M334.468815,154.258444 L335.669737,154.258444 L338.624006,161.067673 L337.158881,161.067673 L336.498373,159.518483 L333.604151,159.518483 L332.943644,161.067673 L331.502537,161.067673 L334.468815,154.258444 Z M336.030014,158.293542 L335.057267,156.119873 L334.108538,158.341579 L336.030014,158.293542 Z M341.458182,155.579459 L339.644789,155.579459 L339.644789,154.258444 L344.664644,154.258444 L344.664644,155.579459 L342.863261,155.579459 L342.863261,161.067673 L341.458182,161.067673 L341.458182,155.579459 Z M349.792581,161.187765 C349.039096,161.227086 348.304749,160.942381 347.774683,160.405431 C347.244617,159.868481 346.969411,159.130522 347.018451,158.377607 L347.018451,154.258444 L348.411521,154.258444 L348.411521,158.401625 C348.411521,159.164364 349.029843,159.782686 349.792581,159.782686 C350.55532,159.782686 351.173642,159.164364 351.173642,158.401625 L351.173642,154.258444 L352.566711,154.258444 L352.566711,158.377607 C352.611854,159.129499 352.335378,159.865157 351.8062,160.401207 C351.277022,160.937258 350.544993,161.223202 349.792581,161.187765 L349.792581,161.187765 Z M355.472943,154.258444 L358.078944,154.258444 C358.628089,154.224785 359.166281,154.422356 359.563216,154.803323 C359.960152,155.18429 360.179643,155.71392 360.168548,156.263984 C360.198324,157.116417 359.610339,157.866605 358.775478,158.041349 L361.177323,161.067673 L359.496032,161.067673 L357.154234,158.197469 L356.817975,158.197469 L356.817975,161.067673 L355.472943,161.067673 L355.472943,154.258444 Z M357.874787,157.008556 C358.391183,157.008556 358.739451,156.732344 358.739451,156.263984 C358.739451,155.795625 358.391183,155.531422 357.874787,155.531422 L356.817975,155.531422 L356.817975,157.008556 L357.874787,157.008556 Z M363.194872,154.258444 L367.482164,154.258444 L367.482164,155.579459 L364.623969,155.579459 L364.623969,156.984537 L366.905721,156.984537 L366.905721,158.305552 L364.623969,158.305552 L364.623969,159.72264 L367.482164,159.72264 L367.482164,161.043654 L363.230899,161.043654 L363.194872,154.258444 Z" id="Shape" fill="#736F7F"></path>
            <polygon id="Path" fill="#B4B1BD" points="295.643003 112.022014 290.467029 109.043727 290.467029 115.01231"></polygon>
            <polygon id="Path" fill="#B4B1BD" points="260.900327 111.421553 291.127536 111.421553 291.127536 112.622475 260.900327 112.622475"></polygon>
            <path d="M242.586265,141.444605 L152.913411,141.444605 C152.581786,141.444605 152.31295,141.17577 152.31295,140.844144 L152.31295,83.1998833 C152.31295,82.8682579 152.581786,82.5994223 152.913411,82.5994223 L242.586265,82.5994223 C242.91789,82.5994223 243.186726,82.8682579 243.186726,83.1998833 L243.186726,140.844144 C243.186726,141.17577 242.91789,141.444605 242.586265,141.444605 Z M153.5499,140.243683 L241.985804,140.243683 L241.985804,83.8003444 L153.513873,83.8003444 L153.5499,140.243683 Z" id="Shape" fill="#736F7F"></path>
            <polygon id="Path" fill="#63E54C" points="226.674047 91.11396 233.122999 91.11396 233.122999 97.5629117 226.674047 97.5629117"></polygon>
            <circle id="Oval" fill="#FFE000" cx="165.847343" cy="94.3324312" r="3.68683086"></circle>
            <circle id="Oval" fill="#FFE000" cx="217.342882" cy="94.3324312" r="3.68683086"></circle>
            <polygon id="Path" fill="#63E54C" points="188.268558 91.11396 194.71751 91.11396 194.71751 97.5629117 188.268558 97.5629117"></polygon>
            <polygon id="Path" fill="#736F7F" points="204.793246 91.0178862 200.962305 97.6589855 208.636197 97.6589855"></polygon>
            <polygon id="Path" fill="#8F8B9B" points="178.37296 91.0178862 174.542019 97.6589855 182.215911 97.6589855"></polygon>
            <circle id="Oval" fill="#FFE000" cx="191.523057" cy="129.711596" r="3.68683086"></circle>
            <polygon id="Path" fill="#63E54C" points="174.710148 126.481116 181.159099 126.481116 181.159099 132.930068 174.710148 132.930068"></polygon>
            <polygon id="Path" fill="#736F7F" points="165.535103 126.385042 161.692152 133.026141 169.378053 133.026141 165.535103 126.385042"></polygon>
            <circle id="Oval" fill="#FFE000" cx="217.342882" cy="129.711596" r="3.68683086"></circle>
            <polygon id="Path" fill="#736F7F" points="230.240786 126.385042 226.397835 133.026141 234.071727 133.026141"></polygon>
            <polygon id="Path" fill="#63E54C" points="201.718886 126.481116 208.167837 126.481116 208.167837 132.930068 201.718886 132.930068"></polygon>
            <path d="M153.009485,131.645081 L148.686166,131.645081 C148.35454,131.645081 148.085705,131.376245 148.085705,131.04462 L148.085705,118.218772 C148.085705,117.887146 148.35454,117.618311 148.686166,117.618311 L153.009485,117.618311 L153.009485,118.819233 L149.286627,118.819233 L149.286627,130.444159 L153.009485,130.444159 L153.009485,131.645081 Z M153.009485,106.425717 L148.686166,106.425717 C148.35454,106.425717 148.085705,106.156881 148.085705,105.825256 L148.085705,92.9994077 C148.085705,92.6677822 148.35454,92.3989467 148.686166,92.3989467 L153.009485,92.3989467 L153.009485,93.5998688 L149.286627,93.5998688 L149.286627,105.224795 L153.009485,105.224795 L153.009485,106.425717 Z M246.849538,119.035399 L242.586265,119.035399 L242.586265,117.834477 L246.297114,117.834477 L246.297114,106.209551 L242.586265,106.209551 L242.586265,105.008629 L246.897575,105.008629 C247.229201,105.008629 247.498036,105.277464 247.498036,105.60909 L247.498036,118.434938 C247.498575,118.602873 247.428762,118.76336 247.305536,118.877457 C247.182311,118.991555 247.016936,119.048835 246.849538,119.035399 Z" id="Shape" fill="#736F7F"></path>
            <path d="M162.712936,103.795697 L170.831169,103.795697 L170.831169,105.284841 L164.322171,105.284841 L164.322171,109.728253 L170.723086,109.728253 L170.723086,111.229405 L164.322171,111.229405 L164.322171,115.708845 L170.951261,115.708845 L170.951261,117.197988 L162.712936,117.197988 L162.712936,103.795697 Z M182.420068,115.973048 C182.907286,115.989901 183.391933,115.895436 183.837156,115.696835 C184.208467,115.52821 184.533837,115.272855 184.785884,114.952264 C185.041335,114.635816 185.233016,114.272846 185.350317,113.883443 C185.471426,113.470022 185.5321,113.041257 185.530456,112.610466 L185.530456,112.38229 L187.139691,112.38229 L187.139691,112.610466 C187.142586,113.255973 187.037038,113.897381 186.827452,114.507923 C186.6361,115.083972 186.329667,115.615122 185.92676,116.069121 C185.513858,116.515004 185.010161,116.867182 184.449626,117.101914 C183.804232,117.358482 183.114505,117.485 182.420068,117.4742 C181.106888,117.553769 179.827706,117.037685 178.937393,116.069121 C178.04768,114.907146 177.619856,113.456823 177.736471,111.997995 L177.736471,109.007699 C177.633734,107.557775 178.060432,106.119804 178.937393,104.960592 C179.812658,103.982616 181.085738,103.456586 182.396049,103.531495 C183.090968,103.514751 183.781874,103.641485 184.425607,103.90378 C184.990981,104.12964 185.496512,104.483101 185.902742,104.936573 C186.30319,105.387803 186.609418,105.914515 186.803433,106.485763 C187.013023,107.100447 187.118552,107.745801 187.115673,108.395229 L187.115673,108.623404 L185.506437,108.623404 L185.506437,108.395229 C185.492338,107.963992 185.423741,107.536271 185.302281,107.122252 C185.191798,106.728843 185.003997,106.361405 184.749856,106.041422 C184.491767,105.726942 184.167938,105.472798 183.801128,105.29685 C183.358724,105.10275 182.879006,105.008446 182.396049,105.020638 C181.478401,104.961653 180.597591,105.390649 180.078269,106.149505 C179.522944,107.036079 179.250675,108.070703 179.29767,109.115782 L179.29767,111.877903 C179.231638,112.947592 179.504805,114.010844 180.078269,114.916236 C180.627905,115.644391 181.510417,116.042652 182.420068,115.973048 L182.420068,115.973048 Z M193.456542,103.795697 L197.863926,103.795697 C199.177797,103.692642 200.477428,104.125852 201.466692,104.99662 C202.345216,106.057316 202.77598,107.41853 202.667614,108.791533 L202.667614,112.23818 C202.773429,113.61089 202.342961,114.971169 201.466692,116.033094 C200.477428,116.903861 199.177797,117.337071 197.863926,117.234016 L193.456542,117.234016 L193.456542,115.684826 L194.657464,115.684826 L194.657464,105.284841 L193.456542,105.284841 L193.456542,103.795697 Z M197.635751,115.708845 C198.149096,115.715225 198.661293,115.658762 199.160922,115.540716 C199.557624,115.437933 199.921432,115.235359 200.217733,114.952264 C200.521187,114.646632 200.736877,114.265027 200.842213,113.847415 C200.990418,113.279195 201.059125,112.69317 201.046369,112.106078 L201.046369,108.887607 C201.058358,108.300552 200.989664,107.714632 200.842213,107.14627 C200.736877,106.728659 200.521187,106.347054 200.217733,106.041422 C199.920107,105.76268 199.556413,105.564301 199.160922,105.464979 C198.662948,105.336603 198.149929,105.27601 197.635751,105.284841 L196.218663,105.284841 L196.218663,115.708845 L197.635751,115.708845 Z M216.658357,107.662667 C216.673703,106.889812 216.316139,106.156806 215.697619,105.693154 C215.388382,105.468422 215.043209,105.297866 214.676835,105.188767 C214.286381,105.076739 213.88212,105.020143 213.475913,105.020638 C213.118625,105.018844 212.762864,105.067357 212.419102,105.164749 C212.103471,105.253886 211.80365,105.391642 211.530419,105.573062 C211.278036,105.74676 211.065224,105.97185 210.90594,106.233569 C210.747581,106.511105 210.668642,106.826864 210.677765,107.14627 L210.677765,107.266362 C210.66752,107.597329 210.746321,107.924977 210.90594,108.215091 C211.077844,108.486969 211.312623,108.71351 211.590465,108.875598 C211.936901,109.087345 212.313478,109.245265 212.707323,109.343958 C213.224796,109.480334 213.750199,109.584612 214.280531,109.656197 C215.408341,109.745773 216.485336,110.163213 217.37891,110.857119 C218.047322,111.472815 218.411733,112.350913 218.375675,113.258964 L218.375675,113.487139 C218.382122,114.029136 218.284271,114.567316 218.087454,115.072356 C217.885027,115.534238 217.581304,115.944674 217.198772,116.273278 C216.779783,116.639065 216.288898,116.913143 215.757665,117.077896 C215.112988,117.280592 214.439823,117.377917 213.764134,117.366117 C212.991622,117.375474 212.223438,117.249476 211.494392,116.993831 C210.879183,116.76963 210.318452,116.417638 209.849128,115.961038 C209.404839,115.518973 209.060804,114.986539 208.840354,114.39984 C208.604314,113.778636 208.486205,113.118857 208.492086,112.454346 L208.492086,111.889912 L210.161368,111.889912 L210.161368,112.346263 C210.086835,113.326374 210.441814,114.290514 211.134115,114.988291 C211.88549,115.614151 212.848322,115.927931 213.824181,115.864965 C214.628292,115.926374 215.427084,115.691436 216.069905,115.204457 C216.576109,114.765839 216.854656,114.120316 216.826486,113.451111 L216.826486,113.343028 C216.862916,112.710363 216.572878,112.103097 216.057896,111.733793 C215.289097,111.277915 214.426722,111.002776 213.535959,110.929175 C212.916575,110.847541 212.305694,110.710897 211.710558,110.520861 C211.209083,110.354926 210.73841,110.107417 210.317488,109.788299 C209.945578,109.500701 209.645482,109.130719 209.440815,108.707469 C209.224149,108.237269 209.117372,107.723913 209.128575,107.206316 L209.128575,106.978141 C209.123125,106.482942 209.234197,105.993401 209.452824,105.549044 C209.669567,105.109719 209.981332,104.724116 210.365525,104.420177 C210.775398,104.081296 211.249105,103.828107 211.758595,103.675605 C212.343079,103.501995 212.950288,103.416986 213.559978,103.423412 C214.246204,103.413743 214.928887,103.52346 215.577527,103.747661 C216.127208,103.940284 216.636254,104.233494 217.078679,104.612324 C217.478376,104.966795 217.794237,105.40572 218.003389,105.897311 C218.218812,106.385289 218.329283,106.913091 218.327638,107.446501 L218.327638,108.251118 L216.718403,108.251118 L216.658357,107.662667 Z M231.946095,113.871434 L226.193678,113.871434 L225.220931,117.197988 L223.491603,117.197988 L227.55072,103.795697 L230.577044,103.795697 L234.636161,117.197988 L232.978888,117.197988 L231.946095,113.871434 Z M228.955799,104.480223 L226.638019,112.38229 L231.501754,112.38229 L229.183974,104.480223 L228.955799,104.480223 Z M134.082953,98.8118707 L128.906979,95.8335839 L128.906979,101.802167 L134.082953,98.8118707 Z" id="Shape" fill="#B4B1BD"></path>
            <path d="M129.567486,99.4123317 L100.745355,99.4123317 C100.41373,99.4123317 100.144894,99.1434962 100.144894,98.8118707 L100.144894,46.1874641 L89.7328996,46.1874641 L89.7328996,44.986542 L100.745355,44.986542 C101.076981,44.986542 101.345816,45.2553776 101.345816,45.5870031 L101.345816,98.2114096 L129.567486,98.2114096 L129.567486,99.4123317 Z M134.082953,124.811834 L128.906979,121.833547 L128.906979,127.80213 L134.082953,124.811834 Z" id="Shape" fill="#B4B1BD"></path>
            <path d="M100.745355,175.178507 L90.0691578,175.178507 L90.0691578,173.977585 L100.180922,173.977585 L100.180922,124.811834 C100.180922,124.480209 100.449757,124.211373 100.781383,124.211373 L129.603513,124.211373 L129.603513,125.412295 L101.345816,125.412295 L101.345816,174.578046 C101.345816,174.909672 101.076981,175.178507 100.745355,175.178507 Z" id="Path" fill="#B4B1BD"></path>
        </g>
    </g>
</svg>