<svg id="Layer_1" data-name="Layer 1" xmlns="http://www.w3.org/2000/svg" viewBox="0 0 571.21 207.01"><defs><style>.cls-1{fill:#e5e3eb}.cls-2{fill:#8f8b9b}.cls-3{fill:#63e54c}.cls-4{fill:#45d8ff}.cls-5{fill:#ff5072}.cls-6{fill:#fff}.cls-7{fill:#34323a}.cls-8{fill:#736f7f}</style></defs><path class="cls-1" d="M31.38 47.81h1v132h-1zM44.52 47.81h1v132h-1zM57.67 47.81h1v132h-1zM70.81 47.81h1v132h-1zM83.95 47.81h1v132h-1zM97.1 47.81h1v132h-1zM110.24 47.81h1v132h-1zM123.39 47.81h1v132h-1zM136.53 47.81h1v132h-1zM163.07 47.81h1v132h-1zM176.21 47.81h1v132h-1zM189.36 47.81h1v132h-1zM202.5 47.81h1v132h-1zM215.65 47.81h1v132h-1zM228.79 47.81h1v132h-1zM241.94 47.81h1v132h-1zM255.08 47.81h1v132h-1zM268.22 47.81h1v132h-1z"/><path class="cls-1" d="M19.61 61.23h261.77v1H19.61zM19.61 74.37h261.77v1H19.61zM19.61 87.51h261.77v1H19.61zM19.61 100.66h261.77v1H19.61zM19.61 113.8h261.77v1H19.61zM19.61 126.95h261.77v1H19.61zM19.61 140.09h261.77v1H19.61zM19.61 153.24h261.77v1H19.61zM19.61 166.38h261.77v1H19.61z"/><path class="cls-2" d="M149.67 47.81h1v132h-1z"/><path class="cls-2" d="M282.37 180.31H18.23v-133h264.14zm-263.14-1h262.14v-131H19.23z"/><circle class="cls-3" cx="248.82" cy="134.01" r="3.72"/><path class="cls-1" d="M316.59 47.81h1v132h-1zM329.73 47.81h1v132h-1zM342.87 47.81h1v132h-1zM356.02 47.81h1v132h-1zM369.16 47.81h1v132h-1zM382.31 47.81h1v132h-1zM395.45 47.81h1v132h-1zM408.6 47.81h1v132h-1zM421.74 47.81h1v132h-1zM448.28 47.81h1v132h-1zM461.42 47.81h1v132h-1zM474.57 47.81h1v132h-1zM487.71 47.81h1v132h-1zM500.86 47.81h1v132h-1zM514 47.81h1v132h-1zM527.14 47.81h1v132h-1zM540.29 47.81h1v132h-1zM553.43 47.81h1v132h-1z"/><path class="cls-1" d="M304.82 61.23h261.77v1H304.82zM304.82 74.37h261.77v1H304.82zM304.82 87.51h261.77v1H304.82zM304.82 100.66h261.77v1H304.82zM304.82 113.8h261.77v1H304.82zM304.82 126.95h261.77v1H304.82zM304.82 140.09h261.77v1H304.82zM304.82 153.24h261.77v1H304.82zM304.82 166.38h261.77v1H304.82z"/><path class="cls-2" d="M434.88 47.81h1v132h-1z"/><path class="cls-2" d="M567.58 180.31H303.44v-133h264.14zm-263.14-1h262.14v-131H304.44z"/><circle class="cls-4" cx="337.19" cy="68.47" r="3.72"/><circle class="cls-4" cx="324.48" cy="68.47" r="3.72"/><path class="cls-5" transform="rotate(-45 389.43884064 68.6091505)" d="M388.93 64.07h1v9.08h-1z"/><path class="cls-5" transform="rotate(-45 389.42176957 68.61622156)" d="M384.89 68.11h9.08v1h-9.08z"/><path class="cls-5" transform="rotate(-45 375.9619063 94.93147948)" d="M375.44 90.4h1v9.08h-1z"/><path class="cls-5" transform="rotate(-45 375.93276416 94.93355054)" d="M371.4 94.44h9.08v1h-9.08z"/><path class="cls-5" transform="rotate(-45 324.29559716 134.00236544)" d="M323.81 129.47h1v9.08h-1z"/><path class="cls-5" transform="rotate(-45 324.30766822 134.00736544)" d="M319.77 133.51h9.08v1h-9.08z"/><path class="cls-5" transform="rotate(-45 235.67633352 68.69966632)" d="M235.16 64.17h1v9.08h-1z"/><path class="cls-5" transform="rotate(-45 235.65926245 68.7067374)" d="M231.12 68.21h9.08v1h-9.08z"/><path class="cls-5" transform="rotate(-45 222.63082054 94.66329473)" d="M222.14 90.12h1v9.08h-1z"/><path class="cls-5" transform="rotate(-45 222.63082054 94.66329473)" d="M218.1 94.16h9.08v1h-9.08z"/><path class="cls-5" transform="rotate(-45 170.55258752 134.28480515)" d="M170.04 129.75h1v9.08h-1z"/><path class="cls-5" transform="rotate(-45 170.54051645 134.27980515)" d="M166 133.79h9.08v1H166z"/><path class="cls-5" transform="rotate(-45 249.61008132 160.32811901)" d="M249.11 155.79h1v9.08h-1z"/><path class="cls-5" transform="rotate(-45 249.61008132 160.32811901)" d="M245.07 159.83h9.08v1h-9.08z"/><path class="cls-5" transform="rotate(-45 403.00717213 159.95896357)" d="M402.51 155.42h1v9.08h-1z"/><path class="cls-5" transform="rotate(-45 403.00717213 159.95896357)" d="M398.47 159.46h9.08v1h-9.08z"/><path class="cls-5" transform="rotate(-45 428.88907256 133.9383294)" d="M428.39 129.4h1v9.08h-1z"/><path class="cls-5" transform="rotate(-45 428.88907256 133.9383294)" d="M424.35 133.44h9.08v1h-9.08z"/><rect class="cls-6" x="97.59" y="140.53" width="26.26" height="13.21" rx="6.6"/><path class="cls-7" d="M117.25 154.24h-13a7.11 7.11 0 1 1 0-14.21h13a7.11 7.11 0 0 1 0 14.21zM104.2 141a6.11 6.11 0 1 0 0 12.21h13a6.11 6.11 0 0 0 0-12.21z"/><rect class="cls-6" x="71.35" y="166.77" width="39.3" height="12.99" rx="6.5"/><path class="cls-7" d="M104.16 180.27H77.84a7 7 0 0 1 0-14h26.32a7 7 0 0 1 0 14zm-26.32-13a6 6 0 0 0 0 12h26.32a6 6 0 0 0 0-12z"/><rect class="cls-6" x="527.67" y="153.78" width="39.3" height="13.21" rx="6.6"/><path class="cls-7" d="M560.37 167.49h-26.09a7.11 7.11 0 1 1 0-14.21h26.09a7.11 7.11 0 1 1 0 14.21zm-26.09-13.21a6.11 6.11 0 1 0 0 12.21h26.09a6.11 6.11 0 1 0 0-12.21z"/><rect class="cls-6" x="448.78" y="140.65" width="52.61" height="13.21" rx="6.6"/><path class="cls-7" d="M494.78 154.36h-39.4a7.11 7.11 0 0 1 0-14.21h39.4a7.11 7.11 0 0 1 0 14.21zm-39.4-13.21a6.11 6.11 0 0 0 0 12.21h39.4a6.11 6.11 0 0 0 0-12.21z"/><rect class="cls-6" x="18.77" y="140.44" width="39.3" height="13.21" rx="6.6" transform="rotate(90 38.43 147.04)"/><path class="cls-7" d="M38.43 167.19a7.12 7.12 0 0 1-7.11-7.1V134a7.11 7.11 0 0 1 14.21 0v26.1a7.11 7.11 0 0 1-7.1 7.09zm0-39.3a6.11 6.11 0 0 0-6.11 6.1v26.1a6.11 6.11 0 0 0 12.21 0V134a6.11 6.11 0 0 0-6.1-6.11z"/><rect class="cls-6" x="58.22" y="101.18" width="65.63" height="13.21" rx="6.6"/><path class="cls-7" d="M117.24 114.89H64.82a7.11 7.11 0 0 1 0-14.21h52.42a7.11 7.11 0 1 1 0 14.21zm-52.42-13.21a6.11 6.11 0 0 0 0 12.21h52.42a6.11 6.11 0 1 0 0-12.21z"/><rect class="cls-6" x="31.85" y="61.74" width="65.25" height="13.21" rx="6.6"/><path class="cls-7" d="M90.5 75.45h-52a7.11 7.11 0 1 1 0-14.21h52a7.11 7.11 0 0 1 0 14.21zm-52-13.21a6.11 6.11 0 1 0 0 12.21h52a6.11 6.11 0 0 0 0-12.21z"/><rect class="cls-6" x="111" y="88.08" width="65.25" height="13" rx="6.28" transform="rotate(-90 143.625 94.575)"/><path class="cls-7" d="M143.84 127.7h-.43a6.79 6.79 0 0 1-6.78-6.78V68.23a6.79 6.79 0 0 1 6.78-6.78h.43a6.79 6.79 0 0 1 6.79 6.78v52.69a6.79 6.79 0 0 1-6.79 6.78zm-.43-65.25a5.78 5.78 0 0 0-5.78 5.78v52.69a5.78 5.78 0 0 0 5.78 5.78h.43a5.79 5.79 0 0 0 5.79-5.78V68.23a5.79 5.79 0 0 0-5.79-5.78z"/><rect class="cls-6" x="422.6" y="87.95" width="65.69" height="13.3" rx="6.6" transform="rotate(-90 455.445 94.605)"/><path class="cls-7" d="M455.49 128a7.13 7.13 0 0 1-7.19-7.11V68.36a7.15 7.15 0 0 1 14.29 0v52.48a7.11 7.11 0 0 1-7.1 7.16zm0-65.7a6.13 6.13 0 0 0-6.19 6.11v52.48a6.15 6.15 0 0 0 12.29 0V68.36a6.11 6.11 0 0 0-6.1-6.11z"/><rect class="cls-6" x="501.74" y="87.97" width="65.25" height="13.21" rx="6.6" transform="rotate(-90 534.365 94.575)"/><path class="cls-7" d="M534.37 127.7a7.11 7.11 0 0 1-7.11-7.1v-52a7.11 7.11 0 0 1 14.21 0v52a7.11 7.11 0 0 1-7.1 7.1zm0-65.25a6.11 6.11 0 0 0-6.11 6.1v52.05a6.11 6.11 0 0 0 12.21 0v-52a6.11 6.11 0 0 0-6.1-6.15z"/><circle class="cls-4" cx="51.98" cy="68.47" r="3.72"/><circle class="cls-4" cx="39.27" cy="68.47" r="3.72"/><circle class="cls-3" cx="455.49" cy="68.42" r="3.72"/><circle class="cls-3" cx="534.37" cy="120.94" r="3.72"/><path class="cls-6" d="M567.3 68.45v12.7a6.63 6.63 0 0 1-6.6 6.67 6.64 6.64 0 0 1-6.61-6.67v-12.7a6.64 6.64 0 0 1 6.61-6.67 6.63 6.63 0 0 1 6.6 6.67z"/><path class="cls-7" d="M560.7 88.32a7.14 7.14 0 0 1-7.11-7.17v-12.7a7.11 7.11 0 1 1 14.21 0v12.7a7.14 7.14 0 0 1-7.1 7.17zm0-26a6.15 6.15 0 0 0-6.11 6.17v12.7a6.11 6.11 0 1 0 12.21 0V68.45a6.14 6.14 0 0 0-6.1-6.17z"/><path class="cls-8" d="M124.22 8a2.85 2.85 0 0 1-3 2.86h-1.1v2.79h-1.72V5.12h2.84A2.86 2.86 0 0 1 124.22 8zm-1.69 0a1.24 1.24 0 0 0-1.32-1.24h-1.07v2.46h1.07A1.23 1.23 0 0 0 122.53 8zM127.3 5.12h1.7V12h3.64v1.66h-5.34zM138.44 5.12H140l3.68 8.52h-1.82l-.83-2h-3.63l-.83 2h-1.8zm1.95 5.05l-1.18-2.77-1.21 2.77zM147.67 10.05l-3.14-4.93h2l2 3.23 2-3.23h2l-3.16 4.94v3.58h-1.74zM155.44 5.12h5.3v1.65h-3.56v1.76H160v1.65h-2.84V12h3.56v1.66h-5.3zM164.05 5.12h3.26a2.46 2.46 0 0 1 2.62 2.52 2.2 2.2 0 0 1-1.75 2.22l3.06 3.78h-2.1l-2.92-3.59h-.43v3.59h-1.74zm3.06 3.44c.65 0 1.09-.35 1.09-.92s-.44-.93-1.09-.93h-1.32v1.85zM180.35 5.12h1.54l3.69 8.52h-1.83l-.82-2h-3.63l-.82 2h-1.8zm1.94 5.05l-1.18-2.77-1.17 2.77z"/><path class="cls-2" d="M25.66 33.31h.62L28.8 39H28l-.72-1.65h-2.63L23.92 39h-.77zM27 36.66l-1-2.35-1 2.35zM38.59 33.31h1.87a1.55 1.55 0 0 1 1.69 1.5 1.28 1.28 0 0 1-.61 1.19 1.36 1.36 0 0 1 1 1.36A1.71 1.71 0 0 1 40.62 39h-2zm1.87 2.44a.87.87 0 0 0 1-.88.89.89 0 0 0-1-.89h-1.12v1.77zm.2 2.56c.76 0 1.14-.4 1.14-1s-.38-1-1.14-1h-1.32v1.92zM53.58 33.21a2.89 2.89 0 0 1 2.51 1.38l-.62.37a2.24 2.24 0 1 0 0 2.37l.62.37a2.94 2.94 0 1 1-2.51-4.49zM63.15 33.31h1.64a2.84 2.84 0 1 1 0 5.67h-1.64zm1.64 5a2.15 2.15 0 1 0 0-4.29h-.89v4.29zM76.07 33.31h3.31V34h-2.57v1.72h2.09v.7h-2.09v1.85h2.57V39h-3.31zM89.12 33.31h3.3V34h-2.56v1.72h2v.7h-2V39h-.74zM103.7 39.08a2.94 2.94 0 1 1-.1-5.87 3 3 0 0 1 2.13.79l-.49.54a2.33 2.33 0 0 0-1.64-.63 2.24 2.24 0 1 0 .1 4.47 2.49 2.49 0 0 0 1.51-.43v-1.52h-1.61v-.69h2.33v2.54a3.15 3.15 0 0 1-2.23.8zM114.71 33.31h.74v2.42h3.11v-2.42h.75V39h-.75v-2.57h-3.11V39h-.74zM130 33.31h.74V39H130zM51.4 197.23a1.8 1.8 0 0 1-1.95 1.8h-1v2.07h-.75v-5.68h1.74a1.81 1.81 0 0 1 1.96 1.81zm-.74 0a1.09 1.09 0 0 0-1.21-1.11h-1v2.22h1a1.09 1.09 0 0 0 1.21-1.11zM54 195.42h1.94a1.53 1.53 0 0 1 1.69 1.58 1.49 1.49 0 0 1-1.4 1.52l2.18 2.59h-.93l-2.18-2.58h-.56v2.58H54zm1.85 2.43c.65 0 1-.29 1-.86s-.39-.88-1-.88h-1.11v1.74zM60.68 195.42h.74v5.68h-.74zM65.27 196.69v4.41h-.74v-5.68h.68l2.11 2.83 2.11-2.83h.67v5.68h-.73v-4.41l-2.05 2.75zM75 195.42h.62l2.52 5.68h-.78l-.73-1.66H74l-.73 1.66h-.77zm1.34 3.35l-1-2.34-1 2.34zM80.56 195.42h1.94a1.53 1.53 0 0 1 1.69 1.58 1.49 1.49 0 0 1-1.4 1.52L85 201.1h-1l-2.18-2.58h-.52v2.58h-.74zm1.85 2.43c.65 0 1-.29 1-.86s-.39-.88-1-.88H81.3v1.74zM88.58 198.69l-2.21-3.27h.89l1.68 2.58 1.7-2.53h.89l-2.22 3.28v2.4h-.73zM99.94 201.2a2.94 2.94 0 1 1-.09-5.87 3 3 0 0 1 2.13.79l-.49.53a2.37 2.37 0 0 0-1.64-.62 2.23 2.23 0 1 0 .09 4.46 2.53 2.53 0 0 0 1.51-.42v-1.52h-1.6v-.7h2.32v2.55a3.13 3.13 0 0 1-2.23.8zM105 195.42h1.94a1.53 1.53 0 0 1 1.69 1.57 1.48 1.48 0 0 1-1.4 1.52l2.19 2.59h-.94l-2.18-2.58h-.55v2.58H105zm1.85 2.43c.65 0 1-.29 1-.86s-.39-.88-1-.88h-1.1v1.74zM111.67 195.42h.75v5.68h-.75zM115.52 195.42h1.63a2.85 2.85 0 1 1 0 5.68h-1.63zm1.63 5a2.14 2.14 0 1 0 0-4.28h-.89v4.28zM172.77 196.13H171v-.71h4.27v.71h-1.77v5h-.73zM177.76 195.42h1.93a1.53 1.53 0 0 1 1.7 1.57 1.49 1.49 0 0 1-1.4 1.52l2.18 2.59h-.94l-2.18-2.58h-.55v2.58h-.74zm1.84 2.43c.65 0 1-.29 1-.86s-.39-.88-1-.88h-1.1v1.74zM186.24 195.42h.62l2.52 5.68h-.78l-.73-1.66h-2.64l-.73 1.66h-.77zm1.34 3.35l-1-2.34-1 2.34zM194.15 195.33a2.91 2.91 0 0 1 2.52 1.37l-.63.38a2.23 2.23 0 1 0 0 2.36l.63.38a2.94 2.94 0 1 1-2.52-4.49zM199.25 195.42h.75v2.47l2.48-2.47h1l-2.69 2.71 3.31 3H203l-3-2.7v2.7h-.74zM206.22 195.42h.78v5.68h-.74zM214.27 201.1l-3.46-4.42v4.42h-.74v-5.68h.65l3.45 4.42v-4.42h.74v5.68zM220.69 201.2a2.94 2.94 0 1 1-.09-5.87 3 3 0 0 1 2.13.79l-.5.53a2.34 2.34 0 0 0-1.63-.62 2.23 2.23 0 1 0 .09 4.46 2.56 2.56 0 0 0 1.51-.42v-1.52h-1.6v-.7h2.32v2.55a3.13 3.13 0 0 1-2.23.8zM232 201.2a2.94 2.94 0 1 1-.09-5.87 3 3 0 0 1 2.13.79l-.49.53a2.37 2.37 0 0 0-1.64-.62 2.23 2.23 0 1 0 .09 4.46 2.53 2.53 0 0 0 1.51-.42v-1.52h-1.6v-.7h2.32v2.55a3.13 3.13 0 0 1-2.23.8zM237 195.42h2a1.53 1.53 0 0 1 1.69 1.57 1.49 1.49 0 0 1-1.4 1.52l2.19 2.59h-.94l-2.18-2.58h-.55v2.58H237zm1.85 2.43c.65 0 1-.29 1-.86s-.39-.88-1-.88h-1.1v1.74zM243.69 195.42h.75v5.68h-.75zM247.54 195.42h1.63a2.85 2.85 0 1 1 0 5.68h-1.63zm1.63 5a2.14 2.14 0 1 0 0-4.28h-.89v4.28zM6.1 52.73H5l.56-.68h1.23v5.68H6.1zM7.15 70.93H3.47v-.27c0-1.22 1.06-1.78 1.9-2.4.66-.49 1-.79 1-1.45a1 1 0 0 0-1-1A1.09 1.09 0 0 0 4.17 67h-.71a1.77 1.77 0 0 1 1.87-1.79 1.62 1.62 0 0 1 1.76 1.66c0 .83-.39 1.31-1.32 2-.65.48-1.32.81-1.45 1.47h2.83zM5.28 84.21a1.88 1.88 0 0 1-2-1.81H4a1.25 1.25 0 0 0 1.33 1.14 1 1 0 0 0 1.15-1c0-.7-.5-1-1.24-1h-.47v-.63h.45a1 1 0 0 0 1-.92.94.94 0 0 0-1-.91 1.1 1.1 0 0 0-1.2 1.12h-.7a1.78 1.78 0 0 1 1.9-1.79A1.57 1.57 0 0 1 7 79.91a1.41 1.41 0 0 1-.76 1.24 1.45 1.45 0 0 1 .92 1.39 1.68 1.68 0 0 1-1.88 1.67zM5.77 95.79h-3v-.56l3.11-3.58h.6v3.49h.79v.65h-.82v1.54h-.68zm0-3.1l-2.12 2.45h2.12zM4.09 109a1.23 1.23 0 0 0 1.2 1 1.21 1.21 0 0 0 1.23-1.22 1.18 1.18 0 0 0-1.19-1.22 1.24 1.24 0 0 0-1.08.57l-.65-.19.58-3h2.66v.67H4.73l-.31 1.63a1.66 1.66 0 0 1 1-.3 1.88 1.88 0 0 1-.12 3.76 1.83 1.83 0 0 1-1.91-1.7zM5.29 123.81a1.87 1.87 0 0 1-1.93-1.87 2.2 2.2 0 0 1 .64-1.45l2.07-2.44h.87l-1.73 2.06h.22a1.84 1.84 0 0 1 1.78 1.83 1.88 1.88 0 0 1-1.92 1.87zm0-.67a1.22 1.22 0 1 0-1.23-1.22 1.21 1.21 0 0 0 1.23 1.22zM4 136.93l2.65-5H3.7v-.67h3.73v.58l-2.7 5.1zM5.26 150.21a1.79 1.79 0 0 1-1.91-1.78 1.6 1.6 0 0 1 .9-1.49 1.35 1.35 0 0 1-.59-1.12 1.49 1.49 0 0 1 1.6-1.46 1.47 1.47 0 0 1 1.59 1.46 1.33 1.33 0 0 1-.57 1.12 1.59 1.59 0 0 1 .89 1.49 1.78 1.78 0 0 1-1.91 1.78zm0-.66a1.13 1.13 0 1 0 0-2.26 1.13 1.13 0 1 0 0 2.26zm0-2.88a.84.84 0 0 0 .91-.84.83.83 0 0 0-.91-.83.85.85 0 0 0-.92.83.87.87 0 0 0 .92.84zM5.42 161.26H5.2a1.84 1.84 0 0 1-1.78-1.82 1.88 1.88 0 0 1 1.92-1.89 1.87 1.87 0 0 1 1.93 1.87 2.16 2.16 0 0 1-.64 1.44l-2.08 2.46h-.88zm-.08-.59a1.23 1.23 0 1 0 0-2.45 1.23 1.23 0 0 0 0 2.45zM.32 171.53h-1.1l.56-.68H1v5.68H.32zM5.05 176.61a2 2 0 0 1-2-2.14v-1.58a2 2 0 1 1 4 0v1.58a2 2 0 0 1-2 2.14zm0-.67a1.32 1.32 0 0 0 1.32-1.47v-1.58a1.33 1.33 0 1 0-2.64 0v1.58a1.32 1.32 0 0 0 1.32 1.47zM142.8 39.08a1.56 1.56 0 0 1-1.69-1.61h.74a.89.89 0 0 0 .94.92c.5 0 .94-.28.94-1v-4h.73v4.11a1.53 1.53 0 0 1-1.66 1.58z"/><path class="cls-8" d="M409.71 8a2.85 2.85 0 0 1-3 2.86h-1.1v2.79h-1.71V5.12h2.83A2.86 2.86 0 0 1 409.71 8zM408 8a1.24 1.24 0 0 0-1.32-1.24h-1.07v2.46h1.07A1.23 1.23 0 0 0 408 8zM412.79 5.12h1.74V12h3.64v1.66h-5.38zM423.93 5.12h1.55l3.68 8.52h-1.82l-.83-2h-3.62l-.83 2h-1.8zm1.95 5.05L424.7 7.4l-1.17 2.77zM433.16 10.05L430 5.12h2l2 3.23 2-3.23h2l-3.16 4.94v3.58h-1.74zM440.93 5.12h5.3v1.65h-3.56v1.76h2.84v1.65h-2.84V12h3.56v1.66h-5.3zM449.54 5.12h3.27a2.46 2.46 0 0 1 2.61 2.52 2.2 2.2 0 0 1-1.75 2.22l3.06 3.78h-2.1l-2.92-3.59h-.43v3.59h-1.74zm3.06 3.44c.65 0 1.09-.35 1.09-.92s-.44-.93-1.09-.93h-1.32v1.85zM463.48 5.12h3.11a2.49 2.49 0 0 1 2.53 2.47 2 2 0 0 1-.67 1.52 2.16 2.16 0 0 1 1.26 2 2.52 2.52 0 0 1-2.64 2.51h-3.59zm2.95 3.49a.94.94 0 0 0 1-.95 1 1 0 0 0-1-1h-1.22v1.95zM467 12a1 1 0 1 0 0-1.95h-1.74V12z"/><rect class="cls-6" x="329.77" y="166.77" width="39.3" height="12.99" rx="6.5"/><path class="cls-7" d="M362.57 180.27h-26.31a7 7 0 0 1 0-14h26.31a7 7 0 0 1 0 14zm-26.31-13a6 6 0 0 0 0 12h26.31a6 6 0 0 0 0-12z"/><rect class="cls-6" x="488.28" y="166.77" width="39.3" height="12.99" rx="6.5"/><path class="cls-7" d="M521.09 180.27h-26.32a7 7 0 0 1 0-14h26.32a7 7 0 0 1 0 14zm-26.32-13a6 6 0 0 0 0 12h26.32a6 6 0 0 0 0-12z"/></svg>