<?xml version="1.0" encoding="UTF-8"?>
<svg width="500px" height="378px" viewBox="0 0 500 378" version="1.1" xmlns="http://www.w3.org/2000/svg" xmlns:xlink="http://www.w3.org/1999/xlink">
    <!-- Generator: Sketch 53.2 (72643) - https://sketchapp.com -->
    <title>v  copy 3</title>
    <desc>Created with Sketch.</desc>
    <g id="v--copy-3" stroke="none" stroke-width="1" fill="none" fill-rule="evenodd">
        <g id="pop-figure-6" transform="translate(73.500000, 0.000000)" fill-rule="nonzero">
            <polygon id="Path" fill="#45D8FF" points="41.3224092 292.681623 9.59833497 347.64298 73.0464835 347.64298"></polygon>
            <path d="M198.605923,58.0105941 L137.020362,58.0105941 C136.697343,58.0053007 136.391692,57.863391 136.179194,57.6200515 C135.964372,57.3780761 135.865655,57.054503 135.908818,56.7338203 L137.245675,46.0389619 C137.307274,45.4724238 137.787352,45.0442457 138.35722,45.0475846 L197.254045,45.0475846 C197.824527,45.0501318 198.305552,45.4734332 198.38061,46.0389619 L199.717467,56.7338203 C199.755973,57.0566347 199.655016,57.3805532 199.439921,57.6243275 C199.224826,57.8681018 198.915999,58.0086048 198.590902,58.0105941 L198.605923,58.0105941 Z M138.312157,55.7574638 L197.329149,55.7574638 L196.277689,47.3007149 L139.363618,47.3007149 L138.312157,55.7574638 Z M198.605923,20.9390907 L137.020362,20.9390907 C136.68098,20.9392488 136.36012,20.7843509 136.149152,20.5185064 C135.92139,20.2422055 135.842883,19.8721019 135.93886,19.527129 L137.275717,12.8428426 C137.350963,12.46807 137.611114,12.1570197 137.966677,12.0166948 L167.227329,0.721001688 C167.490146,0.630589428 167.775639,0.630589428 168.038456,0.721001688 L197.674629,12.0166948 C198.039937,12.1556383 198.307129,12.4739941 198.38061,12.8578634 L199.777551,19.527129 C199.845124,19.8580066 199.756464,20.2015633 199.537217,20.4584229 C199.330337,20.7684007 198.978437,20.9500265 198.605923,20.9390907 L198.605923,20.9390907 Z M138.417303,18.6859604 L197.239024,18.6859604 L196.292709,13.9543868 L167.647913,3.0041737 L139.363618,13.939366 L138.417303,18.6859604 Z" id="Shape" fill="#736F7F"></path>
            <path d="M183.600076,19.8125255 L185.853206,19.8125255 L185.853206,46.1741497 L183.600076,46.1741497 L183.600076,19.8125255 Z M189.082693,19.8125255 L191.335823,19.8125255 L191.335823,46.1741497 L189.082693,46.1741497 L189.082693,19.8125255 Z M144.305484,19.8125255 L146.558614,19.8125255 L146.558614,46.1741497 L144.305484,46.1741497 L144.305484,19.8125255 Z M149.788101,19.8125255 L152.041231,19.8125255 L152.041231,46.1741497 L149.788101,46.1741497 L149.788101,19.8125255 Z M163.95278,19.8125255 L166.20591,19.8125255 L166.20591,46.1741497 L163.95278,46.1741497 L163.95278,19.8125255 Z M169.435397,19.8125255 L171.688527,19.8125255 L171.688527,46.1741497 L169.435397,46.1741497 L169.435397,19.8125255 Z M137.756385,50.3950138 L197.884922,50.3950138 L197.884922,52.6481441 L137.756385,52.6481441 L137.756385,50.3950138 Z M121.398659,70.8384158 L119.68628,70.8384158 L119.68628,69.5916837 L124.432875,69.5916837 L124.432875,70.8384158 L122.705475,70.8384158 L122.705475,75.9905737 L121.398659,75.9905737 L121.398659,70.8384158 Z M126.686005,69.5916837 L129.179469,69.5916837 C129.697873,69.5577112 130.206625,69.7435662 130.581054,70.1037041 C130.955483,70.463842 131.160986,70.9649804 131.147203,71.4843132 C131.170675,72.2875798 130.61281,72.9912505 129.825366,73.1516296 L132.123559,75.9905737 L130.501305,75.9905737 L128.32328,73.2868174 L127.99282,73.2868174 L127.99282,75.9905737 L126.686005,75.9905737 L126.686005,69.5916837 Z M128.984198,72.1752731 C129.464866,72.1752731 129.810346,71.9199183 129.810346,71.4843132 C129.810346,71.048708 129.464866,70.7933532 128.984198,70.7933532 L127.99282,70.7933532 L127.99282,72.1752731 L128.984198,72.1752731 Z M136.374465,76.0957198 C135.669659,76.131288 134.983113,75.8647165 134.486982,75.3628498 C133.990851,74.860983 133.732188,74.1714182 133.775855,73.4670678 L133.775855,69.5916837 L135.08267,69.5916837 L135.08267,73.4820887 C135.08267,74.1955272 135.661027,74.7738834 136.374465,74.7738834 C137.087904,74.7738834 137.66626,74.1955272 137.66626,73.4820887 L137.66626,69.5916837 L138.973075,69.5916837 L138.973075,73.4670678 C139.016742,74.1714182 138.758079,74.860983 138.261948,75.3628498 C137.765817,75.8647165 137.079271,76.131288 136.374465,76.0957198 L136.374465,76.0957198 Z M142.217583,74.1129651 C142.523786,74.5785014 143.042304,74.8603049 143.599503,74.8640086 C144.110212,74.8640086 144.455692,74.6236747 144.455692,74.248153 C144.455692,73.8726312 144.200338,73.6322974 143.569461,73.4220052 L143.02871,73.2267339 C141.99227,72.8662331 141.526623,72.2804192 141.526623,71.4092088 C141.527158,70.8563852 141.763796,70.3301125 142.176982,69.9628363 C142.590167,69.5955601 143.140554,69.4222555 143.689628,69.4865376 C144.459494,69.46525 145.198286,69.7905389 145.702424,70.3727689 L144.846235,71.2590001 C144.563212,70.9100999 144.138877,70.7061989 143.689628,70.703228 C143.254023,70.703228 142.833439,70.8984993 142.833439,71.274021 C142.833439,71.6495427 143.148877,71.8297931 143.824816,72.0851479 L144.350546,72.2653983 C145.230641,72.4797511 145.850702,73.2672288 145.852633,74.1730486 C145.83113,74.7324927 145.577592,75.2577038 145.152919,75.6225232 C144.728247,75.9873426 144.170815,76.1588034 143.614524,76.0957198 C142.664598,76.1623541 141.748443,75.7298835 141.196164,74.9541338 L142.217583,74.1129651 Z M149.277391,70.8384158 L147.565012,70.8384158 L147.565012,69.5916837 L152.311607,69.5916837 L152.311607,70.8384158 L150.584207,70.8384158 L150.584207,75.9905737 L149.277391,75.9905737 L149.277391,70.8384158 Z M154.564737,69.5916837 L158.545267,69.5916837 L158.545267,70.8384158 L155.871552,70.8384158 L155.871552,72.1001688 L158.004516,72.1001688 L158.004516,73.3469009 L155.871552,73.3469009 L155.871552,74.698779 L158.545267,74.698779 L158.545267,75.9455111 L154.564737,75.9455111 L154.564737,69.5916837 Z M161.038731,69.5916837 L163.141653,69.5916837 C164.908657,69.5916837 166.341098,71.024124 166.341098,72.7911287 C166.341098,74.5581334 164.908657,75.9905737 163.141653,75.9905737 L161.038731,75.9905737 L161.038731,69.5916837 Z M163.141653,74.7889042 C164.244994,74.7889042 165.139428,73.8944697 165.139428,72.7911287 C165.139428,71.6877878 164.244994,70.7933532 163.141653,70.7933532 L162.345547,70.7933532 L162.345547,74.7889042 L163.141653,74.7889042 Z M172.739988,74.1129651 C173.04619,74.5785014 173.564709,74.8603049 174.121908,74.8640086 C174.632617,74.8640086 174.978097,74.6236747 174.978097,74.248153 C174.978097,73.8726312 174.722742,73.6322974 174.091866,73.4220052 L173.551115,73.2267339 C172.514675,72.8662331 172.049028,72.2804192 172.049028,71.4092088 C172.049563,70.8563852 172.286201,70.3301125 172.699386,69.9628363 C173.112572,69.5955601 173.662959,69.4222555 174.212033,69.4865376 C174.98148,69.4673809 175.719402,69.7922869 176.224829,70.3727689 L175.353619,71.2590001 C175.082545,70.9034493 174.659092,70.6972947 174.212033,70.703228 C173.776428,70.703228 173.355843,70.8984993 173.355843,71.274021 C173.355843,71.6495427 173.671282,71.8297931 174.347221,72.0851479 L174.85793,72.2653983 C175.738025,72.4797511 176.358086,73.2672288 176.360017,74.1730486 C176.338892,74.7354334 176.083284,75.2632894 175.655184,75.6286016 C175.227084,75.9939139 174.665594,76.1633142 174.106887,76.0957198 C173.188227,76.1308706 172.313415,75.7019301 171.778652,74.9541338 L172.739988,74.1129651 Z M181.647363,76.0957198 C179.822287,76.0957198 178.342772,74.616204 178.342772,72.7911287 C178.342772,70.9660535 179.822287,69.4865376 181.647363,69.4865376 C183.472438,69.4865376 184.951954,70.9660535 184.951954,72.7911287 C184.955971,73.668786 184.609099,74.5116575 183.988495,75.1322614 C183.367891,75.7528653 182.52502,76.0997366 181.647363,76.0957198 L181.647363,76.0957198 Z M181.647363,74.8339668 C182.477469,74.8522824 183.23608,74.3663414 183.56652,73.6046185 C183.896959,72.8428956 183.733482,71.9569472 183.152949,71.3633196 C182.572416,70.7696921 181.690334,70.5864965 180.921431,70.8998659 C180.152528,71.2132354 179.649789,71.9608203 179.649587,72.7911287 C179.641566,73.3275471 179.84802,73.8449722 180.223113,74.2285265 C180.598207,74.6120808 181.110899,74.8300232 181.647363,74.8339668 L181.647363,74.8339668 Z M189.878799,76.0957198 C189.173993,76.131288 188.487447,75.8647165 187.991316,75.3628498 C187.495184,74.860983 187.236522,74.1714182 187.280188,73.4670678 L187.280188,69.5916837 L188.587004,69.5916837 L188.587004,73.4820887 C188.533429,73.979643 188.768699,74.4641003 189.192863,74.7296476 C189.617027,74.995195 190.155591,74.995195 190.579755,74.7296476 C191.003919,74.4641003 191.239189,73.979643 191.185614,73.4820887 L191.185614,69.5916837 L192.477409,69.5916837 L192.477409,73.4670678 C192.521076,74.1714182 192.262413,74.860983 191.766282,75.3628498 C191.270151,75.8647165 190.583604,76.131288 189.878799,76.0957198 L189.878799,76.0957198 Z M195.27129,69.5916837 L197.719692,69.5916837 C198.235576,69.5621012 198.740273,69.7499112 199.111321,70.1095424 C199.482369,70.4691735 199.685856,70.967757 199.672405,71.4843132 C199.689837,72.3114353 199.092859,73.0239569 198.275464,73.1516296 L200.573657,75.9905737 L199.07157,75.9905737 L196.773377,73.2868174 L196.457939,73.2868174 L196.457939,75.9905737 L195.27129,75.9905737 L195.27129,69.5916837 Z M197.569483,72.1752731 C198.050151,72.1752731 198.38061,71.9199183 198.38061,71.4843132 C198.38061,71.048708 198.050151,70.7933532 197.569483,70.7933532 L196.578106,70.7933532 L196.578106,72.1752731 L197.569483,72.1752731 Z M205.170043,69.4865376 C206.40992,69.4465583 207.568633,70.1012314 208.174216,71.1838958 L207.03263,71.8147723 C206.558483,70.95213 205.533292,70.554598 204.601534,70.8720806 C203.669777,71.1895632 203.100599,72.1303523 203.25181,73.1030307 C203.40302,74.075709 204.23094,74.7993086 205.215105,74.818946 C205.972599,74.8308739 206.673572,74.4195596 207.03263,73.7524643 L208.174216,74.3833408 C207.406353,75.8129799 205.7208,76.4822678 204.181377,75.9687898 C202.641954,75.4553117 201.695694,73.9081762 201.939819,72.3038431 C202.183945,70.69951 203.547564,69.5038602 205.170043,69.4715168 L205.170043,69.4865376 Z M210.382284,69.5916837 L214.362814,69.5916837 L214.362814,70.8384158 L211.6891,70.8384158 L211.6891,72.1001688 L213.822063,72.1001688 L213.822063,73.3469009 L211.6891,73.3469009 L211.6891,74.698779 L214.362814,74.698779 L214.362814,75.9455111 L210.382284,75.9455111 L210.382284,69.5916837 Z M8.66704112,156.307158 L6.96968298,156.307158 L6.96968298,155.060425 L11.7012566,155.060425 L11.7012566,156.307158 L9.98887755,156.307158 L9.98887755,161.459315 L8.66704112,161.459315 L8.66704112,156.307158 Z M13.9543868,155.060425 L15.2612024,155.060425 L15.2612024,161.459315 L13.9543868,161.459315 L13.9543868,155.060425 Z M19.3468786,157.298535 L19.3468786,161.459315 L18.0250422,161.459315 L18.0250422,155.060425 L19.2116908,155.060425 L21.2995915,157.91439 L23.3724714,155.060425 L24.55912,155.060425 L24.55912,161.459315 L23.2523044,161.459315 L23.2523044,157.298535 L21.2995915,159.98727 L19.3468786,157.298535 Z M27.3530015,155.060425 L31.3335317,155.060425 L31.3335317,156.307158 L28.6598171,156.307158 L28.6598171,157.628994 L30.8078013,157.628994 L30.8078013,158.875726 L28.6598171,158.875726 L28.6598171,160.212583 L31.3335317,160.212583 L31.3335317,161.459315 L27.3530015,161.459315 L27.3530015,155.060425 Z M34.3677471,159.596728 C34.6793673,160.05633 35.1945009,160.336294 35.749667,160.347771 C36.2603765,160.347771 36.6058565,160.092416 36.6058565,159.716895 C36.6058565,159.341373 36.3505018,159.11606 35.7196253,158.890747 L35.178874,158.710496 C34.1424341,158.349996 33.6016828,157.749161 33.6016828,156.877951 C33.6026975,156.328057 33.8373045,155.804492 34.2470334,155.437742 C34.6567622,155.070992 35.203021,154.8956 35.749667,154.955279 C36.5239023,154.933725 37.2673968,155.258659 37.7774843,155.841511 L36.9062739,156.727742 C36.6237136,156.388472 36.206197,156.190701 35.7646879,156.186991 C35.3290827,156.186991 34.9084984,156.367241 34.9084984,156.757784 C34.9084984,157.148326 35.2239366,157.313556 35.8998757,157.55389 L36.4105852,157.749161 C37.2883489,157.957334 37.9092626,158.739685 37.9126721,159.64179 C37.8871073,160.202537 37.6302497,160.727601 37.2032542,161.09197 C36.7762587,161.45634 36.2173296,161.627414 35.6595418,161.564462 C34.7408826,161.599612 33.8660698,161.170672 33.3313072,160.422876 L34.3677471,159.596728 Z M41.4125344,156.307158 L39.7151763,156.307158 L39.7151763,155.060425 L44.4467499,155.060425 L44.4467499,156.307158 L42.7343709,156.307158 L42.7343709,161.459315 L41.4125344,161.459315 L41.4125344,156.307158 Z M48.0667792,155.060425 L49.2384069,155.060425 L52.0022467,161.459315 L50.6353477,161.459315 L50.0044712,159.957229 L47.3457775,159.957229 L46.7299219,161.459315 L45.3780437,161.459315 L48.0667792,155.060425 Z M49.568866,158.860705 L48.6976557,156.772804 L47.8114244,158.860705 L49.568866,158.860705 Z M55.4270047,157.298535 L55.4270047,161.459315 L54.0751266,161.459315 L54.0751266,155.060425 L55.2767961,155.060425 L57.3496759,157.91439 L59.4375766,155.060425 L60.6242252,155.060425 L60.6242252,161.459315 L59.3174097,161.459315 L59.3174097,157.298535 L57.3496759,159.98727 L55.4270047,157.298535 Z M67.8192212,157.223431 C67.8199266,157.811806 67.5792459,158.374714 67.1533832,158.780703 C66.7275206,159.186692 66.1537614,159.400217 65.566091,159.371415 L64.7549641,159.371415 L64.7549641,161.459315 L63.4481485,161.459315 L63.4481485,155.060425 L65.566091,155.060425 C66.1552059,155.035857 66.7288174,155.252852 67.1541668,155.661188 C67.5795163,156.069523 67.8197333,156.633804 67.8192212,157.223431 L67.8192212,157.223431 Z M66.5424474,157.223431 C66.5429845,156.965665 66.4366622,156.719205 66.2487896,156.542718 C66.060917,156.366232 65.8082995,156.275506 65.5510701,156.292137 L64.7549641,156.292137 L64.7549641,158.154724 L65.5510701,158.154724 C65.8082995,158.171355 66.060917,158.080629 66.2487896,157.904143 C66.4366622,157.727656 66.5429845,157.481196 66.5424474,157.223431 Z M12.8428426,251.794819 C12.8433583,252.380464 12.6047241,252.940927 12.1821901,253.346447 C11.7596561,253.751966 11.1898631,253.967376 10.6047332,253.942803 L9.77858539,253.942803 L9.77858539,256.030703 L8.47176983,256.030703 L8.47176983,249.646834 L10.6047332,249.646834 C11.1898631,249.622262 11.7596561,249.837671 12.1821901,250.243191 C12.6047241,250.64871 12.8433583,251.209173 12.8428426,251.794819 Z M11.5810896,251.794819 C11.5816267,251.537053 11.4753044,251.290593 11.2874318,251.114106 C11.0995592,250.93762 10.8469417,250.846894 10.5897123,250.863525 L9.77858539,250.863525 L9.77858539,252.726112 L10.5897123,252.726112 C10.8469417,252.742743 11.0995592,252.652017 11.2874318,252.475531 C11.4753044,252.299044 11.5816267,252.052584 11.5810896,251.794819 L11.5810896,251.794819 Z M15.1560563,249.646834 L16.5229553,249.646834 L16.5229553,254.798992 L19.2567534,254.798992 L19.2567534,256.030703 L15.1560563,256.030703 L15.1560563,249.646834 Z M23.5226801,249.646834 L24.6943078,249.646834 L27.4581476,256.030703 L26.0912486,256.030703 L25.4603721,254.528617 L22.7415949,254.528617 L22.1257393,256.030703 L20.7738611,256.030703 L23.5226801,249.646834 Z M25.0247669,253.432093 L24.1535565,251.359213 L23.2673253,253.432093 L25.0247669,253.432093 Z M29.5160066,249.646834 L30.8228221,249.646834 L30.8228221,256.030703 L29.5160066,256.030703 L29.5160066,249.646834 Z M38.1830477,256.030703 L34.9084984,251.869923 L34.9084984,256.030703 L33.6016828,256.030703 L33.6016828,249.646834 L34.728248,249.646834 L38.0027973,253.852678 L38.0027973,249.646834 L39.3096128,249.646834 L39.3096128,256.030703 L38.1830477,256.030703 Z M43.2751221,250.848504 L41.577764,250.848504 L41.577764,249.616793 L46.3093376,249.616793 L46.3093376,250.848504 L44.5969586,250.848504 L44.5969586,256.000662 L43.2751221,256.000662 L43.2751221,250.848504 Z M48.5624678,249.646834 L52.5730397,249.646834 L52.5730397,250.848504 L49.8692834,250.848504 L49.8692834,252.17034 L52.0022467,252.17034 L52.0022467,253.417072 L49.8692834,253.417072 L49.8692834,254.768951 L52.5730397,254.768951 L52.5730397,256.000662 L48.5624678,256.000662 L48.5624678,249.646834 Z M57.4698429,253.852678 L55.8025265,256.060745 L54.3004396,256.060745 L56.7037786,252.831258 L54.4356274,249.676876 L55.9377143,249.676876 L57.4398011,251.809839 L58.941888,249.676876 L60.4439748,249.676876 L58.1758237,252.831258 L60.5791626,256.060745 L59.0770758,256.060745 L57.4698429,253.852678 Z M63.853712,250.848504 L62.141333,250.848504 L62.141333,249.616793 L66.8879274,249.616793 L66.8879274,250.848504 L65.1605275,250.848504 L65.1605275,256.000662 L63.853712,256.000662 L63.853712,250.848504 Z M252.530841,71.7396679 C252.535474,72.3279159 252.298645,72.8923224 251.875641,73.3011315 C251.452638,73.7099406 250.880479,73.9273737 250.292732,73.902673 L249.481605,73.902673 L249.481605,75.9905737 L248.174789,75.9905737 L248.174789,69.5916837 L250.292732,69.5916837 C250.877862,69.567111 251.447655,69.7825207 251.870189,70.1880399 C252.292723,70.5935591 252.531357,71.1540225 252.530841,71.7396679 L252.530841,71.7396679 Z M251.269088,71.7396679 C251.265506,71.4845203 251.157387,71.2420186 250.969994,71.0688221 C250.782602,70.8956256 250.53235,70.806907 250.277711,70.8233949 L249.481605,70.8233949 L249.481605,72.6709618 L250.277711,72.6709618 C250.53494,72.6875924 250.787558,72.5968664 250.97543,72.42038 C251.163303,72.2438936 251.269625,71.9974338 251.269088,71.7396679 L251.269088,71.7396679 Z M254.844055,69.5916837 L257.292456,69.5916837 C257.81086,69.5577112 258.319612,69.7435662 258.694042,70.1037041 C259.068471,70.463842 259.273973,70.9649804 259.26019,71.4843132 C259.283662,72.2875798 258.725797,72.9912505 257.938354,73.1516296 L260.236547,75.9905737 L258.659355,75.9905737 L256.48133,73.2868174 L256.15087,73.2868174 L256.15087,75.9905737 L254.844055,75.9905737 L254.844055,69.5916837 Z M257.142248,72.1752731 C257.622916,72.1752731 257.968395,71.9199183 257.968395,71.4843132 C257.968395,71.048708 257.622916,70.7933532 257.142248,70.7933532 L256.15087,70.7933532 L256.15087,72.1752731 L257.142248,72.1752731 Z M262.114155,69.5916837 L263.420971,69.5916837 L263.420971,75.9905737 L262.114155,75.9905737 L262.114155,69.5916837 Z M265.508871,69.5916837 L266.920833,69.5916837 L268.738358,74.0979443 L270.510821,69.5916837 L272.012908,69.5916837 L269.369235,75.9905737 L268.212628,75.9905737 L265.508871,69.5916837 Z M275.377582,69.5916837 L276.54921,69.5916837 L279.388154,75.9905737 L277.886067,75.9905737 L277.255191,74.4884869 L274.536413,74.4884869 L273.920558,75.9905737 L272.56868,75.9905737 L275.377582,69.5916837 Z M276.879669,73.3919635 L275.993438,71.3040627 L275.107206,73.3919635 L276.879669,73.3919635 Z M281.941702,70.8384158 L280.229323,70.8384158 L280.229323,69.5916837 L284.975917,69.5916837 L284.975917,70.8384158 L283.248517,70.8384158 L283.248517,75.9905737 L281.941702,75.9905737 L281.941702,70.8384158 Z M287.229047,69.5916837 L291.209577,69.5916837 L291.209577,70.8384158 L288.535863,70.8384158 L288.535863,72.1001688 L290.668826,72.1001688 L290.668826,73.3469009 L288.535863,73.3469009 L288.535863,74.698779 L291.209577,74.698779 L291.209577,75.9455111 L287.229047,75.9455111 L287.229047,69.5916837 Z M297.082737,69.5916837 L298.374532,69.5916837 L298.374532,72.2954401 L300.687745,69.5916837 L302.294978,69.5916837 L299.666326,72.6709618 L302.83573,75.9905737 L301.153392,75.9905737 L298.374532,73.0765252 L298.374532,75.9905737 L297.082737,75.9905737 L297.082737,69.5916837 Z M304.683297,69.5916837 L308.663827,69.5916837 L308.663827,70.8384158 L305.990112,70.8384158 L305.990112,72.1001688 L308.123075,72.1001688 L308.123075,73.3469009 L305.990112,73.3469009 L305.990112,74.698779 L308.663827,74.698779 L308.663827,75.9455111 L304.683297,75.9455111 L304.683297,69.5916837 Z M312.899712,73.2868174 L310.541435,69.5916837 L312.043522,69.5916837 L313.545609,72.0100436 L315.047696,69.5916837 L316.549783,69.5916837 L314.191506,73.3018382 L314.191506,75.9905737 L312.884691,75.9905737 L312.899712,73.2868174 Z M37.9577347,143.133856 C29.6938593,143.133854 22.2439818,138.155012 19.0829387,130.519604 C15.9218955,122.884197 17.672416,114.096409 23.518007,108.255116 C29.363598,102.413823 38.1526715,100.669767 45.7857514,103.836426 C53.4188313,107.003085 58.3921922,114.456622 58.3861158,122.720496 C58.3695531,133.993479 49.2307275,143.125585 37.9577347,143.133856 L37.9577347,143.133856 Z M37.9577347,103.41868 C27.2976361,103.41868 18.6559187,112.060397 18.6559187,122.720496 C18.6559187,133.380594 27.2976361,142.022312 37.9577347,142.022312 C48.6178333,142.022312 57.2595507,133.380594 57.2595507,122.720496 C57.2512672,112.06383 48.6144003,103.426963 37.9577347,103.41868 L37.9577347,103.41868 Z" id="Shape" fill="#736F7F"></path>
            <polygon id="Path" fill="#736F7F" points="37.4019625 104.259848 38.5285277 104.259848 38.5285277 106.332728 37.4019625 106.332728"></polygon>
            <polygon id="Path" fill="#736F7F" transform="translate(29.348570, 107.609316) rotate(-29.990000) translate(-29.348570, -107.609316) " points="28.7852874 106.572876 29.9118525 106.572876 29.9118525 108.645756 28.7852874 108.645756"></polygon>
            <polygon id="Path" fill="#736F7F" transform="translate(23.037924, 113.913081) rotate(-60.010000) translate(-23.037924, -113.913081) " points="22.4746419 112.876641 23.601207 112.876641 23.601207 114.949521 22.4746419 114.949521"></polygon>
            <polygon id="Path" fill="#736F7F" transform="translate(23.030491, 131.151759) rotate(-30.000000) translate(-23.030491, -131.151759) " points="21.9940509 130.588477 24.0669307 130.588477 24.0669307 131.715042 21.9940509 131.715042"></polygon>
            <polygon id="Path" fill="#736F7F" transform="translate(29.351288, 137.449003) rotate(-60.000000) translate(-29.351288, -137.449003) " points="28.3148482 136.885721 30.387728 136.885721 30.387728 138.012286 28.3148482 138.012286"></polygon>
            <polygon id="Path" fill="#736F7F" points="37.4019625 139.003117 38.5285277 139.003117 38.5285277 141.075997 37.4019625 141.075997"></polygon>
            <polygon id="Path" fill="#736F7F" transform="translate(46.588805, 137.449581) rotate(-30.010000) translate(-46.588805, -137.449581) " points="46.0255229 136.413141 47.152088 136.413141 47.152088 138.486021 46.0255229 138.486021"></polygon>
            <polygon id="Path" fill="#736F7F" transform="translate(52.890626, 131.148340) rotate(-59.980000) translate(-52.890626, -131.148340) " points="52.3273436 130.1119 53.4539088 130.1119 53.4539088 132.18478 52.3273436 132.18478"></polygon>
            <polygon id="Path" fill="#736F7F" transform="translate(52.888860, 113.912351) rotate(-30.000000) translate(-52.888860, -113.912351) " points="51.8524203 113.349069 53.9253001 113.349069 53.9253001 114.475634 51.8524203 114.475634"></polygon>
            <polygon id="Path" fill="#736F7F" transform="translate(46.577843, 107.597564) rotate(-60.000000) translate(-46.577843, -107.597564) " points="45.5414035 107.034281 47.6142833 107.034281 47.6142833 108.160846 45.5414035 108.160846"></polygon>
            <path d="M19.5121082,122.149703 L21.584988,122.149703 L21.584988,123.276268 L19.5121082,123.276268 L19.5121082,122.149703 Z M54.3455022,122.149703 L56.4183821,122.149703 L56.4183821,123.276268 L54.3455022,123.276268 L54.3455022,122.149703 Z M50.8756816,123.171122 L38.0478599,123.171122 C37.8292918,123.164913 37.6323739,123.037495 37.5371504,122.840663 C37.4453766,122.640234 37.4807353,122.404509 37.6272756,122.239828 L43.2300595,115.660687 L44.086249,116.381689 L39.2645502,122.074598 L50.8756816,122.074598 L50.8756816,123.171122 Z M269.264089,56.3733195 C267.642968,56.3753559 266.029729,56.147783 264.472432,55.6973804 C258.814202,54.126135 254.395206,49.7014376 252.831258,44.0411864 C251.077046,38.0056443 252.739578,31.4935815 257.172289,27.0375633 C260.375451,23.8147697 264.735269,22.0080958 269.279109,22.0205932 C276.235205,22.0336189 282.494756,26.2462079 285.126126,32.6854098 C285.395699,33.343027 286.037666,33.7710049 286.74838,33.7669124 L307.657428,33.7669124 C307.804676,33.7665189 307.945716,33.8261897 308.047971,33.9321419 L312.899712,38.7388198 C313.005148,38.8475635 313.064366,38.9929185 313.064941,39.1443833 C313.065335,39.2916307 313.005664,39.4326709 312.899712,39.5349259 L308.093034,44.3716455 C307.988901,44.4748301 307.84906,44.5339937 307.702491,44.5368751 L305.148943,44.5368751 C305.004165,44.5395943 304.864043,44.485701 304.758401,44.3866664 C303.745989,43.2689698 302.520287,42.3650149 301.153392,41.7279727 C299.850893,42.3113422 298.68829,43.166649 297.743655,44.2364577 C297.52894,44.4098213 297.222348,44.4098213 297.007633,44.2364577 C295.786611,43.1250942 294.357003,42.2673289 292.80179,41.7129518 C292.230997,41.7129518 291.089411,42.7644126 290.007908,44.2815203 C289.905581,44.4299894 289.737584,44.5195876 289.557282,44.5218542 L286.898588,44.5218542 C286.17871,44.5140252 285.528138,44.9497291 285.261314,45.6183776 C282.634466,52.1410415 276.295775,56.4025462 269.264089,56.3733195 L269.264089,56.3733195 Z M269.264089,23.192221 C265.018931,23.1794522 260.945462,24.8672638 257.953375,27.8787319 C253.809366,32.0302087 252.239919,38.1010373 253.852678,43.7407691 C255.30785,49.0236792 259.431872,53.1534051 264.712765,54.6158778 C272.627239,56.9127783 280.996602,52.8513666 284.089686,45.2128142 C284.540479,44.0700728 285.671936,43.3440046 286.898588,43.4103099 L289.362011,43.4103099 C290.203179,42.2687239 291.645183,40.6014075 292.891915,40.6014075 C294.138647,40.6014075 296.061318,42.02839 297.398175,43.06483 C299.155617,41.4125344 300.41737,40.5563449 301.168413,40.5563449 C301.919457,40.5563449 303.36146,41.5026596 305.389277,43.3652473 L307.477178,43.3652473 L311.728084,39.0993207 L307.432115,34.8484149 L286.778421,34.8484149 C285.609811,34.8531124 284.556413,34.1448959 284.119728,33.0609316 C281.65223,27.0507397 275.806123,23.1197362 269.309151,23.1020957 L269.264089,23.192221 Z" id="Shape" fill="#736F7F"></path>
            <path d="M259.485503,46.7299219 L260.251568,46.7299219 L260.251568,47.4959862 L259.485503,47.4959862 L259.485503,46.7299219 Z M260.942527,46.7299219 L261.708592,46.7299219 L261.708592,47.4959862 L260.942527,47.4959862 L260.942527,46.7299219 Z M262.399552,46.7299219 L263.165616,46.7299219 L263.165616,47.4959862 L262.399552,47.4959862 L262.399552,46.7299219 Z M263.871597,46.7299219 L264.637661,46.7299219 L264.637661,47.4959862 L263.871597,47.4959862 L263.871597,46.7299219 Z M265.328621,46.7299219 L266.094685,46.7299219 L266.094685,47.4959862 L265.328621,47.4959862 L265.328621,46.7299219 Z M266.800666,46.7299219 L267.56673,46.7299219 L267.56673,47.4959862 L266.800666,47.4959862 L266.800666,46.7299219 Z M268.25769,46.7299219 L269.023755,46.7299219 L269.023755,47.4959862 L268.25769,47.4959862 L268.25769,46.7299219 Z M269.729736,46.7299219 L270.4958,46.7299219 L270.4958,47.4959862 L269.729736,47.4959862 L269.729736,46.7299219 Z M271.18676,46.7299219 L271.952824,46.7299219 L271.952824,47.4959862 L271.18676,47.4959862 L271.18676,46.7299219 Z M272.658805,46.7299219 L273.424869,46.7299219 L273.424869,47.4959862 L272.658805,47.4959862 L272.658805,46.7299219 Z M274.115829,46.7299219 L274.881893,46.7299219 L274.881893,47.4959862 L274.115829,47.4959862 L274.115829,46.7299219 Z M275.587874,46.7299219 L276.353939,46.7299219 L276.353939,47.4959862 L275.587874,47.4959862 L275.587874,46.7299219 Z M277.059919,46.7299219 L277.825984,46.7299219 L277.825984,47.4959862 L277.059919,47.4959862 L277.059919,46.7299219 Z M278.516944,46.7299219 L279.283008,46.7299219 L279.283008,47.4959862 L278.516944,47.4959862 L278.516944,46.7299219 Z M262.399552,43.5004352 L263.165616,43.5004352 L263.165616,44.2664994 L262.399552,44.2664994 L262.399552,43.5004352 Z M263.871597,43.5004352 L264.637661,43.5004352 L264.637661,44.2664994 L263.871597,44.2664994 L263.871597,43.5004352 Z M265.328621,43.5004352 L266.094685,43.5004352 L266.094685,44.2664994 L265.328621,44.2664994 L265.328621,43.5004352 Z M266.800666,43.5004352 L267.56673,43.5004352 L267.56673,44.2664994 L266.800666,44.2664994 L266.800666,43.5004352 Z M268.25769,43.5004352 L269.023755,43.5004352 L269.023755,44.2664994 L268.25769,44.2664994 L268.25769,43.5004352 Z M269.729736,43.5004352 L270.4958,43.5004352 L270.4958,44.2664994 L269.729736,44.2664994 L269.729736,43.5004352 Z M271.18676,43.5004352 L271.952824,43.5004352 L271.952824,44.2664994 L271.18676,44.2664994 L271.18676,43.5004352 Z M272.658805,43.5004352 L273.424869,43.5004352 L273.424869,44.2664994 L272.658805,44.2664994 L272.658805,43.5004352 Z M274.115829,43.5004352 L274.881893,43.5004352 L274.881893,44.2664994 L274.115829,44.2664994 L274.115829,43.5004352 Z M275.587874,43.5004352 L276.353939,43.5004352 L276.353939,44.2664994 L275.587874,44.2664994 L275.587874,43.5004352 Z M260.942527,45.122689 L261.708592,45.122689 L261.708592,45.8887532 L260.942527,45.8887532 L260.942527,45.122689 Z M262.399552,45.122689 L263.165616,45.122689 L263.165616,45.8887532 L262.399552,45.8887532 L262.399552,45.122689 Z M263.871597,45.122689 L264.637661,45.122689 L264.637661,45.8887532 L263.871597,45.8887532 L263.871597,45.122689 Z M265.328621,45.122689 L266.094685,45.122689 L266.094685,45.8887532 L265.328621,45.8887532 L265.328621,45.122689 Z M266.800666,45.122689 L267.56673,45.122689 L267.56673,45.8887532 L266.800666,45.8887532 L266.800666,45.122689 Z M268.25769,45.122689 L269.023755,45.122689 L269.023755,45.8887532 L268.25769,45.8887532 L268.25769,45.122689 Z M269.729736,45.122689 L270.4958,45.122689 L270.4958,45.8887532 L269.729736,45.8887532 L269.729736,45.122689 Z M271.18676,45.122689 L271.952824,45.122689 L271.952824,45.8887532 L271.18676,45.8887532 L271.18676,45.122689 Z M272.658805,45.122689 L273.424869,45.122689 L273.424869,45.8887532 L272.658805,45.8887532 L272.658805,45.122689 Z M274.115829,45.122689 L274.881893,45.122689 L274.881893,45.8887532 L274.115829,45.8887532 L274.115829,45.122689 Z M275.587874,45.122689 L276.353939,45.122689 L276.353939,45.8887532 L275.587874,45.8887532 L275.587874,45.122689 Z M277.059919,45.122689 L277.825984,45.122689 L277.825984,45.8887532 L277.059919,45.8887532 L277.059919,45.122689 Z M262.399552,41.8932022 L263.165616,41.8932022 L263.165616,42.6592665 L262.399552,42.6592665 L262.399552,41.8932022 Z M263.871597,41.8932022 L264.637661,41.8932022 L264.637661,42.6592665 L263.871597,42.6592665 L263.871597,41.8932022 Z M268.25769,41.8932022 L269.023755,41.8932022 L269.023755,42.6592665 L268.25769,42.6592665 L268.25769,41.8932022 Z M269.729736,41.8932022 L270.4958,41.8932022 L270.4958,42.6592665 L269.729736,42.6592665 L269.729736,41.8932022 Z M274.115829,41.8932022 L274.881893,41.8932022 L274.881893,42.6592665 L274.115829,42.6592665 L274.115829,41.8932022 Z M275.587874,41.8932022 L276.353939,41.8932022 L276.353939,42.6592665 L275.587874,42.6592665 L275.587874,41.8932022 Z M262.399552,38.6637155 L263.165616,38.6637155 L263.165616,39.4297798 L262.399552,39.4297798 L262.399552,38.6637155 Z M263.871597,38.6637155 L264.637661,38.6637155 L264.637661,39.4297798 L263.871597,39.4297798 L263.871597,38.6637155 Z M268.25769,38.6637155 L269.023755,38.6637155 L269.023755,39.4297798 L268.25769,39.4297798 L268.25769,38.6637155 Z M269.729736,38.6637155 L270.4958,38.6637155 L270.4958,39.4297798 L269.729736,39.4297798 L269.729736,38.6637155 Z M274.115829,38.6637155 L274.881893,38.6637155 L274.881893,39.4297798 L274.115829,39.4297798 L274.115829,38.6637155 Z M275.587874,38.6637155 L276.353939,38.6637155 L276.353939,39.4297798 L275.587874,39.4297798 L275.587874,38.6637155 Z M262.399552,40.2709484 L263.165616,40.2709484 L263.165616,41.0370127 L262.399552,41.0370127 L262.399552,40.2709484 Z M263.871597,40.2709484 L264.637661,40.2709484 L264.637661,41.0370127 L263.871597,41.0370127 L263.871597,40.2709484 Z M268.25769,40.2709484 L269.023755,40.2709484 L269.023755,41.0370127 L268.25769,41.0370127 L268.25769,40.2709484 Z M269.729736,40.2709484 L270.4958,40.2709484 L270.4958,41.0370127 L269.729736,41.0370127 L269.729736,40.2709484 Z M274.115829,40.2709484 L274.881893,40.2709484 L274.881893,41.0370127 L274.115829,41.0370127 L274.115829,40.2709484 Z M275.587874,40.2709484 L276.353939,40.2709484 L276.353939,41.0370127 L275.587874,41.0370127 L275.587874,40.2709484 Z M262.399552,37.0414617 L263.165616,37.0414617 L263.165616,37.807526 L262.399552,37.807526 L262.399552,37.0414617 Z M263.871597,37.0414617 L264.637661,37.0414617 L264.637661,37.807526 L263.871597,37.807526 L263.871597,37.0414617 Z M268.25769,37.0414617 L269.023755,37.0414617 L269.023755,37.807526 L268.25769,37.807526 L268.25769,37.0414617 Z M269.729736,37.0414617 L270.4958,37.0414617 L270.4958,37.807526 L269.729736,37.807526 L269.729736,37.0414617 Z M274.115829,37.0414617 L274.881893,37.0414617 L274.881893,37.807526 L274.115829,37.807526 L274.115829,37.0414617 Z M275.587874,37.0414617 L276.353939,37.0414617 L276.353939,37.807526 L275.587874,37.807526 L275.587874,37.0414617 Z M260.942527,33.8269958 L261.708592,33.8269958 L261.708592,34.5930601 L260.942527,34.5930601 L260.942527,33.8269958 Z M262.399552,33.8269958 L263.165616,33.8269958 L263.165616,34.5930601 L262.399552,34.5930601 L262.399552,33.8269958 Z M263.871597,33.8269958 L264.637661,33.8269958 L264.637661,34.5930601 L263.871597,34.5930601 L263.871597,33.8269958 Z M265.328621,33.8269958 L266.094685,33.8269958 L266.094685,34.5930601 L265.328621,34.5930601 L265.328621,33.8269958 Z M266.800666,33.8269958 L267.56673,33.8269958 L267.56673,34.5930601 L266.800666,34.5930601 L266.800666,33.8269958 Z M268.25769,33.8269958 L269.023755,33.8269958 L269.023755,34.5930601 L268.25769,34.5930601 L268.25769,33.8269958 Z M269.729736,33.8269958 L270.4958,33.8269958 L270.4958,34.5930601 L269.729736,34.5930601 L269.729736,33.8269958 Z M271.18676,33.8269958 L271.952824,33.8269958 L271.952824,34.5930601 L271.18676,34.5930601 L271.18676,33.8269958 Z M272.658805,33.8269958 L273.424869,33.8269958 L273.424869,34.5930601 L272.658805,34.5930601 L272.658805,33.8269958 Z M274.115829,33.8269958 L274.881893,33.8269958 L274.881893,34.5930601 L274.115829,34.5930601 L274.115829,33.8269958 Z M275.587874,33.8269958 L276.353939,33.8269958 L276.353939,34.5930601 L275.587874,34.5930601 L275.587874,33.8269958 Z M277.059919,33.8269958 L277.825984,33.8269958 L277.825984,34.5930601 L277.059919,34.5930601 L277.059919,33.8269958 Z M259.485503,35.4342288 L260.251568,35.4342288 L260.251568,36.2002931 L259.485503,36.2002931 L259.485503,35.4342288 Z M260.942527,35.4342288 L261.708592,35.4342288 L261.708592,36.2002931 L260.942527,36.2002931 L260.942527,35.4342288 Z M262.399552,35.4342288 L263.165616,35.4342288 L263.165616,36.2002931 L262.399552,36.2002931 L262.399552,35.4342288 Z M263.871597,35.4342288 L264.637661,35.4342288 L264.637661,36.2002931 L263.871597,36.2002931 L263.871597,35.4342288 Z M265.328621,35.4342288 L266.094685,35.4342288 L266.094685,36.2002931 L265.328621,36.2002931 L265.328621,35.4342288 Z M266.800666,35.4342288 L267.56673,35.4342288 L267.56673,36.2002931 L266.800666,36.2002931 L266.800666,35.4342288 Z M268.25769,35.4342288 L269.023755,35.4342288 L269.023755,36.2002931 L268.25769,36.2002931 L268.25769,35.4342288 Z M269.729736,35.4342288 L270.4958,35.4342288 L270.4958,36.2002931 L269.729736,36.2002931 L269.729736,35.4342288 Z M271.18676,35.4342288 L271.952824,35.4342288 L271.952824,36.2002931 L271.18676,36.2002931 L271.18676,35.4342288 Z M272.658805,35.4342288 L273.424869,35.4342288 L273.424869,36.2002931 L272.658805,36.2002931 L272.658805,35.4342288 Z M274.115829,35.4342288 L274.881893,35.4342288 L274.881893,36.2002931 L274.115829,36.2002931 L274.115829,35.4342288 Z M275.587874,35.4342288 L276.353939,35.4342288 L276.353939,36.2002931 L275.587874,36.2002931 L275.587874,35.4342288 Z M277.059919,35.4342288 L277.825984,35.4342288 L277.825984,36.2002931 L277.059919,36.2002931 L277.059919,35.4342288 Z M278.516944,35.4342288 L279.283008,35.4342288 L279.283008,36.2002931 L278.516944,36.2002931 L278.516944,35.4342288 Z M265.328621,30.5975091 L266.094685,30.5975091 L266.094685,31.3635734 L265.328621,31.3635734 L265.328621,30.5975091 Z M266.800666,30.5975091 L267.56673,30.5975091 L267.56673,31.3635734 L266.800666,31.3635734 L266.800666,30.5975091 Z M268.25769,30.5975091 L269.023755,30.5975091 L269.023755,31.3635734 L268.25769,31.3635734 L268.25769,30.5975091 Z M269.729736,30.5975091 L270.4958,30.5975091 L270.4958,31.3635734 L269.729736,31.3635734 L269.729736,30.5975091 Z M271.18676,30.5975091 L271.952824,30.5975091 L271.952824,31.3635734 L271.18676,31.3635734 L271.18676,30.5975091 Z M272.658805,30.5975091 L273.424869,30.5975091 L273.424869,31.3635734 L272.658805,31.3635734 L272.658805,30.5975091 Z M268.25769,28.9752553 L269.023755,28.9752553 L269.023755,29.7413196 L268.25769,29.7413196 L268.25769,28.9752553 Z M269.729736,28.9752553 L270.4958,28.9752553 L270.4958,29.7413196 L269.729736,29.7413196 L269.729736,28.9752553 Z M262.399552,32.204742 L263.165616,32.204742 L263.165616,32.9708063 L262.399552,32.9708063 L262.399552,32.204742 Z M263.871597,32.204742 L264.637661,32.204742 L264.637661,32.9708063 L263.871597,32.9708063 L263.871597,32.204742 Z M265.328621,32.204742 L266.094685,32.204742 L266.094685,32.9708063 L265.328621,32.9708063 L265.328621,32.204742 Z M266.800666,32.204742 L267.56673,32.204742 L267.56673,32.9708063 L266.800666,32.9708063 L266.800666,32.204742 Z M268.25769,32.204742 L269.023755,32.204742 L269.023755,32.9708063 L268.25769,32.9708063 L268.25769,32.204742 Z M269.729736,32.204742 L270.4958,32.204742 L270.4958,32.9708063 L269.729736,32.9708063 L269.729736,32.204742 Z M271.18676,32.204742 L271.952824,32.204742 L271.952824,32.9708063 L271.18676,32.9708063 L271.18676,32.204742 Z M272.658805,32.204742 L273.424869,32.204742 L273.424869,32.9708063 L272.658805,32.9708063 L272.658805,32.204742 Z M274.115829,32.204742 L274.881893,32.204742 L274.881893,32.9708063 L274.115829,32.9708063 L274.115829,32.204742 Z M275.587874,32.204742 L276.353939,32.204742 L276.353939,32.9708063 L275.587874,32.9708063 L275.587874,32.204742 Z" id="Shape" fill="#63E54C"></path>
            <path d="M25.3402051,225.508299 L35.8097505,225.508299 L35.8097505,226.634864 L25.3402051,226.634864 L25.3402051,225.508299 Z M40.1057189,225.508299 L50.5752642,225.508299 L50.5752642,226.634864 L40.1057189,226.634864 L40.1057189,225.508299 Z M25.3402051,217.186738 L35.8097505,217.186738 L35.8097505,218.313303 L25.3402051,218.313303 L25.3402051,217.186738 Z M40.1057189,217.186738 L50.5752642,217.186738 L50.5752642,218.313303 L40.1057189,218.313303 L40.1057189,217.186738 Z M25.3402051,208.865176 L35.8097505,208.865176 L35.8097505,209.991742 L25.3402051,209.991742 L25.3402051,208.865176 Z M40.1057189,208.865176 L50.5752642,208.865176 L50.5752642,209.991742 L40.1057189,209.991742 L40.1057189,208.865176 Z" id="Shape" fill="#736F7F"></path>
            <path d="M56.1029438,238.906913 L19.8275464,238.906913 C19.5123061,238.906913 19.2567534,238.651361 19.2567534,238.33612 L19.2567534,191.200635 C19.2648972,190.891276 19.5180802,190.644756 19.8275464,190.644863 L47.3758192,190.644863 C47.5230666,190.644469 47.6641068,190.70414 47.7663618,190.810092 L56.4934864,199.537217 C56.5989223,199.645961 56.658141,199.791316 56.658716,199.942781 L56.658716,238.33612 C56.6627711,238.486105 56.6060118,238.631358 56.5013416,238.738857 C56.3966713,238.846356 56.2529836,238.906968 56.1029438,238.906913 L56.1029438,238.906913 Z M20.3833185,237.780348 L55.5772134,237.780348 L55.5772134,200.228177 L47.1805479,191.831512 L20.3833185,191.831512 L20.3833185,237.780348 Z" id="Shape" fill="#736F7F"></path>
            <path d="M56.1029438,200.498553 L47.3758192,200.498553 C47.2258343,200.502608 47.0805816,200.445849 46.9730824,200.341178 C46.8655832,200.236508 46.8049714,200.09282 46.8050262,199.942781 L46.8050262,191.200635 L47.9315914,191.200635 L47.9315914,199.371988 L56.1029438,199.371988 L56.1029438,200.498553 Z" id="Path" fill="#736F7F"></path>
            <path d="M138.912992,166.73164 C138.922375,166.347289 138.839986,165.966239 138.672658,165.620096 C138.50095,165.309044 138.265494,165.037758 137.981698,164.82399 C137.684139,164.60877 137.35469,164.441512 137.005342,164.328301 C136.61929,164.218832 136.219965,164.163229 135.818693,164.163072 C135.473673,164.161743 135.130068,164.20722 134.797274,164.29826 C134.491169,164.396779 134.198516,164.533013 133.926063,164.703823 C133.681135,164.872794 133.476076,165.093232 133.325229,165.34972 C133.171878,165.619528 133.094047,165.925665 133.099916,166.235952 L133.099916,166.341098 C133.090369,166.666094 133.168177,166.987701 133.325229,167.272392 C133.490683,167.53747 133.717335,167.758972 133.986147,167.918289 C134.329577,168.117429 134.698454,168.269022 135.08267,168.368915 C135.575981,168.502973 136.077833,168.603344 136.584757,168.669332 C137.683724,168.771807 138.72837,169.194889 139.588931,169.886023 C140.252903,170.491319 140.611104,171.362022 140.565287,172.25932 L140.565287,172.484633 C140.569658,172.999207 140.472682,173.509607 140.279891,173.98672 C140.090098,174.447455 139.797198,174.858543 139.423701,175.188389 C139.008748,175.538716 138.529009,175.804103 138.01174,175.969474 C136.655066,176.378643 135.20359,176.347089 133.86598,175.879349 C133.26623,175.666113 132.71846,175.328236 132.258747,174.887972 C131.83823,174.455917 131.506519,173.945593 131.282391,173.385885 C131.054888,172.781215 130.942798,172.139243 130.951932,171.493256 L130.951932,170.937483 L132.454018,170.937483 L132.454018,171.38811 C132.381333,172.341117 132.726728,173.278619 133.400333,173.956678 C134.130439,174.565007 135.065436,174.871299 136.013964,174.812868 C136.79943,174.873581 137.579843,174.643734 138.207011,174.16697 C138.694147,173.739947 138.964244,173.117069 138.943034,172.469612 L138.943034,172.349445 C138.952882,171.756172 138.672517,171.195443 138.19199,170.847358 C137.439439,170.406397 136.597714,170.139509 135.728568,170.066273 C135.12626,169.987388 134.532786,169.851593 133.956105,169.66071 C133.470678,169.499066 133.014272,169.26072 132.604227,168.954729 C132.242429,168.674072 131.949573,168.314425 131.748038,167.903268 C131.533739,167.432331 131.430936,166.918315 131.44762,166.401181 L131.44762,166.175868 C131.441519,165.691902 131.549587,165.213313 131.763058,164.778927 C131.97959,164.35615 132.281338,163.982801 132.64929,163.682404 C133.051204,163.351696 133.516301,163.106369 134.016189,162.961402 C134.580396,162.787133 135.168123,162.701 135.758609,162.706048 C136.429238,162.694574 137.096253,162.806592 137.726343,163.036507 C138.276444,163.217759 138.786445,163.503359 139.22843,163.877675 C140.00521,164.580126 140.447425,165.579203 140.44512,166.626494 L140.44512,167.407579 L138.943034,167.407579 L138.912992,166.73164 Z" id="Path" fill="#B4B1BD"></path>
            <path d="M215.264066,199.957801 L122.390036,199.957801 C122.074796,199.957801 121.819243,199.702249 121.819243,199.387008 L121.819243,139.694077 C121.819189,139.544037 121.8798,139.400349 121.9873,139.295679 C122.094799,139.191009 122.240052,139.13425 122.390036,139.138305 L215.264066,139.138305 C215.414051,139.13425 215.559304,139.191009 215.666803,139.295679 C215.774302,139.400349 215.834914,139.544037 215.834859,139.694077 L215.834859,199.41705 C215.818866,199.720501 215.567938,199.958223 215.264066,199.957801 L215.264066,199.957801 Z M122.945809,198.831236 L214.708294,198.831236 L214.708294,140.249849 L122.945809,140.249849 L122.945809,198.831236 Z" id="Shape" fill="#736F7F"></path>
            <path d="M204.884646,166.806745 C204.913465,166.080258 204.641816,165.373968 204.133603,164.854032 C203.572483,164.345359 202.832185,164.080581 202.075744,164.118009 C201.674065,164.114027 201.275667,164.190642 200.904116,164.343322 C200.55337,164.485815 200.239928,164.706765 199.987843,164.98922 C199.730472,165.278812 199.531547,165.615455 199.402029,165.980597 C199.248404,166.388535 199.172,166.82149 199.176716,167.257371 L199.176716,169.195063 L199.402029,169.195063 C199.693896,168.650168 200.137359,168.201487 200.678803,167.903268 C201.247793,167.586653 201.890345,167.426015 202.541391,167.437621 C203.104367,167.438234 203.663124,167.534746 204.193686,167.723018 C204.687774,167.907224 205.134315,168.199785 205.500502,168.579207 C205.880531,168.965327 206.177079,169.425488 206.371712,169.931085 C206.577316,170.504317 206.679047,171.10962 206.67213,171.718569 L206.67213,171.943882 C206.677743,172.551961 206.560224,173.154886 206.32665,173.716344 C206.111191,174.238022 205.788829,174.708774 205.380335,175.098264 C204.952221,175.502297 204.438923,175.805143 203.878248,175.984495 C202.722028,176.424478 201.44448,176.424478 200.28826,175.984495 C199.209088,175.613725 198.339934,174.799235 197.899942,173.746386 C197.667551,173.195097 197.549997,172.602217 197.554462,172.003965 L197.554462,167.257371 C197.544674,166.618271 197.667422,165.984077 197.914963,165.394783 C198.118149,164.828055 198.446779,164.31457 198.876299,163.892696 C199.287192,163.500243 199.772346,163.19383 200.303281,162.991444 C200.856464,162.766959 201.448739,162.654631 202.045702,162.660985 C202.633294,162.660294 203.216959,162.756726 203.773102,162.946381 C204.285777,163.116303 204.756721,163.392727 205.155022,163.757508 C205.547743,164.115747 205.855632,164.557055 206.056274,165.049303 C206.285055,165.580125 206.397725,166.15372 206.386733,166.73164 L204.884646,166.806745 Z M202.150848,174.933034 C202.565539,174.934035 202.977242,174.862876 203.367539,174.722742 C203.718061,174.585688 204.03549,174.375775 204.298832,174.106887 C204.568079,173.846804 204.77369,173.528107 204.899667,173.175593 C205.041252,172.796098 205.112513,172.393983 205.109959,171.988944 L205.109959,171.763631 C205.115966,171.356907 205.039313,170.953199 204.884646,170.576983 C204.738534,170.226761 204.529841,169.906088 204.268791,169.630668 C203.997704,169.367854 203.675643,169.163371 203.322476,169.029833 C202.947794,168.889716 202.550871,168.818473 202.150848,168.819541 C201.744124,168.813534 201.340416,168.890187 200.9642,169.044854 C200.615494,169.185388 200.298739,169.394855 200.032906,169.66071 C199.759653,169.917628 199.544545,170.230048 199.402029,170.576983 C199.24962,170.927538 199.172845,171.306293 199.176716,171.688527 L199.176716,172.049028 C199.176956,172.439165 199.248215,172.826 199.387008,173.190614 C199.516873,173.536809 199.722106,173.849788 199.987843,174.106887 C200.251185,174.375775 200.568615,174.585688 200.919137,174.722742 C201.314258,174.864302 201.731142,174.935477 202.150848,174.933034 L202.150848,174.933034 Z M184.756682,169.735814 L184.756682,162.841235 L192.913014,162.841235 L192.913014,164.343322 L186.258769,164.343322 L186.258769,168.999791 L186.484082,168.999791 C186.614217,168.740705 186.775646,168.498563 186.96475,168.27879 C187.16621,168.047556 187.398742,167.845354 187.65571,167.677955 C187.938713,167.493326 188.247483,167.351596 188.571983,167.257371 C188.931854,167.145715 189.306739,167.089989 189.683527,167.092141 C190.248251,167.08786 190.808748,167.189768 191.335823,167.392558 C191.816763,167.586778 192.255463,167.872443 192.627618,168.233727 C192.997478,168.604776 193.284208,169.050232 193.468786,169.540543 C193.677213,170.081727 193.779218,170.658055 193.769204,171.237901 L193.769204,171.56836 C193.772265,172.167206 193.670595,172.761976 193.468786,173.325802 C193.281019,173.879386 192.984852,174.390019 192.597576,174.827888 C192.181941,175.279169 191.667964,175.628673 191.095489,175.849307 C190.473362,176.111723 189.802798,176.239693 189.127755,176.224829 C188.442157,176.240141 187.759671,176.128091 187.114959,175.89437 C186.553754,175.694246 186.041673,175.376756 185.612872,174.963076 C185.210779,174.565634 184.902822,174.083168 184.71162,173.551115 C184.497636,172.990143 184.390645,172.394046 184.396182,171.793673 L184.396182,171.237901 L185.898268,171.237901 L185.898268,171.643464 C185.838895,172.508929 186.156541,173.357809 186.769479,173.971699 C187.402477,174.502868 188.212198,174.776349 189.03763,174.737763 C189.487997,174.746752 189.93462,174.654347 190.344446,174.467388 C191.088517,174.127827 191.640189,173.471338 191.846532,172.679904 C191.979607,172.27269 192.045559,171.846541 192.041804,171.418151 L192.041804,171.237901 C192.04081,170.868723 191.974707,170.502613 191.846532,170.156398 C191.720656,169.83558 191.537417,169.540362 191.305781,169.285188 C191.071735,169.030604 190.784563,168.830609 190.464612,168.699374 C190.129332,168.548836 189.76565,168.472001 189.398131,168.474061 C189.152673,168.472331 188.908758,168.512984 188.677129,168.594228 C188.472994,168.658638 188.280345,168.754962 188.106336,168.879624 C187.949493,168.991268 187.812416,169.128344 187.700773,169.285188 C187.60903,169.413473 187.538063,169.555407 187.490481,169.705772 L184.756682,169.735814 Z M165.229553,172.739988 L159.64179,172.739988 L158.695476,175.984495 L157.013138,175.984495 L160.963627,162.946381 L163.9678,162.946381 L167.918289,175.984495 L166.250972,175.984495 L165.229553,172.739988 Z M162.22538,163.727467 L159.972249,171.40313 L164.703823,171.40313 L162.450693,163.727467 L162.22538,163.727467 Z M180.56586,174.722742 L180.56586,176.224829 L171.733589,176.224829 L171.733589,173.941657 C171.724275,173.426651 171.821437,172.915272 172.018986,172.43957 C172.21569,171.99996 172.508227,171.609911 172.875175,171.297984 C173.272823,170.959282 173.724792,170.690132 174.212033,170.501878 C174.78261,170.275394 175.370271,170.094575 175.969474,169.961127 C176.850744,169.82422 177.679998,169.456238 178.372813,168.894645 C178.856477,168.465099 179.125832,167.843934 179.108836,167.197287 L179.108836,167.092141 C179.105344,166.755127 179.049605,166.420693 178.943606,166.100764 C178.827488,165.778552 178.64882,165.482474 178.417876,165.229553 C178.161216,164.962802 177.855113,164.74853 177.516624,164.598677 C177.094455,164.439806 176.645748,164.363322 176.194787,164.373364 C175.361723,164.322878 174.548645,164.641517 173.971699,165.244574 C173.421898,165.892306 173.137494,166.724053 173.175593,167.572809 L173.175593,168.398957 L171.673506,168.398957 L171.673506,167.467663 C171.672921,166.88371 171.774596,166.304165 171.973923,165.755284 C172.356794,164.64086 173.198972,163.743996 174.287137,163.291861 C174.911368,163.036466 175.580457,162.908777 176.254871,162.91634 C176.931871,162.902736 177.605123,163.020046 178.237626,163.26182 C178.760239,163.470028 179.235393,163.781689 179.634566,164.178093 C179.996186,164.541243 180.277626,164.976196 180.460714,165.454866 C180.642351,165.9347 180.734007,166.443899 180.73109,166.956953 L180.73109,167.287412 C180.748949,168.22478 180.416922,169.135175 179.799796,169.84096 C178.985722,170.651314 177.93235,171.178 176.795622,171.343047 C175.857945,171.505835 174.963427,171.858531 174.16697,172.379487 C173.59218,172.826838 173.276997,173.530374 173.325802,174.257095 L173.325802,174.812868 L180.56586,174.722742 Z M144.425651,163.006465 L145.927737,163.006465 L145.927737,168.774478 L151.485459,168.774478 L151.485459,163.006465 L152.987546,163.006465 L152.987546,176.044579 L151.485459,176.044579 L151.485459,170.231503 L145.927737,170.231503 L145.927737,176.044579 L144.425651,176.044579 L144.425651,163.006465 Z" id="Shape" fill="#B4B1BD"></path>
            <polygon id="Path" fill="#8F8B9B" points="198.801195 147.865429 205.485481 147.865429 205.485481 154.549716 198.801195 154.549716"></polygon>
            <circle id="Oval" fill="#FFE000" cx="135.788651" cy="151.200062" r="3.8153006"></circle>
            <circle id="Oval" fill="#FFE000" cx="189.142776" cy="151.200062" r="3.8153006"></circle>
            <polygon id="Path" fill="#D0CED5" points="159.025935 147.865429 165.710221 147.865429 165.710221 154.549716 159.025935 154.549716"></polygon>
            <polygon id="Path" fill="#736F7F" points="176.149725 147.760283 172.169195 154.654862 180.115234 154.654862"></polygon>
            <polygon id="Path" fill="#8F8B9B" points="148.766682 147.760283 144.786151 154.654862 152.747212 154.654862 148.766682 147.760283"></polygon>
            <circle id="Oval" fill="#FFE000" cx="162.390609" cy="187.850981" r="3.8153006"></circle>
            <polygon id="Path" fill="#8F8B9B" points="144.966402 184.516349 151.650688 184.516349 151.650688 191.200635 144.966402 191.200635"></polygon>
            <polygon id="Path" fill="#736F7F" points="135.458192 184.411202 131.492683 191.29076 139.438722 191.29076"></polygon>
            <circle id="Oval" fill="#FFE000" cx="189.142776" cy="187.850981" r="3.8153006"></circle>
            <polygon id="Path" fill="#736F7F" points="202.496328 184.411202 198.515798 191.29076 206.476858 191.29076"></polygon>
            <polygon id="Path" fill="#D0CED5" points="172.95028 184.516349 179.634566 184.516349 179.634566 191.200635 172.95028 191.200635"></polygon>
            <path d="M122.480162,165.665159 L117.973901,165.665159 C117.826501,165.665159 117.685138,165.606604 117.580911,165.502377 C117.476683,165.398149 117.418129,165.256786 117.418129,165.109386 L117.418129,151.815918 C117.418022,151.506452 117.664542,151.253269 117.973901,151.245125 L122.480162,151.245125 L122.480162,152.37169 L118.574736,152.37169 L118.574736,164.538593 L122.480162,164.538593 L122.480162,165.665159 Z M122.480162,187.760856 L117.973901,187.760856 C117.664542,187.752712 117.418022,187.499529 117.418129,187.190063 L117.418129,173.941657 C117.426019,173.638041 117.670285,173.393775 117.973901,173.385885 L122.480162,173.385885 L122.480162,174.51245 L118.574736,174.51245 L118.574736,186.679354 L122.480162,186.679354 L122.480162,187.760856 Z M219.30468,335.476077 L214.798419,335.476086 L214.798419,334.349512 L218.718866,334.349512 L218.718866,322.182608 L214.798419,322.182608 L214.798419,321.056043 L219.30468,321.056043 C219.614146,321.055936 219.867329,321.302456 219.875473,321.611815 L219.875473,334.965367 C219.844615,335.256937 219.597873,335.477705 219.30468,335.476077 L219.30468,335.476077 Z M219.30468,313.335317 L214.798419,313.335317 L214.798419,312.208752 L218.718866,312.208752 L218.718866,300.041848 L214.798419,300.041848 L214.798419,298.915283 L219.30468,298.915283 C219.61992,298.915283 219.875473,299.170836 219.875473,299.486076 L219.875473,312.779545 C219.867329,313.088904 219.614146,313.335424 219.30468,313.335317 L219.30468,313.335317 Z M219.710243,176.735539 L215.203983,176.735539 L215.203983,175.608974 L219.109409,175.608974 L219.109409,163.44207 L215.203983,163.44207 L215.203983,162.315505 L219.710243,162.315505 C220.01971,162.315398 220.272893,162.561918 220.281036,162.871277 L220.281036,176.179767 C220.272893,176.489126 220.01971,176.735646 219.710243,176.735539 L219.710243,176.735539 Z" id="Shape" fill="#736F7F"></path>
            <polygon id="Path" fill="#B4B1BD" points="254.288283 169.525522 250.337794 167.24235 250.337794 171.808694 254.288283 169.525522"></polygon>
            <path d="M227.761429,168.96975 L250.848504,168.96975 L250.848504,170.096315 L227.761429,170.096315 L227.761429,168.96975 Z M81.9688794,316.820158 L85.9193678,319.10333 L85.9193678,314.536986 L81.9688794,316.820158 L81.9688794,316.820158 Z" id="Shape" fill="#B4B1BD"></path>
            <path d="M85.4086583,316.264386 L108.495733,316.264386 L108.495733,317.390951 L85.4086583,317.390951 L85.4086583,316.264386 Z M241.835983,37.7624634 L237.885494,35.4792914 L237.885494,40.0456354 L241.835983,37.7624634 Z" id="Shape" fill="#B4B1BD"></path>
            <path d="M215.294108,37.1916704 L238.381183,37.1916704 L238.381183,38.3182355 L215.294108,38.3182355 L215.294108,37.1916704 Z M37.9427138,93.0993429 L40.210865,89.1488545 L35.6595418,89.1488545 L37.9427138,93.0993429 Z" id="Shape" fill="#B4B1BD"></path>
            <path d="M38.4984859,89.3591467 L37.3719208,89.3591467 L37.3719208,37.7624634 C37.3719208,37.4472231 37.6274735,37.1916704 37.9427138,37.1916704 L117.388087,37.1916704 L117.388087,38.3182355 L38.4984859,38.3182355 L38.4984859,89.3591467 Z M228.632639,328.581498 L232.583128,326.313347 L232.583128,330.86467 L228.632639,328.581498 Z M228.632639,306.200404 L232.583128,303.932253 L232.583128,308.483576 L228.632639,306.200404 Z" id="Shape" fill="#B4B1BD"></path>
            <path d="M352.164262,329.12225 L232.583128,329.12225 L232.583128,327.995684 L351.60849,327.995684 L351.60849,38.3182355 L326.073013,38.3182355 L326.073013,37.1916704 L352.13422,37.1916704 C352.44946,37.1916704 352.705013,37.4472231 352.705013,37.7624634 L352.705013,328.566477 C352.705123,328.86765 352.465325,329.11411 352.164262,329.12225 Z" id="Path" fill="#B4B1BD"></path>
            <path d="M328.205977,306.786218 L232.072418,306.786218 L232.072418,305.659653 L327.620163,305.659653 L327.620163,170.096315 L312.103606,170.096315 L312.103606,168.96975 L328.205977,168.96975 C328.355962,168.965695 328.501214,169.022454 328.608713,169.127124 C328.716213,169.231794 328.776824,169.375482 328.77677,169.525522 L328.77677,306.215425 C328.77677,306.530665 328.521217,306.786218 328.205977,306.786218 L328.205977,306.786218 Z M107.939961,180.445693 L104.319932,178.342772 L104.319932,182.533594 L107.939961,180.445693 Z" id="Shape" fill="#B4B1BD"></path>
            <path d="M84.522427,216.300506 L77.0119928,216.300507 L77.0119928,215.173941 L83.9666549,215.173941 L83.9666549,180.445693 C83.9665477,180.136227 84.2130679,179.883044 84.522427,179.8749 L104.785579,179.8749 L104.785579,181.001465 L85.09322,181.001465 L85.09322,215.759755 C85.0772271,216.063206 84.8262984,216.300927 84.522427,216.300506 L84.522427,216.300506 Z M107.939961,157.749161 L104.319932,159.837062 L104.319932,155.646239 L107.939961,157.749161 Z" id="Shape" fill="#B4B1BD"></path>
            <path d="M104.785579,158.304933 L84.522427,158.304933 C84.2130679,158.296789 83.9665477,158.043606 83.9666549,157.73414 L83.9666549,122.990871 L76.9969719,122.990871 L76.9969719,121.864306 L84.5074061,121.864306 C84.8168724,121.864199 85.0700553,122.110719 85.0781991,122.420078 L85.0781991,157.178368 L104.785579,157.178368 L104.785579,158.304933 Z" id="Path" fill="#B4B1BD"></path>
            <path d="M263.826534,200.813991 L265.869372,200.813991 C267.012424,200.813991 268.068647,201.423802 268.640173,202.413713 C269.211699,203.403625 269.211699,204.623247 268.640173,205.613158 C268.068647,206.60307 267.012424,207.212881 265.869372,207.212881 L263.766451,207.212881 L263.826534,200.813991 Z M265.929456,206.026232 C266.969863,205.936102 267.768535,205.06525 267.768535,204.020946 C267.768535,202.976643 266.969863,202.10579 265.929456,202.01566 L265.13335,202.01566 L265.13335,206.026232 L265.929456,206.026232 Z M271.622365,200.813991 L272.929181,200.813991 L272.929181,207.287985 L271.622365,207.287985 L271.622365,200.813991 Z M278.80234,207.287985 C277.898801,207.328917 277.017681,206.999401 276.362724,206.375631 C275.707766,205.751862 275.335685,204.887854 275.332519,203.983394 C275.32402,203.093887 275.67777,202.2392 276.312416,201.615887 C276.947063,200.992573 277.807984,200.654279 278.697194,200.678803 C279.668232,200.64872 280.606712,201.030659 281.280783,201.730264 L280.36451,202.631516 C279.934804,202.170928 279.326734,201.918936 278.697194,201.940556 C277.923091,201.897239 277.190344,202.29268 276.801652,202.963522 C276.412959,203.634365 276.434302,204.466733 276.856863,205.116774 C277.279425,205.766816 278.031474,206.124185 278.80234,206.041253 C279.273233,206.069867 279.741126,205.94895 280.139197,205.695773 L280.139197,204.584229 L278.757277,204.584229 L278.757277,203.352518 L281.415971,203.352518 L281.415971,206.356691 C280.704777,207.004849 279.763153,207.34037 278.80234,207.287985 L278.80234,207.287985 Z M283.894415,200.813991 L287.874945,200.813991 L287.874945,202.060723 L285.246293,202.060723 L285.246293,203.382559 L287.379256,203.382559 L287.379256,204.629291 L285.246293,204.629291 L285.246293,205.98117 L287.920007,205.98117 L287.920007,207.287985 L283.894415,207.287985 L283.894415,200.813991 Z M290.939202,205.350293 C291.252542,205.807994 291.766616,206.087381 292.321122,206.101337 C292.846852,206.101337 293.177311,205.845982 293.177311,205.485481 C293.177311,205.12498 292.921956,204.869625 292.29108,204.644312 L291.750329,204.464062 C290.72891,204.103561 290.248242,203.502726 290.248242,202.631516 C290.248777,202.078692 290.485415,201.55242 290.8986,201.185143 C291.311786,200.817867 291.862173,200.644563 292.411247,200.708845 C293.181113,200.687557 293.919905,201.012846 294.424043,201.595076 L293.567854,202.481307 C293.285294,202.142038 292.867777,201.944267 292.426268,201.940556 C291.975642,201.940556 291.570078,202.120806 291.570078,202.511349 C291.570078,202.901892 291.885517,203.067121 292.561456,203.307455 L293.072165,203.502726 C293.949929,203.710899 294.570843,204.493251 294.574252,205.395356 C294.552749,205.9548 294.299211,206.480011 293.874538,206.84483 C293.449866,207.20965 292.892434,207.381111 292.336143,207.318027 C291.412249,207.358322 290.530612,206.928807 289.992887,206.176441 L290.939202,205.350293 Z M297.99901,202.060723 L296.286631,202.060723 L296.286631,200.813991 L301.033225,200.813991 L301.033225,202.060723 L299.305826,202.060723 L299.305826,207.287985 L297.99901,207.287985 L297.99901,202.060723 Z" id="Shape" fill="#736F7F"></path>
            <circle id="Oval" fill="#FFE000" cx="282.707766" cy="169.31523" r="19.8575881"></circle>
            <path d="M145.311882,364.165936 C145.618085,364.631472 146.136603,364.913275 146.693802,364.916979 C147.204511,364.916979 147.549991,364.676645 147.549991,364.301124 C147.549991,363.925602 147.279616,363.685268 146.648739,363.474976 L146.123009,363.279705 C145.086569,362.919204 144.620922,362.33339 144.620922,361.462179 C144.61712,360.910704 144.850311,360.384148 145.261227,360.016335 C145.672144,359.648521 146.221219,359.474868 146.768906,359.539508 C147.523817,359.563134 148.231097,359.914033 148.706598,360.500844 L147.835388,361.387075 C147.55571,361.042192 147.137772,360.838722 146.693802,360.831303 C146.258197,360.831303 145.837612,361.026574 145.837612,361.402096 C145.837612,361.777618 146.15305,361.957868 146.82899,362.213223 L147.339699,362.393473 C148.216721,362.61259 148.834502,363.397173 148.841786,364.301124 C148.816221,364.86187 148.559364,365.386934 148.132368,365.751304 C147.705373,366.115673 147.146443,366.286747 146.588656,366.223795 C145.669996,366.258946 144.795184,365.830005 144.260421,365.082209 L145.311882,364.165936 Z M151.275167,359.644654 L152.581982,359.644654 L152.581982,366.043544 L151.275167,366.043544 L151.275167,359.644654 Z M158.455142,366.14869 C157.550448,366.193982 156.666824,365.86592 156.010881,365.241213 C155.354938,364.616505 154.984188,363.749925 154.985321,362.844099 C154.972538,361.953297 155.324929,361.096082 155.960536,360.471825 C156.596143,359.847568 157.459568,359.510678 158.349996,359.539508 C159.314598,359.504104 160.248662,359.881007 160.918564,360.575948 L160.017312,361.4772 C159.577479,361.033183 158.974857,360.788876 158.349996,360.801261 C157.62016,360.817361 156.954353,361.2216 156.603377,361.861706 C156.252402,362.501812 156.26958,363.280537 156.64844,363.904544 C157.0273,364.52855 157.710285,364.903037 158.440121,364.886937 C158.915565,364.913671 159.387675,364.79302 159.791999,364.541457 L159.791999,363.505018 L158.410079,363.505018 L158.410079,362.288327 L161.053752,362.288327 L161.053752,365.292501 C160.337875,365.91564 159.401224,366.224247 158.455142,366.14869 L158.455142,366.14869 Z M168.233727,366.043544 L164.944157,361.867743 L164.944157,366.043544 L163.637341,366.043544 L163.637341,359.644654 L164.763907,359.644654 L168.053477,363.820456 L168.053477,359.644654 L169.360292,359.644654 L169.360292,366.043544 L168.233727,366.043544 Z M172.079069,359.644654 L173.370864,359.644654 L173.370864,366.043544 L172.079069,366.043544 L172.079069,359.644654 Z M180.746111,366.043544 L177.45654,361.867743 L177.45654,366.043544 L176.149725,366.043544 L176.149725,359.644654 L177.246248,359.644654 L180.535818,363.820456 L180.535818,359.644654 L181.842634,359.644654 L181.842634,366.043544 L180.746111,366.043544 Z M187.760856,366.14869 C186.856163,366.193982 185.972539,365.86592 185.316596,365.241213 C184.660653,364.616505 184.289903,363.749925 184.291036,362.844099 C184.278252,361.953297 184.630644,361.096082 185.266251,360.471825 C185.901858,359.847568 186.765282,359.510678 187.65571,359.539508 C188.620313,359.504104 189.554377,359.881007 190.224279,360.575948 L189.323026,361.4772 C188.883193,361.033183 188.280571,360.788876 187.65571,360.801261 C186.925874,360.817361 186.260067,361.2216 185.909092,361.861706 C185.558116,362.501812 185.575294,363.280537 185.954154,363.904544 C186.333015,364.52855 187.016,364.903037 187.745835,364.886937 C188.22128,364.913671 188.693389,364.79302 189.097713,364.541457 L189.097713,363.505018 L187.760856,363.505018 L187.760856,362.288327 L190.404529,362.288327 L190.404529,365.292501 C189.677431,365.927348 188.722078,366.236752 187.760856,366.14869 L187.760856,366.14869 Z M137.771406,370.45968 L138.928013,370.45968 L141.691852,376.85857 L140.324953,376.85857 L139.709098,375.356483 L136.9753,375.356483 L136.359444,376.85857 L135.007566,376.85857 L137.771406,370.45968 Z M139.273493,374.244939 L138.387261,372.172059 L137.50103,374.244939 L139.273493,374.244939 Z M143.764732,370.45968 L145.071548,370.45968 L145.071548,375.611838 L147.805346,375.611838 L147.805346,376.85857 L143.764732,376.85857 L143.764732,370.45968 Z M152.867379,377.023799 C151.96384,377.064731 151.08272,376.735215 150.427762,376.111445 C149.772804,375.487676 149.400724,374.623668 149.397558,373.719208 C149.384775,372.828405 149.737166,371.971191 150.372773,371.346934 C151.00838,370.722677 151.871805,370.385787 152.762233,370.414617 C153.727173,370.37728 154.661997,370.75449 155.330801,371.451057 L154.429549,372.352309 C153.99385,371.902125 153.388421,371.656681 152.762233,371.67637 C152.032397,371.695152 151.368021,372.101871 151.019369,372.743319 C150.670717,373.384766 150.690758,374.163492 151.071942,374.786157 C151.453126,375.408822 152.137543,375.780829 152.867379,375.762046 C153.338073,375.78862 153.805351,375.667863 154.204236,375.416566 L154.204236,374.305022 L152.822316,374.305022 L152.822316,373.088332 L155.465989,373.088332 L155.465989,376.092505 C154.762109,376.742802 153.824086,377.078972 152.867379,377.023799 L152.867379,377.023799 Z M160.933585,377.023799 C159.10851,377.023799 157.628994,375.544283 157.628994,373.719208 C157.628994,371.894133 159.10851,370.414617 160.933585,370.414617 C162.75866,370.414617 164.238176,371.894133 164.238176,373.719208 C164.238176,375.544283 162.75866,377.023799 160.933585,377.023799 L160.933585,377.023799 Z M160.933585,375.762046 C161.763691,375.780362 162.522303,375.294421 162.852742,374.532698 C163.183182,373.770975 163.019704,372.885027 162.439171,372.291399 C161.858638,371.697771 160.976556,371.514576 160.207653,371.827945 C159.43875,372.141315 158.936012,372.8889 158.93581,373.719208 C158.952111,374.813273 159.839428,375.693919 160.933585,375.701963 L160.933585,375.762046 Z M166.626494,370.45968 L169.089917,370.45968 C169.6058,370.430097 170.110498,370.617907 170.481546,370.977538 C170.852594,371.337169 171.05608,371.835753 171.04263,372.352309 C171.067473,373.150952 170.517264,373.852942 169.735814,374.019625 L172.034007,376.85857 L170.53192,376.85857 L168.233727,374.169834 L167.903268,374.169834 L167.903268,376.85857 L166.596452,376.85857 L166.626494,370.45968 Z M168.924687,373.043269 C169.420376,373.043269 169.750835,372.787914 169.750835,372.352309 C169.750835,371.916704 169.420376,371.661349 168.924687,371.661349 L167.93331,371.661349 L167.93331,373.043269 L168.924687,373.043269 Z M173.896595,370.45968 L175.20341,370.45968 L175.20341,376.85857 L173.896595,376.85857 L173.896595,370.45968 Z M179.153899,371.706412 L177.45654,371.706412 L177.45654,370.45968 L182.203135,370.45968 L182.203135,371.706412 L180.475735,371.706412 L180.475735,376.85857 L179.153899,376.85857 L179.153899,371.706412 Z M184.456265,370.45968 L185.763081,370.45968 L185.763081,373.013227 L188.52692,373.013227 L188.52692,370.45968 L189.833736,370.45968 L189.833736,376.85857 L188.52692,376.85857 L188.52692,374.244939 L185.763081,374.244939 L185.763081,376.85857 L184.456265,376.85857 L184.456265,370.45968 Z M193.919412,372.697789 L193.919412,376.85857 L192.612597,376.85857 L192.612597,370.45968 L193.769204,370.45968 L195.857104,373.313645 L197.929984,370.45968 L199.131654,370.45968 L199.131654,376.85857 L197.824838,376.85857 L197.824838,372.697789 L195.857104,375.386525 L193.919412,372.697789 Z M2.37329722,360.891386 L0.675939082,360.891386 L0.675939082,359.644654 L5.40751266,359.644654 L5.40751266,360.891386 L3.69513365,360.891386 L3.69513365,366.043544 L2.37329722,366.043544 L2.37329722,360.891386 Z M7.66064293,359.644654 L9.0125211,359.644654 L9.0125211,366.043544 L7.66064293,366.043544 L7.66064293,359.644654 Z M13.0531347,361.882764 L13.0531347,366.043544 L11.7463192,366.043544 L11.7463192,359.644654 L12.9329678,359.644654 L15.0208685,362.498619 L17.0937483,359.644654 L18.280397,359.644654 L18.280397,366.043544 L16.9735814,366.043544 L16.9735814,361.882764 L15.0208685,364.571499 L13.0531347,361.882764 Z M21.0292159,359.644654 L25.0247669,359.644654 L25.0247669,360.891386 L22.3660732,360.891386 L22.3660732,362.198202 L24.5140574,362.198202 L24.5140574,363.505018 L22.3660732,363.505018 L22.3660732,364.856896 L25.0548086,364.856896 L25.0548086,366.103628 L21.0292159,366.103628 L21.0292159,359.644654 Z M27.1727511,362.243265 L29.7413196,362.243265 L29.7413196,363.505018 L27.1727511,363.505018 L27.1727511,362.243265 Z M32.8506394,364.165936 C33.1568421,364.631472 33.6753606,364.913275 34.2325593,364.916979 C34.7432688,364.916979 35.0887488,364.676645 35.0887488,364.301124 C35.0887488,363.925602 34.833394,363.685268 34.2025176,363.474976 L33.6617663,363.279705 C32.6253264,362.919204 32.0845751,362.33339 32.0845751,361.462179 C32.0851105,360.909356 32.321748,360.383083 32.7349337,360.015807 C33.1481195,359.648531 33.6985063,359.475226 34.2475802,359.539508 C35.0170272,359.520351 35.7549495,359.845258 36.2603765,360.425739 L35.3891662,361.311971 C35.1180924,360.95642 34.6946396,360.750265 34.2475802,360.756199 C33.811975,360.756199 33.3913907,360.95147 33.3913907,361.326992 C33.3913907,361.702513 33.7068289,361.882764 34.382768,362.138118 L34.8934775,362.318369 C35.770499,362.537486 36.3882808,363.322069 36.3955644,364.226019 C36.3744392,364.788404 36.1188318,365.31626 35.6907314,365.681572 C35.2626311,366.046885 34.7011415,366.216285 34.1424341,366.14869 C33.2342711,366.173673 32.3730278,365.745866 31.8442412,365.007104 L32.8506394,364.165936 Z M39.8954267,360.891386 L38.1980686,360.891386 L38.1980686,359.644654 L42.944663,359.644654 L42.944663,360.891386 L41.2172631,360.891386 L41.2172631,366.043544 L39.8954267,366.043544 L39.8954267,360.891386 Z M46.5646923,359.644654 L47.7363201,359.644654 L50.5001599,366.043544 L49.1332608,366.043544 L48.5023844,364.541457 L45.8286698,364.541457 L45.2128142,366.043544 L43.860936,366.043544 L46.5646923,359.644654 Z M48.0667792,363.505018 L47.1805479,361.432138 L46.3093376,363.505018 L48.0667792,363.505018 Z M53.909897,361.882764 L53.909897,366.043544 L52.5730397,366.043544 L52.5730397,359.644654 L53.7747092,359.644654 L55.8475891,362.498619 L57.9354898,359.644654 L59.1221384,359.644654 L59.1221384,366.043544 L57.8153228,366.043544 L57.8153228,361.882764 L55.8475891,364.571499 L53.909897,361.882764 Z M66.3021135,361.792639 C66.3026256,362.382265 66.0624085,362.946546 65.6370591,363.354881 C65.2117097,363.763217 64.6380982,363.980212 64.0489833,363.955644 L63.2378564,363.955644 L63.2378564,366.043544 L61.9310408,366.043544 L61.9310408,359.644654 L64.0489833,359.644654 C64.6366537,359.615852 65.2104129,359.829377 65.6362755,360.235366 C66.0621382,360.641355 66.3028189,361.204263 66.3021135,361.792639 Z M65.0253397,361.792639 C65.0262033,361.536037 64.9194279,361.290832 64.730985,361.116665 C64.542542,360.942498 64.2897013,360.855331 64.0339624,360.876366 L63.2378564,360.876366 L63.2378564,362.723932 L64.0339624,362.723932 C64.2911918,362.740563 64.5438093,362.649837 64.7316819,362.473351 C64.9195545,362.296864 65.0258768,362.050404 65.0253397,361.792639 L65.0253397,361.792639 Z M68.6003064,359.644654 L72.5958574,359.644654 L72.5958574,360.891386 L69.907122,360.891386 L69.907122,362.198202 L72.1001688,362.198202 L72.1001688,363.505018 L69.907122,363.505018 L69.907122,364.856896 L72.5958574,364.856896 L72.5958574,366.103628 L68.6003064,366.103628 L68.6003064,359.644654 Z M75.1043425,359.644654 L77.2222849,359.644654 C78.3653366,359.644654 79.42156,360.254465 79.9930859,361.244377 C80.5646118,362.234288 80.5646118,363.45391 79.9930859,364.443822 C79.42156,365.433734 78.3653366,366.043544 77.2222849,366.043544 L75.1043425,366.043544 L75.1043425,359.644654 Z M77.2222849,364.841875 C78.3256259,364.841875 79.2200604,363.94744 79.2200604,362.844099 C79.2200604,361.740758 78.3256259,360.846324 77.2222849,360.846324 L76.411158,360.846324 L76.411158,364.841875 L77.2222849,364.841875 Z M11.190547,374.980961 C11.4970052,375.448221 12.0138105,375.734711 12.5724669,375.747025 C13.0831765,375.747025 13.4286564,375.491671 13.4286564,375.116149 C13.4286564,374.740627 13.1582808,374.500293 12.5274043,374.290001 L12.0166948,374.09473 C10.9802549,373.734229 10.5146079,373.148415 10.5146079,372.277205 C10.5108065,371.72573 10.7439968,371.199173 11.1549134,370.83136 C11.5658299,370.463546 12.1149055,370.289893 12.6625921,370.354534 C13.4368274,370.332979 14.180322,370.657913 14.6904094,371.240765 L13.819199,372.126996 C13.5395209,371.782113 13.121583,371.578643 12.677613,371.571224 C12.2420078,371.571224 11.8214235,371.766495 11.8214235,372.142017 C11.8214235,372.517539 12.1368617,372.697789 12.8128008,372.953144 L13.3235104,373.133394 C14.2005318,373.352511 14.8183136,374.137094 14.8255972,375.041045 C14.8184472,375.624294 14.5604874,376.176219 14.1176183,376.555821 C13.6747492,376.935423 13.0898644,377.105936 12.5123835,377.023799 C11.5937242,377.05895 10.7189114,376.63001 10.1841488,375.882213 L11.190547,374.980961 Z M17.1538318,370.45968 L18.4606474,370.45968 L18.4606474,376.85857 L17.1538318,376.85857 L17.1538318,370.45968 Z M24.333807,377.023799 C23.4291137,377.069091 22.5454897,376.741029 21.8895465,376.116321 C21.2336033,375.491613 20.8628533,374.625034 20.8639863,373.719208 C20.8512032,372.828405 21.2035946,371.971191 21.8392015,371.346934 C22.4748085,370.722677 23.3382331,370.385787 24.2286609,370.414617 C25.1932634,370.379213 26.1273277,370.756116 26.7972294,371.451057 L25.8959773,372.352309 C25.4561442,371.908291 24.8535221,371.663985 24.2286609,371.67637 C23.4988251,371.692469 22.8330178,372.096708 22.4820423,372.736814 C22.1310667,373.37692 22.1482445,374.155646 22.5271049,374.779653 C22.9059652,375.403659 23.5889503,375.778146 24.3187861,375.762046 C24.7942304,375.788779 25.26634,375.668129 25.6706643,375.416566 L25.6706643,374.305022 L24.2887444,374.305022 L24.2887444,373.088332 L26.9324172,373.088332 L26.9324172,376.092505 C26.2285375,376.742802 25.2905139,377.078972 24.333807,377.023799 L24.333807,377.023799 Z M34.0523089,376.85857 L30.7627387,372.682768 L30.7627387,376.85857 L29.4559231,376.85857 L29.4559231,370.45968 L30.5824883,370.45968 L33.8720585,374.635481 L33.8720585,370.45968 L35.178874,370.45968 L35.178874,376.85857 L34.0523089,376.85857 Z M40.0005728,370.45968 L41.1722005,370.45968 L43.9360403,376.85857 L42.5691413,376.85857 L41.9382648,375.356483 L39.2194876,375.356483 L38.603632,376.85857 L37.2517539,376.85857 L40.0005728,370.45968 Z M41.5026596,374.244939 L40.5563449,372.172059 L39.6701137,374.244939 L41.5026596,374.244939 Z M46.5646923,371.706412 L44.8523133,371.706412 L44.8523133,370.45968 L49.568866,370.45968 L49.568866,371.706412 L47.8715079,371.706412 L47.8715079,376.85857 L46.5646923,376.85857 L46.5646923,371.706412 Z M54.3755439,377.023799 C53.6707382,377.059367 52.9841919,376.792796 52.4880608,376.290929 C51.9919297,375.789062 51.7332669,375.099498 51.7769337,374.395147 L51.7769337,370.519763 L53.0837493,370.519763 L53.0837493,374.410168 C53.0301746,374.907722 53.2654444,375.39218 53.6896085,375.657727 C54.1137726,375.923274 54.6523361,375.923274 55.0765003,375.657727 C55.5006644,375.39218 55.7359341,374.907722 55.6823595,374.410168 L55.6823595,370.519763 L56.9891751,370.519763 L56.9891751,374.395147 C57.0283753,375.100953 56.7661527,375.790227 56.2677379,376.291507 C55.7693232,376.792786 55.0815625,377.058954 54.3755439,377.023799 L54.3755439,377.023799 Z M59.6929314,370.45968 L62.141333,370.45968 C62.6597366,370.425707 63.1684889,370.611562 63.542918,370.9717 C63.9173471,371.331838 64.1228498,371.832976 64.1090667,372.352309 C64.1264199,373.153531 63.5712874,373.853755 62.7872303,374.019625 L65.0854232,376.85857 L63.5833363,376.85857 L61.3902895,374.169834 L61.0748513,374.169834 L61.0748513,376.85857 L59.7680357,376.85857 L59.6929314,370.45968 Z M61.9911243,373.043269 C62.4717921,373.043269 62.8022512,372.787914 62.8022512,372.352309 C62.8022512,371.916704 62.4717921,371.661349 61.9911243,371.661349 L60.999747,371.661349 L60.999747,373.043269 L61.9911243,373.043269 Z M66.9480109,370.45968 L70.928541,370.45968 L70.928541,371.706412 L68.2548264,371.706412 L68.2548264,373.013227 L70.3877898,373.013227 L70.3877898,374.259959 L68.2548264,374.259959 L68.2548264,375.611838 L70.928541,375.611838 L70.928541,376.85857 L66.9480109,376.85857 L66.9480109,370.45968 Z M143.058752,210.847931 L144.365567,210.847931 L144.365567,213.401479 L147.204511,213.401479 L147.204511,210.847931 L148.511327,210.847931 L148.511327,217.246821 L147.204511,217.246821 L147.204511,214.648211 L144.365567,214.648211 L144.365567,217.246821 L143.058752,217.246821 L143.058752,210.847931 Z M153.287963,210.847931 L154.44457,210.847931 L157.20841,217.246821 L155.841511,217.246821 L155.210634,215.744734 L152.491857,215.744734 L151.876001,217.246821 L150.524123,217.246821 L153.287963,210.847931 Z M154.79005,214.648211 L153.903819,212.56031 L153.017587,214.648211 L154.79005,214.648211 Z M159.656811,215.369212 C159.963269,215.836473 160.480075,216.122962 161.038731,216.135277 C161.549441,216.135277 161.894921,215.879922 161.894921,215.5044 C161.894921,215.128879 161.639566,214.888545 161.008689,214.678253 L160.467938,214.482981 C159.431498,214.12248 158.965851,213.536666 158.965851,212.665456 C158.966387,212.112632 159.203024,211.58636 159.61621,211.219084 C160.029396,210.851807 160.579782,210.678503 161.128856,210.742785 C161.898303,210.723628 162.636226,211.048534 163.141653,211.629016 L162.270442,212.515247 C161.999369,212.159697 161.575916,211.953542 161.128856,211.959475 C160.693251,211.959475 160.272667,212.154747 160.272667,212.530268 C160.272667,212.90579 160.588105,213.08604 161.264044,213.341395 L161.774754,213.521646 C162.651775,213.740763 163.269557,214.525346 163.276841,215.429296 C163.255715,215.991681 163.000108,216.519537 162.572008,216.884849 C162.143907,217.250161 161.582418,217.419562 161.02371,217.351967 C160.105051,217.387118 159.230238,216.958177 158.695476,216.210381 L159.656811,215.369212 Z M165.620096,210.847931 L166.926912,210.847931 L166.926912,213.401479 L169.735814,213.401479 L169.735814,210.847931 L171.04263,210.847931 L171.04263,217.246821 L169.735814,217.246821 L169.735814,214.648211 L166.956953,214.648211 L166.956953,217.246821 L165.650138,217.246821 L165.620096,210.847931 Z M173.791448,210.847931 L175.098264,210.847931 L175.098264,217.246821 L173.791448,217.246821 L173.791448,210.847931 Z M182.45849,217.246821 L179.168919,213.07102 L179.168919,217.246821 L177.862104,217.246821 L177.862104,210.847931 L178.988669,210.847931 L182.278239,215.023732 L182.278239,210.847931 L183.585055,210.847931 L183.585055,217.246821 L182.45849,217.246821 Z M189.458214,217.351967 C188.553521,217.397259 187.669897,217.069197 187.013954,216.444489 C186.358011,215.819781 185.987261,214.953202 185.988394,214.047376 C185.975611,213.156573 186.328002,212.299358 186.963609,211.675102 C187.599216,211.050845 188.46264,210.713955 189.353068,210.742785 C190.317671,210.707381 191.251735,211.084284 191.921637,211.779225 L191.020385,212.680477 C190.580552,212.236459 189.977929,211.992153 189.353068,212.004538 C188.623232,212.020637 187.957425,212.424876 187.60645,213.064982 C187.255474,213.705088 187.272652,214.483814 187.651512,215.10782 C188.030373,215.731827 188.713358,216.106313 189.443193,216.090214 C189.918638,216.116947 190.390747,215.996297 190.795072,215.744734 L190.795072,214.648211 L189.413152,214.648211 L189.413152,213.4165 L192.056825,213.4165 L192.056825,216.420673 C191.352945,217.07097 190.414921,217.40714 189.458214,217.351967 L189.458214,217.351967 Z M137.771406,221.662956 L138.928013,221.662956 L141.691852,228.061846 L140.324953,228.061846 L139.709098,226.559759 L136.9753,226.559759 L136.359444,228.061846 L135.007566,228.061846 L137.771406,221.662956 Z M139.273493,225.463236 L138.387261,223.375335 L137.50103,225.463236 L139.273493,225.463236 Z M143.764732,221.662956 L145.071548,221.662956 L145.071548,226.815114 L147.805346,226.815114 L147.805346,228.061846 L143.764732,228.061846 L143.764732,221.662956 Z M152.867379,228.166992 C151.96384,228.207924 151.08272,227.878408 150.427762,227.254638 C149.772804,226.630869 149.400724,225.766861 149.397558,224.862401 C149.384775,223.971599 149.737166,223.114384 150.372773,222.490127 C151.00838,221.86587 151.871805,221.52898 152.762233,221.55781 C153.727173,221.520474 154.661997,221.897684 155.330801,222.59425 L154.429549,223.495502 C153.99385,223.045318 153.388421,222.799874 152.762233,222.819563 C152.032397,222.838346 151.368021,223.245064 151.019369,223.886512 C150.670718,224.527959 150.690758,225.306685 151.071942,225.92935 C151.453126,226.552015 152.137543,226.924022 152.867379,226.905239 C153.338073,226.931814 153.805351,226.811056 154.204236,226.559759 L154.204236,225.463236 L152.822316,225.463236 L152.822316,224.231525 L155.465989,224.231525 L155.465989,227.235699 C154.762109,227.885995 153.824086,228.222165 152.867379,228.166992 L152.867379,228.166992 Z M160.933585,228.166992 C159.10851,228.166992 157.628994,226.687477 157.628994,224.862401 C157.628994,223.037326 159.10851,221.55781 160.933585,221.55781 C162.75866,221.55781 164.238176,223.037326 164.238176,224.862401 C164.238176,226.687477 162.75866,228.166992 160.933585,228.166992 L160.933585,228.166992 Z M160.933585,226.905239 C161.763691,226.923555 162.522303,226.437614 162.852742,225.675891 C163.183182,224.914168 163.019704,224.02822 162.439171,223.434592 C161.858638,222.840965 160.976556,222.657769 160.207653,222.971139 C159.43875,223.284508 158.936012,224.032093 158.93581,224.862401 C158.927788,225.39882 159.134242,225.916245 159.509336,226.299799 C159.884429,226.683353 160.397121,226.901296 160.933585,226.905239 L160.933585,226.905239 Z M166.626494,221.662956 L169.089917,221.662956 C169.6058,221.633374 170.110498,221.821184 170.481546,222.180815 C170.852594,222.540446 171.05608,223.03903 171.04263,223.555586 C171.067473,224.354229 170.517264,225.056219 169.735814,225.222902 L172.034007,228.061846 L170.53192,228.061846 L168.233727,225.313027 L167.903268,225.313027 L167.903268,228.001763 L166.596452,228.001763 L166.626494,221.662956 Z M168.924687,224.246546 C169.420376,224.246546 169.750835,223.991191 169.750835,223.555586 C169.750835,223.119981 169.420376,222.864626 168.924687,222.864626 L167.93331,222.864626 L167.93331,224.246546 L168.924687,224.246546 Z M173.896595,221.662956 L175.20341,221.662956 L175.20341,228.061846 L173.896595,228.061846 L173.896595,221.662956 Z M179.153899,222.909688 L177.45654,222.909688 L177.45654,221.662956 L182.203135,221.662956 L182.203135,222.909688 L180.475735,222.909688 L180.475735,228.061846 L179.153899,228.061846 L179.153899,222.909688 Z M184.456265,221.662956 L185.763081,221.662956 L185.763081,224.216504 L188.52692,224.216504 L188.52692,221.662956 L189.833736,221.662956 L189.833736,228.061846 L188.52692,228.061846 L188.52692,225.463236 L185.763081,225.463236 L185.763081,228.061846 L184.456265,228.061846 L184.456265,221.662956 Z M193.919412,223.901066 L193.919412,228.061846 L192.612597,228.061846 L192.612597,221.662956 L193.769204,221.662956 L195.857104,224.516921 L197.929984,221.662956 L199.131654,221.662956 L199.131654,228.061846 L197.824838,228.061846 L197.824838,223.901066 L195.857104,226.589801 L193.919412,223.901066 Z M214.558086,347.62796 L121.669035,347.62796 C121.359676,347.619816 121.113155,347.366633 121.113263,347.057167 L121.113263,287.334193 C121.113155,287.024727 121.359676,286.771544 121.669035,286.7634 L214.558086,286.7634 C214.867445,286.771544 215.113965,287.024727 215.113858,287.334193 L215.113858,347.057167 C215.113965,347.366633 214.867445,347.619816 214.558086,347.62796 L214.558086,347.62796 Z M122.239828,346.501394 L213.987293,346.501394 L213.987293,287.920007 L122.239828,287.920007 L122.239828,346.501394 Z" id="Shape" fill="#736F7F"></path>
            <polygon id="Path" fill="#63E54C" points="197.914963 294.288856 204.59925 294.288856 204.59925 300.973142 197.914963 300.973142"></polygon>
            <circle id="Oval" fill="#FFE000" cx="134.90242" cy="297.623488" r="3.8153006"></circle>
            <circle id="Oval" fill="#FFE000" cx="188.256545" cy="297.623488" r="3.8153006"></circle>
            <polygon id="Path" fill="#63E54C" points="158.139703 294.288856 164.82399 294.288856 164.82399 300.973142 158.139703 300.973142"></polygon>
            <path d="M175.263494,294.183709 L171.282963,301.078288 L179.229003,301.078288 L175.263494,294.183709 Z M147.88045,294.183709 L143.89992,301.078288 L151.86098,301.078288 L147.88045,294.183709 L147.88045,294.183709 Z" id="Shape" fill="#45D8FF"></path>
            <circle id="Oval" fill="#FFE000" cx="161.504378" cy="336.767872" r="3.8153006"></circle>
            <polygon id="Path" fill="#63E54C" points="144.080171 333.418218 150.764457 333.418218 150.764457 340.102504 144.080171 340.102504"></polygon>
            <polygon id="Path" fill="#45D8FF" points="134.571961 333.313072 130.606452 340.20765 138.552491 340.20765"></polygon>
            <circle id="Oval" fill="#FFE000" cx="188.256545" cy="336.767872" r="3.8153006"></circle>
            <polygon id="Path" fill="#45D8FF" points="201.610097 333.313072 197.629567 340.20765 205.590627 340.20765"></polygon>
            <polygon id="Path" fill="#63E54C" points="172.064049 333.418218 178.748335 333.418218 178.748335 340.102504 172.064049 340.102504"></polygon>
            <path d="M121.293513,324.450759 L116.787253,324.450759 C116.483636,324.442869 116.23937,324.198604 116.23148,323.894987 L116.23148,310.586498 C116.23937,310.282882 116.483636,310.038616 116.787253,310.030726 L121.293513,310.030726 L121.293513,311.157291 L117.388087,311.157291 L117.388087,323.324194 L121.293513,323.324194 L121.293513,324.450759 Z" id="Path" fill="#736F7F"></path>
            <path d="M131.657912,308.663827 L140.069599,308.663827 L140.069599,310.165914 L133.325229,310.165914 L133.325229,314.77732 L139.949432,314.77732 L139.949432,316.279407 L133.325229,316.279407 L133.325229,320.920855 L140.189766,320.920855 L140.189766,322.422942 L131.657912,322.422942 L131.657912,308.663827 Z M152.071273,321.296377 C152.586883,321.313112 153.099817,321.215654 153.573359,321.010981 C153.962855,320.828892 154.306709,320.562021 154.579758,320.229895 C154.837456,319.898079 155.031029,319.521123 155.150551,319.118351 C155.272366,318.688381 155.333045,318.243402 155.330801,317.796515 L155.330801,317.556181 L156.998117,317.556181 L156.998117,317.796515 C157.003232,318.470321 156.896641,319.140316 156.682679,319.779269 C156.481131,320.371121 156.16464,320.917322 155.751385,321.386502 C155.335988,321.849005 154.822897,322.213299 154.249299,322.452984 C153.581662,322.723058 152.866464,322.855881 152.146377,322.843527 C150.78405,322.911982 149.464034,322.359674 148.556389,321.34144 C147.62033,320.141764 147.160302,318.63865 147.264595,317.120576 L147.264595,314.026277 C147.172001,312.518818 147.631172,311.02918 148.556389,309.835454 C149.464034,308.81722 150.78405,308.264912 152.146377,308.333368 C152.866464,308.321013 153.581662,308.453836 154.249299,308.72391 C154.822897,308.963595 155.335988,309.327889 155.751385,309.790392 C156.167624,310.257419 156.484482,310.804256 156.682679,311.397625 C156.896641,312.036578 157.003232,312.706573 156.998117,313.380379 L156.998117,313.605692 L155.330801,313.605692 L155.330801,313.380379 C155.325852,312.932959 155.260161,312.488283 155.13553,312.058543 C155.0108,311.654938 154.812157,311.278026 154.549716,310.946999 C154.287825,310.615848 153.953921,310.348726 153.573359,310.165914 C153.101691,309.9552 152.587354,309.857476 152.071273,309.880517 C151.119601,309.819911 150.206379,310.265107 149.667934,311.052145 C149.103191,311.949878 148.820646,312.996342 148.856807,314.056318 L148.856807,316.910283 C148.784415,318.016561 149.068712,319.116895 149.667934,320.049645 C150.19873,320.853776 151.108194,321.325561 152.071273,321.296377 L152.071273,321.296377 Z M163.502154,308.663827 L168.008414,308.663827 C169.380385,308.544446 170.741775,308.989203 171.778652,309.895538 C172.672141,311.003092 173.102725,312.413255 172.980322,313.831005 L172.980322,317.405972 C173.106731,318.819531 172.675478,320.226495 171.778652,321.326419 C170.745344,322.23901 169.381199,322.684667 168.008414,322.55813 L163.502154,322.55813 L163.502154,321.056043 L164.703823,321.056043 L164.703823,310.27106 L163.502154,310.27106 L163.502154,308.663827 Z M167.828164,321.010981 C168.364462,321.019982 168.899662,320.959393 169.420376,320.83073 C169.830499,320.725608 170.207581,320.518987 170.516899,320.229895 C170.827366,319.911677 171.049921,319.518323 171.162796,319.088309 C171.313777,318.499692 171.384515,317.89337 171.373089,317.285805 L171.373089,313.936152 C171.386397,313.328496 171.31563,312.721919 171.162796,312.133647 C170.954465,311.269131 170.283072,310.591951 169.420376,310.376206 C168.899662,310.247542 168.364462,310.186954 167.828164,310.195955 L166.326077,310.195955 L166.326077,320.99596 L167.828164,321.010981 Z M187.535543,312.674399 C187.548851,312.263909 187.461166,311.856431 187.280188,311.48775 C187.106803,311.14763 186.85441,310.85403 186.544166,310.63156 C186.227317,310.399356 185.871103,310.226338 185.492705,310.120851 C185.088434,309.998964 184.668211,309.938209 184.245973,309.9406 C183.87508,309.936676 183.505624,309.987286 183.14945,310.090809 C182.823629,310.181459 182.514329,310.323433 182.233177,310.511393 C181.973425,310.695732 181.753708,310.930779 181.587279,311.202353 C181.427076,311.491857 181.344296,311.817805 181.346945,312.148668 L181.346945,312.268835 C181.342505,312.609455 181.425237,312.945552 181.587279,313.245192 C181.763485,313.529039 182.00569,313.76609 182.29326,313.936152 C182.652122,314.154233 183.04214,314.316318 183.449867,314.416819 C183.989017,314.557498 184.535634,314.667824 185.087142,314.747278 C186.260614,314.848598 187.378426,315.292589 188.301607,316.024052 C188.990504,316.678262 189.362925,317.59836 189.323026,318.547558 L189.323026,318.787892 C189.335029,319.348382 189.232815,319.905449 189.022609,320.425167 C188.821256,320.916568 188.507423,321.353877 188.106336,321.701941 C187.669758,322.083981 187.158111,322.370503 186.604249,322.543109 C185.938734,322.752469 185.243983,322.853892 184.54639,322.843527 C183.743315,322.854802 182.944682,322.722544 182.188114,322.452984 C181.552857,322.222378 180.974168,321.858777 180.490756,321.386502 C180.030999,320.930779 179.672691,320.383079 179.439295,319.779269 C179.20687,319.13382 179.089924,318.452484 179.093815,317.766473 L179.093815,317.165638 L180.761131,317.165638 L180.761131,317.646306 C180.685414,318.657417 181.046288,319.652553 181.752509,320.380104 C182.536405,321.02425 183.53327,321.351179 184.54639,321.296377 C185.381121,321.361041 186.210305,321.11496 186.874625,320.605417 C187.397562,320.149682 187.684959,319.48093 187.65571,318.787892 L187.65571,318.667725 C187.692269,318.012511 187.392122,317.383901 186.859604,317.000409 C186.0611,316.533122 185.167985,316.250815 184.245973,316.174261 C183.601543,316.095963 182.967162,315.949954 182.353344,315.738656 C181.811511,315.580793 181.302647,315.32636 180.851257,314.987612 C180.463032,314.693931 180.149186,314.3132 179.934984,313.876068 C179.721868,313.404265 179.614221,312.891657 179.619545,312.373981 L179.619545,312.133647 C179.614127,311.612657 179.732537,311.097831 179.965025,310.63156 C180.192286,310.18158 180.509218,309.78286 180.896319,309.459933 C181.342133,309.108857 181.852454,308.848593 182.398406,308.693868 C182.996409,308.508013 183.61979,308.416786 184.245973,308.423493 C184.960878,308.409819 185.67264,308.521667 186.348895,308.753952 C186.902631,308.962454 187.412191,309.273286 187.850981,309.670225 C188.263506,310.035897 188.591537,310.486939 188.812317,310.992061 C189.02173,311.496714 189.128946,312.037897 189.127755,312.584273 L189.127755,313.425442 L187.460439,313.425442 L187.535543,312.674399 Z M203.382559,319.10333 L197.374212,319.10333 L196.367814,322.55813 L194.58033,322.55813 L198.786174,308.663827 L201.925535,308.663827 L206.131378,322.55813 L204.343895,322.55813 L203.382559,319.10333 Z M200.28826,309.429891 L197.884922,317.601243 L202.916912,317.601243 L200.528594,309.429891 L200.28826,309.429891 Z" id="Shape" fill="#B4B1BD"></path>
        </g>
    </g>
</svg>